<?xml version="1.0" standalone="no"?>
<!DOCTYPE svg PUBLIC "-//W3C//DTD SVG 1.1//EN" "http://www.w3.org/Graphics/SVG/1.1/DTD/svg11.dtd" >
<svg>
<metadata>
Created by FontForge 20120731 at Mon Mar 11 17:03:01 2019
 By www-data
copyright missing
</metadata>
<defs>
<font id="SandroUniversal-Regular" horiz-adv-x="518" >
  <font-face 
    font-family="Sandro Universal"
    font-weight="400"
    font-stretch="normal"
    units-per-em="1000"
    panose-1="0 0 5 0 0 0 0 0 0 0"
    ascent="800"
    descent="-200"
    x-height="392"
    cap-height="558"
    bbox="-56 -339 1181 826"
    underline-thickness="50"
    underline-position="-50"
    unicode-range="U+0020-2248"
  />
<missing-glyph horiz-adv-x="550" 
d="M451 800v-1100h-349v1100h349zM366 726h-181v-36h71v-41h-72v-36h182v36h-72v41h72v36zM294 584h-110v-114h182v37h-72v77zM256 547v-40h-36v40h36zM366 440h-182v-36h72v-41h-72v-36h110v77h72v36zM366 374h-36v-72h-146v-38h182v110zM366 240h-110v-61h38v25h36v-52
h-110v88h-36v-124h182v124zM366 50h-182v-124h182v124zM330 14v-52h-110v52h110zM366 -100h-182v-36h77l-77 -52v-36h182v36h-112l77 52h35v36z" />
    <glyph glyph-name=".notdef" horiz-adv-x="550" 
d="M451 800v-1100h-349v1100h349zM366 726h-181v-36h71v-41h-72v-36h182v36h-72v41h72v36zM294 584h-110v-114h182v37h-72v77zM256 547v-40h-36v40h36zM366 440h-182v-36h72v-41h-72v-36h110v77h72v36zM366 374h-36v-72h-146v-38h182v110zM366 240h-110v-61h38v25h36v-52
h-110v88h-36v-124h182v124zM366 50h-182v-124h182v124zM330 14v-52h-110v52h110zM366 -100h-182v-36h77l-77 -52v-36h182v36h-112l77 52h35v36z" />
    <glyph glyph-name="A" unicode="A" horiz-adv-x="612" 
d="M481 117l-3 12c-4 17 -8 33 -11 49l-14 51h-291c-17 -52 -22 -102 -22 -153v-73c0 -11 -8 -19 -19 -19c-7 0 -11 1 -15 13c-2 5 -3 13 -4 24c-1 10 -2 24 -2 42c0 77 14 162 33 241s45 150 69 202c12 26 24 47 35 62s21 23 30 23c28 0 46 -23 66 -39
c56 -45 88 -118 113 -186c21 -57 44 -117 63 -179s32 -125 32 -189c0 -11 -7 -21 -18 -21c-15 0 -20 18 -24 45c-3 13 -5 28 -7 45c-3 17 -6 33 -11 50zM165 270v-15h266c-19 96 -44 162 -72 207c-28 44 -60 69 -89 82c-12 -20 -27 -45 -51 -101c-28 -64 -42 -113 -54 -173z
" />
    <glyph glyph-name="Aacute" unicode="&#xc1;" horiz-adv-x="612" 
d="M415 750l-156 -118h-85l118 118h123zM481 117l-3 12c-4 17 -8 33 -11 49l-14 51h-291c-17 -52 -22 -102 -22 -153v-73c0 -11 -8 -19 -19 -19c-7 0 -11 1 -15 13c-2 5 -3 13 -4 24c-1 10 -2 24 -2 42c0 77 14 162 33 241s45 150 69 202c12 26 24 47 35 62s21 23 30 23
c28 0 46 -23 66 -39c56 -45 88 -118 113 -186c21 -57 44 -117 63 -179s32 -125 32 -189c0 -11 -7 -21 -18 -21c-15 0 -20 18 -24 45c-3 13 -5 28 -7 45c-3 17 -6 33 -11 50zM165 270v-15h266c-19 96 -44 162 -72 207c-28 44 -60 69 -89 82c-12 -20 -27 -45 -51 -101
c-28 -64 -42 -113 -54 -173z" />
    <glyph glyph-name="Acircumflex" unicode="&#xc2;" horiz-adv-x="612" 
d="M267 718l-66 -94h-80l100 141h93l99 -141h-80zM481 117l-3 12c-4 17 -8 33 -11 49l-14 51h-291c-17 -52 -22 -102 -22 -153v-73c0 -11 -8 -19 -19 -19c-7 0 -11 1 -15 13c-2 5 -3 13 -4 24c-1 10 -2 24 -2 42c0 77 14 162 33 241s45 150 69 202c12 26 24 47 35 62
s21 23 30 23c28 0 46 -23 66 -39c56 -45 88 -118 113 -186c21 -57 44 -117 63 -179s32 -125 32 -189c0 -11 -7 -21 -18 -21c-15 0 -20 18 -24 45c-3 13 -5 28 -7 45c-3 17 -6 33 -11 50zM165 270v-15h266c-19 96 -44 162 -72 207c-28 44 -60 69 -89 82
c-12 -20 -27 -45 -51 -101c-28 -64 -42 -113 -54 -173z" />
    <glyph glyph-name="Adieresis" unicode="&#xc4;" horiz-adv-x="612" 
d="M241 695c0 -22 -11 -33 -33 -33c-21 0 -32 11 -32 33s11 33 32 33c22 0 33 -11 33 -33zM391 695c0 -22 -11 -33 -33 -33c-21 0 -32 11 -32 33c0 21 11 32 32 32c22 0 33 -11 33 -32zM481 117l-3 12c-4 17 -8 33 -11 49l-14 51h-291c-17 -52 -22 -102 -22 -153v-73
c0 -11 -8 -19 -19 -19c-7 0 -11 1 -15 13c-2 5 -3 13 -4 24c-1 10 -2 24 -2 42c0 77 14 162 33 241s45 150 69 202c12 26 24 47 35 62s21 23 30 23c28 0 46 -23 66 -39c56 -45 88 -118 113 -186c21 -57 44 -117 63 -179s32 -125 32 -189c0 -11 -7 -21 -18 -21
c-15 0 -20 18 -24 45c-3 13 -5 28 -7 45c-3 17 -6 33 -11 50zM165 270v-15h266c-19 96 -44 162 -72 207c-28 44 -60 69 -89 82c-12 -20 -27 -45 -51 -101c-28 -64 -42 -113 -54 -173z" />
    <glyph glyph-name="Agrave" unicode="&#xc0;" horiz-adv-x="612" 
d="M270 779l89 -141h-67l-131 141h109zM481 117l-3 12c-4 17 -8 33 -11 49l-14 51h-291c-17 -52 -22 -102 -22 -153v-73c0 -11 -8 -19 -19 -19c-7 0 -11 1 -15 13c-2 5 -3 13 -4 24c-1 10 -2 24 -2 42c0 77 14 162 33 241s45 150 69 202c12 26 24 47 35 62s21 23 30 23
c28 0 46 -23 66 -39c56 -45 88 -118 113 -186c21 -57 44 -117 63 -179s32 -125 32 -189c0 -11 -7 -21 -18 -21c-15 0 -20 18 -24 45c-3 13 -5 28 -7 45c-3 17 -6 33 -11 50zM165 270v-15h266c-19 96 -44 162 -72 207c-28 44 -60 69 -89 82c-12 -20 -27 -45 -51 -101
c-28 -64 -42 -113 -54 -173z" />
    <glyph glyph-name="Aring" unicode="&#xc5;" horiz-adv-x="612" 
d="M285 623c-55 0 -102 46 -102 102c0 55 47 101 102 101s102 -45 102 -101s-46 -102 -102 -102zM285 786c-32 0 -62 -29 -62 -61s29 -62 62 -62s62 29 62 62s-30 61 -62 61zM481 117l-3 12c-4 17 -8 33 -11 49l-14 51h-291c-17 -52 -22 -102 -22 -153v-73
c0 -11 -8 -19 -19 -19c-7 0 -11 1 -15 13c-2 5 -3 13 -4 24c-1 10 -2 24 -2 42c0 77 14 162 33 241s45 150 69 202c12 26 24 47 35 62s21 23 30 23c28 0 46 -23 66 -39c56 -45 88 -118 113 -186c21 -57 44 -117 63 -179s32 -125 32 -189c0 -11 -7 -21 -18 -21
c-15 0 -20 18 -24 45c-3 13 -5 28 -7 45c-3 17 -6 33 -11 50zM165 270v-15h266c-19 96 -44 162 -72 207c-28 44 -60 69 -89 82c-12 -20 -27 -45 -51 -101c-28 -64 -42 -113 -54 -173z" />
    <glyph glyph-name="Atilde" unicode="&#xc3;" horiz-adv-x="612" 
d="M103 668c10 15 19 29 26 42c15 24 29 41 45 50c8 4 17 6 28 6c16 0 31 -3 44 -9c5 -3 12 -6 22 -11l30 -15c20 -10 40 -20 45 -20c27 0 38 13 61 64l43 -38c-13 -25 -28 -50 -44 -68s-34 -30 -53 -30c-12 0 -18 2 -30 6c-27 11 -51 24 -71 34s-37 17 -46 17
c-27 0 -38 -29 -62 -73zM481 117l-3 12c-4 17 -8 33 -11 49l-14 51h-291c-17 -52 -22 -102 -22 -153v-73c0 -11 -8 -19 -19 -19c-7 0 -11 1 -15 13c-2 5 -3 13 -4 24c-1 10 -2 24 -2 42c0 77 14 162 33 241s45 150 69 202c12 26 24 47 35 62s21 23 30 23c28 0 46 -23 66 -39
c56 -45 88 -118 113 -186c21 -57 44 -117 63 -179s32 -125 32 -189c0 -11 -7 -21 -18 -21c-15 0 -20 18 -24 45c-3 13 -5 28 -7 45c-3 17 -6 33 -11 50zM165 270v-15h266c-19 96 -44 162 -72 207c-28 44 -60 69 -89 82c-12 -20 -27 -45 -51 -101c-28 -64 -42 -113 -54 -173z
" />
    <glyph glyph-name="B" unicode="B" horiz-adv-x="648" 
d="M36 48h10c56 0 72 26 72 67v365c0 51 -25 67 -72 67h-10v45h268c170 0 258 -48 258 -143c0 -54 -32 -90 -100 -110c90 -37 133 -84 133 -157c0 -37 -13 -72 -37 -100c-47 -54 -106 -74 -278 -74h-244v40zM296 350c100 0 134 27 134 94c0 82 -51 113 -145 113h-36v-207h47
zM249 150c0 -87 17 -98 77 -98c88 0 126 60 126 126c0 95 -46 135 -166 135h-37v-163z" />
    <glyph glyph-name="C" unicode="C" 
d="M264 522c-79 0 -189 -156 -189 -248c0 -129 94 -242 203 -242c72 0 126 47 126 109c0 12 -3 23 -3 33c0 12 6 24 19 24c15 0 19 -15 19 -40c0 -100 -61 -164 -161 -164c-136 0 -241 148 -241 278c0 21 3 41 7 61c8 36 73 227 225 227c14 0 26 -1 36 -5
c16 -6 75 -37 75 -76c0 -9 -12 -16 -20 -16c-5 0 -10 2 -13 5c-27 20 -42 54 -83 54z" />
    <glyph glyph-name="Ccedilla" unicode="&#xc7;" 
d="M264 522c-79 0 -189 -156 -189 -248c0 -129 94 -242 203 -242c72 0 126 47 126 109c0 12 -3 23 -3 33c0 12 6 24 19 24c15 0 19 -15 19 -40c0 -100 -61 -164 -161 -164c-136 0 -241 148 -241 278c0 21 3 41 7 61c8 36 73 227 225 227c14 0 26 -1 36 -5
c16 -6 75 -37 75 -76c0 -9 -12 -16 -20 -16c-5 0 -10 2 -13 5c-27 20 -42 54 -83 54zM101 -86l63 86h48l-46 -60l2 -2c6 2 15 3 24 3c37 0 89 -17 89 -73c0 -70 -64 -92 -124 -92h-8c-29 4 -56 10 -83 21l17 40c22 -8 41 -15 65 -15c32 0 42 10 53 23c3 3 4 9 4 15
c0 14 -7 31 -27 39c-7 3 -14 4 -21 4c-13 0 -27 -4 -39 -8z" />
    <glyph glyph-name="D" unicode="D" horiz-adv-x="482" 
d="M101 610c7 1 83 10 91 10c175 0 322 -190 322 -360c0 -30 -5 -57 -15 -83c-30 -78 -144 -180 -274 -180c-13 0 -45 5 -111 5c-49 0 -53 39 -53 110c0 37 5 120 5 249c0 71 -15 129 -15 198c0 22 13 46 36 49zM265 503c-31 9 -67 14 -106 14c0 -16 3 -36 3 -415
c9 -2 19 -4 44 -4c99 0 208 54 208 162c0 35 -3 82 -28 123c-19 31 -66 104 -121 120z" />
    <glyph glyph-name="E" unicode="E" horiz-adv-x="450" 
d="M117 430h-31c-5 1 -9 1 -13 1h-13v-152h313c9 0 14 -3 14 -8v-7c0 -11 -9 -19 -20 -19h-306c2 -39 3 -74 4 -103c1 -30 3 -60 7 -91h309c15 0 19 -13 19 -25c0 -13 -6 -19 -19 -19h-328c-9 0 -15 4 -18 12c-3 43 -7 83 -12 121s-7 72 -7 103v55c0 39 0 69 1 92
c0 23 1 40 2 51s3 19 6 22c2 3 5 5 10 6c56 9 104 9 151 9c40 0 76 -1 108 -2c31 -1 56 -2 75 -2h34c16 0 34 1 34 -14c0 -12 -9 -20 -20 -20c-156 -8 -244 -10 -300 -10z" />
    <glyph glyph-name="Eacute" unicode="&#xc9;" horiz-adv-x="450" 
d="M345 670l-156 -118h-85l118 118h123zM117 430h-31c-5 1 -9 1 -13 1h-13v-152h313c9 0 14 -3 14 -8v-7c0 -11 -9 -19 -20 -19h-306c2 -39 3 -74 4 -103c1 -30 3 -60 7 -91h309c15 0 19 -13 19 -25c0 -13 -6 -19 -19 -19h-328c-9 0 -15 4 -18 12c-3 43 -7 83 -12 121
s-7 72 -7 103v55c0 39 0 69 1 92c0 23 1 40 2 51s3 19 6 22c2 3 5 5 10 6c56 9 104 9 151 9c40 0 76 -1 108 -2c31 -1 56 -2 75 -2h34c16 0 34 1 34 -14c0 -12 -9 -20 -20 -20c-156 -8 -244 -10 -300 -10z" />
    <glyph glyph-name="Ecircumflex" unicode="&#xca;" horiz-adv-x="450" 
d="M217 638l-66 -94h-80l100 141h93l99 -141h-80zM117 430h-31c-5 1 -9 1 -13 1h-13v-152h313c9 0 14 -3 14 -8v-7c0 -11 -9 -19 -20 -19h-306c2 -39 3 -74 4 -103c1 -30 3 -60 7 -91h309c15 0 19 -13 19 -25c0 -13 -6 -19 -19 -19h-328c-9 0 -15 4 -18 12
c-3 43 -7 83 -12 121s-7 72 -7 103v55c0 39 0 69 1 92c0 23 1 40 2 51s3 19 6 22c2 3 5 5 10 6c56 9 104 9 151 9c40 0 76 -1 108 -2c31 -1 56 -2 75 -2h34c16 0 34 1 34 -14c0 -12 -9 -20 -20 -20c-156 -8 -244 -10 -300 -10z" />
    <glyph glyph-name="Edieresis" unicode="&#xcb;" horiz-adv-x="450" 
d="M171 585c0 -22 -11 -33 -33 -33c-21 0 -32 11 -32 33s11 33 32 33c22 0 33 -11 33 -33zM321 585c0 -22 -11 -33 -33 -33c-21 0 -32 11 -32 33c0 21 11 32 32 32c22 0 33 -11 33 -32zM117 430h-31c-5 1 -9 1 -13 1h-13v-152h313c9 0 14 -3 14 -8v-7c0 -11 -9 -19 -20 -19
h-306c2 -39 3 -74 4 -103c1 -30 3 -60 7 -91h309c15 0 19 -13 19 -25c0 -13 -6 -19 -19 -19h-328c-9 0 -15 4 -18 12c-3 43 -7 83 -12 121s-7 72 -7 103v55c0 39 0 69 1 92c0 23 1 40 2 51s3 19 6 22c2 3 5 5 10 6c56 9 104 9 151 9c40 0 76 -1 108 -2c31 -1 56 -2 75 -2h34
c16 0 34 1 34 -14c0 -12 -9 -20 -20 -20c-156 -8 -244 -10 -300 -10z" />
    <glyph glyph-name="Egrave" unicode="&#xc8;" horiz-adv-x="450" 
d="M210 669l89 -141h-67l-131 141h109zM117 430h-31c-5 1 -9 1 -13 1h-13v-152h313c9 0 14 -3 14 -8v-7c0 -11 -9 -19 -20 -19h-306c2 -39 3 -74 4 -103c1 -30 3 -60 7 -91h309c15 0 19 -13 19 -25c0 -13 -6 -19 -19 -19h-328c-9 0 -15 4 -18 12c-3 43 -7 83 -12 121
s-7 72 -7 103v55c0 39 0 69 1 92c0 23 1 40 2 51s3 19 6 22c2 3 5 5 10 6c56 9 104 9 151 9c40 0 76 -1 108 -2c31 -1 56 -2 75 -2h34c16 0 34 1 34 -14c0 -12 -9 -20 -20 -20c-156 -8 -244 -10 -300 -10z" />
    <glyph glyph-name="F" unicode="F" horiz-adv-x="405" 
d="M63 414c0 -17 2 -52 4 -60l216 8c7 0 16 -3 16 -17c0 -11 -7 -16 -19 -17c-4 0 -76 -7 -210 -7c5 -53 5 -130 5 -193c0 -39 11 -85 11 -107c0 -11 -4 -21 -17 -21c-5 0 -9 3 -13 8c-2 4 -18 55 -18 153c0 121 -10 228 -10 361c0 31 2 57 21 58l283 12c5 0 17 -1 17 -19
c0 -15 -7 -17 -24 -17h-52c-86 0 -110 -1 -202 -8c-7 -1 -8 -31 -8 -59v-75z" />
    <glyph glyph-name="G" unicode="G" horiz-adv-x="733" 
d="M497 200c0 55 -30 67 -78 67h-25v39h299v-39c-51 -4 -66 -22 -66 -67v-128c-84 -35 -163 -54 -252 -54c-108 0 -191 34 -247 87s-85 127 -85 207c0 95 40 170 101 222c60 52 142 81 227 81c68 0 137 -9 202 -32l39 11h16v-168h-37c-36 102 -100 153 -192 153
c-68 0 -122 -28 -158 -72c-37 -45 -57 -107 -57 -176c0 -81 23 -148 61 -195c38 -48 93 -74 158 -74c33 0 63 6 94 21v117z" />
    <glyph glyph-name="H" unicode="H" horiz-adv-x="648" 
d="M238 602v-14h-48v-258h277v258h-49v14h192v-14h-47v-568h47v-14h-192v14h49v297h-277v-297h48v-14h-192v14h49v568h-49v14h192z" />
    <glyph glyph-name="I" unicode="I" horiz-adv-x="350" 
d="M312 537c-9 -3 -26 -4 -49 -4h-65c3 -18 6 -38 8 -60l6 -63c6 -64 10 -114 13 -150c2 -36 3 -63 3 -82c0 -25 -1 -49 -4 -72s-6 -47 -7 -71h31c13 0 29 0 41 -2s21 -9 21 -18s-8 -15 -16 -15h-71l-29 3c-9 0 -19 1 -31 2c-3 0 -9 0 -17 1c-17 0 -39 1 -62 2
c-23 0 -45 1 -54 10c-5 4 -7 8 -7 13c0 9 8 17 17 17c48 0 103 -4 140 -9c7 28 13 80 13 120v48c-1 52 -5 129 -13 214c-4 43 -10 83 -18 121c-11 1 -21 3 -30 4l-30 3c-7 1 -14 1 -22 1c-17 0 -33 1 -44 6c-5 3 -8 7 -8 13c0 9 8 17 17 17c28 0 54 -4 80 -8s54 -8 87 -8h97
c9 0 17 -8 17 -17s-5 -14 -14 -16z" />
    <glyph glyph-name="Iacute" unicode="&#xcd;" horiz-adv-x="350" 
d="M365 740l-156 -118h-85l118 118h123zM312 537c-9 -3 -26 -4 -49 -4h-65c3 -18 6 -38 8 -60l6 -63c6 -64 10 -114 13 -150c2 -36 3 -63 3 -82c0 -25 -1 -49 -4 -72s-6 -47 -7 -71h31c13 0 29 0 41 -2s21 -9 21 -18s-8 -15 -16 -15h-71l-29 3c-9 0 -19 1 -31 2
c-3 0 -9 0 -17 1c-17 0 -39 1 -62 2c-23 0 -45 1 -54 10c-5 4 -7 8 -7 13c0 9 8 17 17 17c48 0 103 -4 140 -9c7 28 13 80 13 120v48c-1 52 -5 129 -13 214c-4 43 -10 83 -18 121c-11 1 -21 3 -30 4l-30 3c-7 1 -14 1 -22 1c-17 0 -33 1 -44 6c-5 3 -8 7 -8 13
c0 9 8 17 17 17c28 0 54 -4 80 -8s54 -8 87 -8h97c9 0 17 -8 17 -17s-5 -14 -14 -16z" />
    <glyph glyph-name="Icircumflex" unicode="&#xce;" horiz-adv-x="350" 
d="M197 708l-66 -94h-80l100 141h93l99 -141h-80zM312 537c-9 -3 -26 -4 -49 -4h-65c3 -18 6 -38 8 -60l6 -63c6 -64 10 -114 13 -150c2 -36 3 -63 3 -82c0 -25 -1 -49 -4 -72s-6 -47 -7 -71h31c13 0 29 0 41 -2s21 -9 21 -18s-8 -15 -16 -15h-71l-29 3c-9 0 -19 1 -31 2
c-3 0 -9 0 -17 1c-17 0 -39 1 -62 2c-23 0 -45 1 -54 10c-5 4 -7 8 -7 13c0 9 8 17 17 17c48 0 103 -4 140 -9c7 28 13 80 13 120v48c-1 52 -5 129 -13 214c-4 43 -10 83 -18 121c-11 1 -21 3 -30 4l-30 3c-7 1 -14 1 -22 1c-17 0 -33 1 -44 6c-5 3 -8 7 -8 13
c0 9 8 17 17 17c28 0 54 -4 80 -8s54 -8 87 -8h97c9 0 17 -8 17 -17s-5 -14 -14 -16z" />
    <glyph glyph-name="Idieresis" unicode="&#xcf;" horiz-adv-x="350" 
d="M150 665c0 -22 -11 -33 -33 -33c-21 0 -32 11 -32 33s11 33 32 33c22 0 33 -11 33 -33zM300 665c0 -22 -11 -33 -33 -33c-21 0 -32 11 -32 33c0 21 11 32 32 32c22 0 33 -11 33 -32zM312 537c-9 -3 -26 -4 -49 -4h-65c3 -18 6 -38 8 -60l6 -63c6 -64 10 -114 13 -150
c2 -36 3 -63 3 -82c0 -25 -1 -49 -4 -72s-6 -47 -7 -71h31c13 0 29 0 41 -2s21 -9 21 -18s-8 -15 -16 -15h-71l-29 3c-9 0 -19 1 -31 2c-3 0 -9 0 -17 1c-17 0 -39 1 -62 2c-23 0 -45 1 -54 10c-5 4 -7 8 -7 13c0 9 8 17 17 17c48 0 103 -4 140 -9c7 28 13 80 13 120v48
c-1 52 -5 129 -13 214c-4 43 -10 83 -18 121c-11 1 -21 3 -30 4l-30 3c-7 1 -14 1 -22 1c-17 0 -33 1 -44 6c-5 3 -8 7 -8 13c0 9 8 17 17 17c28 0 54 -4 80 -8s54 -8 87 -8h97c9 0 17 -8 17 -17s-5 -14 -14 -16z" />
    <glyph glyph-name="Igrave" unicode="&#xcc;" horiz-adv-x="350" 
d="M160 759l89 -141h-67l-131 141h109zM312 537c-9 -3 -26 -4 -49 -4h-65c3 -18 6 -38 8 -60l6 -63c6 -64 10 -114 13 -150c2 -36 3 -63 3 -82c0 -25 -1 -49 -4 -72s-6 -47 -7 -71h31c13 0 29 0 41 -2s21 -9 21 -18s-8 -15 -16 -15h-71l-29 3c-9 0 -19 1 -31 2
c-3 0 -9 0 -17 1c-17 0 -39 1 -62 2c-23 0 -45 1 -54 10c-5 4 -7 8 -7 13c0 9 8 17 17 17c48 0 103 -4 140 -9c7 28 13 80 13 120v48c-1 52 -5 129 -13 214c-4 43 -10 83 -18 121c-11 1 -21 3 -30 4l-30 3c-7 1 -14 1 -22 1c-17 0 -33 1 -44 6c-5 3 -8 7 -8 13
c0 9 8 17 17 17c28 0 54 -4 80 -8s54 -8 87 -8h97c9 0 17 -8 17 -17s-5 -14 -14 -16z" />
    <glyph glyph-name="J" unicode="J" horiz-adv-x="414" 
d="M262 595c27 0 51 -10 51 -53c0 -36 -24 -50 -51 -50s-52 14 -52 50c0 43 25 53 52 53zM300 454v-320c0 -73 -48 -122 -119 -122c-29 0 -57 22 -57 47c0 20 15 38 35 38c19 0 33 -15 33 -34c0 -23 -19 -33 -28 -33c0 -1 1 -2 4 -2c2 -1 7 -2 16 -5c21 0 32 12 32 35v388
h-18v8h102z" />
    <glyph glyph-name="K" unicode="K" horiz-adv-x="546" 
d="M214 263c-22 -11 -43 -23 -64 -36l-63 -38c-1 -5 -1 -12 -1 -21c-1 -9 -1 -24 -1 -46c0 -21 0 -38 1 -52c1 -15 1 -27 2 -36c0 -10 0 -18 1 -23c1 -6 1 -11 1 -14c0 -16 -6 -24 -19 -24c-11 0 -17 11 -20 27c-3 15 -3 34 -3 51v34c0 42 1 86 4 132l6 130l6 110
c1 13 7 20 17 20c8 0 19 -6 19 -15l-12 -231l118 68c19 22 36 42 51 61c30 36 57 66 88 89c15 11 33 21 53 28c13 5 27 11 42 18c15 6 29 9 43 9c7 0 14 -10 14 -17c0 -11 -6 -18 -17 -20c-69 -16 -112 -44 -147 -77c-17 -17 -33 -34 -47 -53s-29 -37 -46 -56
c67 -72 115 -134 145 -178c15 -23 26 -41 33 -54s10 -21 10 -24c0 -7 -7 -10 -14 -10s-15 7 -26 21s-24 33 -40 56c-32 46 -75 108 -134 171z" />
    <glyph glyph-name="L" unicode="L" horiz-adv-x="428" 
d="M98 603c20 0 37 -3 37 -42v-44c0 -22 -1 -43 -4 -64c-5 -41 -8 -91 -11 -158c-2 -33 -3 -64 -3 -93s-1 -54 -3 -75c-3 -21 -4 -38 -5 -49c2 -1 10 -2 23 -3c26 -1 63 -3 102 -3c19 -1 36 -1 50 -1h10c3 0 9 1 20 2v14c0 12 2 29 5 46s9 39 25 43c7 2 16 3 25 3
c21 0 30 -22 30 -39c-1 -4 -2 -10 -2 -19c-1 -17 -2 -31 -5 -51s-8 -41 -19 -56c-5 -8 -13 -12 -22 -12h-14c-3 0 -7 0 -13 1c-7 0 -17 0 -32 1c-30 0 -80 1 -163 1c-40 0 -64 3 -77 10s-16 16 -16 31c0 37 2 59 3 75c1 15 3 24 4 32c13 125 21 252 21 365v53
c0 15 15 32 34 32z" />
    <glyph glyph-name="M" unicode="M" horiz-adv-x="678" 
d="M469 513c-15 -25 -48 -94 -80 -177l-57 -148c-3 -7 -8 -14 -16 -14c-4 0 -10 9 -17 19l-9 15c-3 5 -5 9 -7 12c-28 42 -45 78 -67 118s-47 84 -82 144l-31 -447c0 -15 -7 -21 -18 -21s-17 7 -17 21l34 515c3 12 9 23 21 23c5 0 13 -1 16 -6l174 -331c20 54 38 103 54 148
c31 88 58 152 80 186c11 17 21 25 32 25c6 0 12 -7 18 -20c12 -27 23 -69 32 -117c9 -49 17 -93 21 -124c2 -15 3 -24 4 -27c2 -11 5 -26 7 -43c4 -35 13 -74 20 -116s13 -81 17 -109c2 -15 4 -25 5 -32c0 -19 -11 -26 -18 -26c-11 0 -17 6 -19 18z" />
    <glyph glyph-name="N" unicode="N" horiz-adv-x="820" 
d="M184 110c0 -48 23 -68 74 -68h10v-40h-232v40h10c32 0 50 8 61 21c11 12 13 28 13 47v421c-16 13 -36 19 -56 19h-14v40h190l380 -392v284c0 55 -30 68 -73 68h-10v40h231v-40h-9c-56 0 -74 -21 -74 -68v-482h-55l-446 459v-349z" />
    <glyph glyph-name="Ntilde" unicode="&#xd1;" horiz-adv-x="820" 
d="M213 668c10 15 19 29 26 42c15 24 29 41 45 50c8 4 17 6 28 6c16 0 31 -3 44 -9c5 -3 12 -6 22 -11l30 -15c20 -10 40 -20 45 -20c27 0 38 13 61 64l43 -38c-13 -25 -28 -50 -44 -68s-34 -30 -53 -30c-12 0 -18 2 -30 6c-27 11 -51 24 -71 34s-37 17 -46 17
c-27 0 -38 -29 -62 -73zM184 110c0 -48 23 -68 74 -68h10v-40h-232v40h10c32 0 50 8 61 21c11 12 13 28 13 47v421c-16 13 -36 19 -56 19h-14v40h190l380 -392v284c0 55 -30 68 -73 68h-10v40h231v-40h-9c-56 0 -74 -21 -74 -68v-482h-55l-446 459v-349z" />
    <glyph glyph-name="O" unicode="O" horiz-adv-x="591" 
d="M288 605c81 0 145 -36 189 -92s68 -132 68 -209v-23c0 -92 -29 -162 -76 -209c-47 -48 -111 -73 -180 -73c-68 0 -129 32 -172 85c-44 53 -71 128 -71 215c0 80 20 154 61 210c40 56 101 93 181 96z" />
    <glyph glyph-name="Oacute" unicode="&#xd3;" horiz-adv-x="591" 
d="M455 770l-156 -118h-85l118 118h123zM288 605c81 0 145 -36 189 -92s68 -132 68 -209v-23c0 -92 -29 -162 -76 -209c-47 -48 -111 -73 -180 -73c-68 0 -129 32 -172 85c-44 53 -71 128 -71 215c0 80 20 154 61 210c40 56 101 93 181 96z" />
    <glyph glyph-name="Ocircumflex" unicode="&#xd4;" horiz-adv-x="591" 
d="M277 738l-66 -94h-80l100 141h93l99 -141h-80zM288 605c81 0 145 -36 189 -92s68 -132 68 -209v-23c0 -92 -29 -162 -76 -209c-47 -48 -111 -73 -180 -73c-68 0 -129 32 -172 85c-44 53 -71 128 -71 215c0 80 20 154 61 210c40 56 101 93 181 96z" />
    <glyph glyph-name="Odieresis" unicode="&#xd6;" horiz-adv-x="591" 
d="M231 715c0 -22 -11 -33 -33 -33c-21 0 -32 11 -32 33s11 33 32 33c22 0 33 -11 33 -33zM381 715c0 -22 -11 -33 -33 -33c-21 0 -32 11 -32 33c0 21 11 32 32 32c22 0 33 -11 33 -32zM288 605c81 0 145 -36 189 -92s68 -132 68 -209v-23c0 -92 -29 -162 -76 -209
c-47 -48 -111 -73 -180 -73c-68 0 -129 32 -172 85c-44 53 -71 128 -71 215c0 80 20 154 61 210c40 56 101 93 181 96z" />
    <glyph glyph-name="Ograve" unicode="&#xd2;" horiz-adv-x="591" 
d="M250 799l89 -141h-67l-131 141h109zM288 605c81 0 145 -36 189 -92s68 -132 68 -209v-23c0 -92 -29 -162 -76 -209c-47 -48 -111 -73 -180 -73c-68 0 -129 32 -172 85c-44 53 -71 128 -71 215c0 80 20 154 61 210c40 56 101 93 181 96z" />
    <glyph glyph-name="Otilde" unicode="&#xd5;" horiz-adv-x="591" 
d="M93 698c10 15 19 29 26 42c15 24 29 41 45 50c8 4 17 6 28 6c16 0 31 -3 44 -9c5 -3 12 -6 22 -11l30 -15c20 -10 40 -20 45 -20c27 0 38 13 61 64l43 -38c-13 -25 -28 -50 -44 -68s-34 -30 -53 -30c-12 0 -18 2 -30 6c-27 11 -51 24 -71 34s-37 17 -46 17
c-27 0 -38 -29 -62 -73zM288 605c81 0 145 -36 189 -92s68 -132 68 -209v-23c0 -92 -29 -162 -76 -209c-47 -48 -111 -73 -180 -73c-68 0 -129 32 -172 85c-44 53 -71 128 -71 215c0 80 20 154 61 210c40 56 101 93 181 96z" />
    <glyph glyph-name="P" unicode="P" horiz-adv-x="490" 
d="M36 279c0 97 8 162 32 200c23 38 61 52 121 52c15 0 30 -2 46 -5c21 -7 64 -21 100 -49s67 -68 67 -125c0 -49 -28 -82 -66 -102c-38 -21 -86 -30 -122 -30c-41 0 -87 6 -138 17v-40c-1 -31 -2 -66 -2 -101c-1 -18 -1 -35 -1 -51v-30c0 -11 -8 -17 -19 -17
c-15 0 -18 6 -18 15v266zM76 277c11 -7 34 -12 60 -15c26 -4 55 -6 79 -6c33 0 71 8 100 24s49 40 49 72c0 40 -21 75 -54 100s-77 40 -124 40c-44 0 -70 -15 -85 -41c-16 -26 -21 -63 -22 -103z" />
    <glyph glyph-name="Q" unicode="Q" horiz-adv-x="583" 
d="M489 566c36 -41 55 -95 55 -148c0 -12 -1 -19 -2 -30l-1 -9c-4 -35 -7 -51 -15 -76c-17 -57 -32 -99 -58 -136s-63 -71 -123 -115c4 -43 12 -62 55 -62c16 0 32 3 47 9c3 1 7 4 11 8c8 7 16 15 24 21c3 3 7 4 10 4c8 0 16 -5 16 -14c0 -20 -17 -35 -39 -45
s-49 -16 -68 -16c-31 0 -50 9 -63 22s-19 30 -24 46c-44 -23 -95 -45 -142 -45c-56 0 -92 27 -113 71s-28 103 -28 170v58c0 81 22 170 70 238s120 116 220 116c75 0 131 -27 168 -67zM471 253c23 55 37 117 37 170c0 16 -1 31 -4 43c-4 27 -23 60 -54 87
c-32 27 -75 47 -130 47c-88 0 -149 -57 -184 -96c-36 -40 -57 -89 -65 -158c-5 -35 -7 -76 -7 -125c0 -43 3 -94 19 -136c15 -42 41 -73 89 -73c41 0 93 25 132 55c-1 1 -3 3 -7 5c-9 7 -22 17 -31 30c-5 7 -7 13 -7 19c0 9 5 17 14 17c31 0 48 -29 65 -50l44 37
c35 24 66 72 89 128z" />
    <glyph glyph-name="R" unicode="R" horiz-adv-x="546" 
d="M67 422v19c0 28 4 52 25 69c21 16 60 25 129 25h27c32 0 64 -5 89 -18c24 -13 40 -34 40 -66c0 -68 -26 -90 -61 -101l-18 -6c-17 -6 -37 -10 -58 -12l-62 -6c21 -19 34 -50 42 -78c5 -17 9 -37 14 -62c8 -49 21 -97 45 -129c11 -17 27 -25 46 -25c60 0 89 33 89 62v10
c0 13 5 23 13 23c15 0 19 -12 19 -27c0 -31 -17 -57 -40 -74c-24 -17 -54 -27 -82 -27s-49 11 -64 28c-16 17 -26 39 -33 62c-3 9 -5 20 -8 33l-9 42c-4 15 -8 31 -11 48c-8 32 -15 69 -43 90c-14 11 -31 16 -50 16c4 -50 8 -99 13 -147c4 -49 6 -98 6 -149
c0 -9 -5 -17 -16 -17c-7 0 -16 4 -16 12c0 45 -2 93 -7 142s-9 98 -12 146z" />
    <glyph glyph-name="S" unicode="S" 
d="M178 543c28 9 56 14 84 14c29 0 61 -5 86 -17c24 -12 42 -31 42 -56c0 -11 -4 -32 -20 -32c-9 0 -17 8 -17 16c0 3 1 6 2 9s2 5 2 7c0 13 -13 23 -32 30s-42 10 -63 10c-16 0 -57 -4 -96 -21s-73 -48 -73 -101c0 -24 15 -42 42 -55s63 -23 106 -35
c113 -31 166 -83 166 -142c0 -40 -10 -58 -26 -83s-40 -51 -74 -69c-17 -9 -36 -14 -56 -14l-43 -2c-21 -1 -45 -2 -65 -2c-48 0 -78 33 -78 73c0 36 23 66 58 66c9 0 18 -7 18 -15s-6 -18 -15 -18c-27 -4 -28 -24 -28 -33c0 -27 22 -40 45 -40c5 0 16 0 33 1h48
c48 0 85 19 111 46s39 61 39 90c0 36 -38 82 -127 107c-13 4 -30 9 -51 14c-42 10 -85 27 -114 56c-15 15 -22 33 -22 55c0 60 45 117 118 141z" />
    <glyph glyph-name="Scaron" unicode="&#x160;" 
d="M247 651l66 94h80l-100 -141h-93l-99 141h80zM178 543c28 9 56 14 84 14c29 0 61 -5 86 -17c24 -12 42 -31 42 -56c0 -11 -4 -32 -20 -32c-9 0 -17 8 -17 16c0 3 1 6 2 9s2 5 2 7c0 13 -13 23 -32 30s-42 10 -63 10c-16 0 -57 -4 -96 -21s-73 -48 -73 -101
c0 -24 15 -42 42 -55s63 -23 106 -35c113 -31 166 -83 166 -142c0 -40 -10 -58 -26 -83s-40 -51 -74 -69c-17 -9 -36 -14 -56 -14l-43 -2c-21 -1 -45 -2 -65 -2c-48 0 -78 33 -78 73c0 36 23 66 58 66c9 0 18 -7 18 -15s-6 -18 -15 -18c-27 -4 -28 -24 -28 -33
c0 -27 22 -40 45 -40c5 0 16 0 33 1h48c48 0 85 19 111 46s39 61 39 90c0 36 -38 82 -127 107c-13 4 -30 9 -51 14c-42 10 -85 27 -114 56c-15 15 -22 33 -22 55c0 60 45 117 118 141z" />
    <glyph glyph-name="T" unicode="T" horiz-adv-x="613" 
d="M523 598c12 0 21 -7 21 -20l13 -158c0 -7 -3 -10 -9 -10c-1 0 -3 1 -5 2s-4 5 -5 10c-16 99 -65 160 -116 160h-41v-562h41v-14h-222v14h40v562h-37c-63 0 -104 -51 -123 -152c0 -7 -3 -11 -10 -11c-5 0 -7 7 -7 11l12 147c5 19 9 21 25 21h423z" />
    <glyph glyph-name="U" unicode="U" 
d="M470 31c11 0 15 -9 15 -17c0 -11 -11 -19 -26 -24s-32 -7 -44 -7c-11 0 -30 2 -50 8c-21 6 -42 14 -57 29c-8 -4 -31 -11 -55 -16c-25 -5 -54 -10 -75 -10c-39 0 -66 26 -86 62s-32 83 -39 124c-8 40 -10 75 -10 90v36c0 15 1 42 4 83s8 97 16 168c2 15 8 22 17 22
c19 0 18 -13 18 -26c0 -10 -1 -23 -4 -39c-5 -32 -12 -78 -16 -142c-3 -33 -4 -71 -4 -115c0 -9 2 -23 5 -42s10 -49 21 -89l9 -26c7 -23 20 -45 40 -61c10 -8 22 -12 35 -12c12 0 33 4 57 10c23 6 47 15 67 24c24 84 33 166 42 258l4 42c3 37 5 88 7 145c1 29 1 58 1 87
l2 10c1 5 7 8 16 8c19 0 19 -20 19 -32v-54c0 -76 -6 -160 -17 -242s-24 -165 -40 -237c0 -1 2 -4 7 -7c9 -7 25 -13 42 -17c8 -3 16 -4 23 -4c9 0 20 2 32 7c11 4 19 6 24 6z" />
    <glyph glyph-name="Uacute" unicode="&#xda;" 
d="M385 750l-156 -118h-85l118 118h123zM470 31c11 0 15 -9 15 -17c0 -11 -11 -19 -26 -24s-32 -7 -44 -7c-11 0 -30 2 -50 8c-21 6 -42 14 -57 29c-8 -4 -31 -11 -55 -16c-25 -5 -54 -10 -75 -10c-39 0 -66 26 -86 62s-32 83 -39 124c-8 40 -10 75 -10 90v36
c0 15 1 42 4 83s8 97 16 168c2 15 8 22 17 22c19 0 18 -13 18 -26c0 -10 -1 -23 -4 -39c-5 -32 -12 -78 -16 -142c-3 -33 -4 -71 -4 -115c0 -9 2 -23 5 -42s10 -49 21 -89l9 -26c7 -23 20 -45 40 -61c10 -8 22 -12 35 -12c12 0 33 4 57 10c23 6 47 15 67 24
c24 84 33 166 42 258l4 42c3 37 5 88 7 145c1 29 1 58 1 87l2 10c1 5 7 8 16 8c19 0 19 -20 19 -32v-54c0 -76 -6 -160 -17 -242s-24 -165 -40 -237c0 -1 2 -4 7 -7c9 -7 25 -13 42 -17c8 -3 16 -4 23 -4c9 0 20 2 32 7c11 4 19 6 24 6z" />
    <glyph glyph-name="Ucircumflex" unicode="&#xdb;" 
d="M227 728l-66 -94h-80l100 141h93l99 -141h-80zM470 31c11 0 15 -9 15 -17c0 -11 -11 -19 -26 -24s-32 -7 -44 -7c-11 0 -30 2 -50 8c-21 6 -42 14 -57 29c-8 -4 -31 -11 -55 -16c-25 -5 -54 -10 -75 -10c-39 0 -66 26 -86 62s-32 83 -39 124c-8 40 -10 75 -10 90v36
c0 15 1 42 4 83s8 97 16 168c2 15 8 22 17 22c19 0 18 -13 18 -26c0 -10 -1 -23 -4 -39c-5 -32 -12 -78 -16 -142c-3 -33 -4 -71 -4 -115c0 -9 2 -23 5 -42s10 -49 21 -89l9 -26c7 -23 20 -45 40 -61c10 -8 22 -12 35 -12c12 0 33 4 57 10c23 6 47 15 67 24
c24 84 33 166 42 258l4 42c3 37 5 88 7 145c1 29 1 58 1 87l2 10c1 5 7 8 16 8c19 0 19 -20 19 -32v-54c0 -76 -6 -160 -17 -242s-24 -165 -40 -237c0 -1 2 -4 7 -7c9 -7 25 -13 42 -17c8 -3 16 -4 23 -4c9 0 20 2 32 7c11 4 19 6 24 6z" />
    <glyph glyph-name="Udieresis" unicode="&#xdc;" 
d="M171 695c0 -22 -11 -33 -33 -33c-21 0 -32 11 -32 33s11 33 32 33c22 0 33 -11 33 -33zM321 695c0 -22 -11 -33 -33 -33c-21 0 -32 11 -32 33c0 21 11 32 32 32c22 0 33 -11 33 -32zM470 31c11 0 15 -9 15 -17c0 -11 -11 -19 -26 -24s-32 -7 -44 -7c-11 0 -30 2 -50 8
c-21 6 -42 14 -57 29c-8 -4 -31 -11 -55 -16c-25 -5 -54 -10 -75 -10c-39 0 -66 26 -86 62s-32 83 -39 124c-8 40 -10 75 -10 90v36c0 15 1 42 4 83s8 97 16 168c2 15 8 22 17 22c19 0 18 -13 18 -26c0 -10 -1 -23 -4 -39c-5 -32 -12 -78 -16 -142c-3 -33 -4 -71 -4 -115
c0 -9 2 -23 5 -42s10 -49 21 -89l9 -26c7 -23 20 -45 40 -61c10 -8 22 -12 35 -12c12 0 33 4 57 10c23 6 47 15 67 24c24 84 33 166 42 258l4 42c3 37 5 88 7 145c1 29 1 58 1 87l2 10c1 5 7 8 16 8c19 0 19 -20 19 -32v-54c0 -76 -6 -160 -17 -242s-24 -165 -40 -237
c0 -1 2 -4 7 -7c9 -7 25 -13 42 -17c8 -3 16 -4 23 -4c9 0 20 2 32 7c11 4 19 6 24 6z" />
    <glyph glyph-name="Ugrave" unicode="&#xd9;" 
d="M210 749l89 -141h-67l-131 141h109zM470 31c11 0 15 -9 15 -17c0 -11 -11 -19 -26 -24s-32 -7 -44 -7c-11 0 -30 2 -50 8c-21 6 -42 14 -57 29c-8 -4 -31 -11 -55 -16c-25 -5 -54 -10 -75 -10c-39 0 -66 26 -86 62s-32 83 -39 124c-8 40 -10 75 -10 90v36c0 15 1 42 4 83
s8 97 16 168c2 15 8 22 17 22c19 0 18 -13 18 -26c0 -10 -1 -23 -4 -39c-5 -32 -12 -78 -16 -142c-3 -33 -4 -71 -4 -115c0 -9 2 -23 5 -42s10 -49 21 -89l9 -26c7 -23 20 -45 40 -61c10 -8 22 -12 35 -12c12 0 33 4 57 10c23 6 47 15 67 24c24 84 33 166 42 258l4 42
c3 37 5 88 7 145c1 29 1 58 1 87l2 10c1 5 7 8 16 8c19 0 19 -20 19 -32v-54c0 -76 -6 -160 -17 -242s-24 -165 -40 -237c0 -1 2 -4 7 -7c9 -7 25 -13 42 -17c8 -3 16 -4 23 -4c9 0 20 2 32 7c11 4 19 6 24 6z" />
    <glyph glyph-name="V" unicode="V" horiz-adv-x="552" 
d="M137 337c-13 39 -30 87 -43 130s-23 81 -23 100c0 16 16 28 31 28c19 0 27 -3 36 -26c5 -11 10 -28 16 -49c5 -22 14 -52 25 -89c7 -24 15 -44 27 -74s28 -70 49 -131l15 -41c5 -13 10 -27 15 -40c16 52 25 82 34 123c9 40 18 89 33 180c1 3 2 13 3 29c3 31 11 68 25 96
c7 14 16 21 28 21c24 0 35 -20 35 -39c0 -11 -4 -33 -9 -60s-12 -59 -17 -87c-9 -45 -17 -83 -22 -112c-12 -60 -21 -103 -31 -139c-5 -19 -12 -39 -20 -61c-3 -6 -6 -14 -9 -25c-7 -21 -16 -43 -28 -58c-7 -7 -15 -11 -24 -11c-15 0 -26 8 -33 23c-20 55 -36 101 -49 136
c-25 71 -41 114 -51 140c-5 13 -10 25 -13 36z" />
    <glyph glyph-name="W" unicode="W" horiz-adv-x="847" 
d="M713 471c8 0 13 -7 13 -15c0 -7 -1 -14 -3 -21c-3 -7 -5 -15 -7 -22c-17 -53 -36 -111 -59 -174s-49 -131 -76 -206l-3 -10c-2 -8 -6 -17 -12 -22c-3 -3 -7 -4 -12 -4c-7 0 -17 9 -29 28c-25 36 -55 92 -85 153c-15 30 -29 57 -42 81l-11 -48c-5 -20 -10 -40 -14 -59
c-1 -2 -2 -11 -5 -27c-6 -32 -17 -71 -29 -101c-6 -15 -12 -23 -19 -23c-6 0 -17 12 -33 35c-32 47 -74 120 -117 204c-44 83 -81 161 -104 215c-12 27 -18 43 -18 49c0 12 8 21 17 21c8 0 13 -5 16 -12c13 -40 42 -102 75 -166c32 -65 70 -132 100 -186
c15 -27 27 -50 38 -68c11 -19 17 -30 20 -34c23 76 44 171 61 259c-5 13 -11 26 -18 38s-14 24 -20 37c-3 6 -6 13 -10 20c-8 14 -17 28 -22 40c-3 6 -4 11 -4 14c0 11 6 17 17 17c12 0 24 -21 36 -46l18 -39c6 -14 12 -26 17 -35c2 3 4 13 7 29c5 32 13 71 25 100
c6 14 13 21 21 21c7 0 14 -9 14 -17c0 -17 -7 -42 -16 -72s-19 -66 -27 -103c17 -41 44 -94 70 -142c26 -49 52 -94 69 -119l139 398c3 7 9 12 22 12z" />
    <glyph glyph-name="X" unicode="X" horiz-adv-x="809" 
d="M27 0v41c44 -1 88 27 141 80l161 163l-164 200c-45 55 -77 67 -120 68h-12v41h358v-41c-41 0 -76 -2 -76 -29c0 -11 6 -23 18 -37l88 -110l108 110c15 15 20 27 20 39c0 18 -22 27 -67 27l2 41h250v-41c-57 -4 -100 -39 -145 -84l-133 -136l167 -206
c44 -55 79 -84 135 -85v-41h-324v41h9c32 0 53 7 53 24c0 12 -6 20 -14 31l-117 144l-141 -144c-9 -9 -13 -18 -13 -28c0 -18 24 -27 71 -27v-41h-255z" />
    <glyph glyph-name="Y" unicode="Y" horiz-adv-x="594" 
d="M404 568c3 3 9 4 12 4c7 0 17 -7 17 -16c0 -2 -1 -4 -2 -7c-2 -3 -4 -6 -5 -9c-17 -32 -37 -65 -59 -100s-45 -74 -70 -117c5 -56 8 -105 8 -173v-19c-1 -7 -1 -17 -1 -28c0 -13 0 -37 -3 -57c-4 -20 -9 -37 -21 -37c-11 0 -18 8 -18 17c0 17 1 37 4 58s4 42 4 61
c0 67 -4 121 -8 169c0 3 -3 9 -10 18l-26 33c-20 24 -43 53 -58 74c-29 40 -66 88 -85 127v6c0 9 6 17 17 17c7 0 16 -9 29 -26c13 -18 27 -39 43 -63c31 -49 67 -107 100 -140z" />
    <glyph glyph-name="Yacute" unicode="&#xdd;" horiz-adv-x="594" 
d="M415 730l-156 -118h-85l118 118h123zM404 568c3 3 9 4 12 4c7 0 17 -7 17 -16c0 -2 -1 -4 -2 -7c-2 -3 -4 -6 -5 -9c-17 -32 -37 -65 -59 -100s-45 -74 -70 -117c5 -56 8 -105 8 -173v-19c-1 -7 -1 -17 -1 -28c0 -13 0 -37 -3 -57c-4 -20 -9 -37 -21 -37
c-11 0 -18 8 -18 17c0 17 1 37 4 58s4 42 4 61c0 67 -4 121 -8 169c0 3 -3 9 -10 18l-26 33c-20 24 -43 53 -58 74c-29 40 -66 88 -85 127v6c0 9 6 17 17 17c7 0 16 -9 29 -26c13 -18 27 -39 43 -63c31 -49 67 -107 100 -140z" />
    <glyph glyph-name="Ydieresis" unicode="&#x178;" horiz-adv-x="594" 
d="M221 665c0 -22 -11 -33 -33 -33c-21 0 -32 11 -32 33s11 33 32 33c22 0 33 -11 33 -33zM371 665c0 -22 -11 -33 -33 -33c-21 0 -32 11 -32 33c0 21 11 32 32 32c22 0 33 -11 33 -32zM404 568c3 3 9 4 12 4c7 0 17 -7 17 -16c0 -2 -1 -4 -2 -7c-2 -3 -4 -6 -5 -9
c-17 -32 -37 -65 -59 -100s-45 -74 -70 -117c5 -56 8 -105 8 -173v-19c-1 -7 -1 -17 -1 -28c0 -13 0 -37 -3 -57c-4 -20 -9 -37 -21 -37c-11 0 -18 8 -18 17c0 17 1 37 4 58s4 42 4 61c0 67 -4 121 -8 169c0 3 -3 9 -10 18l-26 33c-20 24 -43 53 -58 74
c-29 40 -66 88 -85 127v6c0 9 6 17 17 17c7 0 16 -9 29 -26c13 -18 27 -39 43 -63c31 -49 67 -107 100 -140z" />
    <glyph glyph-name="Z" unicode="Z" horiz-adv-x="724" 
d="M177 519c1 0 2 0 4 1c1 0 4 0 8 1h16h27c10 0 22 0 36 -1c13 -1 27 -1 42 -1c15 -1 29 -1 43 -2s27 -1 38 -1c5 0 13 1 24 2c22 2 50 4 78 6c14 1 26 1 37 1c16 0 50 0 79 -4c14 -2 27 -5 38 -8c11 -4 16 -9 16 -15c0 -24 -32 -56 -80 -95c-24 -19 -51 -40 -81 -62
c-60 -44 -111 -86 -158 -126c-47 -41 -96 -84 -144 -112c-25 -15 -48 -32 -69 -51c63 -15 125 -15 186 -15c52 0 104 2 155 7c51 4 103 6 158 6c11 0 18 -7 18 -18c0 -9 -9 -17 -17 -17c-51 -2 -103 -4 -155 -7c-53 -3 -106 -5 -159 -5h-58c-37 0 -85 1 -123 5
c-19 2 -35 5 -48 9c-13 3 -19 8 -19 14c0 15 10 28 23 39c12 11 27 20 38 27l108 77c28 21 56 44 101 83c12 10 29 23 52 39c44 32 98 73 150 118c25 23 47 46 66 70c-33 4 -61 6 -100 6c-25 0 -51 -2 -72 -4l-27 -3c-8 -1 -13 -2 -16 -2c-25 0 -54 1 -86 2s-63 2 -93 2h-23
c-5 -1 -8 -1 -11 -1c-11 0 -17 9 -17 18s5 15 15 17z" />
    <glyph glyph-name="Zcaron" unicode="&#x17d;" horiz-adv-x="724" 
d="M387 631l66 94h80l-100 -141h-93l-99 141h80zM177 519c1 0 2 0 4 1c1 0 4 0 8 1h16h27c10 0 22 0 36 -1c13 -1 27 -1 42 -1c15 -1 29 -1 43 -2s27 -1 38 -1c5 0 13 1 24 2c22 2 50 4 78 6c14 1 26 1 37 1c16 0 50 0 79 -4c14 -2 27 -5 38 -8c11 -4 16 -9 16 -15
c0 -24 -32 -56 -80 -95c-24 -19 -51 -40 -81 -62c-60 -44 -111 -86 -158 -126c-47 -41 -96 -84 -144 -112c-25 -15 -48 -32 -69 -51c63 -15 125 -15 186 -15c52 0 104 2 155 7c51 4 103 6 158 6c11 0 18 -7 18 -18c0 -9 -9 -17 -17 -17c-51 -2 -103 -4 -155 -7
c-53 -3 -106 -5 -159 -5h-58c-37 0 -85 1 -123 5c-19 2 -35 5 -48 9c-13 3 -19 8 -19 14c0 15 10 28 23 39c12 11 27 20 38 27l108 77c28 21 56 44 101 83c12 10 29 23 52 39c44 32 98 73 150 118c25 23 47 46 66 70c-33 4 -61 6 -100 6c-25 0 -51 -2 -72 -4l-27 -3
c-8 -1 -13 -2 -16 -2c-25 0 -54 1 -86 2s-63 2 -93 2h-23c-5 -1 -8 -1 -11 -1c-11 0 -17 9 -17 18s5 15 15 17z" />
    <glyph glyph-name="a" unicode="a" horiz-adv-x="460" 
d="M313 275l1 -12c5 -34 10 -63 15 -88s8 -50 8 -75c0 -9 -1 -27 -2 -36c7 -9 20 -15 31 -19l18 -6c13 -4 30 -11 30 -26c0 -11 -9 -17 -20 -17c-35 0 -55 18 -78 33c-24 -9 -51 -17 -77 -24s-50 -11 -65 -11c-36 0 -71 10 -98 30c-28 19 -46 46 -46 79c0 52 37 89 86 117
s110 46 161 57v6c0 45 -10 74 -26 91c-16 16 -38 22 -62 22c-43 0 -69 -29 -86 -57c-9 -14 -16 -27 -21 -39c-6 -12 -12 -18 -17 -18h-7c-9 0 -16 10 -16 21c0 3 2 9 5 17c31 75 74 113 142 113c79 0 124 -39 124 -140v-18zM279 240c-29 0 -66 -10 -99 -26
c-2 -1 -9 -5 -21 -10c-24 -11 -54 -31 -77 -56c-11 -13 -17 -27 -17 -43c0 -7 1 -13 4 -20c1 -2 4 -6 9 -12c10 -13 27 -29 49 -40c11 -6 22 -9 34 -9c60 0 95 10 115 26s25 37 25 60z" />
    <glyph glyph-name="aacute" unicode="&#xe1;" horiz-adv-x="460" 
d="M385 660l-156 -118h-85l118 118h123zM313 275l1 -12c5 -34 10 -63 15 -88s8 -50 8 -75c0 -9 -1 -27 -2 -36c7 -9 20 -15 31 -19l18 -6c13 -4 30 -11 30 -26c0 -11 -9 -17 -20 -17c-35 0 -55 18 -78 33c-24 -9 -51 -17 -77 -24s-50 -11 -65 -11c-36 0 -71 10 -98 30
c-28 19 -46 46 -46 79c0 52 37 89 86 117s110 46 161 57v6c0 45 -10 74 -26 91c-16 16 -38 22 -62 22c-43 0 -69 -29 -86 -57c-9 -14 -16 -27 -21 -39c-6 -12 -12 -18 -17 -18h-7c-9 0 -16 10 -16 21c0 3 2 9 5 17c31 75 74 113 142 113c79 0 124 -39 124 -140v-18zM279 240
c-29 0 -66 -10 -99 -26c-2 -1 -9 -5 -21 -10c-24 -11 -54 -31 -77 -56c-11 -13 -17 -27 -17 -43c0 -7 1 -13 4 -20c1 -2 4 -6 9 -12c10 -13 27 -29 49 -40c11 -6 22 -9 34 -9c60 0 95 10 115 26s25 37 25 60z" />
    <glyph glyph-name="acircumflex" unicode="&#xe2;" horiz-adv-x="460" 
d="M177 608l-66 -94h-80l100 141h93l99 -141h-80zM313 275l1 -12c5 -34 10 -63 15 -88s8 -50 8 -75c0 -9 -1 -27 -2 -36c7 -9 20 -15 31 -19l18 -6c13 -4 30 -11 30 -26c0 -11 -9 -17 -20 -17c-35 0 -55 18 -78 33c-24 -9 -51 -17 -77 -24s-50 -11 -65 -11
c-36 0 -71 10 -98 30c-28 19 -46 46 -46 79c0 52 37 89 86 117s110 46 161 57v6c0 45 -10 74 -26 91c-16 16 -38 22 -62 22c-43 0 -69 -29 -86 -57c-9 -14 -16 -27 -21 -39c-6 -12 -12 -18 -17 -18h-7c-9 0 -16 10 -16 21c0 3 2 9 5 17c31 75 74 113 142 113
c79 0 124 -39 124 -140v-18zM279 240c-29 0 -66 -10 -99 -26c-2 -1 -9 -5 -21 -10c-24 -11 -54 -31 -77 -56c-11 -13 -17 -27 -17 -43c0 -7 1 -13 4 -20c1 -2 4 -6 9 -12c10 -13 27 -29 49 -40c11 -6 22 -9 34 -9c60 0 95 10 115 26s25 37 25 60z" />
    <glyph glyph-name="adieresis" unicode="&#xe4;" horiz-adv-x="460" 
d="M131 525c0 -22 -11 -33 -33 -33c-21 0 -32 11 -32 33s11 33 32 33c22 0 33 -11 33 -33zM281 525c0 -22 -11 -33 -33 -33c-21 0 -32 11 -32 33c0 21 11 32 32 32c22 0 33 -11 33 -32zM313 275l1 -12c5 -34 10 -63 15 -88s8 -50 8 -75c0 -9 -1 -27 -2 -36
c7 -9 20 -15 31 -19l18 -6c13 -4 30 -11 30 -26c0 -11 -9 -17 -20 -17c-35 0 -55 18 -78 33c-24 -9 -51 -17 -77 -24s-50 -11 -65 -11c-36 0 -71 10 -98 30c-28 19 -46 46 -46 79c0 52 37 89 86 117s110 46 161 57v6c0 45 -10 74 -26 91c-16 16 -38 22 -62 22
c-43 0 -69 -29 -86 -57c-9 -14 -16 -27 -21 -39c-6 -12 -12 -18 -17 -18h-7c-9 0 -16 10 -16 21c0 3 2 9 5 17c31 75 74 113 142 113c79 0 124 -39 124 -140v-18zM279 240c-29 0 -66 -10 -99 -26c-2 -1 -9 -5 -21 -10c-24 -11 -54 -31 -77 -56c-11 -13 -17 -27 -17 -43
c0 -7 1 -13 4 -20c1 -2 4 -6 9 -12c10 -13 27 -29 49 -40c11 -6 22 -9 34 -9c60 0 95 10 115 26s25 37 25 60z" />
    <glyph glyph-name="agrave" unicode="&#xe0;" horiz-adv-x="460" 
d="M160 619l89 -141h-67l-131 141h109zM313 275l1 -12c5 -34 10 -63 15 -88s8 -50 8 -75c0 -9 -1 -27 -2 -36c7 -9 20 -15 31 -19l18 -6c13 -4 30 -11 30 -26c0 -11 -9 -17 -20 -17c-35 0 -55 18 -78 33c-24 -9 -51 -17 -77 -24s-50 -11 -65 -11c-36 0 -71 10 -98 30
c-28 19 -46 46 -46 79c0 52 37 89 86 117s110 46 161 57v6c0 45 -10 74 -26 91c-16 16 -38 22 -62 22c-43 0 -69 -29 -86 -57c-9 -14 -16 -27 -21 -39c-6 -12 -12 -18 -17 -18h-7c-9 0 -16 10 -16 21c0 3 2 9 5 17c31 75 74 113 142 113c79 0 124 -39 124 -140v-18zM279 240
c-29 0 -66 -10 -99 -26c-2 -1 -9 -5 -21 -10c-24 -11 -54 -31 -77 -56c-11 -13 -17 -27 -17 -43c0 -7 1 -13 4 -20c1 -2 4 -6 9 -12c10 -13 27 -29 49 -40c11 -6 22 -9 34 -9c60 0 95 10 115 26s25 37 25 60z" />
    <glyph glyph-name="aring" unicode="&#xe5;" horiz-adv-x="460" 
d="M175 483c-55 0 -102 46 -102 102c0 55 47 101 102 101s102 -45 102 -101s-46 -102 -102 -102zM175 646c-32 0 -62 -29 -62 -61s29 -62 62 -62s62 29 62 62s-30 61 -62 61zM313 275l1 -12c5 -34 10 -63 15 -88s8 -50 8 -75c0 -9 -1 -27 -2 -36c7 -9 20 -15 31 -19l18 -6
c13 -4 30 -11 30 -26c0 -11 -9 -17 -20 -17c-35 0 -55 18 -78 33c-24 -9 -51 -17 -77 -24s-50 -11 -65 -11c-36 0 -71 10 -98 30c-28 19 -46 46 -46 79c0 52 37 89 86 117s110 46 161 57v6c0 45 -10 74 -26 91c-16 16 -38 22 -62 22c-43 0 -69 -29 -86 -57
c-9 -14 -16 -27 -21 -39c-6 -12 -12 -18 -17 -18h-7c-9 0 -16 10 -16 21c0 3 2 9 5 17c31 75 74 113 142 113c79 0 124 -39 124 -140v-18zM279 240c-29 0 -66 -10 -99 -26c-2 -1 -9 -5 -21 -10c-24 -11 -54 -31 -77 -56c-11 -13 -17 -27 -17 -43c0 -7 1 -13 4 -20
c1 -2 4 -6 9 -12c10 -13 27 -29 49 -40c11 -6 22 -9 34 -9c60 0 95 10 115 26s25 37 25 60z" />
    <glyph glyph-name="atilde" unicode="&#xe3;" horiz-adv-x="460" 
d="M13 568c10 15 19 29 26 42c15 24 29 41 45 50c8 4 17 6 28 6c16 0 31 -3 44 -9c5 -3 12 -6 22 -11l30 -15c20 -10 40 -20 45 -20c27 0 38 13 61 64l43 -38c-13 -25 -28 -50 -44 -68s-34 -30 -53 -30c-12 0 -18 2 -30 6c-27 11 -51 24 -71 34s-37 17 -46 17
c-27 0 -38 -29 -62 -73zM313 275l1 -12c5 -34 10 -63 15 -88s8 -50 8 -75c0 -9 -1 -27 -2 -36c7 -9 20 -15 31 -19l18 -6c13 -4 30 -11 30 -26c0 -11 -9 -17 -20 -17c-35 0 -55 18 -78 33c-24 -9 -51 -17 -77 -24s-50 -11 -65 -11c-36 0 -71 10 -98 30c-28 19 -46 46 -46 79
c0 52 37 89 86 117s110 46 161 57v6c0 45 -10 74 -26 91c-16 16 -38 22 -62 22c-43 0 -69 -29 -86 -57c-9 -14 -16 -27 -21 -39c-6 -12 -12 -18 -17 -18h-7c-9 0 -16 10 -16 21c0 3 2 9 5 17c31 75 74 113 142 113c79 0 124 -39 124 -140v-18zM279 240
c-29 0 -66 -10 -99 -26c-2 -1 -9 -5 -21 -10c-24 -11 -54 -31 -77 -56c-11 -13 -17 -27 -17 -43c0 -7 1 -13 4 -20c1 -2 4 -6 9 -12c10 -13 27 -29 49 -40c11 -6 22 -9 34 -9c60 0 95 10 115 26s25 37 25 60z" />
    <glyph glyph-name="b" unicode="b" horiz-adv-x="542" 
d="M416 226c15 -19 16 -44 16 -67c0 -49 -20 -87 -49 -111c-29 -25 -68 -38 -107 -38c-47 0 -90 7 -125 28l1 -17c0 -11 -9 -17 -18 -17s-17 8 -17 17c0 21 -2 43 -5 64s-5 42 -5 64c0 7 1 13 2 18s1 11 2 16c12 61 17 141 17 257c0 47 -6 75 -11 100c-5 24 -11 48 -11 84
c0 9 7 17 18 17c7 0 13 -8 18 -24c9 -33 15 -85 18 -143c1 -29 2 -57 2 -82c0 -39 1 -78 -6 -117c33 20 65 25 104 25c67 0 121 -18 156 -74zM395 127c1 7 2 15 2 23c0 28 -7 57 -27 79c-21 22 -56 36 -109 36c-56 0 -86 -14 -101 -37c-16 -24 -17 -55 -17 -88
c0 -72 45 -95 133 -95c63 0 107 39 119 82z" />
    <glyph glyph-name="c" unicode="c" horiz-adv-x="506" 
d="M371 392l23 24c2 2 4 3 7 3c4 0 6 -2 6 -7v-111c0 -4 -1 -6 -3 -6c-1 0 -2 2 -3 5c-20 64 -64 112 -128 112s-84 -41 -84 -110v-176c0 -70 25 -105 76 -105c67 0 114 44 142 133c1 3 2 4 4 4c3 0 4 -1 4 -3v-135c0 -3 -1 -4 -3 -4s-3 0 -3 1s-1 2 -2 3l-17 33
c-41 -30 -83 -45 -125 -45c-56 0 -104 26 -138 66c-34 39 -54 89 -54 140c0 60 22 113 57 150c35 36 82 58 134 58c36 0 72 -10 107 -30z" />
    <glyph glyph-name="ccedilla" unicode="&#xe7;" horiz-adv-x="506" 
d="M411 158c3 0 4 -1 4 -3v-135c0 -3 -1 -4 -3 -4s-3 0 -3 1s-1 2 -2 3l-17 33c-27 -20 -55 -33 -83 -40l-41 -53l2 -2c6 2 15 3 24 3c37 0 89 -17 89 -73c0 -70 -64 -92 -124 -92h-8c-29 4 -56 10 -83 21l17 40c22 -8 41 -15 65 -15c32 0 42 10 53 23c3 3 4 9 4 15
c0 14 -7 31 -27 39c-7 3 -14 4 -21 4c-13 0 -27 -4 -39 -8l-17 19l54 74c-51 3 -96 28 -128 66c-34 39 -54 89 -54 140c0 60 22 113 57 150c35 36 82 58 134 58c36 0 72 -10 107 -30l23 24c2 2 4 3 7 3c4 0 6 -2 6 -7v-111c0 -4 -1 -6 -3 -6c-1 0 -2 2 -3 5
c-20 64 -64 112 -128 112s-84 -41 -84 -110v-176c0 -70 25 -105 76 -105c67 0 114 44 142 133c1 3 2 4 4 4z" />
    <glyph glyph-name="d" unicode="d" horiz-adv-x="434" 
d="M350 630c8 0 13 -8 15 -18s2 -22 2 -29c0 -16 -2 -38 -6 -67c-8 -57 -18 -129 -26 -208c-4 -39 -6 -78 -6 -115v-29c0 -20 2 -38 6 -53c1 -8 3 -16 5 -24c4 -16 7 -34 7 -59c0 -12 -2 -29 -17 -29c-24 0 -21 17 -22 32v2c-24 -28 -71 -36 -119 -36c-68 0 -107 13 -128 37
c-21 23 -25 56 -25 96v21c0 60 18 96 39 117c21 20 46 26 61 26c19 0 49 -7 79 -21s59 -34 79 -58c0 51 6 94 12 139l9 68c3 23 6 49 8 76c0 1 0 8 1 22c0 27 3 62 11 90c3 13 8 20 14 20h1z" />
    <glyph glyph-name="e" unicode="e" horiz-adv-x="429" 
d="M163 163c-21 0 -61 10 -82 19c1 -21 8 -61 28 -95c19 -34 51 -63 103 -63c13 0 23 3 31 9s17 9 26 9c1 0 4 -1 9 -3c5 -3 7 -8 7 -16c0 -15 -16 -22 -35 -28s-40 -8 -49 -8c-53 0 -94 34 -121 82c-28 48 -42 109 -42 164c0 119 56 180 136 180c21 0 40 -4 71 -15
s62 -30 86 -58c11 -15 17 -32 17 -51c0 -48 -29 -80 -66 -99c-37 -20 -83 -27 -119 -27zM79 223c32 -15 74 -25 109 -25c33 0 64 9 86 25c22 15 35 37 35 65c0 25 -21 46 -48 62c-27 15 -62 23 -87 23c-64 0 -96 -48 -96 -124v-13c0 -4 0 -8 1 -13z" />
    <glyph glyph-name="eacute" unicode="&#xe9;" horiz-adv-x="429" 
d="M385 660l-156 -118h-85l118 118h123zM163 163c-21 0 -61 10 -82 19c1 -21 8 -61 28 -95c19 -34 51 -63 103 -63c13 0 23 3 31 9s17 9 26 9c1 0 4 -1 9 -3c5 -3 7 -8 7 -16c0 -15 -16 -22 -35 -28s-40 -8 -49 -8c-53 0 -94 34 -121 82c-28 48 -42 109 -42 164
c0 119 56 180 136 180c21 0 40 -4 71 -15s62 -30 86 -58c11 -15 17 -32 17 -51c0 -48 -29 -80 -66 -99c-37 -20 -83 -27 -119 -27zM79 223c32 -15 74 -25 109 -25c33 0 64 9 86 25c22 15 35 37 35 65c0 25 -21 46 -48 62c-27 15 -62 23 -87 23c-64 0 -96 -48 -96 -124v-13
c0 -4 0 -8 1 -13z" />
    <glyph glyph-name="ecircumflex" unicode="&#xea;" horiz-adv-x="429" 
d="M177 608l-66 -94h-80l100 141h93l99 -141h-80zM163 163c-21 0 -61 10 -82 19c1 -21 8 -61 28 -95c19 -34 51 -63 103 -63c13 0 23 3 31 9s17 9 26 9c1 0 4 -1 9 -3c5 -3 7 -8 7 -16c0 -15 -16 -22 -35 -28s-40 -8 -49 -8c-53 0 -94 34 -121 82c-28 48 -42 109 -42 164
c0 119 56 180 136 180c21 0 40 -4 71 -15s62 -30 86 -58c11 -15 17 -32 17 -51c0 -48 -29 -80 -66 -99c-37 -20 -83 -27 -119 -27zM79 223c32 -15 74 -25 109 -25c33 0 64 9 86 25c22 15 35 37 35 65c0 25 -21 46 -48 62c-27 15 -62 23 -87 23c-64 0 -96 -48 -96 -124v-13
c0 -4 0 -8 1 -13z" />
    <glyph glyph-name="edieresis" unicode="&#xeb;" horiz-adv-x="429" 
d="M131 525c0 -22 -11 -33 -33 -33c-21 0 -32 11 -32 33s11 33 32 33c22 0 33 -11 33 -33zM281 525c0 -22 -11 -33 -33 -33c-21 0 -32 11 -32 33c0 21 11 32 32 32c22 0 33 -11 33 -32zM163 163c-21 0 -61 10 -82 19c1 -21 8 -61 28 -95c19 -34 51 -63 103 -63
c13 0 23 3 31 9s17 9 26 9c1 0 4 -1 9 -3c5 -3 7 -8 7 -16c0 -15 -16 -22 -35 -28s-40 -8 -49 -8c-53 0 -94 34 -121 82c-28 48 -42 109 -42 164c0 119 56 180 136 180c21 0 40 -4 71 -15s62 -30 86 -58c11 -15 17 -32 17 -51c0 -48 -29 -80 -66 -99
c-37 -20 -83 -27 -119 -27zM79 223c32 -15 74 -25 109 -25c33 0 64 9 86 25c22 15 35 37 35 65c0 25 -21 46 -48 62c-27 15 -62 23 -87 23c-64 0 -96 -48 -96 -124v-13c0 -4 0 -8 1 -13z" />
    <glyph glyph-name="egrave" unicode="&#xe8;" horiz-adv-x="429" 
d="M160 619l89 -141h-67l-131 141h109zM163 163c-21 0 -61 10 -82 19c1 -21 8 -61 28 -95c19 -34 51 -63 103 -63c13 0 23 3 31 9s17 9 26 9c1 0 4 -1 9 -3c5 -3 7 -8 7 -16c0 -15 -16 -22 -35 -28s-40 -8 -49 -8c-53 0 -94 34 -121 82c-28 48 -42 109 -42 164
c0 119 56 180 136 180c21 0 40 -4 71 -15s62 -30 86 -58c11 -15 17 -32 17 -51c0 -48 -29 -80 -66 -99c-37 -20 -83 -27 -119 -27zM79 223c32 -15 74 -25 109 -25c33 0 64 9 86 25c22 15 35 37 35 65c0 25 -21 46 -48 62c-27 15 -62 23 -87 23c-64 0 -96 -48 -96 -124v-13
c0 -4 0 -8 1 -13z" />
    <glyph glyph-name="f" unicode="f" horiz-adv-x="344" 
d="M279 581c31 -19 47 -53 47 -85c0 -29 -13 -56 -33 -76s-47 -32 -75 -32c-11 0 -18 6 -18 17c0 16 19 17 31 20c35 4 61 38 61 73c0 19 -10 36 -23 48s-33 20 -50 20c-36 0 -57 -32 -69 -73c-13 -41 -17 -92 -17 -128c12 -5 38 -18 49 -26c9 5 16 10 20 14c3 3 9 5 16 5
s18 -5 18 -16c0 -12 -17 -22 -30 -29c2 -4 5 -8 9 -13c8 -10 15 -24 20 -43c3 -9 4 -20 4 -32c0 -11 -6 -19 -17 -19c-13 0 -18 15 -22 33c-5 18 -10 38 -23 51c-7 -4 -17 -9 -33 -13c4 -19 8 -42 8 -62c0 -21 -1 -40 -4 -57c-3 -18 -5 -38 -5 -59c0 -5 1 -12 2 -20
c1 -9 1 -21 1 -38c0 -23 -10 -22 -21 -22c-9 0 -14 11 -17 24c-3 12 -3 29 -3 41c0 17 1 36 4 57c2 21 3 48 3 81c0 5 -1 19 -3 32l-3 16c-1 5 -2 8 -3 9c-16 4 -36 9 -51 18c-15 8 -26 22 -26 43c0 15 8 24 20 29c11 4 25 6 37 6l16 -1c0 33 6 91 23 139s48 88 96 88
c19 0 40 -7 61 -20zM99 342l-17 1c-13 0 -20 -2 -20 -5c11 -17 15 -23 38 -27v16c0 7 0 12 -1 15zM137 313l12 3c3 0 7 1 11 3c-7 7 -17 13 -25 16z" />
    <glyph glyph-name="g" unicode="g" horiz-adv-x="543" 
d="M153 196c-68 24 -104 68 -104 120c0 39 22 71 56 94s80 36 129 36c52 0 92 -11 132 -31l121 30v-92l-88 19c12 -19 18 -38 18 -55c0 -63 -39 -99 -110 -118c-13 -3 -28 -6 -45 -7c-36 -3 -70 -7 -93 -18c-12 -5 -18 -14 -18 -25c0 -9 10 -17 29 -22s46 -8 82 -8
c147 0 212 -28 212 -108c0 -49 -27 -87 -72 -114s-110 -41 -185 -41c-43 0 -88 7 -123 22s-60 37 -60 68c0 13 4 26 17 40s33 30 68 50c-50 22 -75 49 -75 81c0 44 37 59 109 79zM229 412c-43 0 -65 -28 -65 -84c0 -68 23 -102 69 -102c47 0 69 32 69 84
c0 63 -22 102 -73 102zM165 26c-21 -15 -33 -29 -33 -52c0 -47 54 -76 130 -76c33 0 67 6 92 18c24 12 40 30 40 54c0 31 -26 48 -70 48c-64 0 -119 1 -159 8z" />
    <glyph glyph-name="h" unicode="h" horiz-adv-x="403" 
d="M334 186v-52c0 -3 0 -7 1 -12v-19c0 -19 -2 -42 -7 -61s-17 -33 -34 -33c-28 0 -36 12 -36 39c0 21 2 39 6 56c3 17 5 34 5 52c0 23 -1 53 -9 77c-9 24 -26 43 -55 43h-13c-20 0 -32 -7 -37 -21c-5 -15 -7 -40 -7 -76v-116c0 -19 -18 -39 -33 -39c-37 0 -43 19 -43 43
c0 27 2 68 6 113c3 44 5 92 5 132c0 39 -5 70 -10 105s-10 71 -10 122c0 37 14 50 37 50c32 0 35 -22 35 -41c0 -43 3 -81 8 -113s9 -63 12 -94c15 5 28 7 41 7c55 0 89 -22 110 -53c21 -32 28 -72 28 -109z" />
    <glyph glyph-name="i" unicode="i" horiz-adv-x="185" 
d="M95 592c21 0 35 -21 35 -41s-11 -33 -30 -33c-20 0 -32 23 -32 43s11 31 26 31h1zM123 57l23 -5c12 -3 14 -15 14 -24c0 -12 -8 -29 -23 -29c-7 0 -14 1 -23 4s-18 4 -25 4c-15 0 -31 -1 -46 -4c-17 0 -26 7 -26 21c0 27 12 33 35 36c7 36 11 68 13 105c2 36 2 78 2 134
v11c-1 4 -1 10 -1 17v30c-1 12 -1 28 -1 48c0 16 0 33 3 46s9 22 21 22c23 0 23 -13 23 -42c0 -17 -1 -31 -2 -41c-1 -11 -2 -22 -2 -35c0 -17 1 -33 2 -49c1 -17 2 -34 2 -52c0 -31 0 -56 -2 -85s-7 -64 -12 -109z" />
    <glyph glyph-name="dotlessi" unicode="&#x131;" horiz-adv-x="183" 
d="M123 57l23 -5c12 -3 14 -15 14 -24c0 -12 -8 -29 -23 -29c-7 0 -14 1 -23 4s-18 4 -25 4c-15 0 -31 -1 -46 -4c-17 0 -26 7 -26 21c0 27 12 33 35 36c7 36 11 68 13 105c2 36 2 78 2 134v11c-1 4 -1 10 -1 17v30c-1 12 -1 28 -1 48c0 16 0 33 3 46s9 22 21 22
c23 0 23 -13 23 -42c0 -17 -1 -31 -2 -41c-1 -11 -2 -22 -2 -35c0 -17 1 -33 2 -49c1 -17 2 -34 2 -52c0 -31 0 -56 -2 -85s-7 -64 -12 -109z" />
    <glyph glyph-name="iacute" unicode="&#xed;" horiz-adv-x="185" 
d="M265 690l-156 -118h-85l118 118h123zM123 57l23 -5c12 -3 14 -15 14 -24c0 -12 -8 -29 -23 -29c-7 0 -14 1 -23 4s-18 4 -25 4c-15 0 -31 -1 -46 -4c-17 0 -26 7 -26 21c0 27 12 33 35 36c7 36 11 68 13 105c2 36 2 78 2 134v11c-1 4 -1 10 -1 17v30c-1 12 -1 28 -1 48
c0 16 0 33 3 46s9 22 21 22c23 0 23 -13 23 -42c0 -17 -1 -31 -2 -41c-1 -11 -2 -22 -2 -35c0 -17 1 -33 2 -49c1 -17 2 -34 2 -52c0 -31 0 -56 -2 -85s-7 -64 -12 -109z" />
    <glyph glyph-name="icircumflex" unicode="&#xee;" horiz-adv-x="185" 
d="M97 628l-66 -94h-80l100 141h93l99 -141h-80zM123 57l23 -5c12 -3 14 -15 14 -24c0 -12 -8 -29 -23 -29c-7 0 -14 1 -23 4s-18 4 -25 4c-15 0 -31 -1 -46 -4c-17 0 -26 7 -26 21c0 27 12 33 35 36c7 36 11 68 13 105c2 36 2 78 2 134v11c-1 4 -1 10 -1 17v30
c-1 12 -1 28 -1 48c0 16 0 33 3 46s9 22 21 22c23 0 23 -13 23 -42c0 -17 -1 -31 -2 -41c-1 -11 -2 -22 -2 -35c0 -17 1 -33 2 -49c1 -17 2 -34 2 -52c0 -31 0 -56 -2 -85s-7 -64 -12 -109z" />
    <glyph glyph-name="idieresis" unicode="&#xef;" horiz-adv-x="185" 
d="M45 592c21 0 35 -21 35 -41s-11 -33 -30 -33c-20 0 -32 23 -32 43s11 31 26 31h1zM145 592c21 0 35 -21 35 -41s-11 -33 -30 -33c-20 0 -32 23 -32 43s11 31 26 31h1zM123 57l23 -5c12 -3 14 -15 14 -24c0 -12 -8 -29 -23 -29c-7 0 -14 1 -23 4s-18 4 -25 4
c-15 0 -31 -1 -46 -4c-17 0 -26 7 -26 21c0 27 12 33 35 36c7 36 11 68 13 105c2 36 2 78 2 134v11c-1 4 -1 10 -1 17v30c-1 12 -1 28 -1 48c0 16 0 33 3 46s9 22 21 22c23 0 23 -13 23 -42c0 -17 -1 -31 -2 -41c-1 -11 -2 -22 -2 -35c0 -17 1 -33 2 -49c1 -17 2 -34 2 -52
c0 -31 0 -56 -2 -85s-7 -64 -12 -109z" />
    <glyph glyph-name="igrave" unicode="&#xec;" horiz-adv-x="185" 
d="M-56 661h123l118 -118h-85zM123 57l23 -5c12 -3 14 -15 14 -24c0 -12 -8 -29 -23 -29c-7 0 -14 1 -23 4s-18 4 -25 4c-15 0 -31 -1 -46 -4c-17 0 -26 7 -26 21c0 27 12 33 35 36c7 36 11 68 13 105c2 36 2 78 2 134v11c-1 4 -1 10 -1 17v30c-1 12 -1 28 -1 48
c0 16 0 33 3 46s9 22 21 22c23 0 23 -13 23 -42c0 -17 -1 -31 -2 -41c-1 -11 -2 -22 -2 -35c0 -17 1 -33 2 -49c1 -17 2 -34 2 -52c0 -31 0 -56 -2 -85s-7 -64 -12 -109z" />
    <glyph glyph-name="j" unicode="j" horiz-adv-x="324" 
d="M211 609c15 0 33 -22 33 -43c0 -23 -13 -37 -28 -37c-19 0 -41 22 -41 51c0 9 6 17 14 22c8 4 17 7 22 7zM279 508c11 0 19 -11 19 -22s-7 -22 -19 -22h-11c-5 0 -12 0 -21 1c19 -68 21 -145 21 -213c0 -23 0 -41 1 -54v-37c0 -11 0 -23 1 -35v-47c0 -15 0 -45 -6 -77
c-6 -33 -16 -70 -35 -98s-46 -48 -86 -48c-53 0 -80 33 -93 79s-14 102 -14 153c0 11 9 23 20 23c12 0 18 -13 18 -22v-44c0 -56 6 -92 18 -114c11 -22 28 -30 51 -30c37 0 61 24 75 61c14 36 17 86 17 138c0 41 -2 83 -5 122s-5 73 -5 100c0 16 -1 41 -4 67
c-4 26 -10 54 -19 75c-11 0 -21 -1 -28 -4c-8 -3 -15 -5 -22 -5c-12 0 -19 11 -19 22c0 16 12 24 28 29c15 4 34 4 49 4h10c5 0 12 0 21 -1c8 -1 21 -1 38 -1z" />
    <glyph glyph-name="k" unicode="k" horiz-adv-x="590" 
d="M170 554v-348l185 154h-83v28h215v-28h-75l-135 -112l195 -198h72v-28h-246v28h75l-149 153l-54 -43v-110h73v-28h-222v28h73v476h-73v28h149z" />
    <glyph glyph-name="l" unicode="l" horiz-adv-x="138" 
d="M35 586c2 12 8 18 18 18c9 0 15 -11 18 -27s3 -37 3 -57c0 -40 -2 -72 -5 -106s-5 -70 -5 -114c0 -8 1 -22 3 -42c4 -40 9 -92 13 -143c2 -26 3 -48 3 -67c0 -20 -8 -30 -24 -30c-11 0 -20 7 -20 18c1 16 1 26 1 31v12c0 15 -1 34 -2 55s-2 46 -2 76c0 3 0 9 -1 18
c-1 19 -3 42 -4 64c-1 11 -1 19 -1 26c0 11 1 32 3 65c1 32 2 68 2 109v94z" />
    <glyph glyph-name="m" unicode="m" horiz-adv-x="639" 
d="M578 289c2 -16 4 -40 4 -76c0 -23 -1 -47 -2 -71c-2 -25 -3 -45 -3 -62c0 -11 0 -29 -6 -44s-16 -27 -35 -27c-31 0 -44 23 -44 56c1 7 3 22 5 45c1 23 2 54 2 94c0 28 0 73 -11 111s-32 69 -75 69c-5 0 -20 0 -32 -4c-13 -4 -25 -11 -25 -24c0 0 0 -3 1 -9
c1 -16 4 -42 5 -74c1 -16 1 -31 1 -46c0 -23 -1 -45 -4 -57c-5 -23 -9 -44 -11 -63c-4 -37 -9 -64 -20 -77c-5 -7 -14 -10 -27 -10c-21 0 -41 18 -41 43c0 33 6 65 12 95s12 59 12 91c0 88 -6 137 -58 137h-51c-12 -71 -17 -141 -17 -224c0 -13 1 -27 3 -42
c1 -15 2 -31 2 -48c0 -41 -24 -53 -39 -53c-24 0 -35 13 -41 37c-6 23 -6 56 -6 95c0 89 7 161 15 245c1 17 2 46 9 70s19 44 47 44c31 0 33 -20 37 -41h33c36 0 69 -5 100 -29c24 21 62 28 85 28c40 0 79 -17 110 -44s52 -65 59 -105c1 -5 4 -14 6 -30z" />
    <glyph glyph-name="n" unicode="n" horiz-adv-x="426" 
d="M312 374c37 -45 51 -99 51 -156c0 -20 -4 -74 -11 -123c-4 -25 -8 -46 -13 -65s-11 -29 -18 -29c-16 0 -23 14 -23 29c0 29 6 62 12 95c6 32 12 65 12 94c0 32 -9 76 -32 112c-24 35 -62 63 -118 63c-23 0 -48 -8 -74 -24v-13c0 -47 5 -99 10 -153s10 -110 10 -162
c0 -12 -4 -33 -19 -33c-17 0 -25 9 -25 26v78c0 7 0 13 -1 19s-1 13 -2 20c-11 73 -16 143 -16 220c0 7 0 21 4 33c3 12 10 23 22 23c9 0 17 -9 20 -17c23 16 50 22 78 22c47 0 101 -23 133 -59z" />
    <glyph glyph-name="ntilde" unicode="&#xf1;" horiz-adv-x="426" 
d="M13 568c10 15 19 29 26 42c15 24 29 41 45 50c8 4 17 6 28 6c16 0 31 -3 44 -9c5 -3 12 -6 22 -11l30 -15c20 -10 40 -20 45 -20c27 0 38 13 61 64l43 -38c-13 -25 -28 -50 -44 -68s-34 -30 -53 -30c-12 0 -18 2 -30 6c-27 11 -51 24 -71 34s-37 17 -46 17
c-27 0 -38 -29 -62 -73zM312 374c37 -45 51 -99 51 -156c0 -20 -4 -74 -11 -123c-4 -25 -8 -46 -13 -65s-11 -29 -18 -29c-16 0 -23 14 -23 29c0 29 6 62 12 95c6 32 12 65 12 94c0 32 -9 76 -32 112c-24 35 -62 63 -118 63c-23 0 -48 -8 -74 -24v-13c0 -47 5 -99 10 -153
s10 -110 10 -162c0 -12 -4 -33 -19 -33c-17 0 -25 9 -25 26v78c0 7 0 13 -1 19s-1 13 -2 20c-11 73 -16 143 -16 220c0 7 0 21 4 33c3 12 10 23 22 23c9 0 17 -9 20 -17c23 16 50 22 78 22c47 0 101 -23 133 -59z" />
    <glyph glyph-name="o" unicode="o" horiz-adv-x="468" 
d="M246 -11c-77 0 -128 25 -160 63s-44 88 -44 143c0 49 11 99 35 136c23 37 58 61 105 61c55 0 102 -32 137 -80s55 -111 55 -172v-11c0 -19 -2 -53 -18 -84c-17 -31 -50 -56 -110 -56zM243 19c60 0 91 43 91 119c0 28 -3 57 -14 84c-5 17 -19 50 -42 79
c-23 28 -54 53 -94 53c-45 0 -70 -27 -85 -62c-15 -36 -18 -78 -18 -109c0 -49 19 -91 49 -119c30 -29 70 -45 113 -45z" />
    <glyph glyph-name="oacute" unicode="&#xf3;" horiz-adv-x="468" 
d="M385 660l-156 -118h-85l118 118h123zM246 -11c-77 0 -128 25 -160 63s-44 88 -44 143c0 49 11 99 35 136c23 37 58 61 105 61c55 0 102 -32 137 -80s55 -111 55 -172v-11c0 -19 -2 -53 -18 -84c-17 -31 -50 -56 -110 -56zM243 19c60 0 91 43 91 119c0 28 -3 57 -14 84
c-5 17 -19 50 -42 79c-23 28 -54 53 -94 53c-45 0 -70 -27 -85 -62c-15 -36 -18 -78 -18 -109c0 -49 19 -91 49 -119c30 -29 70 -45 113 -45z" />
    <glyph glyph-name="ocircumflex" unicode="&#xf4;" horiz-adv-x="468" 
d="M177 608l-66 -94h-80l100 141h93l99 -141h-80zM246 -11c-77 0 -128 25 -160 63s-44 88 -44 143c0 49 11 99 35 136c23 37 58 61 105 61c55 0 102 -32 137 -80s55 -111 55 -172v-11c0 -19 -2 -53 -18 -84c-17 -31 -50 -56 -110 -56zM243 19c60 0 91 43 91 119
c0 28 -3 57 -14 84c-5 17 -19 50 -42 79c-23 28 -54 53 -94 53c-45 0 -70 -27 -85 -62c-15 -36 -18 -78 -18 -109c0 -49 19 -91 49 -119c30 -29 70 -45 113 -45z" />
    <glyph glyph-name="odieresis" unicode="&#xf6;" horiz-adv-x="468" 
d="M131 525c0 -22 -11 -33 -33 -33c-21 0 -32 11 -32 33s11 33 32 33c22 0 33 -11 33 -33zM281 525c0 -22 -11 -33 -33 -33c-21 0 -32 11 -32 33c0 21 11 32 32 32c22 0 33 -11 33 -32zM246 -11c-77 0 -128 25 -160 63s-44 88 -44 143c0 49 11 99 35 136c23 37 58 61 105 61
c55 0 102 -32 137 -80s55 -111 55 -172v-11c0 -19 -2 -53 -18 -84c-17 -31 -50 -56 -110 -56zM243 19c60 0 91 43 91 119c0 28 -3 57 -14 84c-5 17 -19 50 -42 79c-23 28 -54 53 -94 53c-45 0 -70 -27 -85 -62c-15 -36 -18 -78 -18 -109c0 -49 19 -91 49 -119
c30 -29 70 -45 113 -45z" />
    <glyph glyph-name="ograve" unicode="&#xf2;" horiz-adv-x="468" 
d="M160 619l89 -141h-67l-131 141h109zM246 -11c-77 0 -128 25 -160 63s-44 88 -44 143c0 49 11 99 35 136c23 37 58 61 105 61c55 0 102 -32 137 -80s55 -111 55 -172v-11c0 -19 -2 -53 -18 -84c-17 -31 -50 -56 -110 -56zM243 19c60 0 91 43 91 119c0 28 -3 57 -14 84
c-5 17 -19 50 -42 79c-23 28 -54 53 -94 53c-45 0 -70 -27 -85 -62c-15 -36 -18 -78 -18 -109c0 -49 19 -91 49 -119c30 -29 70 -45 113 -45z" />
    <glyph glyph-name="otilde" unicode="&#xf5;" horiz-adv-x="468" 
d="M13 568c10 15 19 29 26 42c15 24 29 41 45 50c8 4 17 6 28 6c16 0 31 -3 44 -9c5 -3 12 -6 22 -11l30 -15c20 -10 40 -20 45 -20c27 0 38 13 61 64l43 -38c-13 -25 -28 -50 -44 -68s-34 -30 -53 -30c-12 0 -18 2 -30 6c-27 11 -51 24 -71 34s-37 17 -46 17
c-27 0 -38 -29 -62 -73zM246 -11c-77 0 -128 25 -160 63s-44 88 -44 143c0 49 11 99 35 136c23 37 58 61 105 61c55 0 102 -32 137 -80s55 -111 55 -172v-11c0 -19 -2 -53 -18 -84c-17 -31 -50 -56 -110 -56zM243 19c60 0 91 43 91 119c0 28 -3 57 -14 84
c-5 17 -19 50 -42 79c-23 28 -54 53 -94 53c-45 0 -70 -27 -85 -62c-15 -36 -18 -78 -18 -109c0 -49 19 -91 49 -119c30 -29 70 -45 113 -45z" />
    <glyph glyph-name="p" unicode="p" horiz-adv-x="445" 
d="M90 -157c-8 0 -15 4 -18 12c-5 27 -8 83 -9 152s-2 151 -2 231v140c0 21 5 31 11 36c3 3 6 4 10 5l9 3c31 5 55 6 95 9c97 0 147 -56 147 -159c0 -69 -24 -108 -60 -128c-36 -21 -84 -25 -132 -25h-39c5 -75 6 -125 6 -161v-68c0 -19 -1 -32 -3 -38s-7 -9 -15 -9z" />
    <glyph glyph-name="q" unicode="q" horiz-adv-x="445" 
d="M302 -162c-11 0 -17 7 -17 21c1 64 2 105 2 141v53c0 17 0 37 1 60c-11 1 -22 1 -31 1c-10 0 -19 0 -28 1c-65 4 -107 19 -133 45s-36 61 -36 108c0 59 17 99 44 124c27 24 63 35 103 35c13 0 28 -1 43 -3c9 -1 18 -2 28 -2c19 -1 35 -5 46 -17c5 -7 8 -17 8 -31v-42
c-4 -41 -4 -114 -4 -198v-25c0 -30 0 -76 -2 -131c-1 -28 -3 -55 -5 -82v-45c0 -7 -5 -8 -10 -11c-3 -1 -6 -2 -9 -2zM284 146l10 228h1l-9 3c-12 3 -32 6 -55 9c-12 1 -24 2 -35 2c-71 0 -105 -47 -105 -115c0 -51 16 -83 40 -102s57 -25 92 -25h61z" />
    <glyph glyph-name="r" unicode="r" horiz-adv-x="382" 
d="M243 338c16 0 30 2 43 7c12 5 26 7 41 7c8 0 12 -6 12 -19s-18 -21 -41 -25c-24 -5 -53 -7 -73 -7c-17 0 -36 2 -56 6c-20 3 -38 5 -54 5c-1 0 -2 -1 -5 -4s-5 -8 -8 -17c-6 -18 -12 -50 -12 -107c0 -20 1 -42 3 -65c1 -24 2 -50 2 -78c0 -12 -2 -31 -18 -31
c-11 0 -16 13 -19 32c-4 19 -5 42 -5 63l2 99c1 46 5 98 12 139c3 20 8 37 13 50s12 20 19 20c13 0 19 -6 19 -18l-9 -46c7 0 16 -1 27 -2c22 -3 48 -5 73 -7c13 -1 24 -2 34 -2z" />
    <glyph glyph-name="s" unicode="s" horiz-adv-x="426" 
d="M287 416h35v-99h-35v5c0 24 -13 43 -30 56c-17 12 -40 19 -61 19c-47 0 -77 -27 -77 -66c0 -31 26 -45 59 -57c17 -6 35 -12 55 -17c40 -11 74 -27 97 -55c11 -15 17 -34 17 -57c0 -37 -15 -65 -38 -83c-24 -18 -55 -28 -88 -28c-27 0 -46 3 -64 10s-33 16 -50 31l-5 11
l-4 -1l2 -42h-36v114h36v-4c0 -31 15 -53 36 -68c20 -15 48 -23 72 -23c33 0 54 12 67 26c12 14 16 30 16 39c0 24 -12 38 -30 47c-9 5 -19 9 -30 12s-21 7 -32 11c-45 12 -78 24 -99 42s-31 41 -31 74c0 37 14 65 37 84s52 28 83 28c35 0 58 -7 91 -32l5 -12l5 1z" />
    <glyph glyph-name="scaron" unicode="&#x161;" horiz-adv-x="426" 
d="M207 541l66 94h80l-100 -141h-93l-99 141h80zM287 416h35v-99h-35v5c0 24 -13 43 -30 56c-17 12 -40 19 -61 19c-47 0 -77 -27 -77 -66c0 -31 26 -45 59 -57c17 -6 35 -12 55 -17c40 -11 74 -27 97 -55c11 -15 17 -34 17 -57c0 -37 -15 -65 -38 -83
c-24 -18 -55 -28 -88 -28c-27 0 -46 3 -64 10s-33 16 -50 31l-5 11l-4 -1l2 -42h-36v114h36v-4c0 -31 15 -53 36 -68c20 -15 48 -23 72 -23c33 0 54 12 67 26c12 14 16 30 16 39c0 24 -12 38 -30 47c-9 5 -19 9 -30 12s-21 7 -32 11c-45 12 -78 24 -99 42s-31 41 -31 74
c0 37 14 65 37 84s52 28 83 28c35 0 58 -7 91 -32l5 -12l5 1z" />
    <glyph glyph-name="t" unicode="t" horiz-adv-x="492" 
d="M437 269v-1c9 -17 13 -35 13 -55c0 -15 -2 -29 -6 -44c-27 -107 -104 -159 -195 -159c-43 0 -66 17 -78 41c-13 24 -15 55 -15 83v122c0 9 0 21 1 35c0 14 0 29 1 44c0 31 1 62 4 86h-64c-55 0 -65 11 -65 38c0 31 19 33 64 33h69v63c0 48 3 73 38 73s37 -22 37 -66
c0 -37 -2 -60 -5 -77c5 0 12 0 22 -1l53 -6c6 -1 14 -1 24 -1c19 -1 37 -5 50 -16c6 -5 9 -14 9 -25c0 -27 -18 -35 -37 -35c-12 3 -28 5 -47 6s-46 5 -80 10c-1 -12 -2 -22 -2 -30c-1 -8 -1 -16 -1 -23c-1 -8 -1 -17 -1 -27v-39c-1 -16 -1 -36 -1 -60c-1 -25 -1 -55 -2 -92
c0 -8 0 -24 4 -38s10 -27 22 -27c76 0 131 48 131 132l-10 43c0 16 17 31 36 31c15 0 22 -7 31 -18z" />
    <glyph glyph-name="u" unicode="u" horiz-adv-x="401" 
d="M385 34v-2c0 -13 -7 -19 -20 -19c-29 0 -66 23 -86 63c-28 -39 -58 -59 -90 -59c-59 0 -94 30 -116 78c-22 47 -30 110 -30 175c0 35 0 76 3 108c1 16 3 29 6 40s6 16 11 16c15 0 16 -11 16 -24c0 -1 0 -7 -1 -17c-2 -21 -5 -51 -6 -82c-1 -16 -1 -30 -1 -42
c0 -103 19 -156 43 -186s53 -34 73 -34c56 0 95 56 95 169c0 29 -4 81 -9 114l-3 18c-3 15 -5 30 -7 42c-1 6 -2 10 -2 13c0 9 5 17 14 17c4 0 8 -6 13 -19c8 -25 14 -69 18 -127c2 -29 3 -61 3 -94c0 -21 -4 -35 -12 -66c3 -20 13 -34 24 -45c2 -2 6 -4 13 -6
c13 -5 30 -11 42 -18c6 -4 9 -8 9 -13z" />
    <glyph glyph-name="uacute" unicode="&#xfa;" horiz-adv-x="401" 
d="M325 620l-156 -118h-85l118 118h123zM385 34v-2c0 -13 -7 -19 -20 -19c-29 0 -66 23 -86 63c-28 -39 -58 -59 -90 -59c-59 0 -94 30 -116 78c-22 47 -30 110 -30 175c0 35 0 76 3 108c1 16 3 29 6 40s6 16 11 16c15 0 16 -11 16 -24c0 -1 0 -7 -1 -17
c-2 -21 -5 -51 -6 -82c-1 -16 -1 -30 -1 -42c0 -103 19 -156 43 -186s53 -34 73 -34c56 0 95 56 95 169c0 29 -4 81 -9 114l-3 18c-3 15 -5 30 -7 42c-1 6 -2 10 -2 13c0 9 5 17 14 17c4 0 8 -6 13 -19c8 -25 14 -69 18 -127c2 -29 3 -61 3 -94c0 -21 -4 -35 -12 -66
c3 -20 13 -34 24 -45c2 -2 6 -4 13 -6c13 -5 30 -11 42 -18c6 -4 9 -8 9 -13z" />
    <glyph glyph-name="ucircumflex" unicode="&#xfb;" horiz-adv-x="401" 
d="M177 608l-66 -94h-80l100 141h93l99 -141h-80zM385 34v-2c0 -13 -7 -19 -20 -19c-29 0 -66 23 -86 63c-28 -39 -58 -59 -90 -59c-59 0 -94 30 -116 78c-22 47 -30 110 -30 175c0 35 0 76 3 108c1 16 3 29 6 40s6 16 11 16c15 0 16 -11 16 -24c0 -1 0 -7 -1 -17
c-2 -21 -5 -51 -6 -82c-1 -16 -1 -30 -1 -42c0 -103 19 -156 43 -186s53 -34 73 -34c56 0 95 56 95 169c0 29 -4 81 -9 114l-3 18c-3 15 -5 30 -7 42c-1 6 -2 10 -2 13c0 9 5 17 14 17c4 0 8 -6 13 -19c8 -25 14 -69 18 -127c2 -29 3 -61 3 -94c0 -21 -4 -35 -12 -66
c3 -20 13 -34 24 -45c2 -2 6 -4 13 -6c13 -5 30 -11 42 -18c6 -4 9 -8 9 -13z" />
    <glyph glyph-name="udieresis" unicode="&#xfc;" horiz-adv-x="401" 
d="M131 525c0 -22 -11 -33 -33 -33c-21 0 -32 11 -32 33s11 33 32 33c22 0 33 -11 33 -33zM281 525c0 -22 -11 -33 -33 -33c-21 0 -32 11 -32 33c0 21 11 32 32 32c22 0 33 -11 33 -32zM385 34v-2c0 -13 -7 -19 -20 -19c-29 0 -66 23 -86 63c-28 -39 -58 -59 -90 -59
c-59 0 -94 30 -116 78c-22 47 -30 110 -30 175c0 35 0 76 3 108c1 16 3 29 6 40s6 16 11 16c15 0 16 -11 16 -24c0 -1 0 -7 -1 -17c-2 -21 -5 -51 -6 -82c-1 -16 -1 -30 -1 -42c0 -103 19 -156 43 -186s53 -34 73 -34c56 0 95 56 95 169c0 29 -4 81 -9 114l-3 18
c-3 15 -5 30 -7 42c-1 6 -2 10 -2 13c0 9 5 17 14 17c4 0 8 -6 13 -19c8 -25 14 -69 18 -127c2 -29 3 -61 3 -94c0 -21 -4 -35 -12 -66c3 -20 13 -34 24 -45c2 -2 6 -4 13 -6c13 -5 30 -11 42 -18c6 -4 9 -8 9 -13z" />
    <glyph glyph-name="ugrave" unicode="&#xf9;" horiz-adv-x="401" 
d="M160 619l89 -141h-67l-131 141h109zM385 34v-2c0 -13 -7 -19 -20 -19c-29 0 -66 23 -86 63c-28 -39 -58 -59 -90 -59c-59 0 -94 30 -116 78c-22 47 -30 110 -30 175c0 35 0 76 3 108c1 16 3 29 6 40s6 16 11 16c15 0 16 -11 16 -24c0 -1 0 -7 -1 -17
c-2 -21 -5 -51 -6 -82c-1 -16 -1 -30 -1 -42c0 -103 19 -156 43 -186s53 -34 73 -34c56 0 95 56 95 169c0 29 -4 81 -9 114l-3 18c-3 15 -5 30 -7 42c-1 6 -2 10 -2 13c0 9 5 17 14 17c4 0 8 -6 13 -19c8 -25 14 -69 18 -127c2 -29 3 -61 3 -94c0 -21 -4 -35 -12 -66
c3 -20 13 -34 24 -45c2 -2 6 -4 13 -6c13 -5 30 -11 42 -18c6 -4 9 -8 9 -13z" />
    <glyph glyph-name="v" unicode="v" horiz-adv-x="471" 
d="M53 407v1c0 11 9 12 14 12c16 0 23 -8 28 -23c29 -52 56 -106 81 -163s50 -112 75 -166c5 9 15 33 25 61c5 13 10 28 15 43c10 30 23 65 34 93l25 64c6 15 10 26 15 42c5 15 12 31 21 41c5 5 10 7 16 7c11 0 16 -5 16 -15c0 -6 -1 -13 -4 -21c-8 -27 -18 -53 -32 -85
c-14 -33 -31 -72 -51 -127c-3 -8 -7 -21 -12 -38c-11 -36 -24 -74 -39 -101c-7 -14 -15 -21 -22 -21s-11 1 -18 9c-3 4 -8 11 -13 20c-11 18 -32 56 -37 67c-3 5 -5 10 -6 14l-5 13c-2 5 -6 14 -13 27s-16 33 -29 59c-13 25 -32 60 -55 105c-7 18 -14 34 -20 48s-9 25 -9 34
z" />
    <glyph glyph-name="w" unicode="w" horiz-adv-x="979" 
d="M302 1l-141 339c-11 25 -21 42 -35 52s-30 14 -50 21v35h248v-35c-23 -7 -36 -10 -36 -33c0 -9 3 -21 9 -35l77 -186l83 186c-12 47 -30 64 -63 68v35h238v-35c-39 -4 -48 -13 -48 -36c0 -9 5 -21 10 -33l79 -186l72 172c7 14 10 27 10 38c0 24 -20 39 -60 45v35h197v-35
c-28 -5 -46 -12 -60 -26s-25 -36 -38 -69l-130 -317h-64l-119 277l-115 -277h-64z" />
    <glyph glyph-name="x" unicode="x" horiz-adv-x="471" 
d="M324 329l-38 -47c-1 -2 -4 -5 -7 -9c-7 -8 -15 -18 -20 -27c-3 -5 -4 -8 -4 -11c0 -2 1 -4 2 -6s4 -7 9 -14c13 -20 25 -46 37 -73l18 -39c5 -13 11 -25 18 -36c1 -3 5 -9 11 -18s9 -18 9 -25l-6 -9c-3 -3 -7 -5 -11 -5c-8 0 -16 8 -25 23c-18 30 -38 73 -57 117
c-10 22 -20 40 -29 54c-9 -16 -19 -32 -28 -47l-35 -52c-13 -19 -22 -38 -25 -58c-2 -4 -3 -9 -3 -14c-1 -11 -2 -21 -8 -28c-3 -4 -9 -6 -16 -6c-11 0 -13 7 -13 18c0 31 17 80 56 139c3 5 8 11 13 20c5 8 11 16 16 25c5 8 10 15 14 22c4 6 6 10 6 12c0 -1 -1 1 -4 6
c-5 11 -18 30 -38 57s-46 53 -64 68s-33 27 -41 37c-5 5 -7 10 -7 16c0 8 4 12 12 12c17 0 39 -15 68 -45s61 -70 97 -120l22 28c7 9 14 19 21 28s13 17 19 26c12 17 25 36 44 59c9 11 21 24 34 37c7 4 10 7 17 7c9 0 14 -4 14 -13c0 -12 -21 -35 -42 -56l-16 -24
c-5 -7 -8 -12 -10 -15l-6 -9c-2 -2 -3 -4 -4 -5z" />
    <glyph glyph-name="y" unicode="y" horiz-adv-x="491" 
d="M351 458c4 -21 6 -42 6 -61c0 -73 -26 -140 -49 -211l-18 -57c-12 -37 -24 -76 -39 -111c-7 -17 -14 -34 -19 -53c-12 -37 -29 -71 -56 -91c-14 -11 -32 -16 -55 -16s-50 7 -50 36c0 11 2 22 15 22c12 0 18 -10 23 -25l13 -2c32 0 51 23 66 54c7 15 14 32 19 50
c5 17 11 34 16 49c1 3 3 9 8 18c8 18 17 41 25 63c3 11 5 19 5 26c0 5 -11 16 -23 27s-25 22 -30 29c-19 24 -35 60 -47 101c-12 40 -20 86 -20 129c0 12 4 30 19 30s17 -15 17 -26v-22c4 -47 10 -89 24 -126s35 -72 71 -105c5 21 11 40 17 58c12 35 23 68 29 101
c3 16 4 33 4 51l-6 53c0 12 4 22 17 22c9 0 15 -4 18 -13z" />
    <glyph glyph-name="yacute" unicode="&#xfd;" horiz-adv-x="491" 
d="M405 660l-156 -118h-85l118 118h123zM351 458c4 -21 6 -42 6 -61c0 -73 -26 -140 -49 -211l-18 -57c-12 -37 -24 -76 -39 -111c-7 -17 -14 -34 -19 -53c-12 -37 -29 -71 -56 -91c-14 -11 -32 -16 -55 -16s-50 7 -50 36c0 11 2 22 15 22c12 0 18 -10 23 -25l13 -2
c32 0 51 23 66 54c7 15 14 32 19 50c5 17 11 34 16 49c1 3 3 9 8 18c8 18 17 41 25 63c3 11 5 19 5 26c0 5 -11 16 -23 27s-25 22 -30 29c-19 24 -35 60 -47 101c-12 40 -20 86 -20 129c0 12 4 30 19 30s17 -15 17 -26v-22c4 -47 10 -89 24 -126s35 -72 71 -105
c5 21 11 40 17 58c12 35 23 68 29 101c3 16 4 33 4 51l-6 53c0 12 4 22 17 22c9 0 15 -4 18 -13z" />
    <glyph glyph-name="ydieresis" unicode="&#xff;" horiz-adv-x="491" 
d="M201 595c0 -22 -11 -33 -33 -33c-21 0 -32 11 -32 33s11 33 32 33c22 0 33 -11 33 -33zM351 595c0 -22 -11 -33 -33 -33c-21 0 -32 11 -32 33c0 21 11 32 32 32c22 0 33 -11 33 -32zM351 458c4 -21 6 -42 6 -61c0 -73 -26 -140 -49 -211l-18 -57
c-12 -37 -24 -76 -39 -111c-7 -17 -14 -34 -19 -53c-12 -37 -29 -71 -56 -91c-14 -11 -32 -16 -55 -16s-50 7 -50 36c0 11 2 22 15 22c12 0 18 -10 23 -25l13 -2c32 0 51 23 66 54c7 15 14 32 19 50c5 17 11 34 16 49c1 3 3 9 8 18c8 18 17 41 25 63c3 11 5 19 5 26
c0 5 -11 16 -23 27s-25 22 -30 29c-19 24 -35 60 -47 101c-12 40 -20 86 -20 129c0 12 4 30 19 30s17 -15 17 -26v-22c4 -47 10 -89 24 -126s35 -72 71 -105c5 21 11 40 17 58c12 35 23 68 29 101c3 16 4 33 4 51l-6 53c0 12 4 22 17 22c9 0 15 -4 18 -13z" />
    <glyph glyph-name="z" unicode="z" horiz-adv-x="487" 
d="M59 376v2c0 28 22 34 69 34h12c33 -1 55 -2 75 -2h30h34h110c21 0 53 -1 78 -7c24 -6 44 -18 44 -37c0 -9 -4 -18 -19 -31c-3 -3 -11 -9 -24 -19c-26 -21 -74 -54 -146 -95c-36 -21 -78 -43 -127 -66l-63 -30c19 -3 38 -4 57 -4h13c5 0 17 0 34 1c17 0 42 0 75 1h137
c39 0 43 -11 43 -35c0 -7 -5 -12 -16 -17c-22 -9 -61 -16 -109 -19c-25 -2 -50 -3 -76 -3c-65 0 -134 5 -186 15c-27 5 -48 11 -64 18c-17 7 -25 16 -25 26c0 21 12 35 28 46c8 5 17 10 26 15c19 8 30 13 52 26s60 36 124 72c31 17 71 39 118 64l-96 5c-33 2 -62 3 -87 4
c-52 0 -88 4 -107 13c-9 5 -14 12 -14 23z" />
    <glyph glyph-name="zcaron" unicode="&#x17e;" horiz-adv-x="487" 
d="M247 551l66 94h80l-100 -141h-93l-99 141h80zM59 376v2c0 28 22 34 69 34h12c33 -1 55 -2 75 -2h30h34h110c21 0 53 -1 78 -7c24 -6 44 -18 44 -37c0 -9 -4 -18 -19 -31c-3 -3 -11 -9 -24 -19c-26 -21 -74 -54 -146 -95c-36 -21 -78 -43 -127 -66l-63 -30
c19 -3 38 -4 57 -4h13c5 0 17 0 34 1c17 0 42 0 75 1h137c39 0 43 -11 43 -35c0 -7 -5 -12 -16 -17c-22 -9 -61 -16 -109 -19c-25 -2 -50 -3 -76 -3c-65 0 -134 5 -186 15c-27 5 -48 11 -64 18c-17 7 -25 16 -25 26c0 21 12 35 28 46c8 5 17 10 26 15c19 8 30 13 52 26
s60 36 124 72c31 17 71 39 118 64l-96 5c-33 2 -62 3 -87 4c-52 0 -88 4 -107 13c-9 5 -14 12 -14 23z" />
    <glyph glyph-name="ordfeminine" unicode="&#xaa;" horiz-adv-x="460" 
d="M313 275l1 -12c5 -34 10 -63 15 -88s8 -50 8 -75c0 -9 -1 -27 -2 -36c7 -9 20 -15 31 -19l18 -6c13 -4 30 -11 30 -26c0 -11 -9 -17 -20 -17c-35 0 -55 18 -78 33c-24 -9 -51 -17 -77 -24s-50 -11 -65 -11c-36 0 -71 10 -98 30c-28 19 -46 46 -46 79c0 52 37 89 86 117
s110 46 161 57v6c0 45 -10 74 -26 91c-16 16 -38 22 -62 22c-43 0 -69 -29 -86 -57c-9 -14 -16 -27 -21 -39c-6 -12 -12 -18 -17 -18h-7c-9 0 -16 10 -16 21c0 3 2 9 5 17c31 75 74 113 142 113c79 0 124 -39 124 -140v-18zM279 240c-29 0 -66 -10 -99 -26
c-2 -1 -9 -5 -21 -10c-24 -11 -54 -31 -77 -56c-11 -13 -17 -27 -17 -43c0 -7 1 -13 4 -20c1 -2 4 -6 9 -12c10 -13 27 -29 49 -40c11 -6 22 -9 34 -9c60 0 95 10 115 26s25 37 25 60z" />
    <glyph glyph-name="ordmasculine" unicode="&#xba;" horiz-adv-x="468" 
d="M246 -11c-77 0 -128 25 -160 63s-44 88 -44 143c0 49 11 99 35 136c23 37 58 61 105 61c55 0 102 -32 137 -80s55 -111 55 -172v-11c0 -19 -2 -53 -18 -84c-17 -31 -50 -56 -110 -56zM243 19c60 0 91 43 91 119c0 28 -3 57 -14 84c-5 17 -19 50 -42 79
c-23 28 -54 53 -94 53c-45 0 -70 -27 -85 -62c-15 -36 -18 -78 -18 -109c0 -49 19 -91 49 -119c30 -29 70 -45 113 -45z" />
    <glyph glyph-name="uni0410" unicode="&#x410;" horiz-adv-x="642" 
d="M352 594l195 -575h38v-13h-224v14h38l-55 165h-170l-53 -166h38v-13h-97v13h40l186 575h64zM339 200l-82 239l-79 -239h161z" />
    <glyph glyph-name="uni0411" unicode="&#x411;" horiz-adv-x="500" 
d="M418 538c-35 -4 -98 -8 -165 -11c-33 -1 -66 -3 -99 -4c-33 -2 -60 -3 -83 -4l7 -108c3 -36 6 -72 15 -111c61 23 123 47 187 47c60 0 101 -19 127 -46s36 -63 36 -96c0 -13 -1 -26 -4 -39c-24 -113 -97 -166 -177 -166c-65 0 -111 31 -143 83c-32 51 -52 122 -64 203
c-13 80 -20 169 -25 256c0 7 4 14 15 14l388 18c24 0 33 -24 33 -51c0 -11 -8 -19 -19 -19s-25 11 -29 34zM267 308c-53 0 -114 -18 -166 -46c15 -73 30 -130 54 -167s55 -57 102 -57c45 0 83 21 109 53s40 74 40 117c0 39 -20 63 -47 79c-27 15 -63 21 -92 21z" />
    <glyph glyph-name="uni0412" unicode="&#x412;" horiz-adv-x="490" 
d="M438 475c1 -8 2 -14 2 -19c0 -79 -59 -118 -139 -133c97 -8 154 -67 154 -155c0 -52 -18 -93 -45 -120c-28 -28 -66 -42 -103 -42h-266v14h38v559h-38v14h212c47 0 92 -7 126 -26s56 -48 59 -92zM353 406v95c0 51 -31 78 -96 78h-99v-249h108c53 0 87 33 87 76zM362 220
c0 31 -12 55 -31 71c-20 16 -46 24 -73 24h-100v-295h103c64 0 101 31 101 91v109z" />
    <glyph glyph-name="uni0413" unicode="&#x413;" horiz-adv-x="542" 
d="M462 608c11 0 22 -4 22 -15v-166c0 -5 -2 -7 -7 -7c-3 0 -4 1 -4 4c-8 113 -47 169 -116 169h-174v-573h40v-15h-161v15h41v573h-41v15h400z" />
    <glyph glyph-name="uni0414" unicode="&#x414;" horiz-adv-x="574" 
d="M42 -114l-16 249c0 11 17 17 39 21l34 6c12 1 23 3 33 6l-21 409c0 4 1 12 8 12l226 11c11 0 11 -11 14 -22l26 -398c8 -1 19 -2 34 -2c29 0 59 -2 80 -9c10 -4 15 -10 15 -18v-263c0 -9 -9 -18 -18 -18c-11 0 -19 10 -19 21v240c-46 10 -93 15 -141 15
c-44 0 -97 -4 -146 -9s-96 -14 -128 -22c4 -77 7 -134 10 -173c1 -23 3 -42 4 -58c0 -9 -5 -13 -16 -13c-9 0 -18 6 -18 15zM164 166l189 17l-24 393l-165 -16v-394z" />
    <glyph glyph-name="uni0415" unicode="&#x415;" horiz-adv-x="565" 
d="M457 594c14 0 21 -6 21 -19v-132c0 -5 1 -11 -6 -11c-4 0 -6 2 -6 7c-13 88 -52 141 -120 141h-95v-258h66c25 0 42 26 52 51c5 13 9 24 12 35s5 16 8 16s5 -2 5 -7v-202c0 -4 -1 -9 -6 -9s-5 5 -5 8c0 21 -6 44 -18 63s-30 32 -54 32h-60v-292h109c28 0 50 11 67 27
c16 16 26 36 33 55l3 15c4 20 11 47 20 68c4 11 8 16 12 16c5 0 8 -5 8 -15v-156c0 -13 -7 -24 -22 -24h-409v14h37v563h-37v14h385z" />
    <glyph glyph-name="uni0401" unicode="&#x401;" horiz-adv-x="502" 
d="M254 658c-27 0 -40 13 -40 38s13 37 40 37c28 0 42 -12 42 -37s-14 -38 -42 -38zM137 660h-2c-21 0 -32 11 -32 32s11 32 32 32c22 0 33 -11 33 -32s-10 -32 -31 -32zM202 529h-105v-180c35 3 65 4 91 5c26 0 49 1 68 2c72 0 111 -4 151 -8c11 -3 11 -10 11 -21
c0 -15 -7 -22 -20 -22h-306v-48c0 -40 2 -72 6 -102c2 -15 4 -30 7 -44l6 -45l3 -3h297c15 0 20 -17 20 -28s-7 -23 -18 -23h-325c-7 1 -12 8 -12 15c-12 109 -20 195 -24 266c-5 71 -8 124 -8 171c1 10 2 21 2 33c0 23 1 44 8 60s25 20 45 24s44 5 76 6h54h34
c23 -1 50 -2 85 -2c17 -1 38 -1 62 -1c15 0 29 -1 40 -2s17 -6 17 -15c0 -15 -9 -21 -20 -24c-55 -1 -103 -4 -142 -8c-40 -4 -74 -6 -103 -6z" />
    <glyph glyph-name="uni0416" unicode="&#x416;" horiz-adv-x="1208" 
d="M636 80l10 22c3 7 6 15 9 23c12 25 30 68 58 107s64 73 109 84c21 155 79 217 166 217c24 0 49 -5 76 -16l19 -9c17 -8 36 -19 49 -31c6 -6 9 -12 9 -18c0 -9 -6 -20 -17 -20c-3 0 -6 1 -8 2c-11 6 -22 12 -31 19c-20 12 -39 23 -61 30c-11 3 -24 5 -37 5
c-59 0 -88 -32 -103 -72s-16 -88 -16 -117c0 -36 1 -73 8 -108c0 -19 8 -59 28 -95c19 -36 51 -68 99 -68c59 0 94 20 115 51c20 31 26 69 26 108v25c0 11 11 18 20 18c11 0 17 -10 17 -21c0 -141 -49 -215 -178 -215c-44 0 -76 13 -98 33c-22 19 -34 42 -41 65
c-12 28 -21 55 -27 83s-11 58 -14 95c-39 -16 -67 -47 -94 -91c-28 -45 -52 -103 -81 -171c-7 -12 -16 -16 -23 -16c-8 0 -15 8 -20 24c-12 32 -21 86 -31 154c-10 67 -24 140 -43 211c-10 35 -22 68 -36 97l-185 -392c-11 -23 -26 -50 -45 -72c-20 -22 -44 -38 -75 -38
c-55 0 -92 29 -115 66c-24 36 -34 83 -34 119c0 23 9 55 22 83c12 27 31 48 51 48c11 0 18 -8 18 -19c0 -6 -2 -11 -6 -15c-31 -29 -46 -64 -46 -106c0 -31 10 -65 30 -92c19 -28 46 -48 78 -48c45 0 74 39 91 87c17 47 22 103 22 138c0 53 -8 106 -15 157l-9 45
c-5 23 -14 52 -30 76s-38 42 -69 42c-24 0 -41 -13 -50 -32s-13 -42 -13 -65c3 -7 5 -18 5 -26c0 -11 -7 -19 -18 -19s-17 9 -20 21c-4 12 -4 28 -4 41c0 29 7 60 24 82c16 22 41 37 77 37c12 0 23 -3 34 -7c6 -3 16 -9 30 -20c27 -22 57 -72 78 -159c11 -44 16 -99 16 -166
l147 298c3 7 9 10 20 10c2 -1 6 -7 13 -17c13 -21 31 -63 51 -129c9 -33 18 -73 27 -119z" />
    <glyph glyph-name="uni0417" unicode="&#x417;" 
d="M193 307v36h49c52 0 82 18 98 41s20 51 20 74c0 33 -12 61 -31 78c-20 17 -46 27 -73 27c-69 0 -123 -35 -131 -103h-35v130h35v-47c41 49 91 57 131 57c104 0 168 -54 168 -133c0 -36 -10 -69 -26 -94c-17 -25 -43 -43 -75 -44v-5c41 0 75 -22 97 -53
c22 -32 33 -71 33 -107c0 -52 -21 -94 -55 -122s-82 -44 -134 -44c-63 0 -104 9 -147 52l-11 15v-55h-31v153h34c0 -29 10 -62 34 -87s61 -43 116 -43c47 0 78 18 98 46c19 27 27 62 27 95c0 37 -16 71 -41 95s-61 38 -101 38h-49z" />
    <glyph glyph-name="uni0418" unicode="&#x418;" horiz-adv-x="489" 
d="M338 211l-16 98c-68 -120 -113 -196 -147 -243c-17 -24 -32 -41 -43 -50c-11 -10 -22 -15 -32 -15c-16 0 -36 23 -36 36v484c0 23 25 32 46 32c24 0 34 -18 34 -37v-365c25 36 43 64 58 89s24 48 35 72c5 15 20 55 40 92c19 37 43 70 70 70c12 0 35 -10 35 -33l50 -416
c0 -19 -16 -37 -36 -37c-24 0 -35 18 -39 34z" />
    <glyph glyph-name="uni0419" unicode="&#x419;" horiz-adv-x="615" 
d="M195 587c32 0 67 25 94 61c3 5 7 10 11 17c7 13 15 27 23 36c3 5 7 7 11 7c13 0 21 -12 21 -24c0 -24 -17 -43 -29 -59c-31 -47 -75 -80 -135 -80c-13 0 -38 11 -58 31c-21 19 -39 46 -39 77c0 5 4 23 15 23c12 0 17 -13 28 -30s26 -40 58 -59zM519 35
c-21 59 -38 110 -51 152c-25 83 -45 140 -68 178c-11 19 -26 35 -43 49c-19 -3 -40 -19 -59 -41c-20 -22 -38 -51 -51 -78l-121 -256c-1 -2 -3 -5 -4 -10c-3 -9 -8 -19 -14 -26c-3 -3 -7 -5 -11 -5c-15 0 -20 11 -20 22l-19 435c0 11 9 23 21 23c11 0 20 -12 20 -24l14 -329
c21 40 37 73 51 102s28 57 48 89c17 28 42 66 68 98c26 31 53 55 76 55c19 0 41 -22 61 -49c19 -28 36 -61 45 -85c35 -89 59 -161 75 -212l17 -59c3 -14 5 -21 5 -22c0 -11 -10 -23 -21 -23c-9 0 -16 5 -19 16z" />
    <glyph glyph-name="uni041A" unicode="&#x41a;" horiz-adv-x="569" 
d="M176 246v-203c0 -16 -9 -28 -21 -36c-13 -8 -30 -12 -43 -12c-43 0 -58 16 -58 55v519c0 40 10 57 63 57c28 0 64 -18 64 -50v-184c11 13 35 41 67 71c31 30 70 63 111 88c40 25 81 43 120 43c31 0 57 -25 57 -58s-17 -48 -45 -56c-97 -29 -162 -92 -223 -161
c37 -51 68 -92 93 -125s44 -59 59 -80c14 -21 24 -37 30 -48s9 -21 9 -28c0 -23 -28 -52 -59 -52c-20 0 -33 8 -42 17z" />
    <glyph glyph-name="uni041B" unicode="&#x41b;" horiz-adv-x="578" 
d="M489 143c0 68 -6 152 -17 219c-1 3 -2 9 -3 20c-3 21 -11 52 -25 85s-36 61 -68 80c-16 9 -35 14 -56 14c-32 0 -52 -28 -64 -71c-13 -43 -19 -99 -23 -156s-7 -115 -14 -159c-3 -17 -8 -59 -24 -96s-42 -71 -86 -71c-20 0 -39 12 -52 31s-22 44 -22 69c0 8 7 21 22 21
c17 0 21 -19 25 -39s8 -39 31 -39c27 0 43 27 54 68c11 40 15 93 19 146c1 27 3 53 4 78s3 48 6 67c0 9 2 34 8 62s17 62 34 87s41 44 76 44c41 0 86 -19 123 -60c36 -41 66 -106 77 -198c1 -13 3 -21 4 -26l2 -14c0 -5 0 -12 1 -21c1 -18 4 -51 5 -74l3 -43
c2 -33 3 -78 3 -139c0 -17 -5 -32 -22 -32c-15 0 -21 10 -21 21v126z" />
    <glyph glyph-name="uni041C" unicode="&#x41c;" horiz-adv-x="677" 
d="M196 599l137 -432l137 432h110v-14h-35v-547h35v-14h-141v14h38v537l-171 -551h-10l-169 545v-531h35v-14h-83v14h35v547h-35v14h117z" />
    <glyph glyph-name="uni041D" unicode="&#x41d;" horiz-adv-x="516" 
d="M56 595c13 0 20 -8 20 -23l10 -270l329 -30l17 300c2 11 9 16 20 16s18 -12 18 -23l-17 -296c-1 -8 -1 -16 -1 -23v-23c0 -39 2 -76 7 -110l12 -101c0 -12 -9 -23 -21 -23c-11 0 -18 9 -18 20c-15 83 -19 168 -22 229l-317 25v-206c0 -27 -3 -54 -22 -54
c-11 0 -20 11 -20 22v100c0 121 -5 239 -10 360l-3 92c3 15 11 18 18 18z" />
    <glyph glyph-name="uni041E" unicode="&#x41e;" horiz-adv-x="577" 
d="M46 175c-8 29 -13 56 -13 87c0 79 27 160 74 221c47 60 110 101 185 101c81 0 147 -30 192 -78c44 -49 68 -117 68 -190c0 -108 -42 -190 -98 -243c-57 -53 -128 -80 -188 -80c-105 0 -178 61 -220 182z" />
    <glyph glyph-name="uni041F" unicode="&#x41f;" horiz-adv-x="525" 
d="M109 -12c-9 0 -16 8 -19 17c-7 77 -14 131 -21 176c-7 44 -12 80 -16 119c-5 39 -7 80 -7 139c0 27 1 52 5 83c0 7 9 13 26 18c34 9 81 15 122 17c20 1 33 1 40 1c53 0 94 -2 124 -7c60 -9 88 -27 95 -51c3 -12 5 -25 4 -39l-19 -318c3 -29 6 -58 15 -86
c2 -4 5 -9 10 -15s7 -12 7 -17c0 -11 -8 -23 -20 -23c-19 0 -30 25 -37 62s-9 86 -9 137c0 47 2 93 4 130l3 47c1 13 1 21 1 24v42v25c-1 6 -1 11 -1 14v8c-15 5 -30 10 -55 14s-61 7 -113 7c-51 0 -103 -1 -159 -20v-218c0 -39 9 -85 18 -124c8 -35 13 -64 16 -89
c2 -25 4 -42 7 -53c0 -12 -10 -20 -21 -20z" />
    <glyph glyph-name="uni0420" unicode="&#x420;" horiz-adv-x="488" 
d="M396 543c32 -29 48 -71 48 -116c0 -71 -39 -109 -89 -131s-110 -26 -150 -26c-37 0 -77 6 -124 17c-1 -3 -1 -9 -1 -17v-48v-102c0 -25 0 -43 1 -55v-25v-9c0 -15 0 -38 -20 -38c-13 0 -13 16 -13 27v122v61v44s0 27 1 42v56c0 23 -2 62 -5 106c-4 44 -6 93 -6 136
c0 19 6 28 17 28s17 -5 17 -24v-27c1 0 6 1 15 4c20 5 56 13 98 18c21 3 42 4 63 4c65 0 115 -18 148 -47z" />
    <glyph glyph-name="uni0421" unicode="&#x421;" horiz-adv-x="520" 
d="M392 564l31 38c2 2 4 3 6 3c5 0 8 -5 8 -14v-143c0 -5 -2 -7 -5 -7s-4 2 -4 6c-11 41 -30 78 -56 103s-58 41 -91 41c-44 0 -77 -18 -100 -49c-23 -32 -35 -76 -35 -127v-213c0 -115 56 -180 135 -180c53 0 85 20 114 75c1 1 3 7 8 18c8 21 20 48 29 68c5 10 8 15 9 15
c3 0 5 -2 5 -7v-168c0 -5 -1 -7 -4 -7c-2 0 -4 2 -7 6l-40 45c-35 -41 -73 -61 -116 -61c-59 0 -102 23 -133 57c-32 34 -53 80 -65 125s-16 91 -16 124c0 69 19 142 56 198c36 56 90 95 158 95c43 0 81 -14 113 -41z" />
    <glyph glyph-name="uni0422" unicode="&#x422;" horiz-adv-x="589" 
d="M383 396c1 -21 3 -43 4 -71v-49v-64v-31c0 -13 0 -26 -1 -41s-1 -30 -2 -46l-3 -45c0 -35 -29 -46 -50 -46c-32 0 -53 29 -53 54v346h-60c-40 0 -87 1 -123 9c-37 8 -64 23 -64 51c0 31 15 47 37 56s51 10 82 10c69 0 128 -1 182 -4s101 -7 152 -12l44 -3
c30 -2 57 -9 74 -25c8 -8 12 -20 12 -35c0 -43 -24 -54 -61 -54h-170z" />
    <glyph glyph-name="uni0423" unicode="&#x423;" horiz-adv-x="581" 
d="M258 598v-13h-38l136 -326l123 326h-40v13h95v-13h-38l-166 -444c-15 -40 -39 -75 -70 -99c-31 -25 -69 -41 -110 -41c-43 0 -71 15 -71 50c0 24 22 46 45 46s48 -12 48 -40c0 -15 -6 -28 -18 -40c56 0 104 31 135 78l-219 490h-39v13h227z" />
    <glyph glyph-name="uni0424" unicode="&#x424;" horiz-adv-x="825" 
d="M376 166c-149 12 -235 78 -235 191c0 76 35 127 80 163c45 35 100 54 140 67c0 5 8 17 24 17c11 0 17 -6 19 -19c167 -8 257 -88 257 -221c0 -9 -1 -18 -2 -27c-12 -72 -44 -111 -88 -134s-98 -29 -151 -34v-8v-22s0 -28 1 -50v-90c0 -7 -12 -19 -23 -19s-19 5 -22 16
v170zM207 275c20 -25 48 -42 78 -53s62 -15 91 -15l-12 333c-35 -8 -81 -25 -118 -55s-67 -72 -67 -132c0 -29 9 -55 28 -78zM550 511c-37 18 -78 27 -121 27h-11c-4 0 -8 0 -12 -1l12 -326l13 2c35 5 82 12 121 34s68 59 68 127c-1 16 -4 45 -14 73c-10 27 -28 52 -56 64z
" />
    <glyph glyph-name="uni0425" unicode="&#x425;" horiz-adv-x="591" 
d="M507 28c0 -12 -8 -21 -19 -21c-3 0 -9 5 -18 14c-17 18 -44 49 -76 89c-16 20 -32 41 -49 64c-17 22 -35 44 -52 67c-18 23 -35 44 -50 65c-24 -47 -47 -95 -68 -143c-5 -11 -11 -26 -18 -43c-14 -35 -29 -71 -44 -95c-8 -12 -15 -18 -21 -18c-15 0 -20 8 -20 17
c0 2 1 5 2 9c49 104 92 202 136 309c-33 47 -60 80 -77 127c-3 5 -10 25 -17 46c-7 20 -14 43 -14 54c0 15 11 20 20 20c12 0 19 -10 25 -28c3 -9 5 -20 8 -31c5 -24 15 -57 31 -84c16 -28 31 -49 42 -61l9 -10c17 16 36 35 55 58c38 45 74 89 103 118c14 14 25 21 32 21
c11 0 21 -8 21 -21c0 -4 -2 -8 -5 -11c-30 -33 -60 -66 -89 -97c-30 -32 -59 -65 -87 -98c7 -10 18 -24 33 -43s30 -40 47 -61c3 -5 10 -13 19 -24c19 -23 44 -53 69 -85s48 -62 62 -83c7 -11 10 -18 10 -21z" />
    <glyph glyph-name="uni0427" unicode="&#x427;" horiz-adv-x="507" 
d="M207 598v-15h-40v-276c0 -37 35 -57 71 -57c29 0 60 12 91 27v306h-41v15h165v-15h-42v-572h42v-14h-165v14h41v247c-33 -19 -72 -28 -115 -28c-37 0 -70 10 -93 28c-24 18 -38 45 -38 82v243h-40v15h164z" />
    <glyph glyph-name="uni0426" unicode="&#x426;" horiz-adv-x="706" 
d="M624 0c0 48 -4 64 -51 69c-19 -3 -64 -9 -115 -14s-108 -10 -149 -10h-123l-47 3c-14 1 -24 5 -29 12c-44 53 -50 118 -57 187c-1 6 -2 19 -4 39c-5 40 -10 93 -13 146c-2 26 -3 48 -3 67c0 31 14 41 35 41c23 0 36 -11 40 -34c5 -53 10 -98 14 -136
c7 -77 12 -130 16 -163s8 -53 12 -65c1 -6 3 -11 6 -16c19 -3 35 -3 56 -3c11 -1 23 -1 37 -1h50c60 0 118 7 178 19c-13 116 -26 213 -37 285c-5 36 -10 65 -13 87c-3 21 -5 35 -5 40c0 21 19 38 40 38c10 0 18 -5 23 -14s10 -24 14 -44c4 -21 8 -47 12 -80l15 -121
c5 -39 11 -81 15 -115c2 -17 4 -32 5 -44c1 -13 2 -21 2 -25h34c53 0 82 -19 98 -45s18 -60 18 -88c0 -36 0 -68 -5 -91c-5 -24 -16 -38 -36 -38c-23 0 -38 18 -38 39z" />
    <glyph glyph-name="uni0428" unicode="&#x428;" horiz-adv-x="776" 
d="M183 68h116l60 3c16 1 32 2 48 4l-6 144c-1 14 -1 30 -2 49l-3 58c-3 40 -5 82 -6 115c-1 16 -1 30 -2 41s-1 18 -1 21c0 16 14 34 33 34s30 -14 34 -30l22 -432c44 0 74 0 101 -3h67l35 440c4 17 15 26 32 26s33 -13 33 -32l-31 -464c-4 -16 -14 -31 -33 -31h-30h-35
h-55c-22 -1 -51 -1 -86 -1c-72 0 -174 -1 -323 -2c-11 0 -29 5 -29 18l-66 483c0 17 14 36 33 36c15 0 33 -13 33 -30z" />
    <glyph glyph-name="uni0429" unicode="&#x429;" horiz-adv-x="988" 
d="M224 605v-15h-51v-601h253v601h-54v15h201v-15h-52v-601h253v601h-52v15h200v-15h-52v-601h82v-170c-19 44 -35 82 -58 110c-24 28 -54 45 -101 45h-768v15h52v601h-52v15h199z" />
    <glyph glyph-name="uni042C" unicode="&#x42c;" horiz-adv-x="442" 
d="M142 340c0 -19 -1 -45 6 -54h26c40 0 86 -7 122 -30c36 -24 61 -61 61 -121c0 -32 -14 -61 -40 -84s-65 -37 -112 -37c-44 0 -69 50 -84 115s-18 147 -18 212c0 17 1 34 2 62c1 14 1 31 2 51l3 73c0 13 3 37 22 37c11 0 18 -5 18 -24c-3 -47 -5 -103 -8 -200z" />
    <glyph glyph-name="uni042A" unicode="&#x42a;" horiz-adv-x="618" 
d="M66 538c-11 0 -20 8 -20 20c0 8 6 14 18 19c23 9 62 14 110 15h71h16c21 -3 47 -7 47 -24v-193h42l38 -3c29 -2 61 -8 91 -23s54 -40 69 -82c7 -21 11 -48 11 -79c0 -55 -19 -99 -49 -130s-72 -48 -116 -48c-59 0 -93 25 -113 59s-25 76 -25 113c0 47 3 74 7 98
c4 23 7 42 7 70v200c-21 6 -43 9 -64 9c-23 0 -46 -3 -69 -10s-47 -11 -71 -11zM322 333c-3 0 -6 -4 -9 -11c-8 -15 -14 -41 -18 -77c-2 -19 -3 -39 -3 -62c0 -52 11 -86 30 -106s44 -27 72 -27c44 0 77 18 98 44s31 60 31 95c0 32 -10 69 -33 98c-24 29 -60 51 -109 51z
" />
    <glyph glyph-name="uni042B" unicode="&#x42b;" horiz-adv-x="666" 
d="M496 26c-1 2 -1 5 -1 8v18c0 12 1 29 3 51c1 21 2 50 2 86c0 79 -6 149 -45 221c-40 -19 -63 -30 -82 -42c-19 -13 -34 -28 -58 -52c-8 -8 -25 -26 -40 -44s-28 -36 -28 -43c0 -3 2 -5 7 -6c24 -5 56 -14 81 -29c24 -15 43 -35 43 -64c0 -27 -17 -54 -44 -77
c-28 -23 -66 -38 -107 -38c-47 0 -72 14 -87 33c-16 19 -19 43 -19 63c0 79 2 143 6 193c4 49 6 87 6 113c1 16 3 27 5 34c1 7 6 10 14 10c15 0 20 -11 20 -19l-8 -215l36 5c27 43 60 88 101 128c40 40 90 74 149 94c4 1 7 2 9 2c9 0 15 -3 20 -10c28 -41 43 -85 51 -132
s9 -95 9 -144v-58c0 -24 -1 -49 -4 -68c-3 -20 -10 -33 -19 -33s-17 4 -20 15z" />
    <glyph glyph-name="uni042D" unicode="&#x42d;" horiz-adv-x="585" 
d="M228 602h24c80 0 146 -35 191 -91c44 -56 69 -132 69 -213c0 -84 -24 -158 -68 -212c-45 -54 -112 -87 -199 -87c-56 0 -93 22 -134 63l-51 -53l-6 -1c-2 0 -3 2 -3 6v167c0 4 1 6 3 6c3 0 7 -5 11 -14l13 -30c47 -83 95 -129 186 -129c49 0 86 20 111 52
c24 32 37 75 37 120v109c-8 4 -19 11 -34 11c-25 0 -46 -10 -66 -18c-10 -5 -19 -9 -28 -13s-19 -6 -29 -6c-3 0 -9 1 -20 3c-22 3 -49 10 -68 18c-10 4 -15 9 -15 14c0 4 2 6 7 6c0 0 2 0 5 -1s6 -2 11 -3l14 -3c5 -1 8 -2 11 -2c9 0 28 9 48 18s42 18 61 18
c29 0 63 -9 103 -27v104c0 108 -56 174 -156 174c-77 0 -124 -30 -163 -94l-3 -10c-4 -12 -9 -27 -16 -39c-3 -6 -7 -9 -10 -9c-1 0 -2 1 -3 4v152c0 7 3 10 8 10c4 0 8 -2 11 -5l41 -40c12 12 29 23 49 31c19 8 39 14 58 14z" />
    <glyph glyph-name="uni042E" unicode="&#x42e;" horiz-adv-x="866" 
d="M523 618c27 -1 47 -4 70 -11c76 -27 135 -70 174 -118s59 -101 59 -149c0 -89 -29 -156 -72 -206s-99 -83 -152 -103s-105 -27 -138 -27c-20 0 -45 5 -70 17s-51 30 -74 58c-44 56 -52 122 -59 205l-24 3c-20 3 -41 5 -60 6c-9 1 -17 1 -23 1l-4 -21c-2 -9 -4 -24 -6 -43
c-4 -39 -7 -101 -7 -205c0 -27 -9 -35 -30 -35c-23 0 -33 4 -33 35c0 17 1 33 2 46c3 27 6 59 9 108c1 24 2 56 2 95l-23 266c0 21 18 32 34 32c17 0 30 -13 30 -32c0 -26 2 -52 7 -78c4 -27 8 -58 12 -95c21 -2 42 -5 62 -9c19 -4 39 -6 60 -6c11 55 23 110 48 153
c29 49 62 78 98 94c35 16 71 19 108 19zM479 70c83 0 155 39 205 89s79 112 79 163c0 67 -31 123 -78 163s-108 64 -168 64c-31 0 -57 -7 -88 -22c-12 -8 -37 -23 -58 -63s-39 -103 -39 -207c0 -72 21 -118 50 -147c28 -29 65 -40 97 -40z" />
    <glyph glyph-name="uni042F" unicode="&#x42f;" horiz-adv-x="563" 
d="M487 610v-15h-36v-583h36v-15h-146v15h36v298h-63c-43 0 -66 -25 -79 -57s-16 -72 -16 -103v-51c0 -68 -34 -105 -91 -105c-7 0 -13 1 -20 2c2 -1 0 0 -7 2c-13 3 -31 9 -46 17c-7 4 -11 8 -11 13c0 2 2 3 5 3l7 -2c16 -5 21 -6 28 -6c19 0 30 9 42 36c0 59 7 121 27 169
c19 47 51 80 102 80c-24 0 -58 14 -85 39c-28 24 -49 59 -49 99c0 104 70 164 174 164h192z" />
    <glyph glyph-name="uni0430" unicode="&#x430;" horiz-adv-x="436" 
d="M189 466c43 0 76 -4 100 -19c23 -15 35 -40 35 -83v-288c0 -23 9 -43 32 -43c12 0 22 13 31 25l11 17c3 5 6 8 9 8c1 0 2 -2 2 -5c0 -23 -16 -42 -36 -55s-45 -21 -62 -21c-39 0 -54 33 -54 64c-25 -37 -66 -64 -113 -64c-57 0 -94 48 -94 116c0 48 20 86 53 111
c33 24 80 38 135 38h17v108c0 44 -21 73 -56 73c-9 0 -26 -2 -42 -6c-16 -5 -31 -12 -36 -23c0 -2 0 -3 1 -4c18 -8 27 -22 27 -42c0 -19 -5 -40 -28 -40c-35 0 -52 15 -52 46c0 29 16 50 40 65c23 15 53 22 80 22zM255 257c-100 0 -138 -38 -138 -126c0 -24 4 -50 13 -69
c8 -19 22 -32 42 -32l19 3l7 3c13 5 31 15 46 30c7 7 11 16 11 25v166z" />
    <glyph glyph-name="uni0431" unicode="&#x431;" horiz-adv-x="468" 
d="M414 575c0 -15 -7 -30 -12 -45c-20 -36 -36 -50 -60 -55c-12 -3 -26 -4 -42 -4c-17 0 -38 -1 -63 -4c-76 0 -115 -19 -135 -54c-21 -36 -25 -87 -29 -151c37 73 81 108 164 108c51 0 95 -22 125 -57s47 -81 47 -126c0 -59 -22 -103 -57 -134c-35 -32 -83 -48 -132 -48
c-107 0 -177 80 -177 252c0 67 11 132 36 184c24 51 63 87 118 95c26 4 48 7 65 8c35 3 59 4 79 8s37 13 52 25c7 6 13 9 16 9s5 -4 5 -11zM217 358c-24 0 -38 -13 -46 -31c-9 -18 -12 -42 -12 -59v-151c0 -67 21 -100 62 -100c28 0 46 11 55 28c9 16 12 40 12 67v154
c0 51 -22 92 -71 92z" />
    <glyph glyph-name="uni0432" unicode="&#x432;" horiz-adv-x="429" 
d="M304 304c0 -8 -3 -23 -15 -40s-32 -37 -68 -54c59 -5 96 -23 119 -46c23 -24 31 -53 31 -78c0 -37 -31 -57 -70 -66c-40 -9 -88 -10 -123 -10c-16 0 -34 2 -50 7c-16 4 -30 14 -34 30c-4 12 -10 43 -17 83c-8 39 -15 85 -21 128s-11 81 -11 104c0 3 4 7 11 11
c14 8 38 14 70 18c15 2 32 3 49 3c36 0 68 -8 92 -20c23 -13 37 -32 37 -52v-18zM180 360c-33 0 -64 -8 -94 -24l18 -115h83c13 8 33 19 49 35c16 15 29 32 29 52c0 17 -12 31 -28 40c-17 8 -38 12 -57 12z" />
    <glyph glyph-name="uni0433" unicode="&#x433;" horiz-adv-x="382" 
d="M355 292h-46v89h-140v-324h63v-29h-191v29h63v324h-63v29h314v-118z" />
    <glyph glyph-name="uni0434" unicode="&#x434;" horiz-adv-x="477" 
d="M351 108l-5 16l-270 -35c-13 -3 -14 -17 -14 -30c0 -15 5 -41 10 -66s10 -49 10 -56c0 -10 -8 -15 -24 -15c-6 0 -11 5 -14 15c-8 19 -12 50 -13 87c-1 18 -1 36 -1 54c0 19 1 36 41 45c-2 19 -4 39 -7 62c-6 44 -11 87 -15 123c-2 18 -3 33 -3 44c0 16 31 34 71 47
c39 13 84 23 115 23c45 0 70 -14 83 -36s15 -50 15 -78v-22c-1 -7 -1 -12 -1 -15v-111c8 1 16 3 24 3c13 0 27 -8 27 -20c15 -65 26 -114 32 -149l8 -55c0 -12 -6 -18 -18 -18c-10 0 -16 5 -18 16zM244 387c-72 0 -138 -21 -159 -53l22 -205l184 25l-8 186
c-4 36 -16 47 -39 47z" />
    <glyph glyph-name="uni0435" unicode="&#x435;" horiz-adv-x="429" 
d="M163 163c-27 0 -52 4 -80 9c1 -16 10 -55 30 -90c19 -36 49 -67 96 -67c45 4 69 12 84 20c7 3 13 6 18 9c4 3 9 4 14 4c4 0 15 -3 15 -18c0 -12 -13 -19 -28 -26c-8 -5 -18 -11 -35 -15c-17 -5 -42 -9 -79 -9c-47 0 -86 34 -114 83c-29 48 -46 112 -46 169
c0 120 57 181 136 181c21 0 40 -4 71 -15s62 -30 86 -58c11 -15 17 -32 17 -51c0 -48 -29 -80 -66 -99c-37 -20 -83 -27 -119 -27z" />
    <glyph glyph-name="uni0451" unicode="&#x451;" horiz-adv-x="416" 
d="M265 495c-27 0 -40 12 -40 37s13 37 40 37c28 0 42 -12 42 -37s-14 -37 -42 -37zM147 496h-1c-21 0 -32 11 -32 32c0 22 11 33 32 33c22 0 33 -11 33 -33c0 -25 -13 -29 -32 -32zM188 187c-27 0 -50 8 -81 20c8 -96 54 -158 129 -158c12 0 22 3 30 9c7 5 15 8 24 8
c13 0 19 -3 19 -19c0 -19 -30 -29 -50 -32l-34 -4c-52 0 -93 33 -120 81c-28 47 -43 109 -43 166c0 61 16 107 41 136c24 29 58 43 95 43c21 0 66 -9 104 -29s70 -51 70 -95c0 -45 -26 -77 -62 -97s-82 -29 -122 -29zM102 263c0 -15 -1 -18 18 -25s42 -11 66 -14
c11 -1 20 -2 26 -2c76 0 121 39 121 90c0 25 -23 48 -51 64s-62 25 -83 25c-40 0 -63 -19 -78 -46s-19 -61 -19 -92z" />
    <glyph glyph-name="uni0436" unicode="&#x436;" horiz-adv-x="1005" 
d="M651 246c4 37 10 81 29 114s47 58 95 58c16 0 46 -6 74 -17c27 -11 50 -28 50 -49c0 -11 -8 -13 -15 -13c-17 0 -34 10 -50 20c-17 10 -35 20 -55 20c-35 0 -58 -19 -72 -43c-14 -25 -20 -57 -20 -84c0 -68 12 -123 32 -159c20 -37 47 -57 76 -57h31c23 9 37 17 47 29
c10 11 13 25 16 46c0 11 0 31 4 50c3 19 8 34 20 34c8 0 18 -11 18 -23c0 -77 -20 -120 -48 -143c-28 -24 -66 -28 -102 -28c-28 0 -59 21 -83 57s-42 86 -46 146c-51 -29 -78 -81 -98 -125c-10 -22 -18 -41 -25 -57s-16 -24 -25 -24c-16 0 -21 11 -25 24l-77 341
c-64 -132 -103 -212 -129 -263c-13 -26 -23 -45 -30 -58c-14 -25 -23 -42 -43 -45c-10 -2 -20 -3 -30 -3c-21 0 -52 10 -76 31c-25 21 -44 56 -44 104c0 13 6 39 16 63c10 23 25 42 45 42c12 0 16 -7 16 -15c0 -7 -2 -12 -7 -17c-21 -21 -32 -45 -32 -71
c0 -61 36 -109 87 -109c28 0 44 31 53 69c8 38 10 83 10 114v41c0 40 -1 88 -11 127s-31 67 -67 67c-33 0 -46 -26 -46 -58l6 -43c0 -11 -6 -16 -19 -16c-17 0 -22 21 -22 45c0 31 4 57 16 75s31 28 62 28c48 0 76 -25 93 -68c16 -43 20 -105 20 -177v-42c0 -9 0 -16 -1 -21
l127 271c3 4 6 6 11 6c6 0 11 -4 15 -13l83 -358l9 20c16 36 31 68 51 96c20 27 46 49 86 61z" />
    <glyph glyph-name="uni0437" unicode="&#x437;" horiz-adv-x="439" 
d="M148 43c23 -7 41 -12 57 -12c31 0 53 12 67 29s19 40 19 63c0 29 -10 58 -26 79c-17 20 -43 33 -72 33c-11 0 -23 -1 -34 -3s-22 -3 -32 -3c-11 0 -17 9 -17 20s6 17 17 19l81 7c23 21 39 49 39 80c0 35 -19 68 -86 76c-47 0 -80 -14 -84 -75c0 -7 -9 -15 -20 -15
c-12 0 -18 6 -18 17c0 47 18 74 42 90s53 21 76 21c43 0 75 -16 96 -38s32 -52 32 -76c0 -41 -18 -62 -45 -93c57 -31 86 -75 86 -147c0 -31 -8 -59 -28 -81s-51 -37 -99 -37c-25 0 -45 4 -62 11c-15 5 -32 20 -46 37s-25 37 -25 54c0 11 7 21 18 21c12 0 15 -5 20 -16
c8 -31 25 -46 44 -61z" />
    <glyph glyph-name="uni0438" unicode="&#x438;" horiz-adv-x="435" 
d="M175 461v-13h-32v-370l146 338v32h-30v13h119v-13h-32v-425h32v-16h-119v16h30v356l-146 -340v-16h32v-16h-119v16h30v425h-30v13h119z" />
    <glyph glyph-name="uni0439" unicode="&#x439;" horiz-adv-x="536" 
d="M186 520c19 -13 33 -22 42 -26c9 -5 15 -7 19 -7c17 0 30 9 53 28c7 7 14 15 22 26c8 10 17 15 27 15c11 0 18 -3 18 -14c0 -17 -17 -40 -40 -57s-53 -30 -78 -30c-23 0 -30 3 -49 12c-20 8 -42 20 -58 36c-8 8 -12 17 -12 26c0 13 6 19 19 19c9 0 15 -3 20 -10
s10 -13 17 -18zM76 349c3 11 7 18 20 18c11 0 18 -7 18 -16v-267l42 42c21 21 37 37 62 61c24 23 58 51 117 98c2 1 5 4 10 8c9 7 21 16 32 22c5 3 10 4 14 4c8 0 15 -2 20 -6c15 -8 27 -38 36 -93c5 -28 7 -66 7 -115v-67c0 -18 0 -32 -1 -43c-2 -22 -8 -30 -20 -30
c-13 0 -18 9 -18 20v107c0 64 -2 126 -27 182c-36 -30 -71 -60 -105 -91s-67 -60 -99 -89c-4 -4 -9 -10 -16 -18c-14 -17 -31 -35 -47 -47c-9 -7 -16 -10 -22 -10c-17 0 -22 15 -22 36v80v90c0 35 0 77 -1 124z" />
    <glyph glyph-name="uni043A" unicode="&#x43a;" horiz-adv-x="474" 
d="M359 396c0 -15 -9 -36 -28 -36c-16 0 -27 10 -27 29c0 13 5 22 15 27v1c-1 1 -3 1 -5 1c-8 0 -18 -5 -26 -11c-5 -3 -9 -6 -12 -9l-6 -6l-75 -117l152 -261h32v-15h-136v15h32l-122 220l106 162c13 20 36 34 60 34c27 0 40 -8 40 -24v-10zM177 428v-12h-32v-402h32v-15
h-124v15h34v402h-34v12h124z" />
    <glyph glyph-name="uni043B" unicode="&#x43b;" horiz-adv-x="526" 
d="M436 -11c-19 0 -37 14 -37 35c-2 21 -3 41 -3 61c-1 39 -2 78 -6 115c-2 19 -6 38 -11 57c-1 5 -4 14 -7 29c-7 29 -19 63 -38 87c-9 12 -20 18 -33 18c-27 0 -42 -14 -52 -33c-10 -20 -15 -46 -19 -67l-35 -228c-8 -36 -27 -45 -59 -45c-20 0 -40 9 -55 22
c-16 13 -26 32 -26 53c0 19 15 39 36 39c15 0 25 -8 34 -19l32 196c5 36 21 76 45 106c23 30 55 50 98 50c37 0 67 -22 90 -53c44 -75 59 -139 66 -200c3 -31 6 -61 7 -91c1 -31 4 -62 9 -95c0 -23 -17 -37 -36 -37z" />
    <glyph glyph-name="uni043C" unicode="&#x43c;" horiz-adv-x="697" 
d="M32 3v31c21 0 36 3 45 12s13 26 16 54l21 282c0 31 -14 34 -54 38v30h154l134 -305l138 305h148v-30c-43 -5 -50 -14 -50 -41l17 -294c0 -44 15 -51 58 -51v-31h-222v31h11c25 0 38 5 46 13c7 8 8 19 8 34v279l-172 -357h-19l-157 347l-20 -267c0 -43 20 -49 52 -49h5
v-31h-159z" />
    <glyph glyph-name="uni043D" unicode="&#x43d;" horiz-adv-x="642" 
d="M422 248v112c0 36 -15 51 -56 51h-7v30h224v-30h-7c-40 0 -55 -15 -55 -51v-278c0 -39 17 -51 56 -51h7v-31h-225v31h7c41 0 56 12 56 51v123h-225v-123c0 -39 17 -51 56 -51h7v-31h-224v31h7c39 0 56 12 56 51v278c0 39 -17 51 -56 51h-7v30h224v-30h-7
c-39 0 -56 -12 -56 -51v-112h225z" />
    <glyph glyph-name="uni043E" unicode="&#x43e;" horiz-adv-x="468" 
d="M224 437c65 0 115 -27 148 -67c32 -41 48 -96 48 -149c0 -60 -17 -116 -48 -156c-32 -40 -76 -65 -129 -65c-65 0 -117 23 -152 62c-36 39 -55 91 -55 151c0 57 16 114 48 155s79 69 140 69zM226 422h-4c-32 0 -58 -16 -75 -38s-27 -50 -27 -74v-191c0 -5 1 -10 2 -17
c0 0 1 -5 4 -14c4 -19 19 -42 51 -61c15 -9 37 -14 64 -14c37 0 62 18 77 41s21 50 21 70v177c0 29 -9 59 -28 82s-46 39 -85 39z" />
    <glyph glyph-name="uni043F" unicode="&#x43f;" horiz-adv-x="506" 
d="M440 441v-14h-40v-409h40v-15h-155v15h40v409h-159v-409h40v-15h-155v15h40v409h-40v14h389z" />
    <glyph glyph-name="uni0440" unicode="&#x440;" horiz-adv-x="445" 
d="M106 -272c0 -15 -11 -18 -18 -18c-9 0 -15 4 -17 12c-7 36 -9 78 -11 122c-1 22 -2 44 -2 67v64v147v30c0 9 0 18 1 27v73c0 23 20 35 45 41c24 6 54 5 71 5h4c104 0 153 -59 153 -159c0 -63 -20 -100 -48 -123c-29 -23 -66 -30 -101 -30h-82c1 -23 1 -45 2 -64
c1 -20 1 -40 1 -59c0 -40 1 -82 2 -135z" />
    <glyph glyph-name="uni0441" unicode="&#x441;" horiz-adv-x="452" 
d="M263 302c-48 0 -90 -16 -120 -43s-48 -64 -48 -107c0 -23 10 -54 30 -78c19 -25 47 -44 83 -44c39 0 67 15 99 39c12 11 34 32 47 32c9 0 18 -4 18 -19c0 -9 -23 -32 -46 -48s-48 -28 -73 -35c-13 -3 -25 -5 -36 -5c-49 0 -89 22 -116 53s-42 72 -42 109
c0 47 19 95 50 126s66 47 105 52c19 3 38 4 57 4c9 0 15 -10 15 -18c0 -12 -8 -18 -23 -18z" />
    <glyph glyph-name="uni0442" unicode="&#x442;" horiz-adv-x="479" 
d="M95 434h307c9 0 14 -5 15 -15l10 -116c0 -6 -2 -9 -7 -9c-3 0 -5 7 -6 20c-4 27 -12 60 -31 87c-10 13 -24 20 -43 20h-54v-406h39v-15h-154v15h40v406h-53c-35 0 -49 -32 -59 -63c-5 -16 -9 -31 -12 -44s-7 -20 -12 -20c-2 0 -3 1 -3 3l10 124c0 5 8 13 13 13z" />
    <glyph glyph-name="uni0443" unicode="&#x443;" horiz-adv-x="628" 
d="M268 445v-13h-30l154 -259l128 259h-30v13h83v-13h-31l-208 -430c-5 -11 -12 -23 -20 -36c-11 -15 -33 -45 -63 -72s-69 -50 -110 -50c-37 0 -74 26 -74 66c0 31 30 53 58 53c31 0 52 -25 52 -53c0 -19 -8 -33 -24 -43c3 0 9 1 16 3c75 32 119 91 159 167l-224 395h-29
v13h193z" />
    <glyph glyph-name="uni0444" unicode="&#x444;" horiz-adv-x="622" 
d="M270 1c-5 1 -14 4 -27 7c-25 6 -57 18 -92 36s-63 44 -81 80c-9 18 -14 39 -14 62c0 33 16 59 38 79s49 34 74 45l65 27l-3 47c-1 15 -2 29 -3 41l-3 30c-1 7 -2 11 -2 12c0 25 8 37 25 37c11 0 19 -7 23 -22v-111c71 -16 130 -35 173 -63s67 -67 67 -120
c0 -48 -23 -94 -61 -128s-90 -57 -143 -60v-312c0 -18 -7 -27 -21 -27c-11 0 -15 10 -15 21v319zM306 47h5c2 -1 5 -1 8 -1c11 0 22 1 30 2c1 0 9 3 22 10c27 12 61 37 86 70c13 17 19 36 19 57c0 37 -18 65 -44 86s-59 36 -86 45c-14 5 -26 8 -36 10c-11 2 -17 3 -20 4z
M253 298l-41 -10c-16 -5 -46 -15 -72 -31s-49 -39 -49 -70c0 -53 25 -86 60 -106c35 -21 79 -29 119 -33z" />
    <glyph glyph-name="uni0445" unicode="&#x445;" horiz-adv-x="486" 
d="M208 435v-13h-44l91 -147l101 147h-41v13h101v-13h-45l-108 -160l154 -251h44v-14h-173v14h44l-114 184l-128 -184h44v-14h-99v14h43l132 195l-132 216h-43v13h173z" />
    <glyph glyph-name="uni0447" unicode="&#x447;" horiz-adv-x="439" 
d="M282 393c0 27 20 35 36 35c21 0 36 -15 36 -35c8 -140 19 -272 31 -413c0 -21 -13 -38 -32 -38c-23 0 -37 11 -40 32l-20 204l-68 -10c-3 -1 -6 -1 -10 -1c-5 -1 -13 -1 -24 -1c-51 0 -83 16 -104 41s-29 61 -29 101c0 50 5 86 14 108c9 21 20 32 35 32
c25 0 38 -16 38 -35c0 -5 0 -10 -1 -17s-4 -19 -7 -37c-4 -19 -8 -36 -8 -51c0 -29 9 -46 23 -56s33 -14 54 -14c19 0 33 1 44 2s19 2 24 3s8 3 10 4s4 1 6 1h1c-1 18 -3 34 -4 47c-3 26 -4 46 -4 66c-1 10 -1 21 -1 32z" />
    <glyph glyph-name="uni0446" unicode="&#x446;" horiz-adv-x="516" 
d="M224 439v-12h-39v-399h157v399h-41v12h150v-12h-38v-399h54v-112c-3 19 -9 43 -21 63c-12 19 -29 34 -52 34h-321v15h41v399h-41v12h151z" />
    <glyph glyph-name="uni0448" unicode="&#x448;" horiz-adv-x="721" 
d="M214 437v-13h-40v-407h145v407h-41v13h154v-13h-40v-407h143v407h-37v13h152v-13h-40v-407h40v-15h-588v15h39v407h-39v13h152z" />
    <glyph glyph-name="uni0449" unicode="&#x449;" horiz-adv-x="865" 
d="M750 -106l5 75c0 31 -6 54 -14 66h-279l-66 -16c0 -13 -5 -24 -20 -24s-24 13 -28 28c-29 -1 -61 -3 -95 -5c-35 -2 -74 -3 -118 -3c-24 0 -41 1 -50 4c-10 2 -15 9 -15 20v367c0 13 9 18 21 18c9 0 14 -9 14 -27c1 -3 1 -6 1 -9s0 -8 1 -15v-31c0 -27 1 -73 2 -145
c1 -37 1 -82 2 -135l235 -13c0 3 0 17 -1 41c-2 47 -4 118 -6 196c-1 39 -2 75 -2 109c0 11 8 16 17 16c11 0 18 -7 21 -18l13 -331c25 11 60 16 95 19s70 3 94 3h21l-21 317c0 9 6 19 17 19c9 0 21 -5 21 -16l20 -323c11 0 20 0 27 1s14 1 19 1c51 0 78 -11 94 -32
c15 -21 17 -54 17 -95c0 -23 -1 -42 -3 -58c-3 -17 -9 -25 -18 -25c-15 0 -18 9 -21 21z" />
    <glyph glyph-name="uni044C" unicode="&#x44c;" horiz-adv-x="439" 
d="M88 395c8 0 20 -5 20 -14v-121c1 -5 1 -11 1 -16s0 -11 1 -17c31 -1 76 -7 114 -23c38 -17 67 -44 67 -91c0 -27 -13 -54 -33 -75s-48 -35 -77 -35c-43 0 -65 26 -79 64s-18 85 -21 132l-11 174c-1 13 7 22 18 22zM220 169c-39 23 -71 23 -107 27c0 -20 2 -62 11 -98
c8 -36 23 -67 51 -67c3 0 6 0 8 1c37 9 57 25 66 40s9 28 9 35c0 31 -15 49 -38 62z" />
    <glyph glyph-name="uni044A" unicode="&#x44a;" horiz-adv-x="582" 
d="M209 56v330h-119v-87h-51v117h307v-30h-70v-146h93c43 0 83 -5 112 -21c28 -16 47 -43 47 -84v-10c0 -27 -9 -51 -31 -69s-56 -29 -107 -29h-245v29h64zM276 56h93c51 0 88 30 88 82c0 31 -13 49 -31 61c-18 11 -42 14 -62 14h-88v-157z" />
    <glyph glyph-name="uni044B" unicode="&#x44b;" horiz-adv-x="573" 
d="M384 107l-3 48c-2 14 -4 27 -5 39c-3 29 -5 53 -8 70s-5 29 -8 38s-6 14 -9 17c-3 2 -7 3 -10 3c-25 0 -45 -14 -65 -40c-10 -13 -21 -30 -32 -49l-40 -67c17 -9 38 -23 54 -39c16 -17 28 -38 28 -62c0 -8 -4 -30 -14 -49c-10 -20 -29 -38 -54 -38c-43 0 -70 30 -90 70
s-30 91 -35 132c-3 21 -4 38 -5 52s-1 22 -1 23c-1 43 -4 85 -7 126c0 11 4 20 25 20c11 0 16 -9 19 -20l6 -94c1 -31 4 -62 8 -92l36 -15c15 24 28 46 39 66c23 39 45 71 76 93c15 11 35 19 58 25h6c24 0 36 -27 47 -56c1 -3 3 -12 6 -28c7 -33 14 -84 20 -147
c3 -32 4 -64 4 -97c0 -13 -6 -24 -21 -24c-11 0 -21 5 -21 16zM248 62l-3 15c-8 29 -24 46 -43 56c-10 5 -20 9 -31 12s-22 7 -32 11c12 -65 26 -100 40 -119c14 -20 28 -22 40 -22l5 2c7 2 14 8 20 21c3 6 4 14 4 24z" />
    <glyph glyph-name="uni044D" unicode="&#x44d;" horiz-adv-x="427" 
d="M427 243l3 -42c0 -76 -29 -127 -70 -159s-97 -44 -149 -44c-23 0 -65 10 -102 27s-68 42 -68 73c0 5 3 18 8 27s13 18 25 18c19 0 40 -4 51 -15c24 -24 56 -35 127 -35c41 5 60 21 70 42c5 11 8 23 9 36s3 27 5 41c-7 0 -19 -1 -38 -4c-2 -1 -9 -2 -21 -5
c-25 -5 -59 -12 -94 -16c-18 -3 -33 -4 -45 -4c-36 0 -39 18 -43 51c0 21 14 34 34 41c4 1 9 3 14 4l25 4c11 1 28 4 49 7s51 8 89 13l-6 22c-5 16 -15 32 -38 42c-11 5 -27 7 -48 7c-28 0 -51 -8 -74 -24c-11 -8 -23 -12 -35 -12c-25 0 -46 17 -46 40c0 31 25 53 54 69
c29 15 65 22 85 22c69 0 123 -32 161 -76s60 -101 68 -150z" />
    <glyph glyph-name="uni044E" unicode="&#x44e;" horiz-adv-x="677" 
d="M391 439c64 0 113 -28 146 -70c32 -42 49 -99 49 -152s-14 -108 -40 -149s-64 -69 -111 -69h-27c-56 0 -98 22 -126 59c-29 37 -45 89 -49 148h-54v-184h36v-14h-138v14h36v390h-36v13h138v-13h-36v-186h54c7 143 74 213 158 213zM408 428c-36 0 -60 -18 -76 -44
s-23 -59 -23 -86v-164c0 -77 43 -124 104 -124c65 0 98 53 98 126v172c0 32 -10 62 -27 84s-43 36 -76 36z" />
    <glyph glyph-name="uni044F" unicode="&#x44f;" horiz-adv-x="506" 
d="M436 442v-13h-43v-413h43v-15h-163v15h42v212h-48c-27 0 -43 -13 -54 -35s-15 -55 -18 -91v-23c0 -55 -27 -82 -82 -82c-8 0 -26 2 -41 7c-16 4 -30 11 -30 19c0 2 1 3 3 3c5 0 9 -1 12 -3s7 -3 11 -3c27 0 41 17 41 44v38c0 77 50 119 117 127c-83 9 -123 38 -123 101v2
c0 43 21 70 50 87c28 17 66 23 102 23h181zM255 429c-48 0 -69 -33 -69 -89c0 -66 18 -99 53 -99h76v188h-60z" />
    <glyph glyph-name="uni10D0" unicode="&#x10d0;" horiz-adv-x="468" 
d="M204 442c28 0 62 -10 62 -45c0 0 0 -14 -15 -29h15c34 -15 89 -41 111 -63c26 -32 49 -89 49 -138c0 -51 -40 -125 -95 -148c-34 -14 -74 -18 -110 -18c-26 0 -53 4 -79 17c-61 15 -108 92 -108 151c0 28 22 48 47 48h1c29 0 45 -33 45 -48c-3 -8 -4 -16 -4 -22
c0 -49 75 -66 111 -66c45 0 94 34 113 86c0 56 -30 110 -112 124c-57 9 -68 36 -68 87c0 34 14 53 37 64z" />
    <glyph glyph-name="uni10D1" unicode="&#x10d1;" horiz-adv-x="522" 
d="M320 312c132 -25 168 -109 168 -167c0 -119 -85 -202 -211 -202c-50 0 -100 14 -138 44c-53 43 -83 91 -83 146c0 92 58 161 194 190v174c-21 16 -91 16 -129 16c0 0 8 -63 22 -103c0 -22 -17 -29 -22 -30l-6 -1c-12 0 -23 7 -27 18c-17 51 -20 100 -20 151v85
c0 16 0 31 27 31c11 0 23 -1 26 -31v-85c64 0 109 4 139 4c31 0 40 -10 44 -20c15 -35 16 -150 16 -220zM412 130c0 68 -62 131 -145 131c-71 0 -124 -31 -146 -81c-4 -17 -6 -33 -6 -48c0 -75 75 -133 154 -133c86 0 143 61 143 131z" />
    <glyph glyph-name="uni10D2" unicode="&#x10d2;" horiz-adv-x="565" 
d="M485 96c22 -37 35 -120 35 -167c0 -108 -64 -226 -172 -226c-103 0 -165 0 -238 71c-36 36 -73 105 -73 178c0 30 6 95 22 124c40 71 104 122 215 132c1 40 62 85 62 114c0 20 -14 56 -57 56c-33 0 -54 -18 -61 -53c-4 -11 -12 -16 -20 -16c-15 0 -32 16 -32 37
c8 46 53 94 123 94c48 0 104 -61 104 -102c0 -78 -59 -84 -59 -133c82 -21 115 -47 151 -109zM359 -236c73 49 94 110 94 172c0 109 -50 213 -171 224c-13 0 -52 -5 -69 -14c-94 -50 -113 -125 -113 -200c0 -106 91 -190 216 -190c8 0 16 1 25 2z" />
    <glyph glyph-name="uni10D3" unicode="&#x10d3;" horiz-adv-x="733" 
d="M75 -63h85c-74 58 -111 141 -111 248c0 124 79 208 190 208c48 0 88 -19 119 -57c36 38 85 57 145 57c102 0 181 -70 181 -194c0 -127 -65 -219 -187 -219c-114 0 -202 76 -202 196c0 32 2 60 5 82c-9 31 -29 47 -60 47c-47 0 -83 -41 -83 -124c0 -163 62 -229 188 -252
c206 -37 270 -90 292 -204h-128c-21 84 -113 124 -312 124c-38 0 -78 -4 -122 -10v98zM403 183c0 -76 28 -114 85 -114c58 0 88 38 88 114c0 81 -30 122 -88 122c-57 0 -85 -41 -85 -122z" />
    <glyph glyph-name="uni10D4" unicode="&#x10d4;" horiz-adv-x="498" 
d="M379 274c64 -37 74 -108 74 -188c0 -259 -45 -297 -105 -327c-27 -8 -58 -13 -88 -13c-87 0 -193 50 -193 148c0 37 23 55 48 55c26 0 35 -4 40 -27c0 -20 -4 -28 -4 -38c0 -50 70 -66 125 -66c59 13 89 43 103 131c4 26 7 63 7 100c0 55 -5 110 -16 133
c-26 57 -94 60 -140 60c-62 -6 -89 -72 -89 -131c0 -22 -18 -33 -34 -33c-12 0 -24 13 -24 27c0 52 8 90 22 120c18 36 87 83 141 83c56 0 109 -21 133 -34z" />
    <glyph glyph-name="uni10D5" unicode="&#x10d5;" horiz-adv-x="498" 
d="M150 182h-68c-6 17 -8 34 -8 49c0 97 65 162 183 162c94 0 170 -54 170 -143c0 -64 -37 -117 -98 -133c71 -21 101 -68 101 -184c0 -152 -64 -228 -191 -228c-102 0 -190 66 -190 177c0 42 10 82 29 118h68c-19 -40 -28 -80 -28 -120c0 -75 46 -126 125 -126
c93 0 118 71 118 179v60c0 66 -30 98 -90 98h-28v50h31c44 0 84 39 84 106c0 59 -40 97 -101 97c-68 0 -114 -40 -114 -110c0 -19 2 -37 7 -52z" />
    <glyph glyph-name="uni10D6" unicode="&#x10d6;" horiz-adv-x="781" 
d="M708 293c20 -38 32 -84 32 -130c0 -13 -1 -26 -3 -39c-8 -51 -31 -99 -75 -131c-56 -33 -106 -45 -162 -45c-29 0 -60 3 -93 8c-82 13 -152 93 -152 166c0 5 1 24 4 34c8 44 16 95 30 151c-23 -20 -53 -27 -83 -27c-20 0 -41 3 -58 7c-58 13 -126 88 -126 200
c0 14 1 29 3 44c18 120 82 172 146 178c16 1 28 2 40 2c15 0 31 -1 47 -3c57 -9 111 -36 142 -95c17 -33 22 -59 22 -84c0 -11 -1 -22 -3 -34c-5 -36 -14 -76 -27 -133c34 21 77 29 119 29c17 0 35 -1 51 -4c60 -9 119 -55 146 -94zM263 380c36 14 57 73 65 116
c1 8 2 18 2 27c0 25 -5 51 -17 67c-15 22 -63 33 -97 33c-82 0 -103 -76 -103 -139c0 -69 52 -105 113 -113c14 0 28 3 37 9z" />
    <glyph glyph-name="uni10D7" unicode="&#x10d7;" horiz-adv-x="761" 
d="M661 69c0 -14 18 -32 18 -60c-5 -34 -48 -45 -78 -45c-14 2 -25 9 -32 17c-13 13 -20 30 -20 56c0 7 1 15 3 37c7 59 29 109 34 148c1 7 1 15 1 22c0 56 -27 110 -96 110c-41 0 -62 -12 -95 -60c-2 -3 -3 -9 -3 -16c0 -15 4 -36 6 -41c2 -6 7 -40 7 -72
c0 -101 -86 -163 -163 -163c-22 0 -45 2 -68 5c-74 9 -125 119 -125 198c0 40 17 91 45 128c35 47 76 65 120 65c72 0 84 -16 121 -30c34 49 92 72 152 72c71 0 152 -33 187 -92c9 -19 12 -45 12 -73c0 -20 -2 -41 -4 -62c-6 -51 -18 -103 -22 -142v-2zM303 94
c19 32 26 70 26 108c0 51 -16 98 -85 114c-87 -2 -110 -70 -110 -123c0 -58 35 -107 102 -115c5 -1 10 -2 15 -2c19 0 39 7 52 18z" />
    <glyph glyph-name="uni10D8" unicode="&#x10d8;" horiz-adv-x="481" 
d="M435 174c0 -43 -26 -84 -68 -121c-6 -8 -17 -9 -26 -9c-19 0 -36 13 -36 31c0 12 7 27 29 45c19 30 31 50 31 72c0 52 -63 107 -126 107c-75 0 -103 -50 -113 -118c7 -76 47 -67 47 -107c0 -17 -14 -29 -36 -29c-35 0 -78 48 -78 124c0 42 14 100 53 142
c32 34 72 47 112 47c44 0 90 -11 118 -27c37 -22 61 -41 74 -71c17 -39 19 -65 19 -86z" />
    <glyph glyph-name="uni10D9" unicode="&#x10d9;" horiz-adv-x="496" 
d="M256 344v49h41c87 0 131 -47 131 -140c0 -67 -25 -112 -74 -135c51 -25 71 -63 71 -148v-24c0 -166 -46 -241 -179 -241c-115 0 -197 70 -197 180c0 42 11 80 32 115h69c-21 -35 -32 -73 -32 -115c0 -78 46 -131 126 -131c91 0 112 56 112 170v54c0 75 -21 112 -61 112
h-39v49h39c42 0 64 36 64 108c0 67 -16 91 -69 97h-34z" />
    <glyph glyph-name="uni10DA" unicode="&#x10da;" horiz-adv-x="983" 
d="M82 -109v65h94c-85 60 -127 153 -127 277c0 155 70 255 186 255c57 0 97 -28 122 -83c28 55 73 83 138 83c55 0 99 -28 129 -83c29 55 74 83 136 83c86 0 168 -67 168 -182c0 -58 -17 -119 -51 -181h-79c34 56 51 116 51 182c0 65 -35 125 -94 125
c-62 0 -93 -40 -93 -121v-106h-79v106c0 81 -30 121 -91 121c-59 0 -96 -44 -96 -105v-122h-79v114c0 75 -26 113 -81 113c-72 0 -108 -65 -108 -197c0 -215 95 -267 295 -279c241 -15 370 -88 388 -231h-93c-16 111 -132 166 -349 166h-287z" />
    <glyph glyph-name="uni10DB" unicode="&#x10db;" horiz-adv-x="500" 
d="M459 150c0 -102 -36 -185 -89 -236c-32 -24 -72 -38 -114 -38c-49 0 -102 17 -147 57c-43 39 -60 106 -60 169c0 43 8 85 22 117c31 72 108 106 160 118c8 1 15 2 23 2c46 0 91 -22 132 -53c0 103 -17 316 -102 349c-20 8 -41 14 -63 14s-43 -5 -59 -14
c-53 -32 -53 -78 -53 -136c0 -32 -15 -41 -37 -41c-11 0 -31 4 -33 34c-1 9 -1 17 -1 25c0 71 18 132 87 168c25 13 47 21 73 21c131 0 196 -67 226 -191c16 -68 35 -260 35 -327v-38zM385 153c0 61 -50 107 -116 107c-7 0 -15 -1 -23 -2c-51 -11 -91 -35 -106 -67
c-11 -23 -18 -58 -18 -94c0 -82 52 -160 144 -160c17 0 34 5 49 15c54 51 70 99 70 201z" />
    <glyph glyph-name="uni10DC" unicode="&#x10dc;" horiz-adv-x="580" 
d="M117 608c0 47 26 70 101 71c43 0 160 -9 174 -9c20 1 43 4 71 12v-74c-32 -9 -56 -15 -73 -14l-151 10c-21 1 -31 -9 -31 -26v-249h143c77 0 116 -34 116 -71v-182c0 -40 -41 -76 -94 -76h-168c-49 0 -88 36 -88 75v533zM234 248c-23 0 -26 -6 -26 -19v-137
c2 -13 11 -19 27 -19h128c15 0 24 6 24 19v137c0 13 -10 19 -26 19h-127z" />
    <glyph glyph-name="uni10DD" unicode="&#x10dd;" horiz-adv-x="772" 
d="M488 411c12 2 24 3 35 3c110 0 196 -102 196 -221c0 -77 -16 -183 -77 -226c-10 -5 -19 -9 -26 -9c-28 0 -50 21 -50 43c0 12 6 25 24 34c35 17 52 69 52 118c0 92 -44 175 -136 175c-53 -19 -87 -54 -141 -122c0 0 -14 -20 -34 -20c-14 0 -33 20 -33 35
c-15 34 -49 69 -84 69c-51 0 -70 -87 -70 -155c0 -30 9 -68 70 -100c9 -5 19 -10 19 -25c0 -29 -18 -46 -38 -46c-5 0 -11 1 -16 2c-122 55 -124 153 -124 239c0 90 65 175 125 191c9 2 18 3 26 3c55 0 96 -44 125 -90c54 53 107 87 157 102z" />
    <glyph glyph-name="uni10DE" unicode="&#x10de;" horiz-adv-x="500" 
d="M166 668h59c-1 -6 -1 -13 -1 -22c0 -48 23 -46 112 -81l5 -2c56 -23 87 -59 87 -116c0 -54 -27 -92 -81 -113c57 -25 84 -73 84 -145c0 -98 -68 -159 -175 -159c-95 0 -168 56 -168 148c0 30 5 57 16 81h63c-12 -28 -17 -54 -17 -78c0 -64 42 -106 106 -106
c66 0 114 48 114 129c0 62 -28 111 -83 111h-37v44h37c45 0 79 40 79 84c0 121 -204 74 -204 198c0 9 1 18 4 27z" />
    <glyph glyph-name="uni10DF" unicode="&#x10df;" horiz-adv-x="560" 
d="M491 393v-474c0 -147 -58 -214 -186 -214c-111 0 -194 67 -194 174c0 43 15 83 43 121h69c-29 -35 -43 -75 -43 -120c0 -75 48 -126 124 -126c85 0 128 49 128 146v421c-43 -27 -94 -43 -152 -50c34 -17 51 -43 51 -78c0 -72 -61 -119 -144 -119c-80 0 -138 46 -138 121
c0 17 7 36 22 57h68c-14 -19 -21 -37 -21 -54c0 -50 25 -75 75 -75c46 0 70 24 70 73c0 30 -15 53 -44 67v71c13 -2 28 -4 44 -4c65 0 121 21 169 63h59z" />
    <glyph glyph-name="uni10E0" unicode="&#x10e0;" horiz-adv-x="755" 
d="M703 684c18 0 36 -31 36 -48c1 -5 1 -10 1 -15c0 -88 -70 -100 -286 -104c-74 -1 -330 -22 -330 -164c0 -5 0 -10 1 -15c26 25 65 53 102 53c48 0 88 -28 130 -72c51 39 89 59 135 59c14 0 29 -2 45 -6c72 -17 138 -83 138 -157c0 -58 -44 -114 -102 -158
c-8 -6 -18 -11 -27 -11c-18 0 -36 32 -36 51c0 9 5 17 14 27c42 26 60 59 60 90c0 43 -36 80 -94 80c-33 0 -57 -17 -84 -57c-18 -18 -36 -18 -49 -18c0 0 -17 0 -35 18c-34 52 -65 65 -99 65c-43 -18 -56 -54 -56 -99c0 -31 25 -39 56 -62c22 -16 24 -33 24 -51
c0 -21 -30 -41 -55 -41c-8 0 -15 2 -20 7c-71 57 -136 139 -136 260c0 38 6 83 20 122c52 140 283 162 385 162h15c32 0 79 -2 118 -2c45 0 81 3 81 16c-2 9 -2 12 -2 24c0 6 1 12 4 20c6 15 19 25 46 26z" />
    <glyph glyph-name="uni10E1" unicode="&#x10e1;" horiz-adv-x="519" 
d="M65 665c-2 5 -3 9 -3 13c0 14 9 26 16 28c4 1 8 2 12 2c21 0 29 -20 29 -31c12 -67 26 -120 26 -171c-1 -176 -23 -276 -23 -344v-12c0 -44 23 -101 64 -122c20 -7 57 -18 95 -18c61 0 123 35 123 105c0 41 -26 85 -60 112c-23 19 -32 36 -32 52c0 32 25 56 46 56
c23 -3 33 -20 35 -36c-1 -11 -9 -18 -9 -28c0 -11 8 -11 15 -15c24 -13 53 -29 66 -80c5 -20 7 -39 7 -56c0 -71 -36 -111 -49 -131c-37 -42 -79 -54 -132 -54c-86 0 -199 48 -226 134c-13 41 -13 91 -13 132c0 90 35 200 35 306c0 43 -8 93 -22 158z" />
    <glyph glyph-name="uni10E2" unicode="&#x10e2;" horiz-adv-x="737" 
d="M98 283h108c-29 -69 -49 -156 -49 -234c0 -120 60 -236 214 -236c139 0 209 87 209 260c0 98 -29 159 -87 182c14 -22 20 -42 20 -60c0 -81 -52 -152 -142 -152c-81 0 -145 58 -145 140c0 52 22 95 67 127c-44 28 -66 65 -66 113c0 78 54 148 143 148
c81 0 143 -57 143 -149c0 -40 -16 -73 -49 -100c132 -7 224 -102 224 -257c0 -207 -120 -340 -315 -340c-176 0 -324 119 -324 298c0 94 17 181 49 260zM370 502c-44 0 -74 -31 -74 -75c0 -51 27 -87 74 -87s74 39 74 87c0 44 -30 75 -74 75zM370 271c-44 0 -75 -34 -75 -77
c0 -48 33 -82 75 -82s74 35 74 82c0 46 -28 77 -74 77z" />
    <glyph glyph-name="uni10E3" unicode="&#x10e3;" horiz-adv-x="668" 
d="M33 363c0 12 23 28 35 28c26 0 39 -28 39 -42l-13 -25c0 -40 13 -50 13 -50c35 0 51 17 83 39c31 21 63 24 97 24c50 0 74 -36 74 -36c26 28 71 41 108 41c95 0 131 -91 147 -186c11 -68 11 -114 11 -167c0 -144 -46 -277 -233 -288l-17 -1c-140 -8 -207 106 -207 215
c0 32 10 69 32 101c11 13 19 22 34 22c17 -2 28 -20 28 -34c0 -9 -3 -19 -11 -28c-17 -16 -24 -38 -24 -61c0 -11 2 -21 5 -34c5 -24 19 -57 43 -79c26 -25 65 -39 100 -39c123 0 189 86 189 213c0 81 -13 234 -58 283c-19 11 -40 19 -61 19c-8 0 -17 -2 -25 -4
c-65 -18 1 -168 -67 -168c-2 0 -4 1 -7 1c-56 7 -1 164 -61 177c-59 0 -106 -74 -193 -74c-55 9 -62 69 -62 114c0 16 1 29 1 39z" />
    <glyph glyph-name="uni10E4" unicode="&#x10e4;" horiz-adv-x="734" 
d="M485 124h37c40 0 55 22 55 99c0 55 -20 82 -61 82c-125 0 -15 -285 -270 -285c-107 0 -197 72 -197 187c0 99 78 186 202 186c54 0 103 -23 146 -69c32 46 77 69 135 69c83 0 153 -60 153 -164c0 -78 -32 -129 -95 -155c63 -27 95 -77 95 -151c0 -111 -73 -198 -248 -198
c-160 0 -257 59 -257 177c0 25 6 48 18 68h100c-7 -15 -10 -36 -10 -62c0 -71 51 -95 146 -95s143 40 143 118c0 64 -20 96 -60 96h-32v97z" />
    <glyph glyph-name="uni10E5" unicode="&#x10e5;" horiz-adv-x="473" 
d="M308 717h94v-794c0 -159 -63 -239 -190 -239c-60 0 -107 17 -140 52c-29 30 -43 68 -43 114c0 88 49 158 133 174l26 -48c-43 -21 -65 -59 -65 -113c0 -56 41 -89 98 -89s86 50 86 149v275h-87c-23 0 -35 -6 -35 -19c0 -8 13 -30 13 -43c0 -9 -6 -14 -18 -14
c-33 0 -58 43 -58 84c0 53 25 80 76 80h109v318l-115 -129l-48 35z" />
    <glyph glyph-name="uni10E6" unicode="&#x10e6;" horiz-adv-x="708" 
d="M209 184c0 -30 24 -80 48 -99c16 -14 57 -41 123 -80c65 -38 109 -77 134 -118c27 -42 40 -99 40 -172h-95c0 64 -20 118 -61 166c-41 49 -93 73 -156 73h-116v79h67c-41 28 -85 99 -85 148v285c0 40 35 82 75 82h147c20 0 39 -16 39 -36c5 24 19 36 41 36h127
c39 0 73 -40 73 -82v-263h-94v237c0 21 -40 31 -76 31c-13 0 -26 -17 -26 -31v-176h-95v176c0 21 -50 31 -81 31c-15 0 -29 -17 -29 -31v-256z" />
    <glyph glyph-name="uni10E7" unicode="&#x10e7;" horiz-adv-x="498" 
d="M132 361c8 24 14 34 31 34c4 0 7 0 12 -1c15 -3 19 -16 19 -32c0 -6 -1 -12 -4 -17c-4 -23 -6 -44 -6 -63c0 -51 13 -90 31 -112c14 -8 31 -12 48 -12s33 4 48 12c55 43 68 125 68 191c0 17 14 33 25 33c29 0 43 -16 43 -33v-351c0 -120 -31 -305 -182 -305
c-27 0 -55 4 -75 14c-54 26 -97 62 -111 126c-4 20 -6 37 -6 52c0 36 6 68 20 97c5 11 23 22 38 22c6 0 12 -2 16 -6c10 -11 20 -24 20 -42c0 -7 -2 -15 -6 -25c-6 -13 -8 -27 -8 -40c0 -55 16 -71 54 -99c17 -12 35 -18 54 -18c73 0 100 76 112 169c5 44 6 91 6 132v43
s-29 -27 -32 -29c-24 -13 -53 -27 -89 -27c-29 0 -74 6 -99 36s-31 67 -36 108c-2 17 -3 34 -3 52c0 30 3 61 12 91z" />
    <glyph glyph-name="uni10E8" unicode="&#x10e8;" horiz-adv-x="577" 
d="M443 283v274c0 51 -28 87 -77 87c-51 0 -83 -35 -83 -86v-88h-55v85c0 53 -36 89 -88 89c-46 0 -84 -22 -115 -67v76c32 31 73 46 122 46c44 0 78 -23 100 -69c28 46 72 69 131 69c77 0 131 -52 131 -163v-415c0 -133 -75 -237 -207 -237c-122 0 -221 82 -221 233
c0 132 81 230 217 230c59 0 107 -22 145 -64zM432 116c0 111 -52 176 -134 176c-77 0 -139 -57 -139 -176c0 -103 50 -176 141 -176c86 0 132 67 132 176z" />
    <glyph glyph-name="uni10E9" unicode="&#x10e9;" horiz-adv-x="467" 
d="M66 575c0 90 49 151 128 151c73 0 123 -45 123 -115c0 -96 -66 -172 -198 -231v-110c36 37 77 55 125 55c93 0 166 -53 166 -178c0 -78 -23 -153 -69 -230h-58c47 74 69 150 69 229c0 86 -37 128 -113 128c-51 0 -91 -25 -120 -78v-279h-53v658zM119 426
c95 43 141 105 141 185c0 43 -21 64 -64 64c-48 0 -77 -38 -77 -97v-152z" />
    <glyph glyph-name="uni10EA" unicode="&#x10ea;" horiz-adv-x="756" 
d="M419 521h80c-2 -9 -4 -18 -4 -28c0 -100 216 -61 216 -220c0 -71 -40 -114 -118 -130c77 -28 116 -85 116 -171c0 -141 -103 -251 -294 -251c-240 0 -358 158 -358 408c0 120 45 268 144 392h80c-104 -146 -149 -269 -149 -419c0 -215 104 -324 282 -324
c128 0 214 66 214 186c0 96 -49 150 -137 150h-72v69h72c93 0 140 30 140 92c0 102 -215 75 -215 206c0 17 2 31 3 40z" />
    <glyph glyph-name="uni10EB" unicode="&#x10eb;" horiz-adv-x="500" 
d="M355 547c-2 39 -5 84 -5 123c0 23 9 36 33 36c14 0 24 -13 24 -36c0 0 9 -58 14 -118c6 -77 15 -151 15 -242c0 -49 -5 -121 -14 -160c-15 -61 -39 -94 -63 -119c-30 -32 -70 -48 -111 -48c-6 0 -11 0 -17 1c-57 6 -106 32 -140 71c-30 35 -47 79 -47 131
c0 93 97 200 192 200c81 0 95 -23 138 -33c0 70 -12 83 -19 194z" />
    <glyph glyph-name="uni10EC" unicode="&#x10ec;" horiz-adv-x="556" 
d="M171 358h281c0 -103 -15 -216 -44 -339s-68 -234 -116 -335h-62l-190 824c-7 32 -11 57 -11 76c0 89 49 151 137 151c49 0 87 -22 114 -66c28 44 65 66 110 66c63 0 105 -24 127 -73c7 -16 10 -33 10 -52c0 -53 -26 -97 -77 -133l-38 37c24 15 36 35 36 60
c0 36 -25 67 -61 67c-42 0 -63 -25 -63 -75v-80h-86v88c0 45 -20 67 -61 67c-36 0 -54 -24 -54 -73c0 -6 1 -13 4 -20zM364 269h-172l86 -388h8c38 117 64 247 78 388z" />
    <glyph glyph-name="uni10ED" unicode="&#x10ed;" horiz-adv-x="566" 
d="M430 256l116 -109v-104l-116 166v-280c0 -152 -59 -224 -195 -224c-106 0 -186 67 -186 174c0 40 15 81 43 121h69c-29 -34 -43 -74 -43 -120c0 -74 48 -126 123 -126c86 0 130 52 130 156v280c-34 -49 -80 -74 -139 -74c-76 0 -142 53 -142 139c0 75 52 138 146 138
c48 0 93 -26 135 -78v373h59v-379l116 138v-82zM371 257c-47 58 -92 87 -134 87c-47 0 -79 -43 -79 -87c0 -51 33 -92 83 -92c47 0 103 42 130 92z" />
    <glyph glyph-name="uni10EE" unicode="&#x10ee;" horiz-adv-x="500" 
d="M78 545c2 48 9 97 13 145c1 13 6 19 25 19c10 0 22 -13 22 -37v-127c0 -18 -1 -35 -1 -53c0 -45 2 -91 4 -136c12 24 16 35 27 58c4 8 16 20 34 20c19 -3 24 -17 24 -40c-1 -9 -12 -38 -25 -63c26 19 54 19 86 19c10 0 19 -1 29 -4c50 -15 92 -62 113 -112
c14 -33 14 -65 14 -91c0 -80 -52 -129 -76 -146c-30 -22 -73 -22 -110 -22c-50 0 -96 28 -118 63c-53 83 -67 192 -67 313c0 51 2 103 4 152zM187 257c-16 -17 -22 -40 -22 -64c0 -81 34 -150 117 -150c54 0 95 36 95 86c0 22 -2 50 -8 71c-34 72 -67 75 -119 77
c-23 1 -46 -7 -63 -20z" />
    <glyph glyph-name="uni10EF" unicode="&#x10ef;" horiz-adv-x="920" 
d="M535 221l112 -242c31 -67 50 -79 87 -79c28 0 58 26 58 57s-21 70 -62 117l62 45c48 -59 73 -114 73 -163c0 -67 -55 -126 -145 -126c-52 0 -93 31 -124 95l-121 250l-175 -138c69 -22 120 -76 120 -148c0 -100 -74 -163 -184 -163c-56 0 -112 15 -169 43v73
c64 -37 114 -56 153 -56c71 0 114 39 114 103c0 59 -40 95 -98 95v88l207 159l-97 207c-28 60 -45 71 -87 71c-44 0 -83 -32 -83 -77c0 -40 15 -77 47 -113l-59 -38c-40 44 -59 89 -59 135c0 82 56 160 158 160c64 0 107 -29 136 -89l102 -211l204 157c27 21 42 38 42 49
c0 15 -22 21 -65 21h-151v73h167c63 0 118 -27 118 -75c0 -42 -18 -76 -54 -104z" />
    <glyph glyph-name="uni10F0" unicode="&#x10f0;" horiz-adv-x="439" 
d="M176 702c9 0 9 -10 9 -23c0 -98 49 -108 89 -111s93 -30 100 -77c1 -4 1 -7 1 -11c0 -51 -49 -86 -88 -86c31 -18 72 -68 72 -98c0 -13 0 -26 -10 -39c-13 -13 -26 -23 -52 -35c52 -36 62 -76 62 -98c0 -85 -70 -138 -147 -138c-36 0 -67 7 -89 26c-25 21 -37 62 -37 97
c0 20 3 39 14 51c4 5 11 7 18 7s13 -2 18 -7c3 -3 5 -8 5 -13c0 -4 -1 -9 -5 -14c-4 -7 -5 -15 -5 -25c0 -52 28 -83 74 -83c47 0 109 35 109 79c0 51 -12 62 -85 90c-13 5 -16 10 -17 25c0 2 1 11 13 15c0 0 85 23 85 62c0 49 -47 60 -124 75c-16 3 -22 15 -22 25
c0 11 9 21 21 21c21 0 153 16 153 56c0 22 -22 56 -64 56c-26 0 -76 0 -98 39c-14 23 -27 62 -27 111c0 13 13 23 27 23z" />
    <glyph glyph-name="zero" unicode="0" horiz-adv-x="424" 
d="M74 477c35 65 80 98 134 98c47 0 94 -22 130 -70c35 -48 58 -122 58 -223c0 -75 -17 -144 -46 -195c-29 -52 -70 -85 -119 -85h-16c-27 0 -70 4 -108 40s-69 104 -69 232c0 89 12 157 36 203zM102 461c-21 -41 -32 -103 -32 -187c0 -160 46 -240 159 -240
c40 0 74 29 98 75s37 106 37 173c0 61 -17 162 -62 218c-23 28 -52 42 -89 42c-46 0 -83 -27 -111 -81z" />
    <glyph glyph-name="one" unicode="1" horiz-adv-x="353" 
d="M199 269l2 102c0 33 -1 66 -3 98c-11 -29 -31 -59 -57 -82s-56 -38 -85 -38c-10 0 -15 5 -15 16c0 8 12 15 26 20l22 9c8 3 15 6 21 10c52 35 66 77 73 112l8 44c2 11 8 17 18 17c11 0 13 -5 16 -16c4 -73 7 -143 7 -208c0 -107 -4 -213 -24 -317c3 -1 7 -1 11 -1h13
c37 0 64 -1 82 -3s27 -8 27 -17c0 -15 -11 -15 -24 -15h-51c-30 1 -58 2 -84 4c-26 1 -54 2 -83 2h-51c-10 0 -15 5 -15 15c0 11 5 17 15 17h129c4 39 8 78 13 115s8 76 9 116z" />
    <glyph glyph-name="two" unicode="2" horiz-adv-x="404" 
d="M83 352c-27 29 -37 59 -37 98c0 45 21 85 51 113s71 44 112 44c65 0 106 -24 130 -58s32 -78 32 -118c0 -144 -127 -247 -175 -299c-25 -26 -42 -46 -53 -59c96 4 165 6 216 6c16 0 31 0 43 -4c12 -5 19 -14 19 -31c0 -28 -28 -33 -48 -33h-53c-11 0 -23 0 -35 -1
c-25 -2 -54 -4 -90 -6c-18 -1 -38 -2 -61 -2h-70c-23 0 -35 10 -35 31c0 9 4 17 9 24c39 49 74 91 107 124c65 66 112 116 139 165c13 25 20 53 20 86c0 69 -32 108 -88 108c-24 0 -50 -7 -70 -21s-34 -35 -34 -63c0 -21 9 -37 17 -49c8 -13 17 -25 17 -37
c0 -23 -11 -35 -34 -35c-9 0 -19 6 -29 17z" />
    <glyph glyph-name="three" unicode="3" horiz-adv-x="410" 
d="M339 273c25 -24 41 -57 41 -93c0 -64 -27 -105 -66 -129s-87 -32 -131 -32c-88 0 -144 43 -144 108c0 39 31 67 67 67c29 0 58 -26 58 -61s-27 -57 -58 -57h-13c25 -23 55 -34 89 -34c32 0 55 18 69 43c14 24 20 56 20 87c0 27 -6 59 -19 85s-36 44 -68 44h-83
c-9 0 -16 1 -16 10c0 6 5 9 16 9h83c27 0 48 17 64 44c15 27 23 62 23 98c0 52 -36 96 -95 96c-23 0 -46 -7 -64 -15c2 1 6 1 12 1c37 0 50 -32 50 -67c0 -16 -9 -29 -22 -37c-13 -9 -30 -13 -43 -13c-39 0 -61 25 -61 65c0 52 38 89 133 89h28c41 0 84 -9 116 -29
c32 -21 53 -52 53 -96c0 -87 -53 -144 -141 -144c40 0 77 -15 102 -39z" />
    <glyph glyph-name="four" unicode="4" horiz-adv-x="357" 
d="M229 31h30c16 0 38 0 57 -3s34 -8 34 -17c0 -13 -8 -16 -17 -16h-75h-31c-31 0 -69 2 -105 3l-44 3c-11 1 -12 10 -12 15c0 11 5 16 14 16h117c4 52 7 117 11 205l2 45c-28 1 -53 4 -74 7c-22 3 -38 4 -49 4h-39c-13 0 -20 14 -23 34c-4 19 -4 41 -4 60v53
c0 53 2 92 6 116c4 23 12 35 25 35c11 0 17 -5 17 -16c0 -2 -2 -15 -7 -40s-8 -62 -8 -110c0 -43 2 -73 6 -100c11 0 34 -2 62 -5c27 -4 59 -6 87 -6c4 24 4 48 4 103c0 51 -4 102 -9 158l-1 6c0 9 5 14 16 14c9 0 14 -5 15 -14c7 -61 10 -112 10 -160v-106h22
c9 0 13 -6 13 -17c0 -5 -3 -9 -9 -10c-7 -2 -16 -4 -27 -5l-2 -32c-1 -19 -3 -40 -5 -65c-4 -50 -7 -109 -7 -150v-5z" />
    <glyph glyph-name="five" unicode="5" horiz-adv-x="440" 
d="M68 214c-7 -16 -6 -25 -6 -49c0 -36 16 -69 42 -93s59 -39 98 -39c49 0 87 26 112 63s38 87 38 136c0 67 -23 112 -58 140s-82 39 -130 39c-10 0 -16 5 -18 15v157c0 11 4 20 13 20c6 0 15 -1 27 -2c24 -4 58 -7 99 -10c21 -2 43 -3 66 -3c13 0 23 1 28 2s10 2 17 2
c13 0 19 -6 19 -17c0 -13 -13 -19 -40 -19c-68 0 -133 7 -198 14v-128c44 -3 96 -13 137 -44c41 -32 71 -82 71 -166c0 -64 -18 -122 -50 -163s-77 -67 -132 -67c-45 0 -89 18 -121 47c-32 28 -52 68 -52 115c0 8 1 29 6 49c4 19 12 36 25 36c8 0 16 -3 16 -12
c0 -3 -1 -6 -3 -9z" />
    <glyph glyph-name="six" unicode="6" horiz-adv-x="338" 
d="M277 556c-7 0 -15 -1 -24 -2c-69 -12 -118 -44 -150 -92c-32 -49 -46 -116 -46 -196v-35c21 43 56 65 103 65c40 0 81 -11 113 -35c31 -24 53 -61 53 -116c0 -97 -51 -146 -153 -146c-100 0 -149 75 -149 259v17l2 35c2 35 11 82 32 134c20 51 57 95 114 123
c28 14 62 21 103 21h9c11 0 16 -5 16 -16s-4 -16 -23 -16zM178 31h8c40 0 67 15 84 38c16 23 24 52 24 81c0 40 -18 68 -43 87s-59 27 -91 27c-31 0 -53 -14 -68 -35s-22 -50 -22 -78c0 -27 7 -55 24 -78s44 -39 84 -42z" />
    <glyph glyph-name="seven" unicode="7" horiz-adv-x="484" 
d="M344 44c-3 -29 -20 -44 -50 -44c-36 0 -51 16 -51 53v28c0 9 1 19 2 28l6 57c4 37 8 76 11 113c-3 -1 -7 -1 -14 -1c-11 0 -20 1 -39 4c-33 5 -49 16 -49 51c0 33 16 50 49 50c17 0 35 -1 55 -3v35c0 28 -1 53 -4 81c-23 9 -68 15 -103 15h-22c-4 -1 -8 -1 -11 -2l2 -54
c-3 -43 -20 -55 -51 -55c-23 0 -36 10 -43 24s-8 32 -8 49v58c0 36 14 56 35 66s49 11 76 11h24c21 0 41 -2 66 -6c12 -2 26 -4 41 -7s32 -6 53 -9c37 -7 46 -57 46 -114v-101h23c34 0 51 -17 51 -51c0 -33 -17 -50 -51 -50h-26z" />
    <glyph glyph-name="eight" unicode="8" horiz-adv-x="383" 
d="M83 42c-33 27 -52 76 -52 145c0 72 31 120 92 144c-48 16 -83 57 -83 125c0 97 51 146 153 146c43 0 76 -19 100 -47c23 -29 36 -68 36 -108c0 -49 -16 -84 -49 -107c52 -24 85 -87 85 -158c0 -56 -16 -102 -42 -134s-63 -50 -103 -50c-57 0 -102 15 -137 44zM94 534
c-15 -17 -22 -43 -22 -78c0 -47 17 -72 42 -87c24 -15 58 -17 90 -17c36 0 59 11 73 30s19 43 19 70c0 68 -43 118 -103 118c-43 0 -76 -12 -99 -36zM220 30c37 0 65 18 85 46c19 27 28 64 28 101v1c0 36 -10 70 -27 97s-45 44 -78 44c-57 0 -98 -14 -125 -37
c-28 -24 -41 -57 -41 -94c0 -55 13 -91 37 -115s59 -37 106 -42z" />
    <glyph glyph-name="nine" unicode="9" horiz-adv-x="402" 
d="M65 154v-7c0 -67 54 -119 147 -119c44 0 76 27 97 71c20 44 31 106 31 175c0 39 -2 61 -3 74c-1 7 -1 11 -2 14c-1 2 -1 3 -1 4c-23 -43 -52 -62 -100 -62c-40 0 -81 11 -113 36c-32 24 -53 62 -53 114c0 97 51 146 153 146c57 0 95 -19 119 -74c23 -55 32 -145 32 -286
c0 -83 -18 -144 -47 -184s-70 -60 -115 -60c-121 11 -177 67 -177 156c0 13 3 19 15 19c8 0 17 -2 17 -17zM221 568c-81 0 -121 -38 -121 -114c0 -39 16 -68 40 -88s58 -30 94 -30c31 0 53 15 68 36c15 20 22 49 22 77c0 32 -9 62 -27 84s-44 35 -76 35z" />
    <glyph glyph-name="fraction" unicode="&#x2044;" horiz-adv-x="370" 
d="M237 604c3 11 10 15 17 15c13 0 17 -12 17 -21c-1 -15 -7 -42 -15 -75l-27 -108c-10 -39 -18 -69 -24 -91c-12 -45 -19 -71 -23 -90l-7 -36l-3 -15c-1 -8 -3 -17 -6 -33l-7 -30c-3 -12 -6 -27 -9 -45l-6 -27c-5 -25 -15 -53 -26 -73c-6 -10 -12 -15 -18 -15
c-11 0 -14 7 -14 15c0 5 0 9 1 12c21 108 47 210 74 311s53 201 76 306z" />
    <glyph glyph-name="asterisk" unicode="*" horiz-adv-x="370" 
d="M135 456l-93 30l22 46l80 -32v98h54v-98l86 32l14 -46l-91 -30l60 -74l-41 -29l-55 75l-62 -75l-36 29z" />
    <glyph glyph-name="backslash" unicode="\" horiz-adv-x="370" 
d="M170 391l82 -228c20 -56 36 -96 56 -140c3 -6 7 -15 13 -26c5 -12 8 -23 8 -33c0 -3 -4 -14 -15 -14c-4 0 -9 3 -14 10c-11 13 -22 34 -34 61c-6 13 -11 27 -16 40l-186 497c-3 9 -9 21 -16 34s-11 25 -11 36c0 12 6 18 17 18c4 0 9 -3 14 -10s11 -19 20 -38
c8 -19 19 -45 32 -78s29 -76 50 -129z" />
    <glyph glyph-name="periodcentered" unicode="&#xb7;" horiz-adv-x="550" 
d="M275 358c44 0 81 -37 81 -82c0 -44 -37 -81 -81 -81s-81 37 -81 81c0 45 37 82 81 82z" />
    <glyph glyph-name="bullet" unicode="&#x2022;" horiz-adv-x="379" 
d="M154 416h2c47 0 86 -16 114 -40c27 -24 42 -57 42 -93c0 -69 -52 -108 -131 -108c-35 0 -69 15 -96 40s-45 62 -45 103c0 60 41 98 114 98z" />
    <glyph glyph-name="colon" unicode=":" horiz-adv-x="205" 
d="M100 136c-32 0 -49 16 -49 49c0 31 17 47 49 47s49 -16 49 -47c0 -33 -17 -49 -49 -49zM100 -4c-32 0 -49 16 -49 49c0 31 17 47 49 47s49 -16 49 -47c0 -33 -17 -49 -49 -49z" />
    <glyph glyph-name="comma" unicode="," horiz-adv-x="167" 
d="M143 -11v-11v-16c-1 -5 -1 -10 -1 -14c0 -7 -3 -22 -13 -37s-26 -28 -50 -28c-5 0 -8 3 -8 8c0 11 7 19 15 28c8 8 15 16 15 31c0 27 -19 32 -39 38s-39 14 -39 47c0 12 5 26 13 38s20 21 35 21c13 0 33 -5 47 -20c14 -16 25 -42 25 -85z" />
    <glyph glyph-name="ellipsis" unicode="&#x2026;" horiz-adv-x="804" 
d="M135 10c-31 0 -47 14 -47 42s16 42 47 42c32 0 48 -14 48 -42c0 -27 -22 -42 -46 -42h-2zM652 4c-31 0 -48 12 -48 43c0 30 16 45 49 45c31 0 46 -17 46 -45c0 -29 -18 -43 -47 -43zM391 3c-32 0 -48 14 -48 42s16 42 48 42c31 0 47 -14 47 -42s-16 -42 -47 -42z" />
    <glyph glyph-name="exclam" unicode="!" horiz-adv-x="205" 
d="M105 166c-24 0 -36 81 -36 242v13c0 43 3 76 10 99c7 22 17 33 30 33c28 0 38 -21 38 -60c0 -88 -4 -170 -11 -230c-4 -30 -8 -54 -13 -71s-11 -26 -18 -26zM78 27c0 17 9 26 26 26s25 -9 25 -26c0 -16 -8 -24 -25 -24s-26 8 -26 24z" />
    <glyph glyph-name="exclamdown" unicode="&#xa1;" horiz-adv-x="205" 
d="M78 409c0 16 9 24 26 24s25 -8 25 -24c0 -17 -8 -26 -25 -26s-26 9 -26 26zM105 270c7 0 13 -9 18 -26s9 -41 13 -71c8 -60 11 -142 11 -230c0 -39 -10 -60 -38 -60c-13 0 -23 11 -30 33c-7 23 -10 56 -10 99v13c0 161 12 242 36 242z" />
    <glyph glyph-name="numbersign" unicode="#" horiz-adv-x="601" 
d="M552 445c5 0 9 -6 9 -13c0 -11 -6 -17 -19 -19l-88 4c-20 -41 -36 -83 -55 -135c-9 -27 -18 -55 -25 -84l27 -3c34 -5 79 -12 113 -23c17 -5 25 -11 25 -17c0 -13 -5 -22 -25 -22c-3 0 -10 1 -21 3c-23 3 -54 8 -86 16c-16 3 -30 7 -43 11c-1 -3 -2 -8 -5 -16
c-6 -17 -14 -42 -24 -73l-15 -49c-4 -15 -12 -16 -23 -16c-8 0 -12 5 -12 15c0 3 1 9 3 20c4 21 12 50 23 81c5 15 11 30 17 43c-55 8 -104 14 -159 21c-7 -15 -14 -32 -21 -53c-14 -42 -28 -84 -43 -111c-8 -14 -16 -21 -25 -21c-7 0 -11 5 -11 14c0 4 3 12 8 25
s12 28 19 45c15 34 30 73 38 104c-9 0 -34 0 -55 3s-40 8 -40 20c0 16 18 22 30 22c13 0 26 -1 39 -4s26 -5 39 -7c24 64 49 130 80 191h-47c-8 -1 -16 -1 -25 -1h-28c-4 0 -11 0 -18 3c-8 3 -14 7 -14 18c0 16 21 18 30 18h116l14 33c2 5 4 10 5 15l5 20c7 24 18 53 33 76
c7 11 16 17 25 17c11 0 12 -8 12 -17c0 -12 -3 -21 -10 -44s-17 -50 -28 -74c-5 -12 -10 -21 -14 -27c13 -3 32 -4 55 -3s55 0 96 -2c0 -1 2 4 5 13c7 19 15 41 20 64c4 23 10 47 18 64c3 8 8 12 13 12c8 0 17 -7 17 -19c0 -23 -7 -45 -15 -66c-9 -21 -19 -44 -24 -65h6
c2 -1 6 -1 12 -1c5 -1 13 -1 24 -2c10 -1 24 -3 42 -4zM414 419h-89h-28c-10 0 -20 0 -30 -1c-32 -64 -66 -128 -85 -197c52 -5 103 -11 155 -20l62 184z" />
    <glyph glyph-name="period" unicode="." horiz-adv-x="167" 
d="M74 -11c-29 0 -43 16 -43 49s14 49 43 49c30 0 45 -16 45 -49s-15 -49 -45 -49z" />
    <glyph glyph-name="question" unicode="?" horiz-adv-x="446" 
d="M272 290c-25 -27 -43 -56 -43 -115c0 -5 1 -11 2 -17c1 -7 2 -15 2 -24c0 -11 -6 -25 -18 -25c-9 0 -15 5 -20 15s-7 30 -7 59c0 49 14 90 43 125c15 17 28 32 40 45c24 26 42 46 51 65c5 9 7 19 7 30c0 65 -47 110 -110 110c-29 0 -58 -8 -80 -24s-38 -39 -38 -67
c0 -6 1 -10 3 -13c1 -3 2 -8 2 -13c0 -11 -7 -17 -20 -17c-17 0 -26 14 -26 41c0 44 20 77 49 100s69 34 108 34c51 0 90 -19 116 -47c26 -29 38 -67 38 -106c0 -17 -2 -30 -14 -52c-13 -22 -38 -53 -85 -104zM180 46c0 21 11 31 32 31c22 0 33 -10 33 -31
c0 -23 -11 -34 -33 -34c-21 0 -32 11 -32 34z" />
    <glyph glyph-name="questiondown" unicode="&#xbf;" horiz-adv-x="446" 
d="M251 565c0 -21 -11 -31 -32 -31c-22 0 -33 10 -33 31c0 23 11 34 33 34c21 0 32 -11 32 -34zM159 321c25 27 43 56 43 115c0 5 -1 11 -2 17c-1 7 -2 15 -2 24c0 11 6 25 18 25c9 0 15 -5 20 -15s7 -30 7 -59c0 -49 -14 -90 -43 -125c-15 -17 -28 -32 -40 -45
c-24 -26 -42 -46 -51 -65c-5 -9 -7 -19 -7 -30c0 -65 47 -110 110 -110c29 0 58 8 80 24s38 39 38 67c0 6 -1 10 -3 13c-1 3 -2 8 -2 13c0 11 7 17 20 17c17 0 26 -14 26 -41c0 -44 -20 -77 -49 -100s-69 -34 -108 -34c-51 0 -90 19 -116 47c-26 29 -38 67 -38 106
c0 17 2 30 14 52c13 22 38 53 85 104z" />
    <glyph glyph-name="quotedbl" unicode="&#x22;" horiz-adv-x="246" 
d="M54 458l-3 108c0 15 10 21 23 21c9 0 23 -5 23 -20v-73c0 -7 1 -14 3 -23s3 -17 3 -26c0 -12 -3 -36 -22 -36c-27 0 -26 25 -27 49zM188 542l-1 -112c0 -15 -10 -22 -23 -22c-12 0 -20 15 -20 32l-8 112c0 19 7 34 24 34c19 0 28 -20 28 -44z" />
    <glyph glyph-name="quotesingle" unicode="'" horiz-adv-x="161" 
d="M54 458l-3 108c0 15 10 21 23 21c9 0 23 -5 23 -20v-73c0 -7 1 -14 3 -23s3 -17 3 -26c0 -12 -3 -36 -22 -36c-27 0 -26 25 -27 49z" />
    <glyph glyph-name="semicolon" unicode=";" horiz-adv-x="205" 
d="M104 148c-22 0 -33 11 -33 33c0 21 11 32 33 32s33 -11 33 -32c0 -22 -11 -33 -33 -33zM154 -1c0 -7 -1 -19 -7 -30c-6 -12 -17 -21 -37 -21c-5 0 -8 2 -8 5c0 6 4 12 11 18c7 5 10 10 10 14c0 13 -12 15 -24 18c-13 3 -25 7 -25 28c0 15 11 32 30 32c8 0 20 -2 31 -12
s19 -27 19 -52z" />
    <glyph glyph-name="slash" unicode="/" horiz-adv-x="370" 
d="M237 604c3 11 10 15 17 15c13 0 17 -12 17 -21c-1 -15 -7 -42 -15 -75l-27 -108c-10 -39 -18 -69 -24 -91c-12 -45 -19 -71 -23 -90l-7 -36l-3 -15c-1 -8 -3 -17 -6 -33l-7 -30c-3 -12 -6 -27 -9 -45l-6 -27c-5 -25 -15 -53 -26 -73c-6 -10 -12 -15 -18 -15
c-11 0 -14 7 -14 15c0 5 0 9 1 12c21 108 47 210 74 311s53 201 76 306z" />
    <glyph glyph-name="underscore" unicode="_" horiz-adv-x="556" 
d="M460 -50c12 0 17 -7 17 -18c0 -9 -7 -17 -16 -17h-156c-13 0 -25 1 -36 2s-24 1 -38 1c-15 0 -27 0 -37 1h-26h-19h-17c-7 0 -15 -1 -22 -2c-7 -2 -17 -3 -30 -3c-12 0 -30 2 -30 18c0 20 15 22 34 22h88c7 0 12 1 23 2s27 2 54 2c6 0 20 -1 41 -4s48 -4 81 -4h89z" />
    <glyph glyph-name="braceleft" unicode="{" horiz-adv-x="324" 
d="M142 540c0 12 6 28 15 41c8 12 22 21 38 21c17 0 22 -5 22 -13c0 -11 -6 -15 -14 -18c-13 0 -22 -10 -28 -31s-10 -47 -11 -79c-1 -9 -1 -21 -1 -36c-1 -31 -7 -64 -20 -95c-7 -16 -16 -28 -28 -37c35 -28 47 -79 46 -131l-4 -141c0 -15 7 -37 26 -37l32 11
c8 0 15 -9 15 -16c0 -9 -8 -16 -18 -20c-10 -5 -23 -8 -31 -8c-35 0 -52 33 -52 66v145c0 17 -2 43 -9 64c-7 20 -18 38 -35 41c-3 1 -6 1 -10 2c-9 0 -17 1 -23 6c-3 2 -5 6 -5 11c0 9 4 14 13 16c27 5 46 24 58 43z" />
    <glyph glyph-name="braceright" unicode="}" horiz-adv-x="324" 
d="M153 521c3 -9 4 -17 5 -26c0 -59 1 -100 7 -131s16 -51 36 -66c2 -2 6 -4 11 -5c11 -4 22 -8 30 -15c4 -3 6 -7 6 -11c0 -11 -5 -16 -16 -16c-43 0 -64 -42 -64 -119v-124c0 -17 -4 -36 -12 -51c-9 -15 -23 -25 -42 -25c-4 0 -17 3 -28 8s-21 13 -21 24c0 8 4 12 13 12
c3 0 9 -2 16 -5c7 -4 13 -6 18 -6c13 0 22 14 22 29v135c0 23 2 51 8 77s17 49 37 68c-35 31 -42 75 -46 122l-3 36c0 21 -1 44 -4 63c-5 23 -11 38 -16 46c-6 7 -11 12 -16 14c-5 1 -8 2 -11 3c-3 0 -5 4 -5 13c0 8 7 12 22 12c16 0 28 -9 36 -21c8 -13 13 -29 17 -41z" />
    <glyph glyph-name="bracketleft" unicode="[" horiz-adv-x="249" 
d="M72 589h95h21c6 0 14 1 24 2c23 0 35 -4 35 -20c0 -13 -9 -16 -17 -19h-136s0 -7 -1 -21c-2 -29 -4 -78 -6 -139l-3 -96c-1 -34 -1 -68 -2 -101c-1 -34 -1 -66 -1 -95c0 -28 1 -66 2 -105s5 -79 9 -108c36 8 72 8 108 8c11 0 17 -4 17 -11c0 -28 -28 -28 -63 -28
c-3 0 -5 0 -7 -1c-3 -1 -7 -1 -12 -1c-5 -1 -13 -1 -24 -2s-26 -1 -46 -1c-5 0 -9 8 -12 23s-4 33 -4 54v110c0 25 1 56 2 100s2 102 2 182v91c0 21 0 37 1 48v21v7c0 8 1 33 3 57c1 11 2 22 5 31s6 14 10 14z" />
    <glyph glyph-name="bracketright" unicode="]" horiz-adv-x="600" 
d="M198 590c8 -3 11 -12 14 -24s3 -26 3 -38v-18c0 -9 0 -16 1 -21s1 -14 1 -25v-407c0 -14 0 -26 1 -37s1 -21 1 -30v-72c0 -5 0 -22 -2 -37c-1 -8 -3 -15 -5 -21s-4 -9 -7 -9c-23 0 -55 2 -83 6l-61 7c-8 1 -10 10 -10 19c0 8 6 12 19 12c35 0 72 0 108 -8l10 259
c2 60 3 113 3 160c0 79 -2 139 -6 182s-7 64 -9 65h-126c-15 0 -27 3 -27 18s11 17 27 17h79c8 0 16 0 24 1c7 1 16 1 27 1h18z" />
    <glyph glyph-name="parenleft" unicode="(" horiz-adv-x="272" 
d="M42 156l1 96c1 73 4 115 9 145c4 30 11 48 22 73c15 35 38 70 62 96s50 43 70 43c4 0 11 -1 18 -5c7 -5 12 -15 12 -31c0 -13 -9 -24 -18 -35c-45 -45 -69 -85 -83 -134s-17 -108 -17 -189c0 -24 0 -41 1 -51c0 -11 1 -20 2 -28c7 -57 12 -91 20 -116s19 -41 35 -62
l13 -16c12 -13 24 -29 33 -45c4 -9 6 -17 6 -24c0 -23 -20 -31 -36 -31c-6 0 -13 2 -21 5c-51 29 -83 73 -102 125c-20 52 -27 113 -27 177v7z" />
    <glyph glyph-name="parenright" unicode=")" horiz-adv-x="278" 
d="M220 151l-5 -62c-4 -47 -11 -79 -22 -107c-5 -15 -12 -29 -19 -42c-8 -14 -17 -29 -26 -46c-3 -3 -7 -8 -11 -14c-9 -13 -20 -27 -34 -36c-7 -5 -15 -7 -22 -7c-11 0 -18 8 -18 19c0 4 2 8 5 13c40 48 62 86 75 118s19 58 23 85c9 53 10 87 10 134v52
c0 100 -10 180 -61 252c-3 5 -8 11 -15 18c-13 15 -27 30 -37 44c-5 7 -8 13 -8 18c0 7 5 18 14 18c11 0 25 -7 42 -20c34 -28 68 -85 92 -176c11 -45 17 -99 17 -162v-99z" />
    <glyph glyph-name="emdash" unicode="&#x2014;" horiz-adv-x="802" 
d="M725 280c13 0 21 -12 21 -24c0 -16 -14 -23 -21 -23l-68 3c-36 3 -72 6 -127 8c-28 1 -65 1 -112 1c-11 0 -19 0 -26 -1s-14 -1 -23 -1c-9 -1 -20 -1 -33 -2c-14 -1 -33 -1 -58 -1c-39 0 -69 0 -88 -1s-33 -1 -42 -2s-16 -1 -20 -2s-10 -1 -18 -1c-15 0 -35 5 -35 22
c0 9 4 15 12 20s22 8 42 11c39 4 104 4 207 4c48 0 96 -2 143 -5l142 -9c11 0 26 1 43 2s38 1 61 1z" />
    <glyph glyph-name="endash" unicode="&#x2013;" horiz-adv-x="600" 
d="M521 226h-452v80h452v-80z" />
    <glyph glyph-name="hyphen" unicode="-" horiz-adv-x="550" 
d="M421 226h-292v80h292v-80z" />
    <glyph glyph-name="guillemotleft" unicode="&#xab;" horiz-adv-x="398" 
d="M207 396h2c9 0 21 -10 21 -21c0 -8 -8 -18 -19 -29c-5 -5 -11 -11 -17 -16c-7 -6 -13 -12 -18 -17c-21 -21 -35 -34 -47 -43c-6 -5 -12 -9 -17 -12l-17 -11c11 -13 22 -27 33 -40c11 -14 23 -27 36 -38c1 -1 3 -2 8 -5c8 -6 20 -16 29 -28c4 -6 6 -12 6 -18
c0 -8 -13 -19 -21 -19c-9 1 -21 7 -35 19c-15 11 -36 31 -65 60c-17 17 -29 33 -38 49c-5 8 -7 15 -7 22c0 24 24 44 56 63c9 5 30 24 51 42c20 18 40 36 51 40zM326 395h5c3 0 21 -5 21 -22c0 -8 -9 -19 -20 -31c-6 -6 -12 -12 -19 -18s-13 -12 -18 -17
c-13 -17 -27 -30 -40 -37c-13 -8 -26 -16 -37 -25c17 -28 43 -57 68 -78c3 -3 8 -7 13 -10c10 -7 18 -14 25 -24c3 -5 5 -11 5 -17c0 -4 -6 -19 -21 -19c-8 0 -20 6 -37 17s-37 32 -62 62c-17 17 -30 33 -39 50c-5 8 -7 15 -7 21c0 5 1 11 10 21c8 10 25 23 54 47
c3 2 9 7 18 16c19 16 41 36 61 51c9 7 16 12 20 13z" />
    <glyph glyph-name="guillemotright" unicode="&#xbb;" horiz-adv-x="370" 
d="M63 98c-3 -1 -5 -2 -7 -2c-11 0 -23 9 -24 21c0 1 1 5 4 11c3 5 8 13 17 23c16 19 45 47 97 84c3 1 5 3 8 5s6 4 9 5c-19 28 -44 57 -72 81c-4 3 -14 10 -22 19c-9 8 -18 19 -18 30c0 7 9 19 21 19c15 0 31 -18 43 -30c9 -9 20 -18 31 -25c11 -8 20 -16 25 -25l7 -7
c9 -10 22 -26 32 -42c5 -8 7 -15 7 -21c0 -16 -10 -25 -22 -32c-6 -4 -12 -8 -19 -11s-13 -7 -18 -12c-25 -21 -45 -40 -60 -57s-28 -29 -39 -34zM177 94c-11 -3 -23 5 -23 21c0 3 3 9 9 17c12 15 32 33 54 53s42 37 58 49c7 5 12 9 14 10l-31 41c-11 15 -24 27 -38 37l-9 6
c-9 7 -20 16 -28 27c-4 5 -6 11 -6 16c0 11 10 21 21 21c2 0 7 -2 14 -6c14 -8 32 -23 54 -42c11 -10 21 -21 31 -32l9 -10c10 -12 21 -27 30 -42c5 -8 7 -14 7 -18c0 -19 -10 -27 -22 -34c-7 -4 -13 -7 -20 -10s-12 -6 -17 -11c-22 -19 -38 -34 -49 -44s-19 -18 -25 -23
c-12 -12 -17 -17 -33 -26z" />
    <glyph glyph-name="guilsinglleft" unicode="&#x2039;" horiz-adv-x="228" 
d="M168 391c7 7 14 14 23 14s22 -11 22 -22s-19 -35 -44 -59s-55 -49 -79 -60l-12 -9l32 -40c11 -16 24 -29 37 -38c1 -1 3 -3 8 -6c9 -6 21 -16 29 -27c4 -5 6 -11 6 -17c0 -11 -7 -18 -21 -20c-9 0 -17 4 -23 11c-7 7 -14 13 -21 18c-24 24 -38 36 -47 44s-15 13 -23 25
c-1 2 -4 5 -7 9c-7 8 -15 19 -20 29c-3 5 -4 9 -4 14c0 24 20 31 31 38c27 13 46 29 63 46c9 9 17 17 25 26c7 8 16 16 25 24z" />
    <glyph glyph-name="guilsinglright" unicode="&#x203a;" horiz-adv-x="228" 
d="M69 121c-7 -7 -14 -14 -23 -14s-22 11 -22 22s19 35 44 59s55 49 79 60l12 9l-32 40c-11 16 -24 29 -37 38c-1 1 -3 3 -8 6c-9 6 -21 16 -29 27c-4 5 -6 11 -6 17c0 11 7 18 21 20c9 0 17 -4 23 -11c7 -7 14 -13 21 -18c24 -24 38 -36 47 -44s15 -13 23 -25
c1 -2 4 -5 7 -9c7 -8 15 -19 20 -29c3 -5 4 -9 4 -14c0 -24 -20 -31 -31 -38c-27 -13 -46 -29 -63 -46c-9 -9 -17 -17 -25 -26c-7 -8 -16 -16 -25 -24z" />
    <glyph glyph-name="quotedblbase" unicode="&#x201e;" horiz-adv-x="173" 
d="M118 74c14 -16 25 -42 25 -85v-11v-16c-1 -5 -1 -10 -1 -14c0 -7 -3 -22 -13 -37s-26 -28 -50 -28c-5 0 -8 3 -8 8c0 11 7 19 15 28c8 8 15 16 15 31c0 27 -19 32 -39 38s-39 14 -39 47c0 12 5 26 13 38s20 21 35 21c13 0 33 -5 47 -20z" />
    <glyph glyph-name="quotedblleft" unicode="&#x201c;" horiz-adv-x="513" 
d="M189 572c12 33 23 56 36 69s31 19 59 19c7 0 15 -3 15 -10s-3 -13 -9 -16c-12 -7 -27 -15 -38 -33c-6 -9 -9 -23 -9 -42c8 -8 16 -14 24 -19c16 -9 31 -19 40 -33c4 -7 6 -17 6 -30c0 -15 -6 -34 -17 -50s-27 -28 -47 -28c-39 0 -59 34 -59 83c-7 15 -10 28 -10 41
c0 11 3 28 9 49zM377 563c25 59 46 81 90 81c21 0 31 -3 31 -8c0 -16 -16 -23 -31 -32c-16 -9 -32 -21 -32 -46c0 -16 19 -23 39 -33s39 -24 39 -52c0 -24 -10 -42 -23 -54c-13 -13 -31 -20 -47 -20c-43 0 -66 31 -66 79c-7 11 -10 20 -10 43c0 9 1 19 10 42z" />
    <glyph glyph-name="quotedblright" unicode="&#x201d;" horiz-adv-x="526" 
d="M330 508c-23 -63 -46 -82 -94 -82c-18 0 -27 3 -27 9c0 12 15 19 31 29s31 23 31 51c-4 11 -12 21 -21 21c-31 8 -57 25 -57 62c0 25 10 44 24 56s32 17 48 17c35 0 64 -21 64 -78c7 -11 10 -24 10 -38c0 -12 -1 -23 -9 -47zM517 499c-11 -35 -21 -57 -35 -70
s-33 -18 -58 -18c-11 0 -17 3 -17 10c0 6 3 11 9 15c12 7 27 18 39 35c6 9 9 21 9 37c-3 7 -9 13 -17 18c-16 10 -33 20 -45 36c-6 8 -9 19 -9 32c0 43 28 77 64 77c13 0 24 -4 35 -13c1 -1 4 -4 8 -9c7 -10 16 -29 22 -55c3 -13 4 -29 4 -46c0 -12 -1 -24 -9 -49z" />
    <glyph glyph-name="quoteleft" unicode="&#x2018;" horiz-adv-x="167" 
d="M26 516c0 11 4 32 16 51c11 19 30 35 59 35c5 0 8 -3 8 -8c0 -8 -9 -19 -17 -26c-9 -7 -17 -13 -21 -21c-2 -5 -3 -11 -3 -18c0 -11 5 -17 14 -20l9 -3c16 -5 28 -9 37 -16c8 -7 13 -18 13 -35c0 -28 -16 -63 -51 -63c-23 0 -39 15 -49 38s-15 54 -15 86z" />
    <glyph glyph-name="quoteright" unicode="&#x2019;" horiz-adv-x="193" 
d="M165 475c0 -56 -26 -98 -73 -98c-5 0 -8 3 -8 8c0 9 8 20 16 27c7 7 12 12 15 19c1 3 2 8 2 15c-4 29 -15 32 -30 32c-43 0 -59 29 -59 58c0 31 22 61 55 61c27 0 45 -12 60 -52c15 -13 22 -32 22 -58v-12z" />
    <glyph glyph-name="quotesinglbase" unicode="&#x201a;" horiz-adv-x="173" 
d="M143 -11v-11v-16c-1 -5 -1 -10 -1 -14c0 -7 -3 -22 -13 -37s-26 -28 -50 -28c-5 0 -8 3 -8 8c0 11 7 19 15 28c8 8 15 16 15 31c0 27 -19 32 -39 38s-39 14 -39 47c0 12 5 26 13 38s20 21 35 21c13 0 33 -5 47 -20c14 -16 25 -42 25 -85z" />
    <glyph glyph-name="space" unicode=" " horiz-adv-x="600" 
 />
    <glyph glyph-name="cent" unicode="&#xa2;" horiz-adv-x="500" 
d="M171 -137h-48l32 143c-19 10 -35 23 -49 41c-40 65 -48 144 -48 218c0 97 14 252 129 283c21 6 41 8 63 8c9 0 18 -1 27 -3l26 114h50l-29 -127c42 -19 73 -55 83 -105c5 -22 8 -42 9 -63h-78c-2 41 -7 77 -30 97l-93 -413c9 -4 20 -4 32 -4c85 0 92 73 97 138h74v-5
c0 -15 -3 -30 -5 -44c-7 -44 -18 -82 -51 -115c-25 -25 -74 -41 -110 -41c-18 0 -36 2 -52 6zM263 489c-6 2 -13 2 -20 2c-61 0 -80 -47 -90 -97c-11 -51 -13 -103 -13 -155c0 -47 4 -112 33 -152z" />
    <glyph glyph-name="currency" unicode="&#xa4;" horiz-adv-x="811" 
d="M65 52l109 109c-34 49 -51 103 -51 163c0 63 17 117 51 164l-109 110l65 65l108 -111c48 38 104 56 167 56c64 0 119 -18 167 -56l109 111l65 -65l-109 -110c35 -47 52 -102 52 -164c0 -59 -17 -114 -52 -163l109 -109l-65 -65l-109 109c-46 -36 -102 -55 -167 -55
s-121 19 -167 55l-108 -109zM196 324c0 -106 81 -210 209 -210c107 0 211 81 211 210c0 107 -82 212 -211 212c-107 0 -209 -83 -209 -212z" />
    <glyph glyph-name="dollar" unicode="$" horiz-adv-x="522" 
d="M500 156c0 -44 -36 -79 -80 -106c-45 -28 -98 -48 -131 -57v-51c0 -29 1 -47 -6 -53c-3 -3 -9 -5 -18 -5c-11 0 -16 11 -19 27s-3 38 -3 61v12h-24c-12 0 -30 1 -55 6c0 -55 -2 -84 -6 -88c-4 -6 -9 -9 -15 -9c-20 0 -28 25 -28 40v70c-19 3 -29 6 -34 10s-5 9 -5 17v1
c0 11 7 13 14 13l27 -4c1 16 1 32 2 48c0 32 2 73 10 127c4 27 10 59 18 96c-32 9 -60 28 -82 52s-36 54 -36 89c0 40 19 71 47 95c28 23 64 39 97 48l39 11c-1 3 -1 7 -1 10v6c0 9 3 23 15 23c15 0 21 -9 24 -36h12c15 0 25 -1 40 -4c0 17 2 27 5 30s7 5 12 5
c12 0 18 -8 22 -19s4 -22 4 -30c17 -4 35 -8 39 -11c1 -1 5 -2 12 -5c14 -5 31 -14 44 -25c7 -5 10 -11 10 -16c0 -7 -5 -16 -16 -16c-3 0 -8 2 -13 5c-12 7 -28 16 -46 25c-9 4 -19 7 -28 8v-60c0 -51 -1 -95 -13 -168c47 -21 78 -37 91 -46c16 -12 35 -27 50 -47
c15 -21 25 -47 25 -79zM305 558v6c-5 1 -11 3 -20 4s-21 2 -38 3c0 -69 -4 -107 -11 -138c-4 -15 -9 -30 -14 -43l-18 -48c14 -2 28 -3 43 -4c14 -1 28 -4 42 -7c0 1 0 4 1 7l2 28c0 19 2 45 5 78s6 71 8 114zM121 368c13 -9 32 -17 40 -17c17 48 30 86 36 119
c6 32 8 61 8 93c-32 -4 -65 -18 -90 -38c-25 -21 -43 -49 -43 -82c0 -27 14 -52 49 -75zM177 239c-15 -69 -15 -137 -15 -208c11 -3 20 -5 36 -5c15 0 28 1 51 5c7 54 15 104 23 151s12 84 12 111c-15 3 -50 7 -83 7h-10zM426 100c19 19 29 40 29 61c0 29 -20 55 -45 75
s-58 36 -82 45c-3 -11 -5 -24 -6 -38c-2 -15 -4 -31 -7 -48l-12 -78c-5 -31 -10 -66 -11 -82c48 9 94 36 134 65z" />
    <glyph glyph-name="Euro" unicode="&#x20ac;" horiz-adv-x="550" 
d="M195 206c20 -93 71 -139 160 -139c48 0 93 13 134 36v-80c-45 -21 -92 -32 -143 -32c-137 0 -218 72 -243 215h-78v66h70c-1 13 -1 24 -1 40s1 32 2 47h-71v67h81c29 136 119 221 245 221c52 0 95 -11 138 -31v-83c-41 24 -84 38 -136 38c-81 0 -133 -50 -157 -145h196
v-67h-206c-1 -13 -2 -27 -2 -42c0 -16 1 -29 1 -45h207v-66h-197z" />
    <glyph glyph-name="florin" unicode="&#x192;" horiz-adv-x="550" 
d="M299 310l-31 -225c-16 -127 -48 -199 -180 -199c-23 0 -44 3 -67 8v70c20 -3 41 -5 68 -5c53 0 78 36 87 99l34 252h-142v70h151l18 133c17 121 74 182 185 182c24 0 56 -4 79 -7v-76c-21 5 -50 10 -77 10c-60 0 -88 -34 -97 -101l-19 -141h161v-70h-170z" />
    <glyph glyph-name="sterling" unicode="&#xa3;" horiz-adv-x="500" 
d="M30 338v44h75c-30 55 -53 105 -53 168c0 41 11 85 35 119c41 57 98 81 179 81c114 0 190 -65 200 -179c1 -11 2 -23 2 -34c0 -5 0 -10 -1 -15h-83v16c0 12 0 28 -2 39c-11 66 -56 98 -122 98c-84 0 -122 -57 -122 -135c0 -55 26 -111 52 -158h164v-44h-145
c2 -6 6 -11 7 -17c7 -16 11 -39 11 -57c0 -82 -54 -152 -114 -200l2 -2c22 14 46 23 71 27c12 2 24 3 36 3c14 0 28 -1 41 -4c25 -8 52 -13 77 -20c11 -3 21 -4 30 -4c32 0 59 13 87 33l28 -67c-46 -34 -69 -40 -125 -40c-29 0 -84 22 -117 30c-19 4 -38 6 -57 6
c-47 0 -77 -17 -115 -41l-41 61c66 54 117 110 117 200c0 32 -9 63 -22 92h-95z" />
    <glyph glyph-name="yen" unicode="&#xa5;" horiz-adv-x="500" 
d="M205 291l-222 459h100l167 -376l174 376h94l-231 -459v-29h138v-44h-138v-76h138v-44h-138v-98h-82v98h-138v44h138v76h-138v44h138v29z" />
    <glyph glyph-name="approxequal" unicode="&#x2248;" horiz-adv-x="481" 
d="M101 316l14 18c8 11 17 21 32 26c7 3 17 4 28 4c5 0 15 -1 31 -8c15 -7 37 -18 69 -41c13 -7 24 -10 39 -10c13 0 18 11 23 21c4 10 9 20 25 20c9 0 13 -5 13 -14c0 -41 -35 -61 -68 -61c-23 0 -48 15 -72 30s-47 29 -67 29c-4 0 -8 -2 -12 -7c-9 -9 -19 -21 -30 -30
c-6 -5 -12 -7 -18 -7c-9 0 -14 4 -14 13c0 5 2 11 7 17zM103 206l14 18c8 11 17 21 32 26c7 3 17 4 28 4c5 0 15 -1 31 -8c15 -7 37 -18 69 -41c13 -7 24 -10 39 -10c13 0 18 11 23 21c4 10 9 20 25 20c9 0 13 -5 13 -14c0 -41 -35 -61 -68 -61c-23 0 -48 14 -72 30
c-24 15 -47 29 -67 29c-4 0 -8 -2 -12 -7c-9 -9 -19 -21 -30 -30c-6 -5 -12 -7 -18 -7c-9 0 -14 4 -14 13c0 5 2 11 7 17z" />
    <glyph glyph-name="asciitilde" unicode="~" horiz-adv-x="481" 
d="M103 206l14 18c8 11 17 21 32 26c7 3 17 4 28 4c5 0 15 -1 31 -8c15 -7 37 -18 69 -41c13 -7 24 -10 39 -10c13 0 18 11 23 21c4 10 9 20 25 20c9 0 13 -5 13 -14c0 -41 -35 -61 -68 -61c-23 0 -48 14 -72 30c-24 15 -47 29 -67 29c-4 0 -8 -2 -12 -7
c-9 -9 -19 -21 -30 -30c-6 -5 -12 -7 -18 -7c-9 0 -14 4 -14 13c0 5 2 11 7 17z" />
    <glyph glyph-name="divide" unicode="&#xf7;" horiz-adv-x="600" 
d="M246 414c0 29 25 54 54 54s54 -25 54 -54s-25 -54 -54 -54s-54 25 -54 54zM71 203v52h458v-52h-458zM246 44c0 29 25 54 54 54s54 -25 54 -54s-25 -54 -54 -54s-54 25 -54 54z" />
    <glyph glyph-name="equal" unicode="=" horiz-adv-x="481" 
d="M116 252c-11 3 -26 5 -26 26c0 24 22 26 41 26h4c35 0 70 -3 105 -6h23c26 -1 57 -5 81 -16c11 -5 17 -13 17 -24c0 -9 -6 -16 -17 -19c-12 -3 -29 -5 -52 -5c-44 0 -82 3 -113 8s-52 9 -63 10zM381 173c3 1 6 1 11 1c15 0 18 -7 18 -16c0 -27 -33 -39 -73 -46
s-88 -7 -119 -7c-23 0 -60 0 -92 5c-32 4 -58 13 -58 30s10 23 25 23l22 -1c16 -1 33 -2 51 -5s36 -4 53 -4c56 0 109 4 162 20z" />
    <glyph glyph-name="greater" unicode="&#x3e;" horiz-adv-x="481" 
d="M43 392h2c8 0 22 -5 37 -12l22 -12c7 -5 13 -9 19 -12c41 -24 76 -42 111 -58c17 -9 35 -17 52 -25s36 -17 55 -27c3 -1 8 -3 15 -5c14 -4 30 -10 42 -18c5 -5 8 -10 8 -15c0 -4 -3 -9 -10 -14c-14 -11 -36 -21 -60 -33l-34 -16c-15 -8 -33 -16 -53 -23
c-40 -16 -84 -34 -128 -57c-22 -11 -43 -24 -62 -39c-8 -5 -20 -11 -27 -11c-9 0 -16 9 -16 16c0 6 6 14 18 23c23 18 61 39 109 63c47 23 96 45 140 65l57 26c-44 17 -83 38 -125 60c-21 11 -43 22 -65 34l-72 37c-7 3 -19 9 -30 16c-12 7 -22 15 -22 20c0 11 8 17 17 17z
" />
    <glyph glyph-name="less" unicode="&#x3c;" horiz-adv-x="481" 
d="M401 417c11 0 19 -9 19 -18c0 -11 -15 -21 -34 -29c-10 -5 -20 -9 -30 -13c-10 -5 -18 -9 -25 -13c-75 -45 -145 -79 -226 -111l279 -139c3 -2 7 -4 12 -6c11 -5 21 -12 29 -20c3 -4 5 -8 5 -13c0 -9 -8 -15 -16 -15c-11 0 -38 16 -54 27c-60 33 -110 61 -158 85
c-48 23 -93 43 -142 60c-9 3 -20 9 -20 20s9 15 18 19c40 16 80 34 129 59c24 12 51 26 81 42s65 34 104 54c5 2 9 4 14 7s10 4 15 4z" />
    <glyph glyph-name="logicalnot" unicode="&#xac;" horiz-adv-x="590" 
d="M49 379h492v-198h-61v137h-431v61z" />
    <glyph glyph-name="uni00B5" unicode="&#xb5;" horiz-adv-x="550" 
d="M163 490v-312c0 -75 28 -113 85 -113c43 0 76 22 133 100v325h85v-336c0 -66 12 -87 51 -87h9v-68c-9 -1 -21 -4 -34 -4c-66 0 -88 33 -101 89c-55 -73 -107 -92 -149 -92c-35 0 -63 12 -86 37l7 -84v-145h-85v690h85z" />
    <glyph glyph-name="minus" unicode="&#x2212;" horiz-adv-x="305" 
d="M42 247v7c0 12 15 18 35 22s45 5 65 5h40c17 0 34 -1 47 -5c12 -4 21 -12 21 -27c0 -23 -38 -29 -74 -29h-69c-7 0 -23 0 -38 4c-15 3 -27 10 -27 23z" />
    <glyph glyph-name="multiply" unicode="&#xd7;" horiz-adv-x="465" 
d="M359 241l-24 -24l-12 -10c-16 -12 -35 -29 -48 -41c-7 -6 -10 -9 -9 -10c21 -21 34 -37 43 -49c9 -13 18 -25 31 -38c13 -15 34 -40 34 -63c0 -7 -7 -16 -22 -16c-16 0 -36 24 -56 53c-11 14 -21 29 -31 44l-28 39l-36 -38l-50 -71c-2 -4 -4 -8 -5 -12
c-4 -9 -7 -16 -14 -20c-4 -2 -9 -3 -16 -3c-12 0 -18 6 -18 19c0 16 14 43 25 60c5 9 26 30 46 50c10 10 19 19 27 28c7 8 11 14 11 17c0 1 -4 6 -11 13c-16 14 -38 34 -61 52c-12 9 -22 16 -30 21c-4 1 -19 7 -32 15s-26 18 -26 30c0 11 8 14 17 14c20 0 39 -9 66 -28
c13 -9 29 -21 46 -36l60 -52c3 3 7 7 11 12c8 8 22 22 46 43c11 10 27 23 46 38l8 7c9 8 22 18 35 25c6 3 12 5 17 5c9 0 19 -4 19 -15s-12 -22 -24 -31l-20 -14c-7 -5 -12 -9 -15 -14z" />
    <glyph glyph-name="percent" unicode="%" horiz-adv-x="758" 
d="M536 612c3 7 10 8 14 8c7 0 18 -4 18 -13c0 -12 -5 -19 -12 -28l-71 -106l-11 -18c-13 -20 -33 -50 -56 -85c-12 -18 -24 -36 -35 -54c-24 -36 -46 -70 -62 -93c-15 -21 -24 -36 -37 -59c-1 -3 -5 -9 -10 -18c-12 -19 -28 -44 -47 -72c-20 -28 -38 -52 -54 -67
c-8 -8 -14 -12 -19 -12c-9 0 -13 5 -13 15c8 20 22 44 38 66l44 61zM94 495c20 40 61 61 104 61c61 0 111 -41 111 -104c0 -41 -15 -71 -35 -90c-21 -20 -48 -29 -73 -29c-29 0 -59 11 -82 30c-24 19 -40 45 -40 77c0 17 5 36 15 55zM170 382c13 -3 24 -5 31 -5
c41 0 68 27 68 68c0 45 -35 69 -72 69c-19 0 -38 -7 -53 -19c-15 -13 -26 -32 -26 -53c0 -29 24 -51 52 -60zM548 253c19 0 40 -7 56 -21s28 -34 28 -55c0 -28 -10 -58 -28 -80s-44 -38 -76 -38c-28 0 -54 11 -72 30s-30 42 -30 69c0 36 16 59 39 74s54 21 83 21zM534 105h1
c16 0 30 9 39 22c9 12 14 29 14 42c0 31 -24 42 -48 42c-35 0 -70 -21 -70 -57c0 -33 33 -49 64 -49z" />
    <glyph glyph-name="perthousand" unicode="&#x2030;" horiz-adv-x="1091" 
d="M560 636c3 5 8 8 14 8c9 0 18 -4 18 -15c-1 -7 -7 -21 -19 -41c-25 -41 -62 -96 -101 -153c-40 -57 -62 -92 -92 -138l-47 -72c-32 -49 -66 -99 -94 -138c-14 -19 -26 -35 -37 -47c-11 -13 -19 -19 -24 -20h-1c-7 0 -14 6 -14 14c0 3 5 11 14 25s20 31 33 50
c27 39 58 85 82 121zM118 519c20 39 61 62 104 62c33 0 61 -12 81 -31c19 -20 30 -46 30 -74c0 -40 -14 -69 -34 -89s-47 -30 -74 -30c-29 0 -59 10 -82 30c-24 19 -39 45 -39 77c0 20 5 36 14 55zM194 406l32 -4c39 0 67 26 67 67c0 24 -9 42 -23 53s-33 16 -49 16
c-19 0 -38 -7 -53 -19c-15 -13 -26 -32 -26 -53c0 -31 28 -53 52 -60zM572 278c20 0 41 -9 57 -22s27 -34 27 -55c0 -31 -11 -59 -30 -81s-45 -37 -74 -37c-27 0 -52 12 -71 30s-31 42 -31 69c0 36 16 59 39 75c23 15 54 21 83 21zM867 238c47 0 84 -34 84 -77
c0 -29 -11 -58 -30 -80s-45 -37 -74 -37c-27 0 -52 11 -71 28s-31 43 -31 71c0 33 14 57 37 73c23 15 52 22 84 22h1zM559 130c31 0 54 32 54 63c0 27 -18 43 -49 43c-33 0 -70 -21 -70 -58c0 -35 35 -48 64 -48h1zM854 90c32 0 53 36 53 64s-16 42 -49 42
c-35 0 -69 -21 -69 -57c0 -31 28 -49 64 -49h1z" />
    <glyph glyph-name="plus" unicode="+" horiz-adv-x="481" 
d="M370 222c20 -3 29 -17 29 -34c0 -18 -19 -27 -58 -27h-64l3 -44c1 -13 1 -25 1 -37c0 -47 -5 -60 -32 -60c-23 0 -33 29 -37 62c-3 16 -4 32 -5 49c-1 16 -2 28 -3 36h-5c-21 1 -53 3 -80 9c-28 6 -49 16 -49 35c0 31 26 34 53 34c10 0 21 -1 34 -2s27 -2 42 -2
c-3 31 -3 58 -3 81c0 20 16 35 33 35c15 0 24 -14 29 -37s7 -53 10 -85c11 0 30 -2 50 -5c19 -3 40 -5 52 -8z" />
    <glyph glyph-name="plusminus" unicode="&#xb1;" horiz-adv-x="481" 
d="M370 382c20 -3 29 -17 29 -34c0 -19 -18 -27 -58 -27h-64c1 -33 4 -57 4 -81c0 -47 -6 -60 -32 -60c-45 0 -40 114 -45 147h-5c-42 2 -129 6 -129 44c0 31 26 34 53 34c20 0 46 -4 76 -4c-2 30 -3 59 -3 81c0 20 16 35 33 35c30 0 35 -59 39 -122c21 -1 77 -8 102 -13z
M152 74c0 23 61 27 100 27h40c34 0 68 -3 68 -32c0 -23 -38 -29 -74 -29h-69c-14 0 -65 1 -65 27v7z" />
    <glyph glyph-name="bar" unicode="|" horiz-adv-x="138" 
d="M34 588c0 11 10 16 19 16s21 -5 22 -16v-125c0 -28 -2 -35 -5 -47c-1 -6 -2 -15 -3 -26s-2 -30 -2 -55c0 -28 2 -52 5 -75c3 -24 5 -47 5 -74c0 -49 3 -79 5 -98c1 -10 2 -18 3 -23c1 -6 1 -11 1 -15c0 -15 -2 -31 -17 -31c-11 0 -15 9 -18 22c-3 12 -5 30 -6 47
c0 44 -3 80 -6 116c-4 35 -7 69 -7 106v27c0 17 0 33 1 46s1 26 2 37c0 11 0 21 1 31v32v105z" />
    <glyph glyph-name="brokenbar" unicode="&#xa6;" horiz-adv-x="470" 
d="M265 392h-61v423h61v-423zM204 203h61v-423h-61v423z" />
    <glyph glyph-name="at" unicode="@" horiz-adv-x="786" 
d="M691 184c13 0 16 -10 16 -18s-6 -22 -13 -33c-24 -49 -67 -84 -118 -105s-108 -31 -161 -31c-76 0 -166 23 -224 69s-90 105 -102 173c-6 34 -9 68 -9 103c0 105 34 169 85 205s119 46 186 46c88 0 170 -17 230 -56c59 -39 96 -99 96 -183c0 -43 -9 -86 -37 -118
s-75 -53 -148 -53c-56 0 -96 15 -117 51c-23 -23 -55 -35 -86 -35c-36 0 -70 13 -95 36s-42 54 -42 93c0 14 3 29 8 45c19 44 46 71 77 88c31 16 63 22 94 22c12 0 24 -1 36 -2c11 -1 23 -3 35 -4c0 9 8 22 17 22c14 0 21 -7 21 -21c0 -4 -3 -16 -9 -36
c-6 -21 -13 -52 -20 -93c-5 -28 -6 -45 -6 -70c0 -21 5 -37 20 -47s40 -15 79 -15c97 0 138 56 138 143c0 81 -42 130 -98 159c-57 29 -128 38 -184 38c-100 0 -162 -22 -198 -61c-37 -39 -48 -93 -48 -157c0 -80 14 -157 53 -204s94 -77 156 -92c31 -7 61 -11 92 -11
c111 0 201 33 246 114c3 5 8 15 13 23s12 15 17 15zM365 278c3 10 5 21 6 34c1 24 6 53 13 86c3 16 7 31 10 46c-27 4 -40 4 -63 4c-35 0 -70 -11 -97 -32c-28 -21 -47 -52 -47 -92c0 -28 12 -50 32 -65c19 -16 44 -25 69 -25c32 0 61 16 77 45v-1z" />
    <glyph glyph-name="ampersand" unicode="&#x26;" horiz-adv-x="619" 
d="M255 550c21 5 36 8 45 8c17 0 48 -7 75 -22c27 -16 48 -40 48 -73c0 -25 -18 -46 -44 -64s-58 -32 -85 -41c-13 -5 -25 -8 -34 -11c-10 -3 -16 -4 -17 -4c19 -37 35 -69 53 -98s38 -58 62 -87c5 11 24 33 41 33c5 0 12 -2 12 -13c0 -19 -9 -29 -20 -40l-8 -8
c0 -1 2 -4 7 -10c9 -12 22 -28 31 -43c5 -8 7 -14 7 -19c0 -7 -4 -14 -13 -14c-12 0 -21 9 -29 21c-4 6 -8 12 -12 19c-5 7 -9 12 -14 17c-41 -37 -106 -65 -169 -65c-36 0 -67 9 -90 26c-24 17 -38 43 -38 79c0 44 12 78 26 104c7 13 14 23 22 32s15 16 20 22
c36 36 51 47 70 59c-9 37 -13 64 -13 79c0 47 19 97 67 113zM222 426c0 -19 6 -42 10 -50l39 12c13 3 25 8 37 13l17 7c16 6 35 16 49 32c7 7 11 17 12 28v4c0 19 -16 32 -35 40s-40 11 -51 11c-51 0 -77 -20 -78 -97zM135 78c19 -7 34 -10 54 -10c47 0 94 8 147 61
c-48 60 -91 123 -122 195c-5 -3 -8 -6 -11 -9s-8 -6 -13 -10l-20 -18c-21 -19 -45 -48 -62 -84c-9 -18 -13 -36 -13 -55c0 -47 17 -58 40 -70z" />
    <glyph glyph-name="paragraph" unicode="&#xb6;" horiz-adv-x="479" 
d="M91 562c20 16 59 31 86 31c29 0 46 -16 55 -42s12 -60 12 -96c0 -23 -2 -44 -6 -62c-5 -18 -7 -34 -7 -48v-423c0 -16 -15 -20 -24 -20c-11 0 -22 7 -22 19v136c0 108 0 216 -7 324c-20 0 -52 5 -79 18c-28 12 -49 34 -49 66c0 39 14 72 41 97zM318 562l1 6
c0 11 8 19 19 19c21 0 29 -17 29 -32v-202c0 -31 -3 -62 -10 -98c-8 -37 -16 -79 -22 -124c-3 -23 -5 -46 -5 -69c0 -21 1 -42 4 -61c2 -20 3 -37 3 -51c0 -23 -5 -38 -22 -38c-3 0 -7 2 -11 5s-8 9 -11 18c-7 19 -11 51 -11 108c0 19 1 36 4 53c3 29 7 56 12 81
c8 51 17 98 22 144c3 23 4 46 4 70c0 57 -3 115 -6 171z" />
    <glyph glyph-name="copyright" unicode="&#xa9;" horiz-adv-x="841" 
d="M404 593c33 11 61 17 92 17c35 0 66 -10 99 -37c108 -85 166 -143 166 -208c0 -47 -26 -100 -69 -151c-44 -52 -102 -101 -168 -137s-139 -59 -207 -59c-51 0 -98 12 -135 49c-16 16 -47 53 -74 98c-28 45 -51 96 -51 143c0 40 15 77 37 110c22 32 51 60 82 83
c49 36 87 53 123 65c17 5 35 10 52 14c17 3 34 8 53 13zM656 470l-25 26c-9 11 -28 32 -52 51s-53 35 -84 35c-19 0 -40 -7 -62 -14c-22 -8 -45 -17 -65 -18c-21 -4 -59 -15 -99 -34c-41 -19 -84 -45 -117 -80s-57 -79 -57 -131c0 -35 10 -66 29 -94
c47 -77 78 -116 107 -136c28 -20 54 -21 93 -21c45 0 88 12 128 29s77 40 112 63c21 15 62 43 97 81s65 85 65 140c0 44 -35 74 -70 103zM328 465c15 7 29 12 42 14l49 8h66c17 0 22 -6 22 -17s-11 -18 -22 -18h-74c-25 0 -41 -6 -66 -19s-54 -36 -74 -68
c-10 -17 -15 -35 -15 -56c0 -29 19 -53 44 -69c24 -16 55 -25 82 -25c25 0 46 9 64 21c9 6 18 13 27 21c9 7 18 15 28 22c21 15 31 28 36 37c5 8 7 13 15 13c9 0 18 -6 18 -17c0 -17 -28 -51 -66 -79c-38 -29 -84 -54 -119 -54c-39 0 -80 13 -111 35c-32 22 -54 54 -54 95
c0 35 14 66 34 92s47 48 74 64z" />
    <glyph glyph-name="registered" unicode="&#xae;" horiz-adv-x="832" 
d="M385 605c3 1 7 2 11 2h12c53 0 93 -14 122 -35c28 -21 47 -50 60 -79c7 -16 14 -32 23 -47c17 -31 32 -62 42 -94c5 -17 7 -34 7 -52c0 -63 -37 -131 -93 -185s-132 -93 -208 -93c-24 0 -45 3 -65 10c-12 4 -37 17 -65 38s-58 51 -82 88s-41 81 -41 133
c0 51 13 105 37 150c23 43 44 79 78 107s82 48 162 57zM312 62v1c16 -6 33 -9 51 -9c55 0 121 31 174 77c52 46 91 108 91 172c0 33 -11 65 -26 96c-8 15 -16 30 -25 45s-17 29 -24 44c-15 29 -40 50 -72 63c-32 12 -69 18 -105 18s-75 -6 -118 -41
c-43 -36 -76 -85 -95 -141c-10 -28 -15 -55 -15 -82c0 -47 14 -97 42 -141c27 -45 67 -83 122 -102zM311 496c11 8 25 13 37 13c16 0 41 -8 62 -23c21 -16 39 -37 39 -64c0 -25 -12 -41 -29 -52c-17 -12 -43 -19 -68 -27c16 -20 34 -31 52 -41s35 -20 55 -35
c4 -1 15 -6 26 -13c11 -8 20 -18 20 -27s-9 -17 -18 -17c-4 0 -13 5 -22 10c-5 2 -9 4 -13 7l-13 7c-37 19 -71 44 -102 74c2 -11 3 -23 4 -36c1 -26 4 -82 -1 -96c-3 -7 -7 -11 -14 -11c-11 0 -18 12 -20 36c-2 23 -3 54 -3 92c0 6 -1 14 -2 24c-3 19 -5 44 -8 70
c-1 13 -2 25 -2 37c0 25 1 53 20 72zM329 444c0 -24 1 -48 3 -72c6 3 11 4 16 5l17 5c14 3 29 9 40 20c5 5 8 12 8 20c0 11 -7 24 -18 34s-25 16 -41 16c-15 0 -25 -8 -25 -28z" />
    <glyph glyph-name="section" unicode="&#xa7;" horiz-adv-x="491" 
d="M379 194c0 -20 -3 -45 -11 -68c-8 -24 -21 -47 -38 -63c31 -23 46 -51 46 -79c0 -37 -19 -70 -49 -94s-71 -38 -115 -38c-24 0 -51 8 -73 24c-22 15 -38 38 -38 67c0 12 3 22 8 31c2 3 5 6 8 11c6 8 17 15 37 20c10 3 23 4 39 4c12 0 25 -2 25 -14c0 -23 -18 -26 -36 -29
s-36 -4 -36 -21c4 -32 38 -54 73 -54c19 0 46 8 69 22s40 34 40 62c0 24 -12 42 -28 55c-17 12 -40 19 -61 22c-52 12 -97 36 -129 67s-50 69 -50 106c0 60 41 113 105 146c-31 27 -60 65 -60 108c0 67 46 108 102 108c35 0 60 -15 77 -36s25 -49 25 -74
c0 -27 -7 -53 -28 -53c-13 0 -26 4 -26 19c0 5 1 10 4 16c2 6 3 13 3 22s-3 25 -11 38c-9 13 -25 25 -52 25c-33 0 -49 -30 -49 -57c0 -37 32 -73 57 -93c20 -16 40 -31 61 -45c41 -29 75 -60 96 -95c10 -18 15 -38 15 -60zM252 95c6 -1 12 -4 17 -7s11 -5 17 -5
c3 0 8 3 13 9c11 11 22 30 30 54c4 11 6 23 6 35c-1 56 -36 89 -93 137c-8 7 -18 13 -26 18c-5 2 -8 4 -11 5s-5 2 -5 1c-7 -6 -16 -13 -27 -21c-22 -16 -43 -36 -58 -60c-7 -12 -11 -25 -11 -39c0 -21 13 -48 38 -72c24 -25 62 -46 110 -55z" />
    <glyph glyph-name="trademark" unicode="&#x2122;" horiz-adv-x="767" 
d="M613 262l-17 258c-8 -16 -17 -40 -28 -68c-25 -71 -35 -120 -42 -152c-8 -33 -14 -48 -31 -48l-18 9c-4 9 -13 34 -20 58c-8 24 -18 58 -27 91c-9 32 -19 65 -31 88l-17 -222c0 -12 -8 -25 -23 -25c-12 0 -25 11 -25 28c3 5 5 30 8 75c2 44 6 111 12 201c4 28 7 37 30 37
c3 0 11 -1 19 -4s16 -7 16 -15l74 -229c8 44 25 110 46 164c20 54 43 96 66 96h5c7 -1 14 -4 22 -9c3 -3 6 -6 7 -11c8 -113 14 -189 18 -238l5 -55c1 -12 2 -20 2 -24c0 -15 -13 -22 -25 -22c-7 0 -26 4 -26 17zM288 531l-29 3c-13 0 -24 -1 -33 -4v-191
c0 -19 0 -40 -3 -57c-4 -17 -9 -29 -17 -29h-13c-17 0 -23 10 -23 37v57c2 33 3 62 3 87v80c0 15 -14 19 -33 20c-9 1 -20 1 -31 1c-23 0 -42 1 -54 9c-7 3 -10 9 -10 18s6 28 19 28h172c1 0 5 0 11 1s13 1 21 1c5 0 19 -1 30 -4c11 -4 21 -11 21 -23c0 -25 -12 -34 -31 -34
z" />
    <glyph glyph-name="degree" unicode="&#xb0;" horiz-adv-x="259" 
d="M115 460c-51 0 -82 41 -82 92c0 21 9 43 25 58c15 15 34 25 57 25c25 0 47 -12 61 -28c14 -17 21 -40 21 -61c0 -19 -9 -40 -24 -57s-35 -29 -58 -29zM111 591c-27 -7 -41 -21 -41 -44c0 -28 21 -43 44 -43c25 0 46 22 46 47c0 28 -26 40 -49 40z" />
    <glyph glyph-name="asciicircum" unicode="^" horiz-adv-x="426" 
d="M355 272c0 -9 -8 -19 -17 -19c-15 0 -21 17 -25 30c-7 21 -17 39 -30 58c-37 56 -64 114 -85 178c-7 -14 -14 -27 -20 -38c-6 -12 -12 -23 -17 -32c-5 -8 -12 -22 -21 -41c-19 -39 -42 -83 -63 -114c-11 -16 -20 -24 -28 -24c-11 0 -15 11 -15 16c0 4 6 16 13 29
c3 7 7 13 11 20l10 16l35 60c21 36 40 69 56 105c2 4 4 10 6 18c4 16 10 31 18 43c4 5 9 8 14 8c7 0 15 -7 23 -21c16 -29 32 -70 45 -106c12 -37 18 -46 34 -70s34 -53 47 -80c6 -14 9 -26 9 -36z" />
    <glyph glyph-name="dagger" unicode="&#x2020;" horiz-adv-x="550" 
d="M462 489h-145v-365h-84v365h-145v71h145v130h84v-130h145v-71z" />
    <glyph glyph-name="daggerdbl" unicode="&#x2021;" horiz-adv-x="550" 
d="M88 489v71h145v130h84v-130h145v-71h-145v-281h145v-72h-145v-136h-84v136h-145v72h145v281h-145z" />
    <glyph glyph-name="acute" unicode="&#xb4;" horiz-adv-x="491" 
d="M385 660l-156 -118h-85l118 118h123z" />
    <glyph glyph-name="breve" unicode="&#x2d8;" horiz-adv-x="333" 
d="M61 765c12 -55 52 -77 106 -77c56 0 92 20 105 77h49c-4 -95 -69 -136 -158 -136c-82 0 -147 41 -151 136h49z" />
    <glyph glyph-name="caron" unicode="&#x2c7;" horiz-adv-x="343" 
d="M247 551l66 94h80l-100 -141h-93l-99 141h80z" />
    <glyph glyph-name="cedilla" unicode="&#xb8;" horiz-adv-x="333" 
d="M101 -86l63 86h48l-46 -60l2 -2c6 2 15 3 24 3c37 0 89 -17 89 -73c0 -70 -64 -92 -124 -92h-8c-29 4 -56 10 -83 21l17 40c22 -8 41 -15 65 -15c32 0 42 10 53 23c3 3 4 9 4 15c0 14 -7 31 -27 39c-7 3 -14 4 -21 4c-13 0 -27 -4 -39 -8z" />
    <glyph glyph-name="circumflex" unicode="&#x2c6;" horiz-adv-x="343" 
d="M177 608l-66 -94h-80l100 141h93l99 -141h-80z" />
    <glyph glyph-name="dieresis" unicode="&#xa8;" horiz-adv-x="268" 
d="M131 525c0 -22 -11 -33 -33 -33c-21 0 -32 11 -32 33s11 33 32 33c22 0 33 -11 33 -33zM281 525c0 -22 -11 -33 -33 -33c-21 0 -32 11 -32 33c0 21 11 32 32 32c22 0 33 -11 33 -32z" />
    <glyph glyph-name="dotaccent" unicode="&#x2d9;" horiz-adv-x="250" 
d="M86 650v100h79v-100h-79z" />
    <glyph glyph-name="grave" unicode="`" horiz-adv-x="243" 
d="M160 619l89 -141h-67l-131 141h109z" />
    <glyph glyph-name="hungarumlaut" unicode="&#x2dd;" horiz-adv-x="440" 
d="M150 765h109l-131 -141h-67zM331 765h109l-131 -141h-67z" />
    <glyph glyph-name="macron" unicode="&#xaf;" horiz-adv-x="550" 
d="M403 598h-256v65h256v-65z" />
    <glyph glyph-name="ogonek" unicode="&#x2db;" horiz-adv-x="333" 
d="M238 -184c-30 -14 -58 -20 -84 -20c-48 0 -96 30 -96 82c0 49 29 93 84 144l68 -12c-50 -39 -77 -72 -77 -106v-8c0 -26 19 -38 43 -38c23 0 44 8 62 17v-59z" />
    <glyph glyph-name="ring" unicode="&#x2da;" horiz-adv-x="250" 
d="M175 483c-55 0 -102 46 -102 102c0 55 47 101 102 101s102 -45 102 -101s-46 -102 -102 -102zM175 646c-32 0 -62 -29 -62 -61s29 -62 62 -62s62 29 62 62s-30 61 -62 61z" />
    <glyph glyph-name="tilde" unicode="&#x2dc;" horiz-adv-x="481" 
d="M13 568c10 15 19 29 26 42c15 24 29 41 45 50c8 4 17 6 28 6c16 0 31 -3 44 -9c5 -3 12 -6 22 -11l30 -15c20 -10 40 -20 45 -20c27 0 38 13 61 64l43 -38c-13 -25 -28 -50 -44 -68s-34 -30 -53 -30c-12 0 -18 2 -30 6c-27 11 -51 24 -71 34s-37 17 -46 17
c-27 0 -38 -29 -62 -73z" />
  </font>
</defs>
</svg>
