<?xml version="1.0" standalone="no"?>
<!DOCTYPE svg PUBLIC "-//W3C//DTD SVG 1.1//EN" "http://www.w3.org/Graphics/SVG/1.1/DTD/svg11.dtd" >
<svg>
<metadata>
Created by FontForge 20120731 at Mon Mar 11 17:02:00 2019
 By www-data
copyright missing
</metadata>
<defs>
<font id="SandroUniversal-Bold" horiz-adv-x="550" >
  <font-face 
    font-family="Sandro Universal"
    font-weight="400"
    font-stretch="normal"
    units-per-em="1000"
    panose-1="0 0 5 0 0 0 0 0 0 0"
    ascent="800"
    descent="-200"
    x-height="403"
    cap-height="564"
    bbox="-78 -300 1174 864"
    underline-thickness="50"
    underline-position="-50"
    unicode-range="U+0020-2248"
  />
<missing-glyph 
d="M451 800v-1100h-349v1100h349zM366 726h-181v-36h71v-41h-72v-36h182v36h-72v41h72v36zM294 584h-110v-114h182v37h-72v77zM256 547v-40h-36v40h36zM366 440h-182v-36h72v-41h-72v-36h110v77h72v36zM366 374h-36v-72h-146v-38h182v110zM366 240h-110v-61h38v25h36v-52
h-110v88h-36v-124h182v124zM366 50h-182v-124h182v124zM330 14v-52h-110v52h110zM366 -100h-182v-36h77l-77 -52v-36h182v36h-112l77 52h35v36z" />
    <glyph glyph-name=".notdef" 
d="M451 800v-1100h-349v1100h349zM366 726h-181v-36h71v-41h-72v-36h182v36h-72v41h72v36zM294 584h-110v-114h182v37h-72v77zM256 547v-40h-36v40h36zM366 440h-182v-36h72v-41h-72v-36h110v77h72v36zM366 374h-36v-72h-146v-38h182v110zM366 240h-110v-61h38v25h36v-52
h-110v88h-36v-124h182v124zM366 50h-182v-124h182v124zM330 14v-52h-110v52h110zM366 -100h-182v-36h77l-77 -52v-36h182v36h-112l77 52h35v36z" />
    <glyph glyph-name="A" unicode="A" horiz-adv-x="612" 
d="M485 6l-21 116c-7 32 -18 68 -30 99h-258c-4 -17 -7 -36 -10 -60c-4 -24 -5 -55 -5 -96c0 -20 -1 -39 -5 -54c-4 -16 -13 -26 -26 -26h-2c-25 0 -30 23 -30 62c0 171 42 317 86 429c8 21 21 52 35 76s32 43 52 43c36 0 75 -35 108 -81c32 -46 60 -105 76 -150
c21 -63 37 -114 50 -160c12 -46 20 -88 28 -128l12 -66c0 -15 -12 -32 -28 -32s-28 12 -32 28zM420 270c-20 79 -44 136 -70 176s-52 63 -73 72c-44 -71 -74 -145 -90 -248h233z" />
    <glyph glyph-name="Aacute" unicode="&#xc1;" horiz-adv-x="612" 
d="M314 647h-119l128 128h161zM485 6l-21 116c-7 32 -18 68 -30 99h-258c-4 -17 -7 -36 -10 -60c-4 -24 -5 -55 -5 -96c0 -20 -1 -39 -5 -54c-4 -16 -13 -26 -26 -26h-2c-25 0 -30 23 -30 62c0 171 42 317 86 429c8 21 21 52 35 76s32 43 52 43c36 0 75 -35 108 -81
c32 -46 60 -105 76 -150c21 -63 37 -114 50 -160c12 -46 20 -88 28 -128l12 -66c0 -15 -12 -32 -28 -32s-28 12 -32 28zM420 270c-20 79 -44 136 -70 176s-52 63 -73 72c-44 -71 -74 -145 -90 -248h233z" />
    <glyph glyph-name="Acircumflex" unicode="&#xc2;" horiz-adv-x="612" 
d="M341 790l120 -128h-106l-60 60l-60 -60h-104l120 128h90zM485 6l-21 116c-7 32 -18 68 -30 99h-258c-4 -17 -7 -36 -10 -60c-4 -24 -5 -55 -5 -96c0 -20 -1 -39 -5 -54c-4 -16 -13 -26 -26 -26h-2c-25 0 -30 23 -30 62c0 171 42 317 86 429c8 21 21 52 35 76s32 43 52 43
c36 0 75 -35 108 -81c32 -46 60 -105 76 -150c21 -63 37 -114 50 -160c12 -46 20 -88 28 -128l12 -66c0 -15 -12 -32 -28 -32s-28 12 -32 28zM420 270c-20 79 -44 136 -70 176s-52 63 -73 72c-44 -71 -74 -145 -90 -248h233z" />
    <glyph glyph-name="Adieresis" unicode="&#xc4;" horiz-adv-x="612" 
d="M257 708c0 -32 -16 -49 -48 -49s-48 17 -48 49s16 49 48 49s48 -17 48 -49zM395 708c0 -32 -16 -49 -49 -49c-31 0 -47 17 -47 49c0 31 16 48 47 48c33 0 49 -17 49 -48zM485 6l-21 116c-7 32 -18 68 -30 99h-258c-4 -17 -7 -36 -10 -60c-4 -24 -5 -55 -5 -96
c0 -20 -1 -39 -5 -54c-4 -16 -13 -26 -26 -26h-2c-25 0 -30 23 -30 62c0 171 42 317 86 429c8 21 21 52 35 76s32 43 52 43c36 0 75 -35 108 -81c32 -46 60 -105 76 -150c21 -63 37 -114 50 -160c12 -46 20 -88 28 -128l12 -66c0 -15 -12 -32 -28 -32s-28 12 -32 28z
M420 270c-20 79 -44 136 -70 176s-52 63 -73 72c-44 -71 -74 -145 -90 -248h233z" />
    <glyph glyph-name="Agrave" unicode="&#xc0;" horiz-adv-x="612" 
d="M264 787l105 -166h-104l-153 166h152zM485 6l-21 116c-7 32 -18 68 -30 99h-258c-4 -17 -7 -36 -10 -60c-4 -24 -5 -55 -5 -96c0 -20 -1 -39 -5 -54c-4 -16 -13 -26 -26 -26h-2c-25 0 -30 23 -30 62c0 171 42 317 86 429c8 21 21 52 35 76s32 43 52 43
c36 0 75 -35 108 -81c32 -46 60 -105 76 -150c21 -63 37 -114 50 -160c12 -46 20 -88 28 -128l12 -66c0 -15 -12 -32 -28 -32s-28 12 -32 28zM420 270c-20 79 -44 136 -70 176s-52 63 -73 72c-44 -71 -74 -145 -90 -248h233z" />
    <glyph glyph-name="Aring" unicode="&#xc5;" horiz-adv-x="612" 
d="M271 636c-62 0 -114 52 -114 114s52 114 114 114s115 -51 115 -114c0 -62 -52 -114 -115 -114zM271 789c-21 0 -39 -18 -39 -39c0 -20 18 -39 39 -39s39 19 39 39c0 21 -18 39 -39 39zM485 6l-21 116c-7 32 -18 68 -30 99h-258c-4 -17 -7 -36 -10 -60
c-4 -24 -5 -55 -5 -96c0 -20 -1 -39 -5 -54c-4 -16 -13 -26 -26 -26h-2c-25 0 -30 23 -30 62c0 171 42 317 86 429c8 21 21 52 35 76s32 43 52 43c36 0 75 -35 108 -81c32 -46 60 -105 76 -150c21 -63 37 -114 50 -160c12 -46 20 -88 28 -128l12 -66c0 -15 -12 -32 -28 -32
s-28 12 -32 28zM420 270c-20 79 -44 136 -70 176s-52 63 -73 72c-44 -71 -74 -145 -90 -248h233z" />
    <glyph glyph-name="Atilde" unicode="&#xc3;" horiz-adv-x="612" 
d="M105 676c9 20 25 47 43 69s39 39 66 39c19 0 35 -3 46 -8s17 -9 18 -10l17 -9c15 -8 31 -16 44 -22c6 -3 10 -5 12 -5c11 0 20 6 27 17s16 28 27 52l61 -52c-13 -25 -29 -53 -47 -74s-39 -36 -62 -36c-24 0 -40 9 -64 22c-21 11 -38 19 -49 24c-12 5 -22 8 -29 9
c-9 -1 -16 -5 -24 -16c-9 -12 -19 -31 -35 -62zM485 6l-21 116c-7 32 -18 68 -30 99h-258c-4 -17 -7 -36 -10 -60c-4 -24 -5 -55 -5 -96c0 -20 -1 -39 -5 -54c-4 -16 -13 -26 -26 -26h-2c-25 0 -30 23 -30 62c0 171 42 317 86 429c8 21 21 52 35 76s32 43 52 43
c36 0 75 -35 108 -81c32 -46 60 -105 76 -150c21 -63 37 -114 50 -160c12 -46 20 -88 28 -128l12 -66c0 -15 -12 -32 -28 -32s-28 12 -32 28zM420 270c-20 79 -44 136 -70 176s-52 63 -73 72c-44 -71 -74 -145 -90 -248h233z" />
    <glyph glyph-name="B" unicode="B" horiz-adv-x="648" 
d="M33 8v62h22c40 0 58 14 58 53v353c0 39 -19 53 -58 53h-22v67h269c173 0 263 -50 263 -150c0 -51 -25 -87 -76 -108c72 -36 109 -82 109 -150c0 -39 -16 -83 -47 -115s-79 -51 -147 -59c-35 -4 -76 -6 -123 -6h-248zM263 362h33c89 0 119 22 119 79c0 37 -14 61 -37 77
c-23 15 -55 20 -92 20h-23v-176zM263 302v-145c0 -36 3 -57 12 -69c8 -12 23 -14 50 -14c69 0 111 43 111 110c0 88 -45 118 -149 118h-24z" />
    <glyph glyph-name="C" unicode="C" horiz-adv-x="518" 
d="M254 501l-14 -1c-49 -11 -86 -44 -110 -86c-25 -42 -37 -94 -37 -138c0 -47 17 -102 49 -146c31 -44 76 -76 135 -76c27 0 54 8 75 24c20 16 34 39 34 70c0 7 0 13 -1 18s-2 9 -2 14c0 15 6 24 13 29c7 4 15 6 18 6c13 0 21 -7 25 -17s5 -24 5 -33
c0 -47 -12 -90 -39 -121c-28 -31 -69 -50 -128 -50c-68 0 -129 37 -173 90c-44 52 -72 123 -72 191c0 41 8 81 25 120c12 29 38 72 74 107s82 63 137 63c28 0 41 -6 59 -15s37 -25 50 -44c7 -10 10 -20 10 -31c0 -15 -16 -27 -31 -27s-21 7 -30 16c-20 27 -47 37 -72 37z
" />
    <glyph glyph-name="Ccedilla" unicode="&#xc7;" horiz-adv-x="518" 
d="M439 198c4 -10 5 -24 5 -33c0 -47 -12 -90 -39 -121c-28 -31 -69 -50 -128 -50c-22 0 -43 4 -64 11l-16 -22c40 -5 86 -28 86 -86c0 -78 -68 -103 -132 -103h-10c-29 4 -60 11 -97 27l28 72c29 -11 53 -20 71 -20c20 0 34 4 34 17c0 6 -4 14 -14 18c-5 2 -9 3 -12 3
c-9 0 -27 -6 -41 -10l-33 37l71 99h5c-18 13 -34 29 -49 47c-44 52 -72 123 -72 191c0 41 8 81 25 120c12 29 38 72 74 107s82 63 137 63c28 0 41 -6 59 -15s37 -25 50 -44c7 -10 10 -20 10 -31c0 -15 -16 -27 -31 -27s-21 7 -30 16c-20 27 -47 37 -72 37l-14 -1
c-49 -11 -86 -44 -110 -86c-25 -42 -37 -94 -37 -138c0 -47 17 -102 49 -146c31 -44 76 -76 135 -76c27 0 54 8 75 24c20 16 34 39 34 70c0 7 0 13 -1 18s-2 9 -2 14c0 15 6 24 13 29c7 4 15 6 18 6c13 0 21 -7 25 -17z" />
    <glyph glyph-name="D" unicode="D" horiz-adv-x="482" 
d="M82 607l22 7c23 4 54 9 86 9c75 0 136 -27 185 -66c48 -40 84 -94 108 -147s35 -107 35 -147c0 -31 -5 -57 -16 -84c-17 -43 -55 -87 -103 -122c-49 -36 -109 -60 -172 -60c-15 0 -31 1 -46 3c-15 1 -36 2 -62 2c-31 0 -46 12 -54 32s-8 50 -8 86c0 33 1 60 2 95
s2 79 2 146c0 33 -2 64 -7 94s-7 62 -7 96c0 28 10 48 35 56zM268 488c-17 8 -40 15 -63 15c-11 0 -21 -1 -29 -4c3 -35 3 -68 3 -109v-41v-53c-1 -21 -1 -45 -1 -73v-100c1 -1 4 -1 7 -1c3 -1 9 -1 18 -1c76 0 124 17 154 43s40 62 40 99c0 35 -5 68 -30 123
c-7 13 -20 33 -36 53c-17 19 -39 37 -63 49z" />
    <glyph glyph-name="E" unicode="E" horiz-adv-x="450" 
d="M121 416h-44v-123h286c28 0 31 -13 31 -26c0 -19 -16 -30 -31 -30h-285c-1 -3 -1 -7 -1 -10v-21c0 -48 3 -88 10 -133h289c24 0 30 -19 30 -36c0 -16 -13 -31 -30 -31h-317c-11 0 -29 8 -29 23c-11 71 -11 132 -11 185v91c0 21 -1 40 -2 57c-2 17 -3 34 -3 53
c0 15 0 30 4 42c3 11 10 19 22 19c97 7 166 6 222 6h68h40h24c5 -1 11 -1 17 -1c15 0 31 -6 31 -25c0 -15 -11 -31 -31 -31c-55 -1 -101 -3 -148 -5s-93 -4 -142 -4z" />
    <glyph glyph-name="Eacute" unicode="&#xc9;" horiz-adv-x="450" 
d="M254 577h-119l128 128h161zM121 416h-44v-123h286c28 0 31 -13 31 -26c0 -19 -16 -30 -31 -30h-285c-1 -3 -1 -7 -1 -10v-21c0 -48 3 -88 10 -133h289c24 0 30 -19 30 -36c0 -16 -13 -31 -30 -31h-317c-11 0 -29 8 -29 23c-11 71 -11 132 -11 185v91c0 21 -1 40 -2 57
c-2 17 -3 34 -3 53c0 15 0 30 4 42c3 11 10 19 22 19c97 7 166 6 222 6h68h40h24c5 -1 11 -1 17 -1c15 0 31 -6 31 -25c0 -15 -11 -31 -31 -31c-55 -1 -101 -3 -148 -5s-93 -4 -142 -4z" />
    <glyph glyph-name="Ecircumflex" unicode="&#xca;" horiz-adv-x="450" 
d="M291 680l120 -128h-106l-60 60l-60 -60h-104l120 128h90zM121 416h-44v-123h286c28 0 31 -13 31 -26c0 -19 -16 -30 -31 -30h-285c-1 -3 -1 -7 -1 -10v-21c0 -48 3 -88 10 -133h289c24 0 30 -19 30 -36c0 -16 -13 -31 -30 -31h-317c-11 0 -29 8 -29 23
c-11 71 -11 132 -11 185v91c0 21 -1 40 -2 57c-2 17 -3 34 -3 53c0 15 0 30 4 42c3 11 10 19 22 19c97 7 166 6 222 6h68h40h24c5 -1 11 -1 17 -1c15 0 31 -6 31 -25c0 -15 -11 -31 -31 -31c-55 -1 -101 -3 -148 -5s-93 -4 -142 -4z" />
    <glyph glyph-name="Edieresis" unicode="&#xcb;" horiz-adv-x="450" 
d="M197 608c0 -32 -16 -49 -48 -49s-48 17 -48 49s16 49 48 49s48 -17 48 -49zM335 608c0 -32 -16 -49 -49 -49c-31 0 -47 17 -47 49c0 31 16 48 47 48c33 0 49 -17 49 -48zM121 416h-44v-123h286c28 0 31 -13 31 -26c0 -19 -16 -30 -31 -30h-285c-1 -3 -1 -7 -1 -10v-21
c0 -48 3 -88 10 -133h289c24 0 30 -19 30 -36c0 -16 -13 -31 -30 -31h-317c-11 0 -29 8 -29 23c-11 71 -11 132 -11 185v91c0 21 -1 40 -2 57c-2 17 -3 34 -3 53c0 15 0 30 4 42c3 11 10 19 22 19c97 7 166 6 222 6h68h40h24c5 -1 11 -1 17 -1c15 0 31 -6 31 -25
c0 -15 -11 -31 -31 -31c-55 -1 -101 -3 -148 -5s-93 -4 -142 -4z" />
    <glyph glyph-name="Egrave" unicode="&#xc8;" horiz-adv-x="450" 
d="M184 687l105 -166h-104l-153 166h152zM121 416h-44v-123h286c28 0 31 -13 31 -26c0 -19 -16 -30 -31 -30h-285c-1 -3 -1 -7 -1 -10v-21c0 -48 3 -88 10 -133h289c24 0 30 -19 30 -36c0 -16 -13 -31 -30 -31h-317c-11 0 -29 8 -29 23c-11 71 -11 132 -11 185v91
c0 21 -1 40 -2 57c-2 17 -3 34 -3 53c0 15 0 30 4 42c3 11 10 19 22 19c97 7 166 6 222 6h68h40h24c5 -1 11 -1 17 -1c15 0 31 -6 31 -25c0 -15 -11 -31 -31 -31c-55 -1 -101 -3 -148 -5s-93 -4 -142 -4z" />
    <glyph glyph-name="F" unicode="F" horiz-adv-x="405" 
d="M83 370c28 1 56 3 83 5c27 1 55 2 83 2c13 0 24 0 32 -1c15 -2 23 -7 25 -15c1 -4 1 -9 1 -16c0 -19 -11 -24 -43 -27c-17 -1 -39 -2 -68 -2s-66 -1 -111 -4c-1 -4 -1 -8 -1 -12v-15c0 -39 5 -91 9 -139l6 -67c2 -21 3 -36 3 -47c0 -19 -9 -32 -29 -32
c-11 0 -17 4 -23 20c-6 15 -11 40 -15 81c0 49 -2 95 -6 138s-6 86 -6 130v50c-1 13 -1 25 -1 34v25c-1 7 -1 13 -1 19c0 43 5 86 32 94h271c23 0 31 -13 31 -26c0 -27 -14 -28 -33 -28c-80 0 -121 -1 -151 -1c-15 -1 -29 -1 -40 -2c-12 -1 -27 -3 -46 -4
c-3 -12 -4 -21 -4 -52v-42c0 -17 1 -39 2 -66z" />
    <glyph glyph-name="G" unicode="G" horiz-adv-x="733" 
d="M480 206c0 39 -20 52 -59 52h-40v61h312v-61c-47 0 -63 -21 -63 -52v-132c-84 -37 -168 -57 -255 -57c-107 0 -190 34 -246 87c-57 53 -87 127 -87 210c0 87 36 164 95 218s142 86 234 86h2c67 0 128 -11 193 -30l36 9h29v-186h-56c-34 99 -93 149 -177 149
c-63 0 -112 -25 -145 -67s-51 -99 -51 -162c0 -69 18 -131 52 -175c34 -45 84 -73 148 -73c27 0 53 5 78 16v107z" />
    <glyph glyph-name="H" unicode="H" horiz-adv-x="648" 
d="M253 605v-37h-47v-225h245v225h-48v37h210v-37h-46v-525h46v-38h-210v38h48v263h-245v-263h47v-38h-210v38h48v525h-48v37h210z" />
    <glyph glyph-name="I" unicode="I" horiz-adv-x="350" 
d="M285 518c-7 -1 -16 -1 -27 -1c-12 0 -28 0 -47 -1c4 -35 11 -93 16 -154s10 -126 10 -178c0 -22 -1 -43 -3 -64c-3 -21 -5 -42 -7 -63c1 0 2 0 5 1c4 1 10 1 17 1c13 0 31 -1 44 -5c13 -5 24 -14 24 -27c0 -15 -11 -27 -27 -27c-49 0 -83 2 -110 5c-13 1 -25 3 -35 4
c-20 2 -40 4 -73 4c-33 -1 -55 9 -55 29c0 6 3 12 9 17c5 5 16 7 31 7h112c8 31 11 68 11 100v38c-3 48 -6 103 -10 159c-4 55 -9 111 -17 162l-53 6c-8 1 -16 1 -25 1c-18 0 -35 2 -46 10c-5 4 -8 11 -8 20c0 15 13 28 28 28c36 -2 72 -6 107 -11s70 -8 106 -8l42 3
c15 0 28 -9 28 -28c0 -9 -7 -27 -24 -27c-3 -1 -5 -1 -8 -1h-15z" />
    <glyph glyph-name="Iacute" unicode="&#xcd;" horiz-adv-x="350" 
d="M364 755l-170 -128h-119l128 128h161zM304 574c15 0 28 -9 28 -28c0 -9 -7 -27 -24 -27c-3 -1 -5 -1 -8 -1h-15c-7 -1 -16 -1 -27 -1c-12 0 -28 0 -47 -1c4 -35 11 -93 16 -154s10 -126 10 -178c0 -22 -1 -43 -3 -64c-3 -21 -5 -42 -7 -63c1 0 2 0 5 1c4 1 10 1 17 1
c13 0 31 -1 44 -5c13 -5 24 -14 24 -27c0 -15 -11 -27 -27 -27c-49 0 -83 2 -110 5c-13 1 -25 3 -35 4c-20 2 -40 4 -73 4c-33 -1 -55 9 -55 29c0 6 3 12 9 17c5 5 16 7 31 7h112c8 31 11 68 11 100v38c-3 48 -6 103 -10 159c-4 55 -9 111 -17 162l-53 6c-8 1 -16 1 -25 1
c-18 0 -35 2 -46 10c-5 4 -8 11 -8 20c0 15 13 28 28 28c36 -2 72 -6 107 -11s70 -8 106 -8z" />
    <glyph glyph-name="Icircumflex" unicode="&#xce;" horiz-adv-x="350" 
d="M185 682l-60 -60h-104l120 128h90l120 -128h-106zM304 574c15 0 28 -9 28 -28c0 -9 -7 -27 -24 -27c-3 -1 -5 -1 -8 -1h-15c-7 -1 -16 -1 -27 -1c-12 0 -28 0 -47 -1c4 -35 11 -93 16 -154s10 -126 10 -178c0 -22 -1 -43 -3 -64c-3 -21 -5 -42 -7 -63c1 0 2 0 5 1
c4 1 10 1 17 1c13 0 31 -1 44 -5c13 -5 24 -14 24 -27c0 -15 -11 -27 -27 -27c-49 0 -83 2 -110 5c-13 1 -25 3 -35 4c-20 2 -40 4 -73 4c-33 -1 -55 9 -55 29c0 6 3 12 9 17c5 5 16 7 31 7h112c8 31 11 68 11 100v38c-3 48 -6 103 -10 159c-4 55 -9 111 -17 162l-53 6
c-8 1 -16 1 -25 1c-18 0 -35 2 -46 10c-5 4 -8 11 -8 20c0 15 13 28 28 28c36 -2 72 -6 107 -11s70 -8 106 -8z" />
    <glyph glyph-name="Idieresis" unicode="&#xcf;" horiz-adv-x="350" 
d="M109 639c-32 0 -48 17 -48 49s16 49 48 49s48 -17 48 -49s-16 -49 -48 -49zM246 639c-31 0 -47 17 -47 49c0 31 16 48 47 48c33 0 49 -17 49 -48c0 -32 -16 -49 -49 -49zM285 518c-7 -1 -16 -1 -27 -1c-12 0 -28 0 -47 -1c4 -35 11 -93 16 -154s10 -126 10 -178
c0 -22 -1 -43 -3 -64c-3 -21 -5 -42 -7 -63c1 0 2 0 5 1c4 1 10 1 17 1c13 0 31 -1 44 -5c13 -5 24 -14 24 -27c0 -15 -11 -27 -27 -27c-49 0 -83 2 -110 5c-13 1 -25 3 -35 4c-20 2 -40 4 -73 4c-33 -1 -55 9 -55 29c0 6 3 12 9 17c5 5 16 7 31 7h112c8 31 11 68 11 100v38
c-3 48 -6 103 -10 159c-4 55 -9 111 -17 162l-53 6c-8 1 -16 1 -25 1c-18 0 -35 2 -46 10c-5 4 -8 11 -8 20c0 15 13 28 28 28c36 -2 72 -6 107 -11s70 -8 106 -8l42 3c15 0 28 -9 28 -28c0 -9 -7 -27 -24 -27c-3 -1 -5 -1 -8 -1h-15z" />
    <glyph glyph-name="Igrave" unicode="&#xcc;" horiz-adv-x="350" 
d="M279 621h-104l-153 166h152zM285 518c-7 -1 -16 -1 -27 -1c-12 0 -28 0 -47 -1c4 -35 11 -93 16 -154s10 -126 10 -178c0 -22 -1 -43 -3 -64c-3 -21 -5 -42 -7 -63c1 0 2 0 5 1c4 1 10 1 17 1c13 0 31 -1 44 -5c13 -5 24 -14 24 -27c0 -15 -11 -27 -27 -27
c-49 0 -83 2 -110 5c-13 1 -25 3 -35 4c-20 2 -40 4 -73 4c-33 -1 -55 9 -55 29c0 6 3 12 9 17c5 5 16 7 31 7h112c8 31 11 68 11 100v38c-3 48 -6 103 -10 159c-4 55 -9 111 -17 162l-53 6c-8 1 -16 1 -25 1c-18 0 -35 2 -46 10c-5 4 -8 11 -8 20c0 15 13 28 28 28
c36 -2 72 -6 107 -11s70 -8 106 -8l42 3c15 0 28 -9 28 -28c0 -9 -7 -27 -24 -27c-3 -1 -5 -1 -8 -1h-15z" />
    <glyph glyph-name="J" unicode="J" horiz-adv-x="414" 
d="M253 598c35 0 61 -27 61 -62c0 -37 -30 -61 -61 -61c-33 0 -62 26 -62 61c0 20 9 37 21 47s28 15 41 15zM302 462v-321c0 -40 -16 -72 -40 -94s-56 -35 -91 -35h-4c-13 0 -30 5 -45 15s-26 23 -26 42c0 29 23 48 46 48c25 0 44 -21 44 -44c0 -8 -2 -19 -9 -26
c13 0 20 7 20 21v363h-18v31h123z" />
    <glyph glyph-name="K" unicode="K" horiz-adv-x="546" 
d="M383 27c-15 15 -42 50 -74 92s-68 90 -97 131c-20 -10 -39 -20 -56 -31c-18 -11 -36 -21 -53 -31v-80c0 -25 1 -45 3 -60c1 -15 2 -28 2 -39c0 -31 -16 -35 -31 -35s-23 14 -28 37s-7 54 -7 89c0 37 2 78 4 118l3 58c1 19 1 36 1 52c0 31 0 70 5 102c5 31 13 55 32 55
c15 0 31 -11 31 -26l-11 -203l93 54c10 11 23 28 40 51c33 44 80 91 136 124c28 17 59 25 92 25c15 0 33 -9 33 -26c0 -20 -9 -29 -25 -33c-56 0 -95 -25 -129 -59c-17 -17 -33 -36 -47 -55c-15 -19 -29 -37 -44 -54c49 -68 83 -113 108 -145l22 -25c15 -17 29 -34 38 -46
c5 -7 7 -12 7 -16c0 -20 -11 -33 -28 -33c-7 0 -14 3 -20 9z" />
    <glyph glyph-name="L" unicode="L" horiz-adv-x="428" 
d="M102 606c23 0 36 -8 42 -23s6 -37 6 -66c0 -60 -6 -129 -12 -201s-13 -146 -13 -218c31 0 62 -1 94 -3c31 -2 57 -3 78 -3c4 0 6 5 7 16c1 21 5 49 21 70c7 11 21 16 40 16c25 0 40 -21 40 -48c0 -23 -1 -57 -9 -87s-23 -55 -48 -55h-148c-3 0 -7 0 -10 1h-15h-25h-40
c-35 0 -53 5 -63 15s-12 26 -15 49v32c0 5 1 12 2 20c8 72 12 131 16 189c3 58 4 114 4 185c0 29 1 57 9 78c7 20 19 33 39 33z" />
    <glyph glyph-name="M" unicode="M" horiz-adv-x="678" 
d="M459 472c-15 -28 -31 -64 -44 -99c-3 -6 -6 -15 -10 -28c-9 -25 -20 -56 -32 -88s-24 -60 -36 -76c-7 -9 -13 -13 -18 -13c-11 0 -18 8 -25 17l-9 15c-3 5 -5 9 -7 12c-12 22 -21 39 -26 50c-12 23 -18 34 -23 45l-12 22c-6 9 -14 22 -24 39c-11 17 -25 40 -43 70
c-8 -132 -17 -261 -28 -393c0 -20 -13 -32 -28 -32c-20 0 -29 20 -29 36l33 496c4 15 12 33 31 33c9 0 17 -4 26 -11l157 -298c15 36 24 63 31 86c25 80 53 141 77 182c12 20 23 35 33 46c9 10 16 15 21 15c13 0 23 -11 29 -32c37 -145 58 -255 62 -298
c13 -84 23 -141 30 -180c3 -19 6 -34 8 -44c1 -11 2 -18 2 -22c0 -21 -10 -41 -29 -41c-13 0 -22 9 -29 26z" />
    <glyph glyph-name="N" unicode="N" horiz-adv-x="820" 
d="M203 118c0 -40 20 -53 60 -53h21v-63h-247v63h21c43 0 60 14 60 53v401c-13 8 -28 12 -43 12h-25v63h201l350 -362v246c0 39 -16 53 -59 53h-22v63h248v-63h-21c-44 0 -60 -18 -60 -53v-478h-70l-414 427v-309z" />
    <glyph glyph-name="Ntilde" unicode="&#xd1;" horiz-adv-x="820" 
d="M215 696c9 20 25 47 43 69s39 39 66 39c19 0 35 -3 46 -8s17 -9 18 -10l17 -9c15 -8 31 -16 44 -22c6 -3 10 -5 12 -5c11 0 20 6 27 17s16 28 27 52l61 -52c-13 -25 -29 -53 -47 -74s-39 -36 -62 -36c-24 0 -40 9 -64 22c-21 11 -38 19 -49 24c-12 5 -22 8 -29 9
c-9 -1 -16 -5 -24 -16c-9 -12 -19 -31 -35 -62zM203 118c0 -40 20 -53 60 -53h21v-63h-247v63h21c43 0 60 14 60 53v401c-13 8 -28 12 -43 12h-25v63h201l350 -362v246c0 39 -16 53 -59 53h-22v63h248v-63h-21c-44 0 -60 -18 -60 -53v-478h-70l-414 427v-309z" />
    <glyph glyph-name="O" unicode="O" horiz-adv-x="591" 
d="M288 608c89 0 156 -40 198 -99s62 -135 62 -204v-22c0 -88 -27 -159 -73 -207c-46 -49 -111 -77 -186 -77c-76 0 -137 36 -180 92s-67 131 -67 210c0 15 2 55 14 100c11 45 32 97 69 138c36 40 88 69 163 69z" />
    <glyph glyph-name="Oacute" unicode="&#xd3;" horiz-adv-x="591" 
d="M304 667h-119l128 128h161zM288 608c89 0 156 -40 198 -99s62 -135 62 -204v-22c0 -88 -27 -159 -73 -207c-46 -49 -111 -77 -186 -77c-76 0 -137 36 -180 92s-67 131 -67 210c0 15 2 55 14 100c11 45 32 97 69 138c36 40 88 69 163 69z" />
    <glyph glyph-name="Ocircumflex" unicode="&#xd4;" horiz-adv-x="591" 
d="M351 780l120 -128h-106l-60 60l-60 -60h-104l120 128h90zM288 608c89 0 156 -40 198 -99s62 -135 62 -204v-22c0 -88 -27 -159 -73 -207c-46 -49 -111 -77 -186 -77c-76 0 -137 36 -180 92s-67 131 -67 210c0 15 2 55 14 100c11 45 32 97 69 138c36 40 88 69 163 69z" />
    <glyph glyph-name="Odieresis" unicode="&#xd6;" horiz-adv-x="591" 
d="M257 718c0 -32 -16 -49 -48 -49s-48 17 -48 49s16 49 48 49s48 -17 48 -49zM395 718c0 -32 -16 -49 -49 -49c-31 0 -47 17 -47 49c0 31 16 48 47 48c33 0 49 -17 49 -48zM288 608c89 0 156 -40 198 -99s62 -135 62 -204v-22c0 -88 -27 -159 -73 -207
c-46 -49 -111 -77 -186 -77c-76 0 -137 36 -180 92s-67 131 -67 210c0 15 2 55 14 100c11 45 32 97 69 138c36 40 88 69 163 69z" />
    <glyph glyph-name="Ograve" unicode="&#xd2;" horiz-adv-x="591" 
d="M274 807l105 -166h-104l-153 166h152zM288 608c89 0 156 -40 198 -99s62 -135 62 -204v-22c0 -88 -27 -159 -73 -207c-46 -49 -111 -77 -186 -77c-76 0 -137 36 -180 92s-67 131 -67 210c0 15 2 55 14 100c11 45 32 97 69 138c36 40 88 69 163 69z" />
    <glyph glyph-name="Otilde" unicode="&#xd5;" horiz-adv-x="591" 
d="M105 676c9 20 25 47 43 69s39 39 66 39c19 0 35 -3 46 -8s17 -9 18 -10l17 -9c15 -8 31 -16 44 -22c6 -3 10 -5 12 -5c11 0 20 6 27 17s16 28 27 52l61 -52c-13 -25 -29 -53 -47 -74s-39 -36 -62 -36c-24 0 -40 9 -64 22c-21 11 -38 19 -49 24c-12 5 -22 8 -29 9
c-9 -1 -16 -5 -24 -16c-9 -12 -19 -31 -35 -62zM288 608c89 0 156 -40 198 -99s62 -135 62 -204v-22c0 -88 -27 -159 -73 -207c-46 -49 -111 -77 -186 -77c-76 0 -137 36 -180 92s-67 131 -67 210c0 15 2 55 14 100c11 45 32 97 69 138c36 40 88 69 163 69z" />
    <glyph glyph-name="P" unicode="P" horiz-adv-x="490" 
d="M30 43l7 214c3 87 5 151 26 198c25 55 67 82 127 82c31 0 41 -4 77 -16c35 -12 81 -40 115 -85c17 -23 25 -51 25 -84c0 -51 -28 -85 -66 -107s-87 -32 -126 -32c-43 0 -78 3 -118 14l-4 -72c-2 -31 -3 -73 -3 -128c0 -4 -1 -11 -5 -17c-5 -6 -14 -12 -30 -12
c-17 2 -25 11 -25 26v19zM94 288c32 -13 82 -17 121 -17c28 0 62 6 88 19s44 34 44 62c0 32 -18 63 -46 86c-29 23 -69 38 -114 38c-24 0 -58 -13 -69 -33c-3 -7 -6 -12 -9 -17s-6 -13 -8 -22c-2 -10 -4 -24 -5 -41c-1 -18 -2 -43 -2 -75z" />
    <glyph glyph-name="Q" unicode="Q" horiz-adv-x="583" 
d="M545 435l3 -33c-3 -77 -24 -145 -59 -202s-82 -106 -134 -143c4 -28 14 -44 41 -44c7 0 13 1 20 2c28 8 38 18 46 26c7 7 11 13 23 13c15 0 27 -9 27 -24c0 -27 -23 -45 -49 -56c-26 -12 -55 -16 -66 -16c-51 0 -80 26 -91 61c-37 -17 -87 -39 -130 -39
c-67 0 -104 36 -124 84s-24 110 -24 162c0 124 25 226 74 298c49 71 121 111 217 111c80 0 137 -30 174 -70c36 -40 52 -90 52 -130zM338 113l37 29c76 72 114 175 114 279c0 47 -19 86 -50 114c-32 28 -74 45 -121 45c-33 0 -75 -10 -107 -34c-48 -43 -80 -74 -100 -120
s-28 -105 -28 -201c0 -27 0 -74 12 -114c12 -41 36 -76 81 -76c33 0 72 18 107 45c-16 12 -35 26 -35 49c0 15 8 27 25 27c21 0 40 -12 65 -43z" />
    <glyph glyph-name="R" unicode="R" horiz-adv-x="546" 
d="M62 419v18c0 48 14 75 42 89c27 14 66 15 118 15c45 0 87 -5 116 -20s47 -38 47 -73v-20c-7 -48 -26 -75 -57 -90c-31 -16 -73 -18 -125 -18c25 -37 38 -92 53 -157c5 -25 12 -53 22 -73c10 -21 24 -36 45 -36c40 0 54 24 63 48s14 48 35 48c25 0 30 -23 30 -42
c0 -32 -17 -59 -42 -78c-25 -20 -58 -31 -87 -31c-39 0 -63 20 -81 46s-28 60 -35 88c-3 13 -7 29 -10 47c-7 36 -16 72 -35 100c-9 13 -22 22 -37 26c2 -46 6 -91 11 -136s7 -90 7 -137c0 -16 -13 -28 -28 -28c-17 0 -24 12 -28 29c-2 9 -3 18 -3 29s0 21 -1 32
c-4 72 -8 139 -13 212z" />
    <glyph glyph-name="S" unicode="S" horiz-adv-x="518" 
d="M175 548h1c27 9 57 14 85 14c35 0 69 -7 94 -21c24 -14 41 -34 41 -61c0 -8 -1 -20 -5 -31c-5 -11 -13 -20 -26 -20c-15 0 -30 13 -30 28c0 4 1 7 3 10c2 2 3 6 3 13c0 9 -11 16 -27 20s-36 6 -53 6c-35 0 -73 -8 -102 -26s-49 -45 -49 -80c0 -24 25 -40 61 -53
c17 -7 37 -13 59 -19c43 -12 87 -24 117 -44c30 -21 49 -47 59 -72c5 -13 7 -24 7 -35c0 -45 -17 -81 -44 -109s-63 -46 -102 -58c-7 -3 -13 -4 -29 -6c-17 -2 -44 -4 -92 -4c-51 0 -87 34 -87 83c0 41 27 74 66 74c15 0 31 -9 31 -25c0 -20 -10 -24 -21 -27
c-11 -4 -21 -6 -21 -22c0 -19 13 -27 32 -27c48 0 101 3 142 20c40 16 70 45 70 100c0 12 -8 28 -23 44c-16 16 -38 31 -67 40c-15 5 -35 10 -59 16c-48 12 -97 31 -130 63c-17 16 -25 36 -25 61c0 37 15 70 37 95s52 42 84 53z" />
    <glyph glyph-name="Scaron" unicode="&#x160;" horiz-adv-x="518" 
d="M252 700c18 25 36 52 52 75h120l-120 -170h-106l-119 170h120zM175 548h1c27 9 57 14 85 14c35 0 69 -7 94 -21c24 -14 41 -34 41 -61c0 -8 -1 -20 -5 -31c-5 -11 -13 -20 -26 -20c-15 0 -30 13 -30 28c0 4 1 7 3 10c2 2 3 6 3 13c0 9 -11 16 -27 20s-36 6 -53 6
c-35 0 -73 -8 -102 -26s-49 -45 -49 -80c0 -24 25 -40 61 -53c17 -7 37 -13 59 -19c43 -12 87 -24 117 -44c30 -21 49 -47 59 -72c5 -13 7 -24 7 -35c0 -45 -17 -81 -44 -109s-63 -46 -102 -58c-7 -3 -13 -4 -29 -6c-17 -2 -44 -4 -92 -4c-51 0 -87 34 -87 83
c0 41 27 74 66 74c15 0 31 -9 31 -25c0 -20 -10 -24 -21 -27c-11 -4 -21 -6 -21 -22c0 -19 13 -27 32 -27c48 0 101 3 142 20c40 16 70 45 70 100c0 12 -8 28 -23 44c-16 16 -38 31 -67 40c-15 5 -35 10 -59 16c-48 12 -97 31 -130 63c-17 16 -25 36 -25 61
c0 37 15 70 37 95s52 42 84 53z" />
    <glyph glyph-name="T" unicode="T" horiz-adv-x="613" 
d="M516 601c19 0 30 -10 32 -29l13 -152c0 -15 -10 -24 -23 -24c-12 0 -20 19 -28 44c-4 12 -8 25 -12 40c-9 28 -23 54 -43 71c-10 8 -22 12 -37 12h-27v-520h39v-38h-238v38h38v520h-23c-54 0 -90 -45 -108 -136c0 -15 -7 -23 -22 -23s-17 17 -17 26l11 140
c4 27 9 31 36 31h409z" />
    <glyph glyph-name="U" unicode="U" horiz-adv-x="518" 
d="M463 53l9 -3c13 -5 17 -20 17 -25c0 -15 -13 -24 -29 -31s-36 -10 -51 -10c-12 0 -30 2 -50 7s-40 14 -55 27c-8 -4 -26 -10 -49 -14c-24 -5 -50 -10 -74 -10c-39 0 -67 23 -88 58s-36 81 -44 126c-9 45 -12 88 -12 119c0 69 9 140 20 228c1 5 1 11 1 18c0 13 2 26 10 34
c4 4 10 6 19 6c23 0 29 -20 29 -37c0 -44 -4 -78 -8 -118c-5 -41 -10 -91 -11 -167c7 -45 15 -99 29 -140s32 -71 61 -71c57 0 85 19 104 48c33 51 36 128 45 224c4 44 11 140 11 263c0 16 13 29 29 29c15 0 23 -8 27 -20c4 -13 4 -29 4 -45c0 -15 0 -45 -3 -72
c-7 -95 -15 -171 -23 -239c-9 -68 -19 -126 -28 -185c9 -8 32 -10 47 -10s28 2 37 5s18 5 26 5z" />
    <glyph glyph-name="Uacute" unicode="&#xda;" horiz-adv-x="518" 
d="M254 647h-119l128 128h161zM463 53l9 -3c13 -5 17 -20 17 -25c0 -15 -13 -24 -29 -31s-36 -10 -51 -10c-12 0 -30 2 -50 7s-40 14 -55 27c-8 -4 -26 -10 -49 -14c-24 -5 -50 -10 -74 -10c-39 0 -67 23 -88 58s-36 81 -44 126c-9 45 -12 88 -12 119c0 69 9 140 20 228
c1 5 1 11 1 18c0 13 2 26 10 34c4 4 10 6 19 6c23 0 29 -20 29 -37c0 -44 -4 -78 -8 -118c-5 -41 -10 -91 -11 -167c7 -45 15 -99 29 -140s32 -71 61 -71c57 0 85 19 104 48c33 51 36 128 45 224c4 44 11 140 11 263c0 16 13 29 29 29c15 0 23 -8 27 -20c4 -13 4 -29 4 -45
c0 -15 0 -45 -3 -72c-7 -95 -15 -171 -23 -239c-9 -68 -19 -126 -28 -185c9 -8 32 -10 47 -10s28 2 37 5s18 5 26 5z" />
    <glyph glyph-name="Ucircumflex" unicode="&#xdb;" horiz-adv-x="518" 
d="M281 790l120 -128h-106l-60 60l-60 -60h-104l120 128h90zM463 53l9 -3c13 -5 17 -20 17 -25c0 -15 -13 -24 -29 -31s-36 -10 -51 -10c-12 0 -30 2 -50 7s-40 14 -55 27c-8 -4 -26 -10 -49 -14c-24 -5 -50 -10 -74 -10c-39 0 -67 23 -88 58s-36 81 -44 126
c-9 45 -12 88 -12 119c0 69 9 140 20 228c1 5 1 11 1 18c0 13 2 26 10 34c4 4 10 6 19 6c23 0 29 -20 29 -37c0 -44 -4 -78 -8 -118c-5 -41 -10 -91 -11 -167c7 -45 15 -99 29 -140s32 -71 61 -71c57 0 85 19 104 48c33 51 36 128 45 224c4 44 11 140 11 263
c0 16 13 29 29 29c15 0 23 -8 27 -20c4 -13 4 -29 4 -45c0 -15 0 -45 -3 -72c-7 -95 -15 -171 -23 -239c-9 -68 -19 -126 -28 -185c9 -8 32 -10 47 -10s28 2 37 5s18 5 26 5z" />
    <glyph glyph-name="Udieresis" unicode="&#xdc;" horiz-adv-x="518" 
d="M207 708c0 -32 -16 -49 -48 -49s-48 17 -48 49s16 49 48 49s48 -17 48 -49zM345 708c0 -32 -16 -49 -49 -49c-31 0 -47 17 -47 49c0 31 16 48 47 48c33 0 49 -17 49 -48zM463 53l9 -3c13 -5 17 -20 17 -25c0 -15 -13 -24 -29 -31s-36 -10 -51 -10c-12 0 -30 2 -50 7
s-40 14 -55 27c-8 -4 -26 -10 -49 -14c-24 -5 -50 -10 -74 -10c-39 0 -67 23 -88 58s-36 81 -44 126c-9 45 -12 88 -12 119c0 69 9 140 20 228c1 5 1 11 1 18c0 13 2 26 10 34c4 4 10 6 19 6c23 0 29 -20 29 -37c0 -44 -4 -78 -8 -118c-5 -41 -10 -91 -11 -167
c7 -45 15 -99 29 -140s32 -71 61 -71c57 0 85 19 104 48c33 51 36 128 45 224c4 44 11 140 11 263c0 16 13 29 29 29c15 0 23 -8 27 -20c4 -13 4 -29 4 -45c0 -15 0 -45 -3 -72c-7 -95 -15 -171 -23 -239c-9 -68 -19 -126 -28 -185c9 -8 32 -10 47 -10s28 2 37 5s18 5 26 5z
" />
    <glyph glyph-name="Ugrave" unicode="&#xd9;" horiz-adv-x="518" 
d="M224 787l105 -166h-104l-153 166h152zM463 53l9 -3c13 -5 17 -20 17 -25c0 -15 -13 -24 -29 -31s-36 -10 -51 -10c-12 0 -30 2 -50 7s-40 14 -55 27c-8 -4 -26 -10 -49 -14c-24 -5 -50 -10 -74 -10c-39 0 -67 23 -88 58s-36 81 -44 126c-9 45 -12 88 -12 119
c0 69 9 140 20 228c1 5 1 11 1 18c0 13 2 26 10 34c4 4 10 6 19 6c23 0 29 -20 29 -37c0 -44 -4 -78 -8 -118c-5 -41 -10 -91 -11 -167c7 -45 15 -99 29 -140s32 -71 61 -71c57 0 85 19 104 48c33 51 36 128 45 224c4 44 11 140 11 263c0 16 13 29 29 29c15 0 23 -8 27 -20
c4 -13 4 -29 4 -45c0 -15 0 -45 -3 -72c-7 -95 -15 -171 -23 -239c-9 -68 -19 -126 -28 -185c9 -8 32 -10 47 -10s28 2 37 5s18 5 26 5z" />
    <glyph glyph-name="V" unicode="V" horiz-adv-x="552" 
d="M239 32l-109 301c-5 19 -12 40 -19 63c-16 47 -30 91 -39 127c-5 17 -7 30 -7 38c0 23 18 38 41 38s33 -4 41 -18c4 -7 8 -17 11 -28c6 -23 20 -69 29 -95l11 -35c3 -11 7 -21 11 -31l15 -41c6 -17 14 -38 23 -63c9 -26 21 -60 36 -101c13 51 19 82 26 118l11 59
c4 21 10 49 18 83c3 15 6 31 8 49c4 35 10 66 25 87c7 10 18 15 32 15c32 0 45 -25 45 -52c-1 -27 -9 -75 -20 -131s-25 -118 -37 -169c-12 -52 -22 -94 -26 -107c-1 -3 -4 -11 -7 -26c-8 -29 -21 -64 -41 -91c-10 -13 -22 -20 -36 -20c-19 0 -35 11 -42 30z" />
    <glyph glyph-name="W" unicode="W" horiz-adv-x="847" 
d="M704 479c15 0 23 -12 23 -25c0 -6 -3 -19 -9 -39c-12 -40 -32 -98 -57 -169c-13 -35 -26 -72 -39 -110c-4 -11 -9 -25 -14 -41c-11 -32 -23 -62 -37 -82c-7 -11 -15 -16 -22 -16c-19 0 -22 9 -37 32c-36 64 -74 133 -110 200c-6 -25 -12 -51 -17 -78
c-12 -54 -23 -100 -37 -128c-7 -15 -16 -22 -26 -22s-18 5 -25 14c-17 28 -41 67 -65 111c-24 43 -49 90 -72 134l-27 50c-25 43 -52 93 -71 138c-9 22 -14 40 -14 53c0 16 12 30 28 30c24 0 28 -24 39 -52c9 -21 41 -84 78 -156c37 -73 81 -158 120 -223c7 33 15 69 24 108
l26 110c-6 13 -12 25 -18 36s-12 23 -17 34c-15 25 -36 59 -36 75c0 12 9 29 29 29c12 0 22 -11 31 -29c5 -9 10 -20 15 -31s11 -23 17 -34c9 42 16 73 23 93c6 19 16 29 30 29c12 0 29 -9 29 -28c0 -20 -7 -46 -15 -74c-9 -29 -19 -62 -26 -94c22 -40 42 -78 61 -113
c18 -36 37 -73 58 -111l66 179c22 59 42 118 60 179c2 14 13 21 33 21h1z" />
    <glyph glyph-name="X" unicode="X" horiz-adv-x="809" 
d="M27 0v62c56 4 97 31 140 74l148 151l-152 185c-17 20 -33 36 -52 46c-20 10 -44 15 -77 15v63h369v-63c-19 0 -36 -1 -51 -2s-22 -6 -22 -14c1 -3 3 -7 5 -11s6 -10 12 -18c6 -9 15 -20 26 -35s27 -35 47 -60c27 27 48 49 63 65c15 15 27 27 34 36c7 8 11 14 13 17
c1 3 2 6 2 8c0 9 -22 14 -66 14l3 63h265v-62c-59 -4 -103 -39 -143 -79l-122 -123l155 -192c39 -47 76 -77 133 -77v-63h-336v63h20c26 0 39 4 39 11c0 11 -3 15 -11 23l-104 129l-127 -129c-6 -7 -9 -14 -9 -19c0 -10 23 -15 68 -15v-63h-270z" />
    <glyph glyph-name="Y" unicode="Y" horiz-adv-x="594" 
d="M390 570c5 5 12 8 21 8c15 0 28 -9 28 -28c0 -13 -8 -26 -15 -38c-15 -30 -33 -60 -53 -89c-21 -29 -42 -63 -63 -102c1 -25 3 -53 5 -84c1 -31 2 -69 2 -116c0 -24 -1 -52 -5 -74c-5 -22 -15 -38 -31 -38c-11 0 -29 9 -29 28s1 38 4 56c3 17 4 37 4 59
c0 61 -3 113 -8 166c-51 61 -98 129 -142 194c-6 9 -13 18 -20 27s-11 17 -11 25c0 19 17 29 28 29c21 0 51 -40 81 -87c15 -23 29 -47 44 -71s28 -43 39 -56c40 61 80 124 121 191z" />
    <glyph glyph-name="Yacute" unicode="&#xdd;" horiz-adv-x="594" 
d="M294 637h-119l128 128h161zM390 570c5 5 12 8 21 8c15 0 28 -9 28 -28c0 -13 -8 -26 -15 -38c-15 -30 -33 -60 -53 -89c-21 -29 -42 -63 -63 -102c1 -25 3 -53 5 -84c1 -31 2 -69 2 -116c0 -24 -1 -52 -5 -74c-5 -22 -15 -38 -31 -38c-11 0 -29 9 -29 28s1 38 4 56
c3 17 4 37 4 59c0 61 -3 113 -8 166c-51 61 -98 129 -142 194c-6 9 -13 18 -20 27s-11 17 -11 25c0 19 17 29 28 29c21 0 51 -40 81 -87c15 -23 29 -47 44 -71s28 -43 39 -56c40 61 80 124 121 191z" />
    <glyph glyph-name="Ydieresis" unicode="&#x178;" horiz-adv-x="594" 
d="M237 678c0 -32 -16 -49 -48 -49s-48 17 -48 49s16 49 48 49s48 -17 48 -49zM375 678c0 -32 -16 -49 -49 -49c-31 0 -47 17 -47 49c0 31 16 48 47 48c33 0 49 -17 49 -48zM390 570c5 5 12 8 21 8c15 0 28 -9 28 -28c0 -13 -8 -26 -15 -38c-15 -30 -33 -60 -53 -89
c-21 -29 -42 -63 -63 -102c1 -25 3 -53 5 -84c1 -31 2 -69 2 -116c0 -24 -1 -52 -5 -74c-5 -22 -15 -38 -31 -38c-11 0 -29 9 -29 28s1 38 4 56c3 17 4 37 4 59c0 61 -3 113 -8 166c-51 61 -98 129 -142 194c-6 9 -13 18 -20 27s-11 17 -11 25c0 19 17 29 28 29
c21 0 51 -40 81 -87c15 -23 29 -47 44 -71s28 -43 39 -56c40 61 80 124 121 191z" />
    <glyph glyph-name="Z" unicode="Z" horiz-adv-x="724" 
d="M181 526l15 1h40c10 0 22 0 35 -1s26 -1 40 -1c14 -1 28 -1 42 -2c13 -1 26 -1 37 -1l21 2c11 1 23 2 38 3l48 3c17 1 33 2 48 2c21 0 52 -2 76 -7s43 -16 43 -33s-15 -39 -35 -59c-21 -21 -48 -43 -69 -60c-25 -20 -49 -38 -71 -55c-45 -34 -88 -68 -135 -106l-75 -63
c-17 -15 -36 -29 -56 -41s-39 -25 -57 -39l48 -6c16 -3 35 -4 56 -5l351 14c13 0 29 -10 29 -29c0 -15 -12 -28 -27 -28c-128 -8 -245 -14 -380 -14h-63c-31 0 -58 2 -79 7s-34 16 -34 33c0 19 17 34 30 46c18 15 35 28 52 40c32 24 69 52 118 90c25 19 54 43 89 72
c15 12 31 25 50 39c37 27 78 58 117 91c19 17 37 34 53 52l-34 2c-44 0 -79 -1 -106 -4s-50 -4 -67 -4c-10 0 -21 0 -32 1c-23 0 -51 1 -89 2h-66c-17 0 -25 12 -25 29c0 15 11 25 24 29z" />
    <glyph glyph-name="Zcaron" unicode="&#x17d;" horiz-adv-x="724" 
d="M362 680c18 25 36 52 52 75h120l-120 -170h-106l-119 170h120zM181 526l15 1h40c10 0 22 0 35 -1s26 -1 40 -1c14 -1 28 -1 42 -2c13 -1 26 -1 37 -1l21 2c11 1 23 2 38 3l48 3c17 1 33 2 48 2c21 0 52 -2 76 -7s43 -16 43 -33s-15 -39 -35 -59c-21 -21 -48 -43 -69 -60
c-25 -20 -49 -38 -71 -55c-45 -34 -88 -68 -135 -106l-75 -63c-17 -15 -36 -29 -56 -41s-39 -25 -57 -39l48 -6c16 -3 35 -4 56 -5l351 14c13 0 29 -10 29 -29c0 -15 -12 -28 -27 -28c-128 -8 -245 -14 -380 -14h-63c-31 0 -58 2 -79 7s-34 16 -34 33c0 19 17 34 30 46
c18 15 35 28 52 40c32 24 69 52 118 90c25 19 54 43 89 72c15 12 31 25 50 39c37 27 78 58 117 91c19 17 37 34 53 52l-34 2c-44 0 -79 -1 -106 -4s-50 -4 -67 -4c-10 0 -21 0 -32 1c-23 0 -51 1 -89 2h-66c-17 0 -25 12 -25 29c0 15 11 25 24 29z" />
    <glyph glyph-name="a" unicode="a" horiz-adv-x="460" 
d="M334 192c1 -13 3 -28 5 -44c1 -16 2 -39 2 -68l13 -4c16 -5 37 -13 53 -27c8 -7 12 -15 12 -24c0 -19 -15 -29 -32 -29c-28 0 -53 16 -76 31c-21 -8 -48 -16 -73 -22s-49 -11 -62 -11c-37 0 -75 12 -103 33c-29 20 -49 49 -49 84c0 52 34 90 80 119c46 28 106 47 159 59
c0 68 -30 94 -73 94c-32 0 -63 -26 -80 -59c-3 -5 -5 -11 -7 -17c-5 -12 -11 -22 -19 -29c-4 -4 -9 -6 -15 -6c-23 0 -31 14 -31 31c0 8 1 16 4 23c25 68 76 116 148 116c32 0 61 -6 85 -27c23 -21 40 -59 47 -120zM271 229c-28 -4 -46 -8 -71 -16c-6 -3 -15 -7 -28 -12
c-26 -12 -54 -29 -74 -51c-10 -11 -15 -24 -15 -37c0 -12 9 -27 24 -41s35 -25 56 -25c55 0 84 8 100 20c16 11 19 26 23 42c0 44 -4 81 -15 120z" />
    <glyph glyph-name="aacute" unicode="&#xe1;" horiz-adv-x="460" 
d="M204 477h-119l128 128h161zM334 192c1 -13 3 -28 5 -44c1 -16 2 -39 2 -68l13 -4c16 -5 37 -13 53 -27c8 -7 12 -15 12 -24c0 -19 -15 -29 -32 -29c-28 0 -53 16 -76 31c-21 -8 -48 -16 -73 -22s-49 -11 -62 -11c-37 0 -75 12 -103 33c-29 20 -49 49 -49 84
c0 52 34 90 80 119c46 28 106 47 159 59c0 68 -30 94 -73 94c-32 0 -63 -26 -80 -59c-3 -5 -5 -11 -7 -17c-5 -12 -11 -22 -19 -29c-4 -4 -9 -6 -15 -6c-23 0 -31 14 -31 31c0 8 1 16 4 23c25 68 76 116 148 116c32 0 61 -6 85 -27c23 -21 40 -59 47 -120zM271 229
c-28 -4 -46 -8 -71 -16c-6 -3 -15 -7 -28 -12c-26 -12 -54 -29 -74 -51c-10 -11 -15 -24 -15 -37c0 -12 9 -27 24 -41s35 -25 56 -25c55 0 84 8 100 20c16 11 19 26 23 42c0 44 -4 81 -15 120z" />
    <glyph glyph-name="acircumflex" unicode="&#xe2;" horiz-adv-x="460" 
d="M251 620l120 -128h-106l-60 60l-60 -60h-104l120 128h90zM334 192c1 -13 3 -28 5 -44c1 -16 2 -39 2 -68l13 -4c16 -5 37 -13 53 -27c8 -7 12 -15 12 -24c0 -19 -15 -29 -32 -29c-28 0 -53 16 -76 31c-21 -8 -48 -16 -73 -22s-49 -11 -62 -11c-37 0 -75 12 -103 33
c-29 20 -49 49 -49 84c0 52 34 90 80 119c46 28 106 47 159 59c0 68 -30 94 -73 94c-32 0 -63 -26 -80 -59c-3 -5 -5 -11 -7 -17c-5 -12 -11 -22 -19 -29c-4 -4 -9 -6 -15 -6c-23 0 -31 14 -31 31c0 8 1 16 4 23c25 68 76 116 148 116c32 0 61 -6 85 -27
c23 -21 40 -59 47 -120zM271 229c-28 -4 -46 -8 -71 -16c-6 -3 -15 -7 -28 -12c-26 -12 -54 -29 -74 -51c-10 -11 -15 -24 -15 -37c0 -12 9 -27 24 -41s35 -25 56 -25c55 0 84 8 100 20c16 11 19 26 23 42c0 44 -4 81 -15 120z" />
    <glyph glyph-name="adieresis" unicode="&#xe4;" horiz-adv-x="460" 
d="M157 528c0 -32 -16 -49 -48 -49s-48 17 -48 49s16 49 48 49s48 -17 48 -49zM295 528c0 -32 -16 -49 -49 -49c-31 0 -47 17 -47 49c0 31 16 48 47 48c33 0 49 -17 49 -48zM334 192c1 -13 3 -28 5 -44c1 -16 2 -39 2 -68l13 -4c16 -5 37 -13 53 -27c8 -7 12 -15 12 -24
c0 -19 -15 -29 -32 -29c-28 0 -53 16 -76 31c-21 -8 -48 -16 -73 -22s-49 -11 -62 -11c-37 0 -75 12 -103 33c-29 20 -49 49 -49 84c0 52 34 90 80 119c46 28 106 47 159 59c0 68 -30 94 -73 94c-32 0 -63 -26 -80 -59c-3 -5 -5 -11 -7 -17c-5 -12 -11 -22 -19 -29
c-4 -4 -9 -6 -15 -6c-23 0 -31 14 -31 31c0 8 1 16 4 23c25 68 76 116 148 116c32 0 61 -6 85 -27c23 -21 40 -59 47 -120zM271 229c-28 -4 -46 -8 -71 -16c-6 -3 -15 -7 -28 -12c-26 -12 -54 -29 -74 -51c-10 -11 -15 -24 -15 -37c0 -12 9 -27 24 -41s35 -25 56 -25
c55 0 84 8 100 20c16 11 19 26 23 42c0 44 -4 81 -15 120z" />
    <glyph glyph-name="agrave" unicode="&#xe0;" horiz-adv-x="460" 
d="M174 637l105 -166h-104l-153 166h152zM334 192c1 -13 3 -28 5 -44c1 -16 2 -39 2 -68l13 -4c16 -5 37 -13 53 -27c8 -7 12 -15 12 -24c0 -19 -15 -29 -32 -29c-28 0 -53 16 -76 31c-21 -8 -48 -16 -73 -22s-49 -11 -62 -11c-37 0 -75 12 -103 33c-29 20 -49 49 -49 84
c0 52 34 90 80 119c46 28 106 47 159 59c0 68 -30 94 -73 94c-32 0 -63 -26 -80 -59c-3 -5 -5 -11 -7 -17c-5 -12 -11 -22 -19 -29c-4 -4 -9 -6 -15 -6c-23 0 -31 14 -31 31c0 8 1 16 4 23c25 68 76 116 148 116c32 0 61 -6 85 -27c23 -21 40 -59 47 -120zM271 229
c-28 -4 -46 -8 -71 -16c-6 -3 -15 -7 -28 -12c-26 -12 -54 -29 -74 -51c-10 -11 -15 -24 -15 -37c0 -12 9 -27 24 -41s35 -25 56 -25c55 0 84 8 100 20c16 11 19 26 23 42c0 44 -4 81 -15 120z" />
    <glyph glyph-name="aring" unicode="&#xe5;" horiz-adv-x="460" 
d="M171 486c-62 0 -114 52 -114 114s52 114 114 114s115 -51 115 -114c0 -62 -52 -114 -115 -114zM171 639c-21 0 -39 -18 -39 -39c0 -20 18 -39 39 -39s39 19 39 39c0 21 -18 39 -39 39zM334 192c1 -13 3 -28 5 -44c1 -16 2 -39 2 -68l13 -4c16 -5 37 -13 53 -27
c8 -7 12 -15 12 -24c0 -19 -15 -29 -32 -29c-28 0 -53 16 -76 31c-21 -8 -48 -16 -73 -22s-49 -11 -62 -11c-37 0 -75 12 -103 33c-29 20 -49 49 -49 84c0 52 34 90 80 119c46 28 106 47 159 59c0 68 -30 94 -73 94c-32 0 -63 -26 -80 -59c-3 -5 -5 -11 -7 -17
c-5 -12 -11 -22 -19 -29c-4 -4 -9 -6 -15 -6c-23 0 -31 14 -31 31c0 8 1 16 4 23c25 68 76 116 148 116c32 0 61 -6 85 -27c23 -21 40 -59 47 -120zM271 229c-28 -4 -46 -8 -71 -16c-6 -3 -15 -7 -28 -12c-26 -12 -54 -29 -74 -51c-10 -11 -15 -24 -15 -37
c0 -12 9 -27 24 -41s35 -25 56 -25c55 0 84 8 100 20c16 11 19 26 23 42c0 44 -4 81 -15 120z" />
    <glyph glyph-name="atilde" unicode="&#xe3;" horiz-adv-x="460" 
d="M-15 536c9 20 25 47 43 69s39 39 66 39c19 0 35 -3 46 -8s17 -9 18 -10l17 -9c15 -8 31 -16 44 -22c6 -3 10 -5 12 -5c11 0 20 6 27 17s16 28 27 52l61 -52c-13 -25 -29 -53 -47 -74s-39 -36 -62 -36c-24 0 -40 9 -64 22c-21 11 -38 19 -49 24c-12 5 -22 8 -29 9
c-9 -1 -16 -5 -24 -16c-9 -12 -19 -31 -35 -62zM334 192c1 -13 3 -28 5 -44c1 -16 2 -39 2 -68l13 -4c16 -5 37 -13 53 -27c8 -7 12 -15 12 -24c0 -19 -15 -29 -32 -29c-28 0 -53 16 -76 31c-21 -8 -48 -16 -73 -22s-49 -11 -62 -11c-37 0 -75 12 -103 33
c-29 20 -49 49 -49 84c0 52 34 90 80 119c46 28 106 47 159 59c0 68 -30 94 -73 94c-32 0 -63 -26 -80 -59c-3 -5 -5 -11 -7 -17c-5 -12 -11 -22 -19 -29c-4 -4 -9 -6 -15 -6c-23 0 -31 14 -31 31c0 8 1 16 4 23c25 68 76 116 148 116c32 0 61 -6 85 -27
c23 -21 40 -59 47 -120zM271 229c-28 -4 -46 -8 -71 -16c-6 -3 -15 -7 -28 -12c-26 -12 -54 -29 -74 -51c-10 -11 -15 -24 -15 -37c0 -12 9 -27 24 -41s35 -25 56 -25c55 0 84 8 100 20c16 11 19 26 23 42c0 44 -4 81 -15 120z" />
    <glyph glyph-name="b" unicode="b" horiz-adv-x="542" 
d="M420 238c13 -23 18 -46 18 -73c0 -55 -23 -94 -55 -119s-72 -36 -107 -36c-24 0 -43 2 -58 6s-32 8 -51 12c-3 -15 -13 -24 -28 -24c-20 0 -26 17 -29 26c-4 64 -5 104 -5 131c0 17 0 30 1 37s1 14 2 19c12 75 14 129 14 200c0 27 -1 52 -8 108c-3 17 -5 28 -8 40
c-4 12 -6 25 -6 49c0 16 13 29 28 29c11 0 20 -8 27 -25c13 -33 20 -85 21 -144c1 -29 1 -56 1 -81v-49c0 -15 -1 -30 -3 -46c27 12 55 15 86 15c77 0 121 -20 160 -75z" />
    <glyph glyph-name="c" unicode="c" horiz-adv-x="506" 
d="M364 405l16 16c5 5 10 7 15 7c13 0 19 -6 19 -19v-103c0 -13 -3 -24 -18 -24c-4 0 -7 2 -8 6s-3 7 -4 10c-23 61 -61 100 -112 100c-47 0 -70 -26 -70 -95v-169c0 -60 21 -90 63 -90c57 0 99 40 125 119c0 7 9 15 18 15s13 -3 13 -10v-137c0 -10 -5 -15 -15 -15
c-9 0 -14 6 -17 12c-1 3 -3 6 -4 9s-3 6 -4 9c-39 -25 -77 -38 -116 -38c-53 0 -103 24 -139 63c-37 39 -60 91 -60 147c0 61 23 116 60 153c36 37 85 60 137 60c37 0 70 -9 101 -26z" />
    <glyph glyph-name="ccedilla" unicode="&#xe7;" horiz-adv-x="506" 
d="M408 178c9 0 13 -3 13 -10v-137c0 -10 -5 -15 -15 -15c-9 0 -14 6 -17 12c-1 3 -3 6 -4 9s-3 6 -4 9c-32 -20 -63 -33 -95 -37l-19 -26c40 -5 86 -28 86 -86c0 -78 -68 -103 -132 -103h-10c-29 4 -60 11 -97 27l28 72c29 -11 53 -20 71 -20c20 0 34 4 34 17
c0 6 -4 14 -14 18c-5 2 -9 3 -12 3c-9 0 -27 -6 -41 -10l-33 37l58 81c-30 10 -57 28 -79 52c-37 39 -60 91 -60 147c0 61 23 116 60 153c36 37 85 60 137 60c37 0 70 -9 101 -26l16 16c5 5 10 7 15 7c13 0 19 -6 19 -19v-103c0 -13 -3 -24 -18 -24c-4 0 -7 2 -8 6
s-3 7 -4 10c-23 61 -61 100 -112 100c-47 0 -70 -26 -70 -95v-169c0 -60 21 -90 63 -90c57 0 99 40 125 119c0 7 9 15 18 15z" />
    <glyph glyph-name="d" unicode="d" horiz-adv-x="434" 
d="M344 633c13 0 21 -9 25 -21s4 -26 4 -37c0 -15 -2 -36 -6 -63c-8 -56 -17 -126 -25 -202c-4 -39 -6 -76 -6 -112c0 -39 2 -71 10 -108c3 -4 8 -32 8 -51s-5 -40 -28 -40c-15 0 -25 7 -29 22c-29 -19 -68 -24 -107 -24c-68 0 -108 14 -131 42c-24 27 -29 68 -29 120l3 29
c0 9 2 19 5 29c5 28 21 51 39 67c18 15 41 24 62 24c39 0 94 -27 141 -62c0 45 5 86 16 151c3 10 6 27 9 51c3 23 5 55 7 95c1 7 1 16 1 27c0 20 3 40 11 53c4 7 11 10 20 10zM282 137c0 25 -18 54 -45 76c-28 22 -65 37 -102 37c-20 0 -32 -16 -39 -39
c-8 -24 -10 -54 -10 -82c0 -56 25 -73 85 -73c40 0 65 2 81 13s23 32 30 68z" />
    <glyph glyph-name="e" unicode="e" horiz-adv-x="429" 
d="M164 157c-19 0 -43 4 -60 11c7 -77 50 -121 107 -121c9 0 19 3 28 9c9 5 18 8 28 8c16 0 27 -14 27 -30s-15 -28 -34 -35c-20 -8 -43 -11 -60 -11c-53 0 -96 33 -124 81c-29 48 -45 109 -45 168c0 121 59 185 143 185c25 0 70 -10 109 -32s71 -55 71 -99
c0 -27 -12 -61 -39 -86s-61 -39 -97 -44c-19 -3 -37 -4 -54 -4zM89 257l3 -24c23 -11 64 -18 96 -18c25 0 52 7 72 20c20 12 34 31 34 55c0 28 -19 48 -43 60c-25 12 -55 18 -79 18c-16 0 -36 -7 -53 -25s-30 -46 -30 -86z" />
    <glyph glyph-name="eacute" unicode="&#xe9;" horiz-adv-x="429" 
d="M234 477h-119l128 128h161zM164 157c-19 0 -43 4 -60 11c7 -77 50 -121 107 -121c9 0 19 3 28 9c9 5 18 8 28 8c16 0 27 -14 27 -30s-15 -28 -34 -35c-20 -8 -43 -11 -60 -11c-53 0 -96 33 -124 81c-29 48 -45 109 -45 168c0 121 59 185 143 185c25 0 70 -10 109 -32
s71 -55 71 -99c0 -27 -12 -61 -39 -86s-61 -39 -97 -44c-19 -3 -37 -4 -54 -4zM89 257l3 -24c23 -11 64 -18 96 -18c25 0 52 7 72 20c20 12 34 31 34 55c0 28 -19 48 -43 60c-25 12 -55 18 -79 18c-16 0 -36 -7 -53 -25s-30 -46 -30 -86z" />
    <glyph glyph-name="ecircumflex" unicode="&#xea;" horiz-adv-x="429" 
d="M241 610l120 -128h-106l-60 60l-60 -60h-104l120 128h90zM164 157c-19 0 -43 4 -60 11c7 -77 50 -121 107 -121c9 0 19 3 28 9c9 5 18 8 28 8c16 0 27 -14 27 -30s-15 -28 -34 -35c-20 -8 -43 -11 -60 -11c-53 0 -96 33 -124 81c-29 48 -45 109 -45 168
c0 121 59 185 143 185c25 0 70 -10 109 -32s71 -55 71 -99c0 -27 -12 -61 -39 -86s-61 -39 -97 -44c-19 -3 -37 -4 -54 -4zM89 257l3 -24c23 -11 64 -18 96 -18c25 0 52 7 72 20c20 12 34 31 34 55c0 28 -19 48 -43 60c-25 12 -55 18 -79 18c-16 0 -36 -7 -53 -25
s-30 -46 -30 -86z" />
    <glyph glyph-name="edieresis" unicode="&#xeb;" horiz-adv-x="429" 
d="M167 528c0 -32 -16 -49 -48 -49s-48 17 -48 49s16 49 48 49s48 -17 48 -49zM305 528c0 -32 -16 -49 -49 -49c-31 0 -47 17 -47 49c0 31 16 48 47 48c33 0 49 -17 49 -48zM164 157c-19 0 -43 4 -60 11c7 -77 50 -121 107 -121c9 0 19 3 28 9c9 5 18 8 28 8
c16 0 27 -14 27 -30s-15 -28 -34 -35c-20 -8 -43 -11 -60 -11c-53 0 -96 33 -124 81c-29 48 -45 109 -45 168c0 121 59 185 143 185c25 0 70 -10 109 -32s71 -55 71 -99c0 -27 -12 -61 -39 -86s-61 -39 -97 -44c-19 -3 -37 -4 -54 -4zM89 257l3 -24c23 -11 64 -18 96 -18
c25 0 52 7 72 20c20 12 34 31 34 55c0 28 -19 48 -43 60c-25 12 -55 18 -79 18c-16 0 -36 -7 -53 -25s-30 -46 -30 -86z" />
    <glyph glyph-name="egrave" unicode="&#xe8;" horiz-adv-x="429" 
d="M174 647l105 -166h-104l-153 166h152zM164 157c-19 0 -43 4 -60 11c7 -77 50 -121 107 -121c9 0 19 3 28 9c9 5 18 8 28 8c16 0 27 -14 27 -30s-15 -28 -34 -35c-20 -8 -43 -11 -60 -11c-53 0 -96 33 -124 81c-29 48 -45 109 -45 168c0 121 59 185 143 185
c25 0 70 -10 109 -32s71 -55 71 -99c0 -27 -12 -61 -39 -86s-61 -39 -97 -44c-19 -3 -37 -4 -54 -4zM89 257l3 -24c23 -11 64 -18 96 -18c25 0 52 7 72 20c20 12 34 31 34 55c0 28 -19 48 -43 60c-25 12 -55 18 -79 18c-16 0 -36 -7 -53 -25s-30 -46 -30 -86z" />
    <glyph glyph-name="f" unicode="f" horiz-adv-x="344" 
d="M282 583c33 -25 51 -53 51 -92c0 -33 -15 -57 -38 -73s-51 -24 -79 -24c-15 0 -29 11 -29 28c0 25 23 31 45 36c22 4 44 8 44 35c0 35 -26 54 -58 54c-29 0 -46 -26 -56 -61c-10 -36 -13 -79 -16 -114c5 -3 11 -7 18 -10c6 -3 11 -7 16 -10c11 11 17 15 33 15
c15 0 32 -8 32 -25c0 -13 -8 -23 -23 -30c3 -15 9 -28 16 -41s10 -27 10 -42c0 -19 -9 -30 -28 -30c-7 0 -17 10 -27 24s-18 34 -18 55c-1 -1 -3 -2 -6 -3s-6 -4 -10 -7c1 -7 2 -23 2 -43v-23c-1 -16 -1 -32 -2 -49l-3 -45c0 -3 1 -8 2 -14c1 -7 1 -15 1 -26
c0 -39 -9 -46 -32 -50c-15 0 -22 10 -26 26c-4 15 -5 33 -5 49c2 26 3 46 3 61s1 30 3 45v35c-1 9 -1 15 -1 20v10v6c-57 11 -81 37 -81 70c0 20 11 33 25 39s32 7 45 7c0 3 0 10 1 22c1 23 6 57 17 93s29 68 57 88c14 10 31 15 51 15c21 0 43 -7 66 -21zM77 344l-15 -3
c2 -14 13 -21 32 -21c1 1 1 4 1 11c0 3 -1 6 -3 8s-7 4 -15 5zM153 315l19 3c-7 4 -14 7 -21 10z" />
    <glyph glyph-name="g" unicode="g" horiz-adv-x="543" 
d="M39 125c0 39 27 61 84 78c-51 27 -79 65 -79 114c0 43 25 77 61 101s83 37 130 37c48 0 91 -10 129 -30c18 3 39 9 63 16c23 7 45 12 64 16v-119l-75 16c7 -12 7 -24 7 -36c0 -67 -41 -108 -112 -124c-8 -2 -20 -4 -36 -5c-32 -3 -66 -7 -90 -15c-12 -4 -18 -10 -18 -18
c0 -5 8 -9 25 -12s40 -5 70 -5c148 0 217 -31 217 -116c0 -55 -29 -94 -76 -121c-48 -28 -112 -41 -184 -41c-39 0 -86 6 -123 22c-37 15 -66 40 -66 76s23 55 70 86c-41 22 -61 49 -61 80zM230 398c-35 0 -51 -26 -51 -69c0 -59 18 -88 55 -88s54 27 54 71
c0 55 -18 86 -58 86zM322 18c-63 0 -113 2 -151 6c-15 -11 -23 -24 -23 -37c0 -24 17 -40 39 -48c22 -9 51 -13 75 -13s52 3 75 12c23 8 40 22 40 45s-18 35 -55 35z" />
    <glyph glyph-name="h" unicode="h" horiz-adv-x="403" 
d="M343 173v-52c0 -23 -1 -50 -8 -73s-20 -39 -44 -39c-28 0 -47 10 -47 49c1 8 3 19 4 34s4 36 7 64c0 20 0 48 -7 71s-19 40 -43 40c-23 0 -32 -2 -38 -13c-3 -5 -5 -13 -5 -24c-1 -11 -1 -26 -1 -45v-112c0 -27 -22 -49 -43 -49c-45 0 -54 21 -54 52c0 11 1 24 2 39l3 58
l10 141c0 24 -3 50 -7 85c-2 17 -4 37 -7 58s-6 46 -9 74c0 31 8 62 48 62c20 0 32 -7 38 -17s7 -23 7 -34c1 -27 4 -53 7 -78s6 -53 9 -85c1 -7 2 -15 2 -23c11 4 18 4 29 4c52 0 89 -22 113 -56s34 -82 34 -131z" />
    <glyph glyph-name="i" unicode="i" horiz-adv-x="185" 
d="M94 596c28 0 46 -21 46 -52c0 -27 -17 -44 -40 -44c-27 0 -43 30 -43 54c0 29 18 42 37 42zM169 48v-9c0 -20 -14 -40 -34 -40c-8 0 -16 2 -23 5c-8 3 -16 4 -23 4l-44 -5c-23 0 -37 12 -37 32c0 27 10 38 33 45l15 220c0 7 0 14 -1 22c-1 7 -1 17 -1 28v45
c0 13 0 35 5 53c4 18 13 32 30 32c28 0 34 -26 34 -57v-10c-1 -4 -1 -11 -1 -21c0 -13 1 -32 3 -59c1 -27 2 -64 2 -112c0 -27 -4 -46 -8 -65c-5 -20 -9 -40 -9 -68c23 -8 38 -15 47 -20c8 -5 12 -12 12 -20z" />
    <glyph glyph-name="dotlessi" unicode="&#x131;" horiz-adv-x="185" 
d="M169 48v-9c0 -20 -14 -40 -34 -40c-8 0 -16 2 -23 5c-8 3 -16 4 -23 4l-44 -5c-23 0 -37 12 -37 32c0 27 10 38 33 45l15 220c0 7 0 14 -1 22c-1 7 -1 17 -1 28v45c0 13 0 35 5 53c4 18 13 32 30 32c28 0 34 -26 34 -57v-10c-1 -4 -1 -11 -1 -21c0 -13 1 -32 3 -59
c1 -27 2 -64 2 -112c0 -27 -4 -46 -8 -65c-5 -20 -9 -40 -9 -68c23 -8 38 -15 47 -20c8 -5 12 -12 12 -20z" />
    <glyph glyph-name="iacute" unicode="&#xed;" horiz-adv-x="185" 
d="M124 547h-119l128 128h161zM169 48v-9c0 -20 -14 -40 -34 -40c-8 0 -16 2 -23 5c-8 3 -16 4 -23 4l-44 -5c-23 0 -37 12 -37 32c0 27 10 38 33 45l15 220c0 7 0 14 -1 22c-1 7 -1 17 -1 28v45c0 13 0 35 5 53c4 18 13 32 30 32c28 0 34 -26 34 -57v-10
c-1 -4 -1 -11 -1 -21c0 -13 1 -32 3 -59c1 -27 2 -64 2 -112c0 -27 -4 -46 -8 -65c-5 -20 -9 -40 -9 -68c23 -8 38 -15 47 -20c8 -5 12 -12 12 -20z" />
    <glyph glyph-name="icircumflex" unicode="&#xee;" horiz-adv-x="185" 
d="M151 660l120 -128h-106l-60 60l-60 -60h-104l120 128h90zM169 48v-9c0 -20 -14 -40 -34 -40c-8 0 -16 2 -23 5c-8 3 -16 4 -23 4l-44 -5c-23 0 -37 12 -37 32c0 27 10 38 33 45l15 220c0 7 0 14 -1 22c-1 7 -1 17 -1 28v45c0 13 0 35 5 53c4 18 13 32 30 32
c28 0 34 -26 34 -57v-10c-1 -4 -1 -11 -1 -21c0 -13 1 -32 3 -59c1 -27 2 -64 2 -112c0 -27 -4 -46 -8 -65c-5 -20 -9 -40 -9 -68c23 -8 38 -15 47 -20c8 -5 12 -12 12 -20z" />
    <glyph glyph-name="idieresis" unicode="&#xef;" horiz-adv-x="185" 
d="M77 598c0 -32 -16 -49 -48 -49s-48 17 -48 49s16 49 48 49s48 -17 48 -49zM215 598c0 -32 -16 -49 -49 -49c-31 0 -47 17 -47 49c0 31 16 48 47 48c33 0 49 -17 49 -48zM169 48v-9c0 -20 -14 -40 -34 -40c-8 0 -16 2 -23 5c-8 3 -16 4 -23 4l-44 -5c-23 0 -37 12 -37 32
c0 27 10 38 33 45l15 220c0 7 0 14 -1 22c-1 7 -1 17 -1 28v45c0 13 0 35 5 53c4 18 13 32 30 32c28 0 34 -26 34 -57v-10c-1 -4 -1 -11 -1 -21c0 -13 1 -32 3 -59c1 -27 2 -64 2 -112c0 -27 -4 -46 -8 -65c-5 -20 -9 -40 -9 -68c23 -8 38 -15 47 -20c8 -5 12 -12 12 -20z
" />
    <glyph glyph-name="igrave" unicode="&#xec;" horiz-adv-x="185" 
d="M74 687l105 -166h-104l-153 166h152zM169 48v-9c0 -20 -14 -40 -34 -40c-8 0 -16 2 -23 5c-8 3 -16 4 -23 4l-44 -5c-23 0 -37 12 -37 32c0 27 10 38 33 45l15 220c0 7 0 14 -1 22c-1 7 -1 17 -1 28v45c0 13 0 35 5 53c4 18 13 32 30 32c28 0 34 -26 34 -57v-10
c-1 -4 -1 -11 -1 -21c0 -13 1 -32 3 -59c1 -27 2 -64 2 -112c0 -27 -4 -46 -8 -65c-5 -20 -9 -40 -9 -68c23 -8 38 -15 47 -20c8 -5 12 -12 12 -20z" />
    <glyph glyph-name="j" unicode="j" horiz-adv-x="324" 
d="M204 612c8 0 19 -7 28 -16c8 -9 16 -24 16 -37c0 -24 -13 -48 -40 -48s-51 33 -51 62c0 12 8 21 18 29c10 7 21 10 29 10zM272 489c16 0 30 -16 30 -33c0 -19 -15 -34 -30 -34h-17c12 -71 23 -161 23 -244c0 -35 0 -82 -6 -129c-6 -48 -18 -94 -38 -129
c-21 -36 -52 -59 -96 -59c-57 0 -85 33 -100 79s-15 105 -15 157c0 16 12 34 31 34c16 0 30 -17 30 -33v-42c0 -49 4 -81 13 -101c8 -20 21 -27 41 -27c31 0 51 30 63 75s17 107 17 171c0 27 0 65 -3 109c-4 43 -11 90 -24 137c-8 -3 -29 -7 -42 -7c-21 0 -30 17 -30 34
c0 20 14 31 34 37s44 7 67 7c4 0 10 0 19 -1s20 -1 33 -1z" />
    <glyph glyph-name="k" unicode="k" horiz-adv-x="590" 
d="M185 559v-323l136 112h-61v50h232v-50h-80l-118 -98l177 -178h76v-51h-261v51h56l-118 120l-39 -32v-88h71v-51h-238v51h70v436h-70v51h167z" />
    <glyph glyph-name="l" unicode="l" horiz-adv-x="138" 
d="M24 578c0 19 13 30 28 30c11 0 19 -7 24 -20c5 -14 7 -33 7 -58c0 -12 0 -23 -1 -33c-2 -21 -5 -45 -6 -79c-1 -17 -1 -38 -1 -63c0 -16 1 -35 4 -56l14 -151c2 -29 3 -58 3 -88c0 -32 -8 -42 -39 -42c-19 0 -29 17 -33 56c-5 39 -5 99 -5 187v51c0 7 0 16 1 28
c1 11 1 24 2 38c0 13 0 27 1 42s1 29 1 42v116z" />
    <glyph glyph-name="m" unicode="m" horiz-adv-x="639" 
d="M575 326c1 -17 1 -33 2 -47c1 -28 2 -58 2 -97v-70c0 -43 -4 -69 -12 -84c-9 -15 -22 -19 -38 -19c-40 0 -54 28 -54 65c0 3 0 10 1 21c1 20 3 49 4 82c1 17 1 33 1 49c0 23 -1 61 -9 93c-9 32 -28 59 -64 59c-7 0 -16 0 -25 -3c-9 -4 -16 -10 -16 -19c0 -3 1 -12 4 -26
c2 -15 3 -39 3 -72c0 -32 -3 -63 -10 -92s-11 -57 -11 -83c0 -51 -19 -63 -51 -63c-31 0 -51 24 -51 53c0 37 6 71 12 104c6 32 12 64 12 100c0 17 -1 41 -8 61s-18 35 -38 35h-39c-8 -60 -14 -124 -14 -223c0 -11 1 -21 2 -32s2 -23 2 -37c0 -47 -28 -63 -49 -63
c-27 0 -41 11 -49 36s-9 62 -9 117c0 56 3 106 10 162l6 63c3 27 5 57 14 81c8 23 23 40 51 40c32 0 41 -19 46 -40h22c32 0 69 -5 97 -25c19 15 55 24 82 24c37 0 80 -15 113 -42s58 -64 61 -108z" />
    <glyph glyph-name="n" unicode="n" horiz-adv-x="426" 
d="M317 381c39 -43 52 -103 52 -159c0 -23 -4 -50 -7 -74c-2 -13 -4 -24 -5 -34c-4 -21 -4 -30 -4 -49c-1 -20 -4 -41 -14 -54c-5 -7 -13 -10 -22 -10c-23 0 -34 20 -34 40c0 28 6 62 12 95s12 65 12 88c0 24 -8 64 -28 97s-53 60 -105 60c-20 0 -42 -7 -61 -18l5 -96
c2 -33 5 -67 9 -100c4 -34 6 -72 6 -114c0 -7 -1 -19 -5 -28c-5 -9 -13 -17 -26 -17c-21 0 -35 13 -35 33v79c0 13 -1 25 -3 37c-11 71 -16 138 -16 210c0 11 2 28 7 43c4 15 14 27 30 27c8 0 16 -4 23 -11c20 12 42 21 67 21c20 0 47 -6 74 -18s52 -28 68 -48z" />
    <glyph glyph-name="ntilde" unicode="&#xf1;" horiz-adv-x="426" 
d="M15 546c9 20 25 47 43 69s39 39 66 39c19 0 35 -3 46 -8s17 -9 18 -10l17 -9c15 -8 31 -16 44 -22c6 -3 10 -5 12 -5c11 0 20 6 27 17s16 28 27 52l61 -52c-13 -25 -29 -53 -47 -74s-39 -36 -62 -36c-24 0 -40 9 -64 22c-21 11 -38 19 -49 24c-12 5 -22 8 -29 9
c-9 -1 -16 -5 -24 -16c-9 -12 -19 -31 -35 -62zM317 381c39 -43 52 -103 52 -159c0 -23 -4 -50 -7 -74c-2 -13 -4 -24 -5 -34c-4 -21 -4 -30 -4 -49c-1 -20 -4 -41 -14 -54c-5 -7 -13 -10 -22 -10c-23 0 -34 20 -34 40c0 28 6 62 12 95s12 65 12 88c0 24 -8 64 -28 97
s-53 60 -105 60c-20 0 -42 -7 -61 -18l5 -96c2 -33 5 -67 9 -100c4 -34 6 -72 6 -114c0 -7 -1 -19 -5 -28c-5 -9 -13 -17 -26 -17c-21 0 -35 13 -35 33v79c0 13 -1 25 -3 37c-11 71 -16 138 -16 210c0 11 2 28 7 43c4 15 14 27 30 27c8 0 16 -4 23 -11c20 12 42 21 67 21
c20 0 47 -6 74 -18s52 -28 68 -48z" />
    <glyph glyph-name="o" unicode="o" horiz-adv-x="468" 
d="M224 -11c-63 0 -110 25 -141 64c-32 39 -48 92 -48 147c0 48 12 98 37 137c24 39 60 66 111 66c60 0 110 -36 144 -86s53 -114 53 -170c0 -29 -6 -58 -18 -86c-4 -9 -13 -27 -33 -43c-21 -16 -53 -29 -105 -29zM97 188v-7c0 -33 18 -68 45 -94s64 -45 100 -45
c43 0 76 31 76 103c0 12 -1 25 -4 40c-4 20 -16 60 -36 94s-50 63 -93 63c-28 0 -49 -19 -64 -48c-16 -29 -24 -67 -24 -106z" />
    <glyph glyph-name="oacute" unicode="&#xf3;" horiz-adv-x="468" 
d="M234 457h-119l128 128h161zM224 -11c-63 0 -110 25 -141 64c-32 39 -48 92 -48 147c0 48 12 98 37 137c24 39 60 66 111 66c60 0 110 -36 144 -86s53 -114 53 -170c0 -29 -6 -58 -18 -86c-4 -9 -13 -27 -33 -43c-21 -16 -53 -29 -105 -29zM97 188v-7c0 -33 18 -68 45 -94
s64 -45 100 -45c43 0 76 31 76 103c0 12 -1 25 -4 40c-4 20 -16 60 -36 94s-50 63 -93 63c-28 0 -49 -19 -64 -48c-16 -29 -24 -67 -24 -106z" />
    <glyph glyph-name="ocircumflex" unicode="&#xf4;" horiz-adv-x="468" 
d="M241 580l120 -128h-106l-60 60l-60 -60h-104l120 128h90zM224 -11c-63 0 -110 25 -141 64c-32 39 -48 92 -48 147c0 48 12 98 37 137c24 39 60 66 111 66c60 0 110 -36 144 -86s53 -114 53 -170c0 -29 -6 -58 -18 -86c-4 -9 -13 -27 -33 -43c-21 -16 -53 -29 -105 -29z
M97 188v-7c0 -33 18 -68 45 -94s64 -45 100 -45c43 0 76 31 76 103c0 12 -1 25 -4 40c-4 20 -16 60 -36 94s-50 63 -93 63c-28 0 -49 -19 -64 -48c-16 -29 -24 -67 -24 -106z" />
    <glyph glyph-name="odieresis" unicode="&#xf6;" horiz-adv-x="468" 
d="M167 508c0 -32 -16 -49 -48 -49s-48 17 -48 49s16 49 48 49s48 -17 48 -49zM305 508c0 -32 -16 -49 -49 -49c-31 0 -47 17 -47 49c0 31 16 48 47 48c33 0 49 -17 49 -48zM224 -11c-63 0 -110 25 -141 64c-32 39 -48 92 -48 147c0 48 12 98 37 137c24 39 60 66 111 66
c60 0 110 -36 144 -86s53 -114 53 -170c0 -29 -6 -58 -18 -86c-4 -9 -13 -27 -33 -43c-21 -16 -53 -29 -105 -29zM97 188v-7c0 -33 18 -68 45 -94s64 -45 100 -45c43 0 76 31 76 103c0 12 -1 25 -4 40c-4 20 -16 60 -36 94s-50 63 -93 63c-28 0 -49 -19 -64 -48
c-16 -29 -24 -67 -24 -106z" />
    <glyph glyph-name="ograve" unicode="&#xf2;" horiz-adv-x="468" 
d="M184 607l105 -166h-104l-153 166h152zM224 -11c-63 0 -110 25 -141 64c-32 39 -48 92 -48 147c0 48 12 98 37 137c24 39 60 66 111 66c60 0 110 -36 144 -86s53 -114 53 -170c0 -29 -6 -58 -18 -86c-4 -9 -13 -27 -33 -43c-21 -16 -53 -29 -105 -29zM97 188v-7
c0 -33 18 -68 45 -94s64 -45 100 -45c43 0 76 31 76 103c0 12 -1 25 -4 40c-4 20 -16 60 -36 94s-50 63 -93 63c-28 0 -49 -19 -64 -48c-16 -29 -24 -67 -24 -106z" />
    <glyph glyph-name="otilde" unicode="&#xf5;" horiz-adv-x="468" 
d="M25 496c9 20 25 47 43 69s39 39 66 39c19 0 35 -3 46 -8s17 -9 18 -10l17 -9c15 -8 31 -16 44 -22c6 -3 10 -5 12 -5c11 0 20 6 27 17s16 28 27 52l61 -52c-13 -25 -29 -53 -47 -74s-39 -36 -62 -36c-24 0 -40 9 -64 22c-21 11 -38 19 -49 24c-12 5 -22 8 -29 9
c-9 -1 -16 -5 -24 -16c-9 -12 -19 -31 -35 -62zM224 -11c-63 0 -110 25 -141 64c-32 39 -48 92 -48 147c0 48 12 98 37 137c24 39 60 66 111 66c60 0 110 -36 144 -86s53 -114 53 -170c0 -29 -6 -58 -18 -86c-4 -9 -13 -27 -33 -43c-21 -16 -53 -29 -105 -29zM97 188v-7
c0 -33 18 -68 45 -94s64 -45 100 -45c43 0 76 31 76 103c0 12 -1 25 -4 40c-4 20 -16 60 -36 94s-50 63 -93 63c-28 0 -49 -19 -64 -48c-16 -29 -24 -67 -24 -106z" />
    <glyph glyph-name="p" unicode="p" horiz-adv-x="445" 
d="M94 -152c-17 0 -31 11 -31 30c0 13 0 28 1 44c1 15 1 34 1 56c0 80 -3 160 -6 230c-1 35 -3 67 -4 96s-2 53 -2 73c0 24 7 37 16 45c8 8 19 9 26 9c19 0 37 2 52 5s28 4 39 4c60 0 98 -19 122 -50c23 -31 32 -71 32 -115c0 -65 -21 -105 -53 -128
c-33 -24 -78 -31 -126 -31h-37c-1 -28 -1 -53 -2 -74s-2 -44 -2 -68c0 -25 1 -54 3 -89c0 -25 -10 -37 -29 -37z" />
    <glyph glyph-name="q" unicode="q" horiz-adv-x="445" 
d="M299 -156c-21 0 -29 12 -29 31v234c-10 1 -19 1 -28 1s-18 0 -26 1c-64 4 -106 23 -130 52c-25 28 -34 67 -34 108c0 60 18 102 46 128s67 37 108 37c33 0 67 0 92 -8s41 -23 41 -55c0 -88 -2 -160 -4 -227l-3 -100c-1 -33 -2 -67 -2 -103v-49c0 -27 -4 -50 -31 -50z
M269 166l6 99c2 32 3 65 3 98c-4 1 -9 2 -16 3c-14 3 -31 6 -46 8c-8 1 -15 1 -20 1c-24 0 -47 -13 -63 -32c-16 -20 -27 -44 -27 -68c0 -4 1 -12 3 -23c3 -23 22 -50 66 -70c22 -10 53 -15 94 -16z" />
    <glyph glyph-name="r" unicode="r" horiz-adv-x="382" 
d="M317 364c15 0 29 -15 29 -31s-16 -27 -39 -33c-24 -6 -55 -9 -83 -9c-14 0 -30 2 -48 5c-19 3 -39 4 -60 4c0 -5 -2 -22 -5 -51s-5 -70 -5 -121c0 -17 1 -31 2 -41s2 -22 2 -36c0 -27 -10 -41 -29 -41c-29 0 -32 25 -32 48c0 19 -1 33 -1 46c-1 13 -2 28 -2 49
c0 43 2 87 10 139c0 8 1 40 8 71s19 59 39 59c23 0 30 -17 30 -28c0 -12 -3 -23 -6 -34c0 0 4 0 12 -1c15 -2 37 -5 64 -7c13 -1 26 -2 38 -2s24 2 37 7s26 7 39 7z" />
    <glyph glyph-name="s" unicode="s" horiz-adv-x="426" 
d="M189 434c39 0 56 -9 83 -25v17h57v-120h-57v17c0 39 -39 60 -75 60c-37 0 -64 -19 -64 -51c0 -15 12 -26 24 -33c20 -9 42 -16 65 -22c46 -12 87 -29 113 -60c13 -15 19 -37 19 -65c0 -41 -17 -71 -41 -90c-25 -20 -59 -29 -92 -29c-47 0 -73 8 -106 32v-24h-58v134h58
v-16c0 -24 13 -43 31 -56s41 -20 62 -20c47 0 68 28 68 52c0 16 -9 28 -28 36s-47 18 -86 29c-29 11 -55 22 -72 39s-28 40 -28 75c0 40 15 70 39 90s56 30 88 30z" />
    <glyph glyph-name="scaron" unicode="&#x161;" horiz-adv-x="426" 
d="M212 600c18 25 36 52 52 75h120l-120 -170h-106l-119 170h120zM189 434c39 0 56 -9 83 -25v17h57v-120h-57v17c0 39 -39 60 -75 60c-37 0 -64 -19 -64 -51c0 -15 12 -26 24 -33c20 -9 42 -16 65 -22c46 -12 87 -29 113 -60c13 -15 19 -37 19 -65c0 -41 -17 -71 -41 -90
c-25 -20 -59 -29 -92 -29c-47 0 -73 8 -106 32v-24h-58v134h58v-16c0 -24 13 -43 31 -56s41 -20 62 -20c47 0 68 28 68 52c0 16 -9 28 -28 36s-47 18 -86 29c-29 11 -55 22 -72 39s-28 40 -28 75c0 40 15 70 39 90s56 30 88 30z" />
    <glyph glyph-name="t" unicode="t" horiz-adv-x="492" 
d="M401 301c20 0 33 -12 42 -28c8 -17 12 -38 12 -54c0 -14 -2 -29 -6 -45c-16 -63 -45 -102 -81 -128s-79 -36 -120 -36c-44 0 -69 16 -83 41c-14 24 -17 57 -17 90c1 55 1 98 2 131c0 33 0 58 1 76v39v19c-5 1 -10 2 -17 2h-40c-17 0 -33 1 -45 7s-20 17 -20 40
c0 21 9 33 22 39c12 6 31 5 51 5h54v31c0 40 1 64 8 80c7 15 19 20 42 20s35 -6 41 -18s6 -32 6 -57c0 -20 0 -43 -3 -63c48 0 85 -4 112 -13c26 -9 39 -25 39 -46c0 -36 -22 -45 -47 -45l-113 13c0 -7 0 -15 -1 -26c-1 -22 -3 -50 -3 -81c-1 -15 -1 -31 -1 -46
c0 -39 0 -76 4 -104c1 -14 4 -25 7 -33c3 -9 7 -13 13 -13c31 0 58 16 76 39s28 53 28 81c0 5 -2 10 -5 16c-3 5 -5 14 -5 25c0 16 8 26 18 33s21 9 29 9z" />
    <glyph glyph-name="u" unicode="u" horiz-adv-x="401" 
d="M391 45v-2c0 -23 -12 -31 -31 -31c-25 0 -48 9 -88 48c-27 -32 -51 -43 -82 -43c-67 0 -105 38 -126 88s-27 113 -27 168c0 45 0 88 4 120c4 31 12 50 27 50c20 0 27 -12 27 -35c0 -20 -1 -42 -3 -67c-3 -25 -4 -48 -4 -69c0 -12 2 -60 15 -107c12 -47 38 -90 86 -90
c7 0 26 1 43 18s33 53 33 121c0 61 -1 101 -9 137c0 1 0 3 -1 8c-2 8 -5 20 -6 31c-1 5 -1 10 -1 13c0 15 9 28 25 28c17 0 27 -22 32 -53s7 -68 7 -100c0 -40 -1 -70 -4 -97s-7 -50 -12 -77c23 -25 47 -31 65 -35s30 -7 30 -24z" />
    <glyph glyph-name="uacute" unicode="&#xfa;" horiz-adv-x="401" 
d="M234 477h-119l128 128h161zM391 45v-2c0 -23 -12 -31 -31 -31c-25 0 -48 9 -88 48c-27 -32 -51 -43 -82 -43c-67 0 -105 38 -126 88s-27 113 -27 168c0 45 0 88 4 120c4 31 12 50 27 50c20 0 27 -12 27 -35c0 -20 -1 -42 -3 -67c-3 -25 -4 -48 -4 -69
c0 -12 2 -60 15 -107c12 -47 38 -90 86 -90c7 0 26 1 43 18s33 53 33 121c0 61 -1 101 -9 137c0 1 0 3 -1 8c-2 8 -5 20 -6 31c-1 5 -1 10 -1 13c0 15 9 28 25 28c17 0 27 -22 32 -53s7 -68 7 -100c0 -40 -1 -70 -4 -97s-7 -50 -12 -77c23 -25 47 -31 65 -35s30 -7 30 -24z
" />
    <glyph glyph-name="ucircumflex" unicode="&#xfb;" horiz-adv-x="401" 
d="M321 690l120 -128h-106l-60 60l-60 -60h-104l120 128h90zM391 45v-2c0 -23 -12 -31 -31 -31c-25 0 -48 9 -88 48c-27 -32 -51 -43 -82 -43c-67 0 -105 38 -126 88s-27 113 -27 168c0 45 0 88 4 120c4 31 12 50 27 50c20 0 27 -12 27 -35c0 -20 -1 -42 -3 -67
c-3 -25 -4 -48 -4 -69c0 -12 2 -60 15 -107c12 -47 38 -90 86 -90c7 0 26 1 43 18s33 53 33 121c0 61 -1 101 -9 137c0 1 0 3 -1 8c-2 8 -5 20 -6 31c-1 5 -1 10 -1 13c0 15 9 28 25 28c17 0 27 -22 32 -53s7 -68 7 -100c0 -40 -1 -70 -4 -97s-7 -50 -12 -77
c23 -25 47 -31 65 -35s30 -7 30 -24z" />
    <glyph glyph-name="udieresis" unicode="&#xfc;" horiz-adv-x="401" 
d="M107 528c0 -32 -16 -49 -48 -49s-48 17 -48 49s16 49 48 49s48 -17 48 -49zM245 528c0 -32 -16 -49 -49 -49c-31 0 -47 17 -47 49c0 31 16 48 47 48c33 0 49 -17 49 -48zM391 45v-2c0 -23 -12 -31 -31 -31c-25 0 -48 9 -88 48c-27 -32 -51 -43 -82 -43
c-67 0 -105 38 -126 88s-27 113 -27 168c0 45 0 88 4 120c4 31 12 50 27 50c20 0 27 -12 27 -35c0 -20 -1 -42 -3 -67c-3 -25 -4 -48 -4 -69c0 -12 2 -60 15 -107c12 -47 38 -90 86 -90c7 0 26 1 43 18s33 53 33 121c0 61 -1 101 -9 137c0 1 0 3 -1 8c-2 8 -5 20 -6 31
c-1 5 -1 10 -1 13c0 15 9 28 25 28c17 0 27 -22 32 -53s7 -68 7 -100c0 -40 -1 -70 -4 -97s-7 -50 -12 -77c23 -25 47 -31 65 -35s30 -7 30 -24z" />
    <glyph glyph-name="ugrave" unicode="&#xf9;" horiz-adv-x="401" 
d="M134 587l105 -166h-104l-153 166h152zM391 45v-2c0 -23 -12 -31 -31 -31c-25 0 -48 9 -88 48c-27 -32 -51 -43 -82 -43c-67 0 -105 38 -126 88s-27 113 -27 168c0 45 0 88 4 120c4 31 12 50 27 50c20 0 27 -12 27 -35c0 -20 -1 -42 -3 -67c-3 -25 -4 -48 -4 -69
c0 -12 2 -60 15 -107c12 -47 38 -90 86 -90c7 0 26 1 43 18s33 53 33 121c0 61 -1 101 -9 137c0 1 0 3 -1 8c-2 8 -5 20 -6 31c-1 5 -1 10 -1 13c0 15 9 28 25 28c17 0 27 -22 32 -53s7 -68 7 -100c0 -40 -1 -70 -4 -97s-7 -50 -12 -77c23 -25 47 -31 65 -35s30 -7 30 -24z
" />
    <glyph glyph-name="v" unicode="v" horiz-adv-x="471" 
d="M47 406c0 15 10 24 25 24c13 0 21 -2 24 -7s7 -12 14 -22c40 -79 63 -130 83 -173c19 -43 34 -76 57 -120l6 19c2 7 5 14 8 21c22 55 39 100 52 136s23 65 32 86s17 36 24 45s15 13 24 13c19 0 28 -9 28 -26c0 -5 -1 -12 -4 -21c-9 -28 -20 -54 -31 -79s-22 -50 -31 -75
c-1 -4 -4 -12 -7 -24c-8 -25 -18 -57 -30 -92c-13 -35 -27 -65 -42 -85s-30 -20 -45 -5c-8 7 -17 20 -26 38c-16 37 -30 65 -42 89l-19 34c-6 10 -12 21 -18 32c-3 7 -9 18 -18 34c-18 32 -38 73 -53 111c-7 19 -11 34 -11 47z" />
    <glyph glyph-name="w" unicode="w" horiz-adv-x="979" 
d="M300 1l-139 335c-15 35 -42 57 -83 65v55h264v-55c-14 -2 -23 -5 -28 -9s-7 -8 -7 -13c0 -8 2 -18 7 -29l64 -154l67 150c-9 41 -29 48 -60 55v55h254v-56c-16 -2 -28 -4 -35 -7s-11 -8 -11 -17c0 -2 1 -5 2 -8c1 -4 3 -12 8 -24s12 -30 22 -53s24 -55 41 -96l38 89
c9 21 15 38 20 49s8 19 9 23s1 7 1 10c0 18 -19 29 -58 34v56h214v-56c-25 -4 -43 -12 -57 -25s-26 -33 -38 -61c-22 -52 -44 -104 -65 -156s-43 -104 -65 -157h-77l-107 249l-103 -249h-78z" />
    <glyph glyph-name="x" unicode="x" horiz-adv-x="471" 
d="M314 302c-6 -9 -14 -20 -25 -31s-18 -22 -23 -32c31 -52 51 -89 71 -137c1 -3 4 -7 7 -12c6 -10 13 -22 18 -35c3 -7 4 -13 4 -20c0 -13 -12 -25 -28 -25c-21 0 -39 28 -55 64c-9 18 -17 37 -25 58c-8 20 -17 38 -26 54l-6 -10c-3 -3 -6 -8 -9 -13
c-7 -11 -16 -26 -32 -50c-13 -21 -25 -42 -32 -82c-4 -24 -14 -32 -33 -32s-25 11 -25 30s12 55 32 95c19 39 44 82 72 117c-21 23 -39 46 -58 73c-15 20 -38 38 -57 54c-20 16 -35 32 -35 49c0 15 7 23 22 23c24 0 50 -19 77 -47c13 -15 27 -31 41 -49
c13 -18 27 -36 42 -55l79 106c5 8 17 24 30 38s28 26 43 26s25 -9 25 -24c0 -11 -9 -23 -25 -42c-16 -20 -40 -48 -69 -91z" />
    <glyph glyph-name="y" unicode="y" horiz-adv-x="491" 
d="M358 457c4 -20 6 -40 6 -61c0 -27 -3 -53 -9 -78c-19 -60 -35 -114 -48 -161c-14 -47 -30 -91 -47 -132c-9 -22 -17 -43 -23 -62c-13 -40 -30 -70 -57 -87c-14 -9 -33 -13 -56 -13c-36 0 -61 15 -61 46c0 29 16 33 27 33c12 0 19 -6 23 -13s7 -13 11 -13c17 0 30 8 39 20
c5 6 9 13 12 20s7 13 10 20c15 45 21 66 28 83c1 5 4 11 8 19c7 15 16 33 22 51c3 9 4 17 4 25c-19 11 -36 33 -48 49c-13 17 -30 62 -44 109s-25 94 -25 121c0 20 11 40 32 40c20 0 27 -14 27 -25c0 -32 3 -59 7 -82l7 -36c5 -28 15 -58 31 -85c7 -14 17 -25 29 -34l32 93
c11 29 12 59 12 90l-6 52c0 19 9 33 28 33c15 0 24 -7 29 -22z" />
    <glyph glyph-name="yacute" unicode="&#xfd;" horiz-adv-x="491" 
d="M254 547h-119l128 128h161zM358 457c4 -20 6 -40 6 -61c0 -27 -3 -53 -9 -78c-19 -60 -35 -114 -48 -161c-14 -47 -30 -91 -47 -132c-9 -22 -17 -43 -23 -62c-13 -40 -30 -70 -57 -87c-14 -9 -33 -13 -56 -13c-36 0 -61 15 -61 46c0 29 16 33 27 33c12 0 19 -6 23 -13
s7 -13 11 -13c17 0 30 8 39 20c5 6 9 13 12 20s7 13 10 20c15 45 21 66 28 83c1 5 4 11 8 19c7 15 16 33 22 51c3 9 4 17 4 25c-19 11 -36 33 -48 49c-13 17 -30 62 -44 109s-25 94 -25 121c0 20 11 40 32 40c20 0 27 -14 27 -25c0 -32 3 -59 7 -82l7 -36
c5 -28 15 -58 31 -85c7 -14 17 -25 29 -34l32 93c11 29 12 59 12 90l-6 52c0 19 9 33 28 33c15 0 24 -7 29 -22z" />
    <glyph glyph-name="ydieresis" unicode="&#xff;" horiz-adv-x="491" 
d="M207 598c0 -32 -16 -49 -48 -49s-48 17 -48 49s16 49 48 49s48 -17 48 -49zM345 598c0 -32 -16 -49 -49 -49c-31 0 -47 17 -47 49c0 31 16 48 47 48c33 0 49 -17 49 -48zM358 457c4 -20 6 -40 6 -61c0 -27 -3 -53 -9 -78c-19 -60 -35 -114 -48 -161
c-14 -47 -30 -91 -47 -132c-9 -22 -17 -43 -23 -62c-13 -40 -30 -70 -57 -87c-14 -9 -33 -13 -56 -13c-36 0 -61 15 -61 46c0 29 16 33 27 33c12 0 19 -6 23 -13s7 -13 11 -13c17 0 30 8 39 20c5 6 9 13 12 20s7 13 10 20c15 45 21 66 28 83c1 5 4 11 8 19c7 15 16 33 22 51
c3 9 4 17 4 25c-19 11 -36 33 -48 49c-13 17 -30 62 -44 109s-25 94 -25 121c0 20 11 40 32 40c20 0 27 -14 27 -25c0 -32 3 -59 7 -82l7 -36c5 -28 15 -58 31 -85c7 -14 17 -25 29 -34l32 93c11 29 12 59 12 90l-6 52c0 19 9 33 28 33c15 0 24 -7 29 -22z" />
    <glyph glyph-name="z" unicode="z" horiz-adv-x="487" 
d="M54 377c0 28 21 45 60 45h36h11c16 -1 46 -2 87 -2c20 -1 42 -1 66 -1c19 0 32 0 40 1h24c23 0 57 -2 86 -9c28 -8 51 -22 51 -46c0 -4 -1 -8 -2 -11c-2 -3 -4 -7 -5 -10c-2 -3 -8 -8 -17 -16c-9 -9 -26 -21 -49 -37c-47 -32 -127 -79 -262 -150h187c7 1 16 1 25 1h49
c48 0 55 -10 55 -45c0 -19 -18 -30 -46 -37c-29 -7 -68 -8 -112 -8h-130c-47 0 -95 2 -133 11c-38 8 -64 25 -64 53c0 35 30 57 59 72l32 18c25 14 63 35 118 65c27 15 60 32 98 52l-127 5c-34 1 -61 3 -81 6c-41 6 -56 18 -56 43z" />
    <glyph glyph-name="zcaron" unicode="&#x17e;" horiz-adv-x="487" 
d="M252 600c18 25 36 52 52 75h120l-120 -170h-106l-119 170h120zM54 377c0 28 21 45 60 45h36h11c16 -1 46 -2 87 -2c20 -1 42 -1 66 -1c19 0 32 0 40 1h24c23 0 57 -2 86 -9c28 -8 51 -22 51 -46c0 -4 -1 -8 -2 -11c-2 -3 -4 -7 -5 -10c-2 -3 -8 -8 -17 -16
c-9 -9 -26 -21 -49 -37c-47 -32 -127 -79 -262 -150h187c7 1 16 1 25 1h49c48 0 55 -10 55 -45c0 -19 -18 -30 -46 -37c-29 -7 -68 -8 -112 -8h-130c-47 0 -95 2 -133 11c-38 8 -64 25 -64 53c0 35 30 57 59 72l32 18c25 14 63 35 118 65c27 15 60 32 98 52l-127 5
c-34 1 -61 3 -81 6c-41 6 -56 18 -56 43z" />
    <glyph glyph-name="ordfeminine" unicode="&#xaa;" horiz-adv-x="460" 
d="M334 192c1 -13 3 -28 5 -44c1 -16 2 -39 2 -68l13 -4c16 -5 37 -13 53 -27c8 -7 12 -15 12 -24c0 -19 -15 -29 -32 -29c-28 0 -53 16 -76 31c-21 -8 -48 -16 -73 -22s-49 -11 -62 -11c-37 0 -75 12 -103 33c-29 20 -49 49 -49 84c0 52 34 90 80 119c46 28 106 47 159 59
c0 68 -30 94 -73 94c-32 0 -63 -26 -80 -59c-3 -5 -5 -11 -7 -17c-5 -12 -11 -22 -19 -29c-4 -4 -9 -6 -15 -6c-23 0 -31 14 -31 31c0 8 1 16 4 23c25 68 76 116 148 116c32 0 61 -6 85 -27c23 -21 40 -59 47 -120zM271 229c-28 -4 -46 -8 -71 -16c-6 -3 -15 -7 -28 -12
c-26 -12 -54 -29 -74 -51c-10 -11 -15 -24 -15 -37c0 -12 9 -27 24 -41s35 -25 56 -25c55 0 84 8 100 20c16 11 19 26 23 42c0 44 -4 81 -15 120z" />
    <glyph glyph-name="ordmasculine" unicode="&#xba;" horiz-adv-x="468" 
d="M224 -11c-63 0 -110 25 -141 64c-32 39 -48 92 -48 147c0 48 12 98 37 137c24 39 60 66 111 66c60 0 110 -36 144 -86s53 -114 53 -170c0 -29 -6 -58 -18 -86c-4 -9 -13 -27 -33 -43c-21 -16 -53 -29 -105 -29zM97 188v-7c0 -33 18 -68 45 -94s64 -45 100 -45
c43 0 76 31 76 103c0 12 -1 25 -4 40c-4 20 -16 60 -36 94s-50 63 -93 63c-28 0 -49 -19 -64 -48c-16 -29 -24 -67 -24 -106z" />
    <glyph glyph-name="uni0410" unicode="&#x410;" horiz-adv-x="642" 
d="M359 597l189 -555h40v-36h-240v37h33c-4 12 -8 25 -13 39c-5 13 -13 34 -22 62c-2 5 -4 11 -5 17c-2 6 -4 12 -7 18h-147c-7 -25 -14 -48 -21 -69s-15 -43 -22 -68h32v-36h-116v36h41c28 91 58 184 89 277s61 186 91 278h78zM323 217c-20 55 -33 90 -42 117l-22 65
c-19 -63 -39 -121 -60 -182h124z" />
    <glyph glyph-name="uni0411" unicode="&#x411;" horiz-adv-x="500" 
d="M406 514c-28 -3 -81 -4 -140 -5c-60 -1 -124 -3 -173 -6c-3 -29 -3 -53 -3 -82c3 -18 5 -35 7 -52s5 -33 9 -48l59 18c37 12 75 20 114 20c61 0 103 -20 130 -48c27 -29 39 -66 39 -101c0 -52 -19 -104 -51 -143c-33 -40 -80 -67 -135 -67c-31 0 -63 9 -90 25
c-28 16 -52 39 -65 70c-55 124 -70 262 -78 398l-3 40c0 12 7 25 14 28l392 16c28 -4 38 -36 38 -59c0 -17 -14 -31 -30 -31c-11 0 -19 6 -34 27zM266 297c-51 0 -95 -16 -140 -35c11 -63 23 -113 43 -148s48 -53 88 -53c41 0 73 20 96 49c23 28 35 66 35 103
c0 36 -20 57 -44 69c-25 12 -57 15 -78 15z" />
    <glyph glyph-name="uni0412" unicode="&#x412;" horiz-adv-x="490" 
d="M444 472c1 -8 2 -16 2 -23c0 -57 -34 -103 -94 -123c71 -27 108 -79 108 -151c0 -69 -28 -112 -61 -137s-73 -33 -94 -33h-269v38h37v516h-37v37h217c123 0 180 -44 191 -124zM337 496c0 42 -27 63 -81 63h-83v-217h92c45 0 72 24 72 63v91zM346 225c0 28 -12 47 -28 60
c-17 13 -39 19 -60 19h-85v-261h88c57 0 85 25 85 76v106z" />
    <glyph glyph-name="uni0413" unicode="&#x413;" horiz-adv-x="542" 
d="M456 611c15 0 25 -3 28 -10s4 -13 4 -16v-161c0 -11 -10 -17 -19 -17c-7 0 -14 4 -14 13c-7 88 -40 153 -101 153h-156v-530h39v-38h-180v38h40v530h-40v38h399z" />
    <glyph glyph-name="uni0414" unicode="&#x414;" horiz-adv-x="574" 
d="M22 140c0 19 19 29 40 34c11 3 22 5 33 6s20 2 26 3v28c-1 13 -1 33 -2 62l-5 114c-3 47 -6 108 -9 182c0 3 1 9 3 15s6 12 15 16h220c19 0 23 -16 23 -29l26 -374c1 -1 3 -1 7 -1c4 -1 15 -2 33 -3c11 0 32 -2 51 -6c19 -5 35 -14 35 -30v-254c0 -15 -14 -28 -30 -28
s-30 14 -30 31v223c-40 8 -82 12 -125 12c-81 0 -169 -10 -249 -27l9 -159c1 -36 2 -55 2 -56c0 -15 -13 -24 -28 -24s-29 11 -29 26zM315 545l-151 -6l7 -175c2 -43 4 -77 5 -101s1 -41 2 -51v-27c8 0 18 1 31 3c24 3 54 6 84 10c15 1 28 2 40 2c-4 61 -7 120 -9 176
s-5 112 -9 169z" />
    <glyph glyph-name="uni0415" unicode="&#x415;" horiz-adv-x="565" 
d="M451 598c22 0 33 -10 33 -31v-128c0 -11 -6 -19 -19 -23c-11 6 -17 12 -17 19c-5 31 -15 62 -31 86c-17 24 -40 40 -73 40h-80v-226h52c23 0 32 25 40 49c7 24 14 49 30 49c11 0 17 -6 17 -18v-195c0 -11 -6 -21 -18 -21c-11 0 -17 8 -17 19c0 41 -25 80 -58 80h-46v-258
h94c24 0 43 11 57 25s23 31 28 46c1 2 2 9 4 20c4 22 11 49 22 69c5 10 12 15 19 15c13 0 20 -9 20 -26v-151c0 -17 -13 -35 -33 -35h-408v37h37v521h-37v37h384z" />
    <glyph glyph-name="uni0401" unicode="&#x401;" horiz-adv-x="502" 
d="M255 636c-34 0 -51 16 -51 48s17 48 51 48c35 0 52 -16 52 -48s-17 -48 -52 -48zM139 637c-29 0 -43 14 -43 43s14 44 43 44s44 -15 44 -44s-9 -39 -40 -43h-4zM204 512h-90v-151c22 1 41 1 57 2c32 0 58 1 79 2h30c32 0 63 -1 123 -5c19 0 22 -20 22 -32
c0 -17 -12 -34 -31 -34h-276c0 -5 0 -12 -1 -19c-1 -8 -2 -22 -2 -41c0 -56 4 -107 12 -150h281c20 -5 29 -20 29 -39c0 -21 -16 -33 -31 -33h-309c-13 0 -27 10 -27 25c-5 168 -10 282 -13 361c-2 39 -3 70 -4 92s-2 38 -2 48c0 24 15 42 30 42c77 0 137 2 186 5
c48 3 87 5 122 5c19 0 39 -1 55 -5c16 -5 27 -13 27 -26c0 -23 -15 -34 -30 -34c-53 -1 -99 -4 -138 -7c-39 -4 -72 -6 -99 -6z" />
    <glyph glyph-name="uni0416" unicode="&#x416;" horiz-adv-x="1208" 
d="M639 129c16 33 35 75 61 112c26 36 60 70 104 86c23 139 82 212 171 212c43 0 83 -15 112 -33s48 -39 48 -51c0 -19 -11 -30 -26 -30c-9 0 -17 3 -24 9c-15 11 -33 25 -60 37c-13 5 -30 8 -50 8c-49 0 -76 -28 -89 -63c-13 -36 -15 -78 -15 -109c0 -35 0 -96 15 -150
s44 -100 104 -100s89 22 104 51c7 14 12 30 13 47c3 34 5 63 14 83c4 9 12 14 25 14c17 0 28 -18 28 -33c-9 -76 -21 -130 -48 -166c-28 -36 -69 -52 -137 -52c-2 1 -4 1 -6 1s-4 0 -5 1c-57 8 -93 30 -116 58c-23 27 -32 62 -38 98c-3 17 -6 35 -7 53s-4 35 -7 52
c-36 -19 -61 -54 -83 -93c-11 -20 -21 -40 -30 -60c-17 -41 -32 -76 -48 -96c-8 -11 -16 -16 -25 -16c-19 0 -21 6 -25 21l-9 38c-8 32 -18 71 -26 114c-5 21 -9 42 -12 63c-8 51 -14 90 -22 125s-18 64 -31 92l-84 -177l-42 -89c-15 -29 -29 -59 -42 -89
c-12 -28 -28 -56 -48 -77s-46 -36 -78 -36c-48 0 -88 27 -115 64c-27 36 -42 83 -42 126c0 14 2 28 5 41l7 19c7 20 20 45 39 64c9 9 20 14 32 14c19 0 29 -14 29 -30c0 -8 -3 -18 -10 -23c-27 -25 -40 -58 -40 -93c0 -16 7 -47 22 -74s38 -50 70 -50c37 0 62 34 77 77
s21 94 21 129c0 63 -8 137 -24 196c-17 59 -44 101 -83 101c-19 0 -31 -10 -39 -24s-11 -32 -11 -47l6 -35c0 -16 -14 -31 -30 -31s-25 10 -29 23c-5 13 -6 31 -6 48c0 81 49 127 110 127c52 0 89 -30 115 -84s40 -131 47 -220l61 123c5 11 12 24 19 40c14 32 28 63 44 84
c8 10 16 15 23 15c11 0 21 -8 24 -13s10 -26 23 -65c12 -39 31 -101 58 -186z" />
    <glyph glyph-name="uni0417" unicode="&#x417;" horiz-adv-x="518" 
d="M184 296v59h59c49 0 76 19 89 41c12 22 13 46 13 58c0 55 -38 90 -89 90c-72 0 -109 -46 -116 -99h-56v149h57v-30c35 32 74 39 105 39c123 0 184 -59 184 -140c0 -49 -19 -107 -66 -134c28 -11 51 -33 68 -61c17 -29 27 -64 27 -97c0 -48 -18 -91 -51 -122
c-33 -32 -83 -51 -144 -51c-31 0 -55 2 -77 9s-42 18 -63 35v-32h-55v171h56c5 -27 12 -57 30 -82s49 -43 104 -43c41 0 69 16 86 40c16 24 23 55 23 84c0 36 -15 65 -38 85s-54 31 -87 31h-59z" />
    <glyph glyph-name="uni0418" unicode="&#x418;" horiz-adv-x="489" 
d="M323 215v-1l-3 18c-1 8 -2 16 -4 25c-1 4 -2 10 -3 18l-63 -107c-34 -57 -58 -94 -75 -115s-28 -31 -46 -43c-9 -6 -17 -9 -23 -9c-11 0 -23 7 -32 16s-15 22 -15 31v468c0 16 9 26 21 33c11 7 25 9 36 9c25 0 44 -23 44 -48v-312c15 20 24 36 32 51c1 2 5 9 10 22
c11 25 26 60 46 99s42 74 64 95c11 11 21 16 31 16c29 0 43 -19 47 -42l48 -401c0 -24 -20 -50 -47 -50c-20 0 -49 19 -49 44z" />
    <glyph glyph-name="uni0419" unicode="&#x419;" horiz-adv-x="615" 
d="M203 591c32 0 55 30 75 59c19 28 35 58 55 58c19 0 31 -16 31 -35c0 -49 -30 -86 -66 -110s-78 -36 -103 -36c-44 0 -68 34 -85 65v-1c-3 7 -8 16 -13 25s-8 18 -8 27c0 15 10 33 27 33c11 0 24 -8 37 -23c13 -16 29 -37 50 -62zM501 42l-90 268l-21 49
c-7 16 -19 29 -36 38c-36 -20 -73 -58 -94 -105l-124 -263c-4 -21 -15 -31 -32 -31c-27 0 -30 15 -30 38v3c0 1 0 6 -1 14s-1 21 -2 38s-2 42 -4 73l-7 118c-3 47 -6 106 -10 176c0 23 18 27 37 27s27 -18 31 -34l12 -275c7 15 14 29 20 43c6 13 13 27 20 41c1 2 4 9 11 20
c12 23 33 56 58 93c24 36 51 68 78 89c13 10 26 15 37 15c21 0 46 -20 67 -47s39 -61 47 -90c28 -96 51 -164 68 -210c8 -23 14 -41 19 -53c5 -13 7 -21 7 -25c0 -21 -17 -34 -32 -34s-25 9 -29 24z" />
    <glyph glyph-name="uni041A" unicode="&#x41a;" horiz-adv-x="569" 
d="M192 214v-160c0 -20 -10 -35 -25 -44s-33 -14 -49 -14c-47 0 -68 13 -68 64v502c4 24 8 42 18 52s26 14 55 14c37 0 69 -24 74 -59v-145c55 69 114 113 166 139c51 26 93 34 110 34c21 0 37 -9 48 -21c11 -13 16 -29 19 -45c0 -40 -21 -57 -53 -68
c-85 -24 -144 -77 -203 -144c29 -41 55 -77 78 -107c45 -61 76 -103 92 -130c8 -14 12 -25 12 -33c0 -16 -10 -31 -23 -43s-31 -19 -47 -19s-32 7 -49 20z" />
    <glyph glyph-name="uni041B" unicode="&#x41b;" horiz-adv-x="578" 
d="M470 28v125c0 65 -3 122 -20 205c-3 15 -8 45 -17 76s-23 61 -43 76c-4 4 -14 11 -26 19c-13 7 -29 13 -45 13c-25 0 -41 -27 -52 -67c-11 -41 -16 -96 -20 -148c-4 -53 -8 -106 -13 -143c-3 -19 -10 -63 -26 -102c-17 -40 -46 -74 -93 -74c-13 0 -35 9 -52 27
s-31 44 -31 81c0 20 14 32 33 32c25 0 30 -18 34 -37c3 -20 4 -38 20 -38c13 0 21 15 26 26c1 3 4 12 8 27c3 15 9 39 16 73v-1c6 35 10 69 13 104c2 35 5 69 10 103c1 24 6 74 23 119c16 44 46 82 98 82c9 0 19 -2 31 -5c99 -27 154 -107 175 -254c2 -15 5 -48 10 -100
c4 -52 6 -121 6 -208c0 -23 -6 -43 -33 -43c-17 0 -32 15 -32 32z" />
    <glyph glyph-name="uni041C" unicode="&#x41c;" horiz-adv-x="677" 
d="M209 603l124 -390l123 390h128v-37h-34v-505h34v-37h-160v37h36v429l-145 -466h-26l-143 460v-423h33v-37h-103v37h33v505h-33v37h133z" />
    <glyph glyph-name="uni041D" unicode="&#x41d;" horiz-adv-x="516" 
d="M63 598c21 0 31 -11 31 -34c4 -72 9 -167 9 -250l30 -2c17 -2 38 -4 65 -6c53 -5 123 -11 200 -19c2 26 4 50 5 73l3 67c1 13 1 29 1 48c0 38 2 74 13 99c5 12 14 18 26 18c16 0 29 -19 29 -34c-5 -75 -8 -134 -10 -176c-3 -43 -4 -75 -5 -96c-1 -22 -2 -36 -2 -43
c-1 -7 -1 -12 -1 -15c0 -36 2 -71 7 -104l12 -99c0 -13 -9 -36 -32 -36s-35 29 -42 68s-9 86 -9 122c0 17 0 29 1 36v16l-288 23c0 -8 0 -16 1 -25c0 -17 1 -39 2 -68v-53c0 -40 -2 -67 -6 -82s-13 -23 -26 -23c-17 0 -31 17 -31 33c0 244 -1 413 -13 530c0 27 18 32 30 32z
" />
    <glyph glyph-name="uni041E" unicode="&#x41e;" horiz-adv-x="577" 
d="M30 265c0 75 27 156 73 218s110 105 189 105c88 0 154 -34 198 -85s65 -118 65 -185c0 -104 -41 -186 -97 -241s-128 -84 -191 -84c-55 0 -113 26 -159 74c-46 47 -78 114 -78 198z" />
    <glyph glyph-name="uni041F" unicode="&#x41f;" horiz-adv-x="525" 
d="M114 -11c-16 0 -26 13 -30 26c-23 96 -45 230 -45 422c0 28 2 59 7 79c4 17 35 29 73 37s84 11 121 11c97 0 154 -9 186 -25s40 -40 40 -71c0 -56 -5 -118 -9 -170l-6 -71c-2 -21 -3 -36 -3 -46c0 -40 2 -74 15 -110c3 -7 6 -12 10 -17s6 -11 6 -18
c0 -16 -12 -34 -31 -34c-23 0 -37 26 -45 64s-11 88 -11 139c0 44 2 87 4 123s3 65 3 78v72c-16 5 -32 9 -60 12s-68 4 -132 4c-13 -1 -28 -2 -44 -2c-16 -1 -35 -5 -57 -13v-203c0 -43 10 -102 20 -153c5 -25 9 -48 14 -67c4 -19 6 -31 6 -36c0 -20 -13 -31 -32 -31z" />
    <glyph glyph-name="uni0420" unicode="&#x420;" horiz-adv-x="488" 
d="M247 590c137 -1 202 -70 202 -166c0 -69 -39 -109 -87 -132c-48 -24 -106 -30 -146 -30c-37 0 -75 5 -118 13v-233c0 -23 -5 -50 -32 -50c-17 3 -25 13 -25 28v52c0 3 0 7 1 10v23c0 12 0 31 1 58v113c0 12 0 26 -1 41c-2 31 -5 76 -7 142c-1 33 -2 73 -2 120
c0 26 10 39 29 39c24 0 28 -19 28 -46c11 4 23 8 46 12c23 3 56 6 111 6z" />
    <glyph glyph-name="uni0421" unicode="&#x421;" horiz-adv-x="520" 
d="M385 573l23 28c4 5 9 7 16 7c12 0 18 -8 18 -25v-138c0 -8 -5 -15 -16 -21c-10 5 -15 12 -15 19c-8 31 -24 63 -46 87s-52 41 -85 41c-48 0 -78 -23 -95 -55s-23 -71 -23 -103v-206c0 -96 43 -162 118 -162c57 0 86 33 110 88c2 5 5 12 8 21c7 19 15 38 24 51
c4 7 8 10 12 10c11 0 17 -6 17 -19v-162c0 -13 -5 -19 -15 -19c-8 0 -17 9 -25 19c-4 5 -8 10 -11 15c-4 5 -7 8 -10 10c-31 -35 -68 -53 -111 -53c-77 0 -133 37 -169 92c-37 55 -54 126 -54 195c0 77 21 156 59 216c38 59 93 99 164 99c41 0 76 -12 106 -35z" />
    <glyph glyph-name="uni0422" unicode="&#x422;" horiz-adv-x="608" 
d="M537 384l-163 1c0 -5 0 -11 1 -17v-29c0 -13 0 -31 1 -54v-93c0 -32 -1 -85 -5 -133c0 -36 -29 -56 -60 -56c-37 0 -63 33 -63 64v322c-53 5 -99 11 -164 11c-36 0 -69 19 -74 58c0 33 11 52 28 61c16 8 38 9 58 9c33 0 85 0 140 -2s110 -4 153 -7c23 -1 46 -2 71 -2
c48 -1 90 -7 116 -26c13 -10 19 -25 19 -44c0 -43 -22 -63 -58 -63z" />
    <glyph glyph-name="uni0423" unicode="&#x423;" horiz-adv-x="581" 
d="M258 598v-13h-38l136 -326l123 326h-40v13h95v-13h-38l-166 -444c-15 -40 -39 -75 -70 -99c-31 -25 -69 -41 -110 -41c-44 0 -68 17 -71 50c5 27 21 46 45 46c23 0 48 -12 48 -40c0 -15 -6 -28 -18 -40c56 0 104 31 135 78l-219 490h-39v13h227z" />
    <glyph glyph-name="uni0424" unicode="&#x424;" horiz-adv-x="825" 
d="M376 166c-64 5 -123 23 -166 54s-69 76 -69 137c0 76 32 131 76 168c43 36 97 55 144 62c0 5 8 17 24 17c11 0 17 -6 19 -19c167 -8 257 -88 257 -221c0 -9 -1 -18 -2 -27c-13 -77 -50 -114 -94 -134c-22 -11 -46 -18 -71 -22c-25 -5 -50 -10 -74 -16v-8v-22s0 -27 1 -48
v-88c-4 -9 -12 -19 -23 -19s-18 5 -22 16v170zM207 275c20 -25 48 -42 78 -53s62 -15 91 -15l-12 333c-35 -8 -81 -25 -118 -55s-67 -72 -67 -132c0 -29 9 -55 28 -78zM550 511c-36 17 -76 26 -144 26l12 -326c21 0 40 1 63 4c13 1 48 8 80 28c32 19 61 50 61 101
c0 24 -1 57 -11 89c-10 31 -28 59 -61 78z" />
    <glyph glyph-name="uni0425" unicode="&#x425;" horiz-adv-x="591" 
d="M488 9c-5 0 -10 3 -16 10c-6 6 -15 16 -26 30c-23 28 -65 81 -105 133l-58 73c-18 23 -31 40 -40 51c-27 -37 -53 -86 -74 -134c-5 -11 -11 -26 -17 -44c-12 -37 -24 -75 -39 -101c-7 -13 -14 -20 -21 -20c-13 0 -19 11 -19 18c0 6 3 19 10 39c13 40 38 99 72 171
c17 35 35 71 55 107c-24 33 -40 56 -51 74c-12 18 -18 33 -26 53c-3 5 -10 25 -17 46c-7 20 -14 43 -14 54c0 15 11 20 20 20c12 0 19 -10 24 -25l6 -23c1 -9 3 -16 5 -23c16 -47 35 -81 51 -105c7 -12 14 -21 20 -27c5 -7 8 -10 9 -11c3 1 5 3 8 6c3 2 7 7 14 14
s16 18 29 33c13 14 30 34 53 59l20 24c16 19 32 38 48 51c7 7 13 10 18 10c11 0 22 -6 22 -17c0 -4 -2 -9 -6 -15c-30 -33 -60 -66 -89 -97c-30 -32 -59 -65 -87 -98c8 -13 26 -37 47 -65s46 -60 70 -88c7 -10 18 -23 32 -39c27 -33 56 -69 77 -97c10 -14 15 -23 15 -27
c0 -11 -9 -20 -20 -20z" />
    <glyph glyph-name="uni0427" unicode="&#x427;" horiz-adv-x="507" 
d="M207 598v-15h-40v-276c0 -39 36 -57 69 -57c30 2 61 11 93 27v306h-41v15h165v-15h-42v-572h42v-14h-165v14h41v247c-32 -17 -70 -28 -115 -28c-36 0 -68 10 -92 28s-39 45 -39 82v243h-40v15h164z" />
    <glyph glyph-name="uni0426" unicode="&#x426;" horiz-adv-x="706" 
d="M619 -75l5 75c0 48 -4 63 -31 70c-9 -1 -25 -2 -46 -5c-43 -5 -99 -12 -155 -16c-29 -3 -54 -4 -77 -4h-100c-26 0 -46 1 -61 2s-25 2 -31 4s-10 5 -13 9c-23 27 -35 57 -45 120s-19 158 -32 317c0 32 14 43 35 43c23 0 36 -11 40 -34c5 -53 10 -98 14 -136
c7 -77 12 -130 16 -163s8 -53 12 -65c1 -6 3 -11 6 -16c51 -3 85 -4 117 -7c87 0 144 10 204 22c-13 116 -26 213 -37 285c-5 36 -10 65 -13 87c-3 21 -5 35 -5 40c0 21 19 38 40 38c10 0 18 -5 23 -14s10 -24 14 -44c4 -21 8 -47 12 -80l15 -121c5 -39 11 -81 15 -115
c2 -17 4 -32 5 -44c1 -13 2 -21 2 -25h34c53 0 82 -19 98 -45s18 -60 18 -88c0 -36 0 -68 -5 -91c-5 -24 -16 -38 -36 -38c-23 0 -38 18 -38 39z" />
    <glyph glyph-name="uni0428" unicode="&#x428;" horiz-adv-x="776" 
d="M183 68h116l60 3c16 1 32 2 48 4l-6 144c-1 14 -1 30 -2 49l-3 58c-3 40 -5 82 -6 115c-1 16 -1 30 -2 41s-1 18 -1 21c0 16 14 34 33 34s30 -14 34 -30l22 -432c59 0 99 -1 125 -1c13 -1 23 -1 30 -1c7 -1 11 -1 13 -1l35 440c4 17 15 26 32 26s33 -13 33 -32l-31 -464
c-4 -16 -14 -31 -33 -31h-83h-16c-11 -1 -30 -2 -59 -2c-15 -1 -34 -1 -58 -1h-313c-11 0 -29 5 -29 18l-66 483c0 17 14 36 33 36c15 0 33 -13 33 -30z" />
    <glyph glyph-name="uni0429" unicode="&#x429;" horiz-adv-x="988" 
d="M224 605v-15h-51v-601h253v601h-54v15h201v-15h-52v-601h253v601h-52v15h200v-15h-52v-601h82v-170c-19 44 -35 82 -58 110c-24 28 -54 45 -101 45h-768v15h52v601h-52v15h199z" />
    <glyph glyph-name="uni042C" unicode="&#x42c;" horiz-adv-x="442" 
d="M150 540l-8 -200c4 -27 6 -45 6 -54c53 0 105 -6 143 -26s63 -52 66 -104c0 -43 -9 -64 -24 -84c-4 -5 -15 -20 -35 -33s-50 -25 -93 -25c-44 0 -69 50 -84 116s-18 147 -18 211c0 35 2 68 7 103v79c0 21 3 41 22 41c11 0 17 -8 18 -24z" />
    <glyph glyph-name="uni042A" unicode="&#x42a;" horiz-adv-x="618" 
d="M66 538c-11 0 -20 8 -20 20c0 13 20 25 47 31s62 9 90 9c7 0 13 -1 27 -2s36 -4 73 -9c9 -4 25 -8 25 -19v-193h49c57 0 107 -12 143 -41c35 -29 56 -77 59 -148c-4 -61 -13 -85 -33 -112c-21 -27 -49 -45 -82 -56c-17 -5 -33 -8 -50 -8c-59 0 -93 25 -113 59
s-25 76 -25 113l14 168v200c-12 4 -34 7 -61 7c-23 0 -49 -5 -74 -9c-25 -5 -50 -10 -69 -10zM381 338l-59 -5c-12 -4 -20 -30 -24 -61c-5 -32 -6 -68 -6 -89c0 -52 11 -86 30 -106s44 -27 72 -27c44 0 77 18 98 44s31 60 31 95c0 32 -10 69 -33 98c-24 29 -60 51 -109 51z
" />
    <glyph glyph-name="uni042B" unicode="&#x42b;" horiz-adv-x="665" 
d="M496 26l11 176c0 56 -9 103 -20 138c-12 35 -25 59 -32 70c-25 -12 -56 -30 -81 -48s-46 -34 -53 -41c-11 -11 -29 -30 -45 -49c-8 -9 -15 -18 -20 -26c-6 -8 -9 -14 -9 -17s2 -5 7 -6c24 -5 56 -14 81 -29c24 -15 43 -35 43 -64c0 -27 -17 -54 -44 -77
c-28 -23 -66 -38 -107 -38c-47 0 -72 14 -87 33c-16 19 -19 43 -19 63c0 153 8 254 12 301c1 11 1 20 2 27c0 6 1 11 2 14c2 7 6 8 15 8c15 0 20 -11 20 -19l-8 -215l36 5c28 40 56 82 95 120s85 72 152 99c1 1 4 1 8 1c9 0 21 -3 25 -8c27 -41 42 -84 50 -130s9 -95 9 -144
c0 -53 -1 -93 -4 -119c-3 -27 -9 -40 -19 -40c-8 0 -20 2 -20 15z" />
    <glyph glyph-name="uni042D" unicode="&#x42d;" horiz-adv-x="585" 
d="M228 602h24c80 0 146 -35 191 -91c44 -56 69 -132 69 -213c0 -88 -26 -162 -73 -215c-48 -53 -114 -84 -194 -84c-56 0 -93 22 -134 63l-30 -30c-7 -7 -12 -13 -15 -16c-7 -7 -10 -7 -15 -7v172c0 8 6 9 14 -8c3 -9 8 -19 13 -30c47 -83 95 -129 186 -129
c49 0 86 20 111 52c24 32 37 75 37 120v109c-7 4 -18 8 -34 11c-25 -6 -49 -14 -71 -23c-23 -9 -46 -14 -69 -14c-28 0 -55 8 -86 35c1 1 4 2 9 2c7 0 20 -1 39 -5c7 0 29 8 41 15c9 3 16 6 23 9c12 5 22 9 31 11c4 1 9 1 14 1c29 0 63 -9 103 -27v104
c0 108 -56 174 -156 174c-69 0 -122 -28 -158 -83c-3 -5 -5 -11 -8 -18c-5 -14 -11 -27 -17 -38c-3 -6 -6 -10 -9 -13c-2 2 -3 6 -3 11v145c0 7 3 10 8 10c4 0 8 -2 11 -5l41 -40c12 12 29 23 49 31c19 8 39 14 58 14z" />
    <glyph glyph-name="uni042E" unicode="&#x42e;" horiz-adv-x="866" 
d="M523 618c13 0 25 -1 36 -4s23 -5 34 -7c76 -27 135 -70 174 -118s59 -101 59 -149c0 -53 -8 -101 -37 -152c-43 -73 -101 -119 -160 -147c-60 -28 -120 -37 -165 -37c-37 3 -91 15 -144 75c-23 25 -36 56 -44 92c-8 35 -11 73 -15 113l-24 3c-20 3 -41 5 -60 6
c-9 1 -17 1 -23 1c0 -17 0 -39 -3 -79c-1 -21 -3 -46 -5 -77s-5 -68 -9 -113c0 -27 -9 -35 -30 -35h-2c-21 0 -31 6 -31 35c0 17 1 33 2 46c3 27 6 59 9 108c1 24 2 56 2 95l-23 266c0 21 18 32 34 32c17 0 30 -13 30 -32c0 -26 2 -52 7 -78c4 -27 8 -58 12 -95
c21 -2 42 -5 62 -9c19 -4 39 -6 60 -6c21 117 60 184 105 221c44 37 97 45 149 45zM749 254c9 13 14 39 14 62v6c0 67 -31 123 -78 163s-108 64 -168 64c-31 0 -57 -7 -88 -22c-12 -8 -37 -23 -58 -63s-39 -103 -39 -207c0 -72 21 -118 50 -147c28 -29 65 -40 97 -40
c71 0 128 22 173 55c44 33 77 80 97 129z" />
    <glyph glyph-name="uni042F" unicode="&#x42f;" horiz-adv-x="563" 
d="M487 610v-15h-36v-583h36v-15h-146v15h36v298h-63c-43 0 -66 -25 -79 -57s-16 -72 -16 -103v-51c0 -68 -34 -105 -91 -105c-39 0 -67 17 -84 34c0 2 2 3 5 3l7 -2c16 -5 21 -6 28 -6c19 0 30 9 42 36c0 59 7 121 27 169c19 47 51 80 102 80c-24 0 -58 14 -85 39
c-28 24 -49 59 -49 99c0 104 70 164 174 164h192z" />
    <glyph glyph-name="uni0430" unicode="&#x430;" horiz-adv-x="436" 
d="M189 466c43 0 76 -4 100 -19c23 -15 35 -40 35 -83v-288c0 -23 9 -43 32 -43c12 0 22 13 31 25l11 17c3 5 6 8 9 8c1 0 2 -2 2 -5c0 -23 -16 -42 -36 -55s-45 -21 -62 -21c-39 0 -54 33 -54 64c-25 -37 -66 -64 -113 -64c-57 0 -94 48 -94 116c0 48 20 86 53 111
c33 24 80 38 135 38h17v108c0 44 -21 73 -56 73c-9 0 -26 -2 -42 -6c-16 -5 -31 -12 -36 -23c0 -2 0 -3 1 -4c18 -8 27 -22 27 -42c0 -24 -9 -37 -28 -40c-35 0 -52 15 -52 46c0 29 16 50 40 65c23 15 53 22 80 22zM255 257c-44 0 -77 -6 -100 -25c-23 -20 -35 -52 -38 -101
c4 -60 18 -97 59 -101c15 5 34 12 50 22s29 22 29 39v166z" />
    <glyph glyph-name="uni0431" unicode="&#x431;" horiz-adv-x="468" 
d="M409 586l5 -11c-3 -15 -7 -29 -12 -42c-21 -39 -38 -53 -62 -58c-12 -3 -26 -4 -42 -4s-36 -1 -61 -4c-67 0 -105 -9 -128 -40s-31 -81 -36 -165c36 73 81 108 164 108c51 0 95 -22 125 -57s47 -81 47 -126c0 -59 -22 -103 -57 -134c-35 -32 -83 -48 -132 -48
c-107 0 -177 80 -177 252c0 67 11 132 36 184c24 51 63 87 118 95c26 4 48 7 65 8c35 3 59 4 79 8s37 13 52 25c7 6 13 9 16 9zM217 358c-24 0 -38 -13 -46 -31c-9 -18 -12 -42 -12 -59v-151c0 -67 21 -100 62 -100c28 0 46 11 55 28c9 16 12 40 12 67v154
c0 51 -22 92 -71 92z" />
    <glyph glyph-name="uni0432" unicode="&#x432;" horiz-adv-x="429" 
d="M304 304v-7c0 -8 -1 -19 -12 -32c-12 -13 -32 -31 -71 -55c59 -5 96 -23 119 -46c23 -24 31 -53 31 -78c0 -24 -18 -41 -42 -52c-25 -12 -57 -17 -85 -20c-28 -4 -52 -4 -60 -4c-9 0 -29 0 -48 5c-19 4 -37 13 -41 32c-19 120 -31 197 -39 245c-4 24 -7 41 -8 52
c-2 10 -3 16 -3 18c0 5 5 10 16 14c21 8 51 13 80 16c15 1 26 2 34 2c80 0 129 -29 129 -90zM180 360c-33 0 -64 -8 -94 -24l18 -114l79 -3c7 5 16 10 26 16c19 12 36 27 48 45c5 9 8 18 8 28c0 17 -12 31 -28 40c-17 8 -38 12 -57 12z" />
    <glyph glyph-name="uni0433" unicode="&#x433;" horiz-adv-x="382" 
d="M355 292h-46v89h-140v-324h63v-29h-191v29h63v324h-63v29h314v-118z" />
    <glyph glyph-name="uni0434" unicode="&#x434;" horiz-adv-x="477" 
d="M351 108l-9 5l-266 -34c-8 -8 -10 -19 -10 -30c0 -7 1 -16 3 -26c1 -10 3 -20 5 -30c1 -11 3 -21 5 -30c1 -10 2 -19 2 -26c0 -12 -4 -15 -23 -15c-5 0 -8 2 -11 6s-6 12 -8 23c-4 23 -6 61 -10 124c0 25 3 37 42 48l-25 229c0 16 31 34 71 47c39 13 84 23 115 23
c16 0 35 -1 51 -7s29 -17 36 -36c9 -33 9 -70 9 -94v-127h13c22 0 35 -5 39 -15l40 -204c0 -12 -6 -18 -18 -18c-10 0 -16 5 -18 16zM243 379l-32 -5c-49 -16 -79 -26 -123 -43l19 -202l185 22v190c0 24 -29 38 -49 38z" />
    <glyph glyph-name="uni0435" unicode="&#x435;" horiz-adv-x="429" 
d="M163 163c-25 0 -50 3 -75 9c2 -25 6 -45 12 -62c5 -15 16 -38 34 -58s43 -37 75 -37c36 4 62 12 79 20c9 3 16 6 22 9s11 4 15 4c7 0 15 -5 15 -18c0 -2 -2 -6 -5 -11s-10 -11 -20 -17c-20 -12 -56 -22 -117 -22c-47 0 -86 34 -114 83c-29 48 -46 112 -46 169
c0 120 57 181 136 181c21 0 40 -4 71 -15s62 -30 86 -58c11 -15 17 -32 17 -51c0 -48 -29 -80 -66 -99c-37 -20 -83 -27 -119 -27z" />
    <glyph glyph-name="uni0451" unicode="&#x451;" horiz-adv-x="416" 
d="M264 478c-34 0 -51 16 -51 48c0 31 17 47 51 47c35 0 52 -16 52 -47c0 -32 -17 -48 -52 -48zM105 522c0 29 14 43 43 43s44 -14 44 -43c0 -31 -11 -39 -42 -43c-19 3 -45 15 -45 43zM188 181l-59 6c8 -69 44 -116 107 -116l52 16c15 0 30 -15 30 -30c0 -7 -8 -17 -24 -27
s-40 -19 -69 -19c-56 0 -98 34 -126 82s-43 111 -43 168c0 123 61 185 142 185c24 0 49 -6 81 -18c31 -13 62 -35 83 -64c11 -15 16 -31 16 -50c0 -53 -29 -87 -67 -107s-87 -26 -123 -26zM118 266c0 -11 18 -18 39 -22s44 -6 55 -6c20 0 47 4 68 16s38 31 38 59
c0 20 -19 35 -44 47c-25 11 -56 16 -77 16c-36 0 -55 -15 -66 -37c-12 -22 -13 -50 -13 -73z" />
    <glyph glyph-name="uni0436" unicode="&#x436;" horiz-adv-x="1005" 
d="M651 246c0 48 7 89 27 118c20 28 53 45 108 45c17 0 33 -2 50 -7s35 -16 58 -32c3 -3 4 -6 4 -11c0 -11 -6 -20 -14 -20c-17 0 -34 10 -50 20c-17 10 -35 20 -55 20c-35 0 -58 -19 -72 -43c-14 -25 -20 -57 -20 -84c0 -68 12 -123 32 -159c20 -37 47 -57 76 -57
c56 0 88 26 92 61c2 7 3 16 3 26c0 19 2 38 8 53c3 7 8 12 15 14c9 -3 18 -7 18 -18c-1 -8 -2 -17 -2 -28c-7 -64 -25 -99 -51 -119s-61 -24 -97 -24s-60 16 -76 37s-25 47 -30 66l-23 100l-34 -16c-19 -23 -29 -38 -38 -53s-16 -28 -25 -48l-8 -22c-7 -20 -15 -40 -25 -55
c-5 -7 -11 -11 -17 -12c-13 2 -21 10 -26 24l-77 341c-64 -132 -104 -212 -129 -263c-13 -25 -22 -44 -28 -56l-15 -27c-32 -40 -71 -32 -99 -19s-53 36 -69 71c-8 17 -12 37 -12 60c0 13 5 39 16 63c11 23 27 42 51 42c7 0 10 -7 10 -15c0 -7 -2 -12 -7 -17
c-20 -20 -32 -46 -32 -74c8 -64 35 -91 86 -106c29 5 42 24 51 61c5 24 9 45 11 67s2 44 2 75v12c0 4 0 10 -1 18s-1 19 -2 32l-3 50c-4 23 -9 48 -20 66s-27 30 -52 30s-40 -20 -46 -59c2 -13 4 -24 6 -33c0 -12 -6 -18 -19 -18c-17 0 -22 21 -22 45c0 31 4 57 16 75
s31 28 62 28c45 0 74 -25 91 -71s22 -115 22 -200v-20c0 -6 0 -12 -1 -17l127 271c3 4 6 6 11 6c6 0 11 -4 15 -13l83 -358c20 45 38 84 59 114s47 51 87 63z" />
    <glyph glyph-name="uni0437" unicode="&#x437;" horiz-adv-x="439" 
d="M148 43c23 -7 41 -12 57 -12c31 0 53 12 67 29s19 40 19 63c0 29 -10 58 -26 79c-17 20 -43 33 -72 33c-9 0 -18 -1 -29 -2s-23 -3 -36 -4c-10 2 -16 9 -18 20c0 9 6 15 17 19l81 7c23 21 39 49 39 80c0 35 -19 68 -86 76c-42 -2 -70 -27 -84 -75c-5 -10 -11 -15 -20 -15
c-12 2 -18 8 -18 17c4 28 12 45 23 64c4 5 13 18 29 28c15 10 37 19 66 19c43 0 75 -16 96 -38s32 -52 32 -76c-4 -39 -13 -57 -45 -93c57 -31 86 -75 86 -147c0 -11 -2 -39 -20 -65s-51 -50 -112 -53c-15 0 -41 4 -57 11c-15 5 -32 20 -46 37s-25 37 -25 54
c0 11 7 18 18 21c13 -4 14 -5 21 -17c11 -32 24 -45 43 -60z" />
    <glyph glyph-name="uni0438" unicode="&#x438;" horiz-adv-x="435" 
d="M175 461v-13h-32v-370l146 338v32h-30v13h119v-13h-32v-425h32v-16h-119v16h30v356l-146 -340v-16h32v-16h-119v16h30v425h-30v13h119z" />
    <glyph glyph-name="uni0439" unicode="&#x439;" horiz-adv-x="536" 
d="M149 548c7 -1 14 -3 20 -8c5 -5 11 -9 18 -12c23 -18 39 -29 48 -34c8 -5 14 -7 17 -7c20 0 36 18 51 35c15 16 29 34 46 34c11 0 18 -3 18 -14c0 -15 -5 -21 -21 -37c-7 -7 -21 -19 -38 -30s-38 -20 -59 -20c-40 0 -69 16 -88 33c-19 16 -28 34 -31 41c2 11 8 17 19 19z
M76 349c2 10 8 16 19 18c13 -2 19 -7 19 -16v-267c23 21 42 39 55 52c26 26 42 42 58 56c15 14 40 33 81 65c21 15 48 36 83 62l10 2c5 0 9 -2 14 -6c4 -5 9 -14 15 -28c5 -13 11 -34 16 -62s8 -68 8 -120c0 -59 0 -92 -3 -112s-8 -27 -17 -28c-12 0 -19 11 -19 20v108
c0 37 0 68 -4 96s-11 54 -23 85c-36 -30 -71 -60 -105 -91s-67 -60 -99 -89c-3 -3 -8 -9 -15 -16c-14 -16 -33 -33 -49 -47c-17 -14 -32 -15 -38 -2c-3 7 -5 15 -5 26v87v73v67c-1 21 -1 44 -1 67z" />
    <glyph glyph-name="uni043A" unicode="&#x43a;" horiz-adv-x="474" 
d="M359 406v-10c0 -15 -9 -36 -28 -36s-25 13 -25 29c0 15 9 24 13 28c-11 0 -21 0 -40 -16c-1 -1 -2 -2 -3 -4c-2 -2 -6 -7 -11 -15c-6 -8 -14 -20 -25 -37l-45 -70l152 -261h32v-15h-136v15h32l-122 220l106 162c11 23 37 34 60 34c21 0 35 -8 40 -24zM177 428v-12h-32
v-402h32v-15h-124v15h34v402h-34v12h124z" />
    <glyph glyph-name="uni043B" unicode="&#x43b;" horiz-adv-x="526" 
d="M436 -11c-19 0 -37 14 -37 35c-2 21 -3 41 -3 61c-1 39 -2 77 -6 115c-2 19 -6 38 -11 57c-1 5 -4 14 -7 29c-7 29 -19 63 -38 87c-9 12 -20 18 -33 18c-20 0 -34 -15 -45 -35c-12 -20 -19 -45 -26 -65l-35 -228c-11 -31 -26 -45 -59 -45c-20 0 -40 9 -55 22
c-16 13 -26 32 -26 53c0 19 15 39 36 39c15 0 25 -8 34 -19l32 196c7 39 26 78 52 107s58 49 91 49c37 0 67 -22 90 -53c39 -65 58 -132 69 -193c13 -75 13 -137 13 -184v-9c0 -23 -17 -37 -36 -37z" />
    <glyph glyph-name="uni043C" unicode="&#x43c;" horiz-adv-x="697" 
d="M32 3v31c21 0 36 3 45 12s13 26 16 54l21 282c0 31 -14 34 -54 38v30h154l134 -305l138 305h148v-30c-43 -5 -50 -14 -50 -41l17 -294c0 -44 15 -51 58 -51v-31h-222v31h11c25 0 38 5 46 13c7 8 8 19 8 34v279l-172 -357h-19l-157 347l-20 -263c0 -47 20 -53 52 -53h5
v-31h-159z" />
    <glyph glyph-name="uni043D" unicode="&#x43d;" horiz-adv-x="642" 
d="M422 248v112c0 36 -15 51 -56 51h-7v30h224v-30h-7c-40 0 -55 -15 -55 -51v-278c0 -39 17 -51 56 -51h7v-31h-225v31h7c41 0 56 12 56 51v123h-225v-123c0 -39 17 -51 56 -51h7v-31h-224v31h7c39 0 56 12 56 51v278c0 39 -17 51 -56 51h-7v30h224v-30h-7
c-39 0 -56 -12 -56 -51v-112h225z" />
    <glyph glyph-name="uni043E" unicode="&#x43e;" horiz-adv-x="468" 
d="M224 437c65 0 115 -27 148 -67c32 -41 48 -96 48 -149c0 -69 -21 -122 -53 -158c-33 -37 -77 -58 -124 -63c-63 0 -114 23 -150 61s-57 91 -57 151c0 59 18 116 50 157s79 68 138 68zM226 422h-4c-32 0 -58 -16 -75 -38s-27 -50 -27 -74v-186c0 -15 5 -43 22 -67
c16 -24 45 -44 90 -44s72 20 88 44c15 24 19 52 19 67v177c0 29 -9 59 -28 82s-46 39 -85 39z" />
    <glyph glyph-name="uni043F" unicode="&#x43f;" horiz-adv-x="506" 
d="M440 441v-14h-40v-409h40v-15h-155v15h40v409h-159v-409h40v-15h-155v15h40v409h-40v14h389z" />
    <glyph glyph-name="uni0440" unicode="&#x440;" horiz-adv-x="445" 
d="M88 -290c-9 0 -14 5 -16 15c-2 9 -3 22 -3 37c0 48 -2 129 -5 220s-5 190 -5 270c0 21 19 34 43 40c23 6 50 6 69 6c112 0 161 -59 161 -159c0 -63 -20 -98 -48 -120c-29 -22 -66 -30 -101 -33h-82l3 -123v-62c0 -22 1 -46 2 -73c0 -12 -6 -18 -17 -18h-1z" />
    <glyph glyph-name="uni0441" unicode="&#x441;" horiz-adv-x="452" 
d="M265 302h-2c-48 0 -90 -16 -120 -43s-48 -64 -48 -107c0 -40 14 -66 35 -84c20 -18 49 -29 78 -38h5c23 0 44 6 63 17c5 3 11 7 18 13c15 12 31 25 45 34c7 5 12 7 15 7c10 0 16 -6 18 -19c0 -3 -3 -7 -8 -12l-13 -13l-33 -24c-29 -20 -65 -39 -101 -39
c-49 0 -89 22 -116 53s-42 72 -42 109c0 47 19 95 50 126s66 47 105 52c19 3 38 4 57 4c9 0 15 -10 15 -18c-3 -11 -6 -18 -21 -18z" />
    <glyph glyph-name="uni0442" unicode="&#x442;" horiz-adv-x="479" 
d="M95 434h307c9 0 14 -5 15 -15l10 -118c0 -3 -2 -6 -7 -7c-7 4 -11 23 -15 48c-5 24 -15 49 -31 66c-9 9 -20 13 -34 13h-54v-406h39v-15h-154v15h40v406h-53c-36 0 -50 -29 -58 -60c-4 -15 -7 -30 -10 -43s-8 -21 -15 -24c-2 3 -3 6 -3 9l10 118c0 5 8 13 13 13z" />
    <glyph glyph-name="uni0443" unicode="&#x443;" horiz-adv-x="628" 
d="M268 445v-13h-30l154 -259l128 259h-30v13h83v-13h-31l-208 -430c-5 -11 -12 -23 -20 -36c-11 -15 -33 -45 -63 -72s-69 -50 -110 -50c-37 0 -74 26 -74 66c0 31 30 53 58 53c31 0 52 -25 52 -53c0 -19 -8 -33 -24 -43c3 0 9 1 16 3c75 32 119 91 159 167l-224 395h-29
v13h193z" />
    <glyph glyph-name="uni0444" unicode="&#x444;" horiz-adv-x="622" 
d="M270 1c-5 1 -14 4 -27 7c-25 6 -57 18 -92 36s-63 44 -81 80c-9 18 -14 39 -14 62c0 28 14 53 35 74c21 20 49 38 77 50l65 27l-10 119c0 17 2 30 7 37c4 7 10 11 17 11c12 0 19 -7 21 -22c0 -20 0 -37 1 -50v-34c0 -9 0 -15 1 -20v-10c59 -13 119 -30 164 -57
c45 -28 76 -67 76 -123c0 -48 -23 -94 -61 -128s-90 -57 -143 -60v-197c-3 -18 -10 -27 -19 -27h-2c-10 0 -15 7 -15 21v204zM306 47l18 -2c27 0 52 13 73 28c11 7 31 20 48 40c16 19 31 44 31 72c0 44 -27 76 -63 100c-37 23 -84 37 -123 45zM253 299c-5 -1 -11 -3 -17 -4
c-6 -2 -12 -4 -18 -5c-20 -7 -51 -16 -78 -32c-27 -17 -49 -40 -49 -71c0 -47 26 -79 62 -101s81 -34 117 -38z" />
    <glyph glyph-name="uni0445" unicode="&#x445;" horiz-adv-x="486" 
d="M208 435v-13h-44l91 -147l101 147h-41v13h101v-13h-45l-108 -160l154 -251h44v-14h-173v14h44l-114 184l-128 -184h44v-14h-99v14h43l132 195l-132 216h-43v13h173z" />
    <glyph glyph-name="uni0447" unicode="&#x447;" horiz-adv-x="439" 
d="M290 248l-8 145c0 27 20 35 36 35c19 0 31 -12 36 -35c8 -140 19 -272 31 -413c0 -23 -13 -35 -32 -38c-23 0 -36 11 -40 32l-20 204l-68 -10c-55 0 -96 9 -124 31s-43 56 -43 109c0 15 1 30 4 46c4 36 7 58 12 72s14 19 33 22c25 0 38 -16 38 -35l-2 -17
c-4 -19 -8 -42 -11 -64c-2 -11 -3 -19 -3 -24c0 -29 9 -46 23 -56s33 -14 54 -14l36 5c9 1 16 2 22 3c12 2 19 2 26 2z" />
    <glyph glyph-name="uni0446" unicode="&#x446;" horiz-adv-x="516" 
d="M224 439v-12h-39v-399h157v399h-41v12h150v-12h-38v-399h54v-112c-3 19 -9 43 -21 63c-12 19 -29 34 -52 34h-321v15h41v399h-41v12h151z" />
    <glyph glyph-name="uni0448" unicode="&#x448;" horiz-adv-x="721" 
d="M214 437v-13h-40v-407h145v407h-41v13h154v-13h-40v-407h143v407h-37v13h152v-13h-40v-407h40v-15h-588v15h39v407h-39v13h152z" />
    <glyph glyph-name="uni0449" unicode="&#x449;" horiz-adv-x="865" 
d="M750 -106l4 73c0 36 -6 57 -13 68h-279l-66 -16c0 -14 -7 -22 -20 -24c-15 3 -24 12 -28 28c-29 0 -61 -1 -96 -4s-74 -4 -117 -4c-27 0 -42 0 -50 4c-9 3 -11 9 -15 20v367c3 12 10 18 21 18c9 0 14 -9 14 -27c1 -3 1 -6 1 -9s0 -8 1 -15v-31c0 -27 1 -73 2 -145
c1 -37 1 -82 2 -135l226 -13v346c0 11 8 16 17 16c11 0 18 -7 21 -18l13 -331c25 12 65 18 104 20c19 1 38 1 57 1s35 0 49 1l-21 316c0 11 9 17 17 20c9 0 18 -7 21 -16l20 -323c11 0 20 0 27 1s14 1 19 1c51 0 78 -11 94 -32c15 -21 17 -54 17 -95c0 -28 -1 -48 -4 -61
s-8 -21 -17 -22c-13 2 -20 9 -21 21z" />
    <glyph glyph-name="uni044C" unicode="&#x44c;" horiz-adv-x="439" 
d="M88 395c9 0 18 -7 18 -16l6 -152c33 -3 78 -8 115 -25c36 -17 64 -45 64 -89c0 -27 -13 -54 -33 -75s-48 -35 -77 -35c-51 0 -79 48 -94 111s-17 140 -17 197v62c0 15 9 22 18 22zM220 169c-39 21 -65 24 -105 27c0 -35 3 -74 13 -105c10 -32 26 -55 54 -59
c51 5 76 40 76 75c0 31 -15 49 -38 62z" />
    <glyph glyph-name="uni044A" unicode="&#x44a;" horiz-adv-x="582" 
d="M209 55v330h-119v-87h-51v117h307v-30h-70v-146h93c43 0 83 -5 112 -21c28 -16 47 -43 47 -84v-10c0 -56 -45 -98 -138 -98h-245v29h64zM276 55h70c79 0 111 29 111 82c0 31 -13 49 -31 61c-18 11 -42 14 -62 14h-88v-157z" />
    <glyph glyph-name="uni044B" unicode="&#x44b;" horiz-adv-x="573" 
d="M384 107l-3 48c-2 14 -4 27 -5 39c-4 51 -9 82 -14 102c-5 19 -12 26 -21 26c-25 0 -45 -14 -65 -40c-10 -13 -21 -30 -32 -49l-40 -67c17 -9 38 -23 54 -39c16 -17 28 -38 28 -62c0 -8 -5 -30 -16 -49c-11 -20 -27 -38 -50 -38c-6 0 -15 2 -27 6c-41 25 -65 64 -79 105
s-19 87 -22 130l-3 57c0 20 -1 53 -5 106c2 9 9 16 21 19c11 -2 17 -9 19 -20l6 -94c1 -31 4 -62 8 -92l36 -15c15 24 28 47 40 69c24 44 49 79 79 100c15 10 33 15 54 15c31 0 42 -27 53 -56c7 -27 15 -83 20 -139c5 -57 9 -114 9 -141c-4 -17 -26 -17 -34 -12
c-5 3 -7 7 -7 12zM248 62l-3 15c-8 29 -24 46 -43 56c-10 5 -20 9 -31 12s-22 7 -32 11c7 -40 16 -75 28 -100s29 -41 52 -41l5 2c7 2 14 8 20 21c3 6 4 14 4 24z" />
    <glyph glyph-name="uni044D" unicode="&#x44d;" horiz-adv-x="427" 
d="M427 243l3 -42c0 -76 -29 -127 -70 -159s-97 -44 -149 -44h-12c-4 0 -8 0 -12 1c-21 3 -57 15 -88 33c-32 18 -58 41 -58 66c0 5 3 18 8 27s13 18 25 18c19 0 40 -4 51 -15c23 -28 75 -35 127 -35c40 0 60 18 70 42c5 11 8 24 9 38s3 27 5 39l-198 -29
c-36 0 -39 18 -43 51c0 21 14 34 34 41c4 1 9 3 14 4l25 4c11 1 28 4 49 7s51 8 89 13c-1 9 -11 27 -27 43c-16 15 -38 28 -65 28c-15 0 -27 -1 -42 -5c-6 -2 -12 -5 -17 -8c-11 -7 -21 -14 -32 -19c-5 -3 -11 -4 -18 -4c-32 0 -45 20 -45 47c0 3 1 6 3 10
c12 25 35 44 60 56c24 12 51 18 75 18c69 0 123 -32 161 -76s60 -101 68 -150z" />
    <glyph glyph-name="uni044E" unicode="&#x44e;" horiz-adv-x="677" 
d="M391 439c64 0 113 -28 146 -70c32 -42 49 -99 49 -152c0 -55 -14 -106 -41 -145c-27 -40 -65 -68 -110 -73h-27c-56 0 -98 22 -126 59c-29 37 -45 89 -49 148h-54v-184h36v-14h-138v14h36v390h-36v13h138v-13h-36v-186h54c3 59 16 110 42 147s64 62 116 66zM408 428
c-36 0 -60 -18 -76 -44s-23 -59 -23 -86v-164c0 -77 43 -124 104 -124c65 0 98 53 98 126v172c0 32 -10 62 -27 84s-43 36 -76 36z" />
    <glyph glyph-name="uni044F" unicode="&#x44f;" horiz-adv-x="506" 
d="M255 442h181v-13h-43v-413h43v-15h-163v15h42v212h-48c-27 0 -43 -13 -54 -35s-15 -55 -18 -91v-23c0 -55 -27 -82 -82 -82c-27 0 -55 8 -72 25v1c0 2 1 3 4 3c1 0 3 -1 8 -3s10 -3 15 -3c27 2 41 17 41 44v38c0 69 42 119 117 127c-79 5 -115 34 -123 101
c3 43 21 71 49 88s64 24 103 24zM255 429c-48 0 -69 -33 -69 -89c0 -66 18 -99 53 -99h76v188h-60z" />
    <glyph glyph-name="uni10D0" unicode="&#x10d0;" horiz-adv-x="468" 
d="M206 459c36 0 81 -15 81 -65c0 0 0 -6 -2 -12c35 -16 79 -38 96 -54c29 -37 55 -98 55 -149c0 -55 -43 -134 -102 -158c-36 -15 -76 -20 -112 -20c-98 0 -198 75 -198 180c0 40 31 67 67 68c43 1 66 -49 66 -72c-3 -7 -4 -13 -4 -16c0 -28 55 -39 81 -39
c31 0 66 24 82 61c-1 39 -27 78 -85 89c-68 13 -83 43 -83 104c0 44 18 67 47 81z" />
    <glyph glyph-name="uni10D1" unicode="&#x10d1;" horiz-adv-x="522" 
d="M323 529c14 -34 16 -128 17 -195c122 -31 157 -116 157 -175c0 -125 -89 -212 -220 -212c-135 0 -230 106 -230 200c0 93 55 164 181 196v130c-16 5 -45 5 -70 6c4 -20 9 -45 17 -68c0 -41 -30 -54 -50 -57c-20 0 -42 13 -47 33v-1c-17 51 -20 98 -20 149v79
c0 27 0 52 49 52c20 0 47 -1 47 -50v-58c41 1 71 4 107 4c43 0 56 -17 62 -34v1zM379 145c0 51 -47 99 -112 99c-73 0 -118 -36 -118 -97c0 -57 59 -101 120 -101c66 0 110 45 110 99z" />
    <glyph glyph-name="uni10D2" unicode="&#x10d2;" horiz-adv-x="565" 
d="M491 125c22 -38 36 -121 36 -168c0 -112 -68 -234 -184 -234c-102 0 -164 0 -239 73c-36 36 -74 107 -74 183c0 29 7 95 24 125c39 70 105 121 209 135c6 19 21 37 33 53c11 13 21 26 21 32c0 10 -23 31 -45 31c-18 0 -33 -12 -37 -30c-9 -25 -26 -37 -43 -37
c-25 0 -53 27 -53 62c9 52 64 109 142 109c56 0 136 -73 136 -120c0 -33 -8 -54 -21 -70l-30 -38c69 -20 92 -48 126 -106h-1zM331 -179c65 32 87 92 87 143c0 89 -43 175 -138 185c-11 0 -39 -3 -51 -10c-78 -41 -94 -104 -94 -166c0 -84 76 -153 173 -153c8 0 15 0 23 1z
" />
    <glyph glyph-name="uni10D3" unicode="&#x10d3;" horiz-adv-x="733" 
d="M71 -12h45c-46 54 -69 124 -69 208c0 130 83 217 200 217c43 0 82 -15 112 -43c36 28 83 43 135 43c108 0 192 -73 192 -204c0 -132 -69 -228 -198 -228c-119 0 -212 81 -212 207c0 30 1 55 4 75c-5 12 -17 22 -32 22c-30 0 -54 -31 -54 -93c0 -137 52 -193 156 -212
c205 -36 272 -99 298 -237h-166c-20 79 -100 116 -274 116c-29 0 -65 -2 -137 -13v142zM424 194c0 -55 19 -83 56 -83c39 0 59 28 59 83c0 60 -20 91 -59 91c-37 0 -56 -31 -56 -91z" />
    <glyph glyph-name="uni10D4" unicode="&#x10d4;" horiz-adv-x="498" 
d="M383 300c69 -41 80 -114 80 -196c0 -290 -53 -341 -203 -341c-91 0 -203 54 -203 161c0 51 32 75 68 75c38 0 52 -7 60 -48c0 -11 -2 -22 -3 -29c5 -27 36 -43 68 -44s60 10 74 32c26 42 30 114 30 159c0 48 -4 95 -13 114c-19 40 -71 43 -107 43c-43 -4 -62 -54 -62 -99
c0 -36 -29 -54 -55 -54c-23 0 -46 23 -46 48c0 54 8 92 23 123c18 39 94 90 153 90c58 0 111 -21 135 -34h1z" />
    <glyph glyph-name="uni10D5" unicode="&#x10d5;" horiz-adv-x="498" 
d="M74 180c-11 29 -12 42 -12 59c0 104 69 174 194 174c101 0 182 -58 182 -156c0 -50 -24 -96 -60 -124c43 -28 63 -81 63 -172c0 -158 -68 -236 -202 -236c-107 0 -201 70 -201 188c0 43 9 79 34 124h115c-28 -58 -38 -93 -38 -126c0 -56 35 -94 94 -94c68 0 87 57 87 144
v56c0 46 -21 68 -61 68h-39v93h42c29 0 55 28 55 76c0 41 -28 67 -71 67c-50 0 -83 -29 -83 -79c0 -15 2 -29 14 -62h-113z" />
    <glyph glyph-name="uni10D6" unicode="&#x10d6;" horiz-adv-x="781" 
d="M707 308c21 -42 31 -91 31 -140c0 -11 1 -22 -1 -33c-8 -53 -34 -104 -85 -141c-54 -31 -103 -43 -160 -43c-30 0 -60 3 -90 8c-87 14 -162 100 -162 178c0 47 15 83 22 130c-15 -4 -29 -6 -44 -6c-20 0 -42 3 -60 8h1c-63 14 -136 93 -136 209c0 15 0 30 2 44
c20 138 99 188 193 188c17 0 34 -1 51 -3c60 -9 117 -38 150 -101c18 -35 24 -63 24 -89c0 -54 -8 -53 -19 -116c25 8 53 12 81 12c17 0 34 -2 49 -4c62 -10 124 -58 152 -99zM262 399c32 16 48 76 48 114c0 18 -4 35 -12 47c-10 14 -46 21 -71 21c-58 0 -73 -57 -73 -106
c0 -47 40 -80 83 -80c7 0 14 1 21 3z" />
    <glyph glyph-name="uni10D7" unicode="&#x10d7;" horiz-adv-x="761" 
d="M674 147c-3 -16 -6 -33 -6 -52c6 -30 14 -46 14 -67c-8 -47 -62 -62 -100 -62c-44 10 -68 43 -68 92c0 42 12 88 22 125c5 20 11 48 11 73c0 39 -14 74 -64 74c-27 0 -45 -11 -69 -45c0 0 1 -1 1 -2c0 -41 12 -47 12 -106c0 -108 -93 -175 -176 -175
c-112 0 -203 86 -203 213c0 94 83 203 177 203c62 0 80 -9 105 -23c37 37 96 62 150 62c111 0 209 -62 209 -177c0 -45 -7 -89 -15 -133zM250 118c52 0 58 53 58 94c0 36 -12 71 -58 83c-60 -4 -77 -53 -77 -92c0 -42 27 -85 77 -85z" />
    <glyph glyph-name="uni10D8" unicode="&#x10d8;" horiz-adv-x="481" 
d="M446 186c-1 -45 -46 -145 -111 -145c-36 0 -57 26 -57 55c0 20 10 41 33 55c14 22 23 38 23 52c0 37 -48 76 -94 76c-55 0 -75 -37 -83 -89c4 -28 14 -41 22 -49c13 -13 22 -24 22 -49c0 -29 -22 -50 -57 -50c-43 0 -96 54 -96 139c0 95 72 200 178 200
c77 0 171 -39 200 -106c17 -38 20 -68 20 -89z" />
    <glyph glyph-name="uni10D9" unicode="&#x10d9;" horiz-adv-x="496" 
d="M231 321v92h62c97 0 146 -51 146 -154c0 -54 -20 -98 -50 -126c35 -28 47 -66 47 -138c0 -193 -49 -270 -191 -270c-121 0 -207 74 -207 191c0 43 14 87 40 131h119c-32 -53 -48 -96 -48 -131c0 -59 35 -99 95 -99c66 0 81 45 81 135v51c0 54 -11 81 -34 81h-60v92h60
c24 0 37 27 37 78c0 44 -12 62 -41 67h-56z" />
    <glyph glyph-name="uni10DA" unicode="&#x10da;" horiz-adv-x="983" 
d="M86 -102v108h49c-54 58 -80 136 -80 235c0 158 74 261 197 261c48 0 88 -20 115 -57c30 37 73 57 128 57c50 0 88 -16 120 -58c31 42 71 58 127 58c92 0 180 -71 180 -193c0 -59 -19 -123 -57 -192h-129c44 72 66 135 66 193c0 48 -25 93 -65 93c-42 0 -63 -30 -63 -89
v-123h-121v123c0 59 -20 89 -61 89s-67 -32 -67 -74v-138h-120v130c0 54 -17 82 -52 82c-52 0 -78 -53 -78 -160c0 -183 82 -227 253 -237c239 -15 368 -97 389 -263h-135c-15 104 -117 155 -305 155h-291z" />
    <glyph glyph-name="uni10DB" unicode="&#x10db;" horiz-adv-x="500" 
d="M468 163c0 -87 -24 -172 -77 -225c-33 -33 -79 -54 -136 -54c-51 0 -107 17 -153 59c-46 41 -63 111 -63 176c0 54 17 107 47 149c40 57 102 95 171 95c33 0 65 -12 96 -29c-10 118 -20 272 -130 272c-72 0 -81 -55 -81 -117c0 -48 -24 -62 -58 -62s-55 29 -55 79
c0 97 57 200 172 200c78 0 133 -22 172 -66c90 -99 82 -311 95 -441v-36zM353 166c1 44 -37 77 -85 77c-85 0 -114 -58 -114 -129c0 -65 40 -126 111 -126c74 0 86 103 88 178z" />
    <glyph glyph-name="uni10DC" unicode="&#x10dc;" horiz-adv-x="580" 
d="M105 591c0 59 30 88 118 89c34 0 120 -9 161 -8c18 0 44 6 91 19v-118c-42 -12 -73 -19 -92 -19c-66 0 -137 9 -146 9v-209h110c88 0 132 -43 132 -90v-170c0 -49 -49 -94 -111 -94h-157c-59 0 -106 45 -106 93v498zM238 232v-119h119v119h-119z" />
    <glyph glyph-name="uni10DD" unicode="&#x10dd;" horiz-adv-x="772" 
d="M478 430c11 2 23 3 36 3c116 0 206 -106 206 -230c0 -77 -18 -184 -84 -231c-12 -7 -24 -11 -35 -11c-39 0 -70 31 -70 63c0 55 71 63 71 142c0 73 -31 138 -99 140c-39 -16 -73 -48 -118 -103c0 0 -20 -29 -50 -29c-22 0 -51 26 -54 49c-12 24 -34 48 -55 48
c-31 0 -42 -68 -42 -122c0 -21 7 -47 51 -72c15 -6 32 -18 32 -44c0 -42 -28 -67 -59 -67c-146 0 -154 189 -154 249c0 94 70 184 134 200c10 3 20 4 29 4c49 0 92 -33 121 -72c44 40 93 67 137 82z" />
    <glyph glyph-name="uni10DE" unicode="&#x10de;" horiz-adv-x="500" 
d="M255 670c-5 -33 -5 -38 -5 -44c0 -22 12 -27 60 -44c9 -2 19 -6 29 -10c67 -24 101 -67 101 -131c0 -46 -18 -82 -52 -107c38 -30 55 -74 55 -134c0 -106 -73 -172 -187 -172c-102 0 -180 61 -180 161c0 31 3 33 18 68h110c-20 -45 -23 -45 -23 -65c0 -45 29 -75 75 -75
c49 0 83 36 83 97c0 45 -18 80 -54 80h-58v88h58c29 0 51 26 51 55c0 40 -40 55 -80 70c-55 20 -111 41 -111 115c0 10 3 25 10 48h100z" />
    <glyph glyph-name="uni10DF" unicode="&#x10df;" horiz-adv-x="560" 
d="M500 413v-465c0 -153 -62 -223 -197 -223c-117 0 -205 72 -205 185c0 45 4 71 38 117h126c-45 -54 -53 -79 -53 -116c0 -56 36 -94 93 -94c63 0 96 38 96 113v353c-20 -10 -44 -17 -65 -22c12 -16 17 -35 17 -58c0 -81 -67 -134 -157 -134c-88 0 -153 52 -153 136
c0 21 0 32 21 63h121c-28 -37 -31 -49 -31 -60c0 -31 16 -47 47 -47c28 0 42 15 42 45c0 19 -14 35 -41 48v108c24 -4 50 -7 64 -7c56 0 105 19 150 58h87z" />
    <glyph glyph-name="uni10E0" unicode="&#x10e0;" horiz-adv-x="755" 
d="M682 685c41 -5 58 -53 58 -82c0 -102 -71 -116 -298 -121c-64 -1 -220 -19 -265 -89c19 11 39 19 61 19c47 0 86 -23 124 -60c46 33 79 47 123 47c91 0 194 -79 194 -175c0 -61 -46 -122 -104 -166c-12 -10 -26 -15 -40 -15c-28 0 -56 45 -56 71c0 43 69 73 69 109
c0 28 -25 51 -65 51c-21 0 -39 -13 -60 -45c-25 -25 -47 -25 -64 -25c0 0 -26 0 -50 25c-26 39 -48 51 -70 53c-25 -13 -34 -39 -34 -69c0 -15 28 -31 43 -39c29 -22 32 -44 32 -67c0 -31 -41 -61 -76 -61c-12 0 -24 3 -33 12c-70 57 -135 138 -135 260c0 39 6 83 20 122
c52 139 265 167 370 167c91 0 166 -1 187 -8c-1 5 -1 9 -1 14c0 11 1 21 6 33c8 22 27 39 63 39h1z" />
    <glyph glyph-name="uni10E1" unicode="&#x10e1;" horiz-adv-x="519" 
d="M75 497c0 38 -7 83 -18 139c-3 7 -5 14 -5 20c0 34 25 51 49 51c36 0 49 -31 59 -94c7 -39 16 -79 16 -117c-1 -101 -8 -171 -15 -234c-4 -36 -6 -65 -6 -98c1 -80 51 -108 125 -108c45 0 91 25 91 75c0 31 -21 64 -46 86c-30 21 -40 45 -40 67c0 43 38 75 69 75
c36 -4 51 -30 54 -54c0 -13 -4 -18 -7 -23c42 -6 78 -79 78 -135c0 -65 -20 -112 -49 -150c-31 -41 -84 -58 -141 -58c-88 0 -189 37 -233 141c-13 41 -13 91 -13 131c0 44 7 89 17 149c7 46 15 93 15 137z" />
    <glyph glyph-name="uni10E2" unicode="&#x10e2;" horiz-adv-x="747" 
d="M236 311c-37 -87 -58 -175 -58 -242c0 -103 83 -197 205 -197c114 0 183 73 183 219c0 34 -3 62 -10 85c-12 -73 -66 -136 -157 -136c-94 0 -162 67 -162 154c0 47 15 85 48 117c-32 28 -47 65 -47 106c0 84 56 162 159 162c93 0 161 -63 161 -163c0 -28 -8 -52 -23 -75
c111 -25 186 -117 186 -258c0 -202 -159 -340 -359 -340c-188 0 -338 129 -338 301c0 92 18 180 53 267h159zM397 469c-23 0 -42 -18 -42 -47c0 -36 18 -59 42 -59s43 22 43 59c0 30 -19 47 -43 47zM397 253c-23 0 -42 -19 -42 -49c0 -31 19 -52 42 -52s43 21 43 52
c0 32 -18 49 -43 49z" />
    <glyph glyph-name="uni10E3" unicode="&#x10e3;" horiz-adv-x="668" 
d="M37 382c12 16 35 30 48 30c41 0 60 -45 60 -68l-11 -41c13 3 22 12 52 32c33 22 69 26 104 26c34 0 71 -25 71 -25c29 21 66 30 99 30c104 0 143 -94 159 -193c11 -64 11 -109 11 -160c0 -146 -47 -285 -256 -293c-147 -5 -217 110 -217 224c0 35 11 73 33 105
c17 20 28 33 55 33c28 -4 47 -33 47 -55c0 -33 -33 -53 -33 -83c0 -62 48 -119 115 -119c100 0 153 71 153 176c0 70 -9 198 -44 244c-16 8 -31 14 -47 14c-27 0 -27 -26 -27 -59c0 -60 -4 -100 -65 -100c-66 8 -37 118 -58 165c-18 -2 -36 -13 -56 -26
c-33 -21 -70 -43 -124 -43c-62 10 -83 63 -82 111c0 13 -1 26 3 39z" />
    <glyph glyph-name="uni10E4" unicode="&#x10e4;" horiz-adv-x="714" 
d="M465 162h35c16 0 24 12 24 70c0 35 -10 53 -30 53c-27 0 -39 -17 -42 -70c-8 -118 -87 -197 -210 -197c-114 0 -210 77 -210 199c0 102 81 196 214 196c49 0 95 -16 135 -50c32 35 74 50 127 50c93 0 170 -66 170 -176c0 -64 -22 -113 -66 -145c44 -32 66 -88 66 -150
c0 -115 -76 -209 -258 -209c-167 0 -269 58 -269 179c0 30 9 47 27 78h149c-14 -34 -22 -54 -22 -73c0 -48 41 -55 112 -55s107 29 107 87c0 44 -10 76 -29 76h-30v137z" />
    <glyph glyph-name="uni10E5" unicode="&#x10e5;" horiz-adv-x="473" 
d="M291 716h122v-765c0 -164 -66 -246 -201 -246c-62 0 -112 19 -147 56c-32 33 -47 74 -47 122c0 94 52 156 153 176l43 -81c-45 -23 -62 -41 -62 -83c0 -37 29 -59 69 -59c37 0 57 39 57 115v234h-67c0 -9 11 -23 11 -35c0 -23 -13 -36 -40 -36c-44 0 -77 52 -77 102
c0 65 31 98 94 98h79v211c-27 -30 -58 -65 -81 -90l-83 60z" />
    <glyph glyph-name="uni10E6" unicode="&#x10e6;" horiz-adv-x="708" 
d="M242 195c0 -22 18 -61 37 -75c12 -11 49 -34 112 -71c63 -38 106 -77 132 -119v1c28 -43 41 -108 41 -197h-135c0 70 -17 123 -51 163s-77 60 -128 60h-132v120h30c-26 35 -47 81 -47 115v266c0 49 44 100 94 100h137c14 0 26 -4 36 -12c11 7 24 12 39 12h118
c49 0 92 -48 92 -100v-269h-135v245c3 1 -16 6 -31 6c-8 0 -16 -2 -17 -6v-188h-136v188c1 1 -20 6 -37 6c-9 0 -17 -1 -19 -6v-239z" />
    <glyph glyph-name="uni10E7" unicode="&#x10e7;" horiz-adv-x="498" 
d="M118 368c8 31 25 48 50 48c5 0 11 0 17 -2c29 -5 37 -27 37 -53c0 -6 -2 -15 -4 -21c-4 -21 -6 -39 -6 -53c0 -51 7 -93 50 -93c11 0 23 3 33 8c41 34 53 103 53 158c0 28 26 54 46 54c43 0 64 -26 64 -54v-327c0 -122 -33 -308 -193 -308c-115 0 -203 84 -203 202
c0 38 6 71 21 101v-1c7 17 34 35 57 35c11 0 23 -5 31 -13c12 -14 26 -31 26 -56l-14 -60c0 -41 13 -53 41 -74c14 -8 27 -12 38 -12c47 0 71 66 80 137c4 37 6 76 6 109c-25 -12 -53 -24 -90 -24c-32 0 -81 7 -110 42c-37 44 -42 108 -42 164c0 30 3 62 12 92v1z" />
    <glyph glyph-name="uni10E8" unicode="&#x10e8;" horiz-adv-x="577" 
d="M408 543c0 34 -18 58 -49 58c-33 0 -54 -23 -54 -57v-105h-98v102c0 36 -24 60 -59 60c-34 0 -77 -37 -130 -115v156c40 38 86 57 137 57c41 0 72 -14 96 -47c30 33 69 47 120 47c85 0 145 -56 145 -175v-388c0 -137 -78 -244 -216 -244c-127 0 -230 85 -230 241
c0 136 84 238 226 238c44 0 79 -11 112 -32v204zM398 132c0 88 -40 141 -102 141c-59 0 -106 -46 -106 -141c0 -83 38 -141 108 -141c65 0 100 53 100 141z" />
    <glyph glyph-name="uni10E9" unicode="&#x10e9;" horiz-adv-x="467" 
d="M54 560c0 98 55 164 143 164c82 0 138 -51 138 -130c0 -97 -61 -173 -185 -231v-39c28 17 60 26 94 26c99 0 178 -56 178 -189c0 -77 -24 -154 -75 -238h-109c56 88 83 167 83 237c0 64 -27 96 -82 96c-37 0 -66 -16 -89 -55v-278h-96v637zM150 459c59 35 85 79 85 135
c0 24 -12 36 -36 36c-30 0 -49 -26 -49 -67v-104z" />
    <glyph glyph-name="uni10EA" unicode="&#x10ea;" horiz-adv-x="756" 
d="M520 533c-4 -22 -9 -42 -9 -50c0 -25 32 -38 68 -53c62 -25 134 -53 134 -152c0 -61 -23 -102 -74 -126c48 -33 72 -85 72 -155c0 -144 -105 -257 -298 -257c-240 0 -358 156 -358 404c0 117 46 264 146 389h132c-112 -157 -161 -279 -161 -414c0 -185 89 -280 240 -280
c105 0 176 54 176 151c0 74 -37 116 -104 116h-91v111h91c71 0 107 21 107 63c0 28 -33 42 -69 57c-67 28 -131 54 -131 135c0 24 1 40 2 61h127z" />
    <glyph glyph-name="uni10EB" unicode="&#x10eb;" horiz-adv-x="500" 
d="M324 533c-2 36 -5 82 -5 116c0 36 15 57 54 57c26 0 44 -21 46 -54c1 -5 9 -59 13 -113c5 -77 14 -140 14 -226c0 -47 -4 -116 -14 -155c-15 -62 -39 -95 -64 -122c-33 -34 -76 -52 -121 -52c-64 0 -125 32 -164 76c-32 37 -49 83 -49 137c0 98 102 210 202 210
c55 0 82 -10 105 -22c-1 17 -3 26 -6 42c-4 24 -8 53 -11 106z" />
    <glyph glyph-name="uni10EC" unicode="&#x10ec;" horiz-adv-x="556" 
d="M197 381h267c0 -113 -14 -228 -42 -346c-28 -117 -67 -227 -116 -330h-91c-189 820 -193 845 -193 863c0 97 54 165 151 165c42 0 80 -18 107 -47c28 32 61 47 103 47c69 0 115 -27 140 -82c8 -18 11 -37 11 -58c0 -56 -25 -107 -90 -153l-69 68c31 19 38 36 38 51
c0 22 -14 39 -33 39c-24 0 -36 -16 -36 -46v-98h-127v105c0 26 -11 39 -33 39c-16 0 -27 -16 -27 -38zM226 251c18 -88 38 -174 58 -259c21 80 37 168 48 259h-106z" />
    <glyph glyph-name="uni10ED" unicode="&#x10ed;" horiz-adv-x="566" 
d="M455 262l98 -92v-181l-109 154v-186c0 -158 -62 -232 -205 -232c-112 0 -197 72 -197 185c0 41 18 88 52 137h126c-45 -54 -67 -98 -67 -136c0 -55 36 -94 92 -94c64 0 98 41 98 122v203c-30 -23 -65 -34 -107 -34c-83 0 -156 59 -156 153c0 83 57 152 160 152
c34 0 73 -15 103 -39v315h101v-313l109 129v-150zM245 201c31 0 69 26 92 60c-34 40 -66 60 -96 60s-50 -29 -50 -58c0 -34 21 -62 54 -62z" />
    <glyph glyph-name="uni10EE" unicode="&#x10ee;" horiz-adv-x="500" 
d="M74 619c9 40 -8 89 51 89c20 0 44 -20 44 -57v-120c0 -17 -1 -32 -1 -93c11 7 24 14 41 14c34 -6 42 -27 42 -63c0 -4 -1 -9 -3 -17c6 1 14 1 23 1c77 0 137 -50 168 -122c14 -33 15 -69 15 -94c0 -84 -56 -136 -81 -155h1c-35 -25 -79 -25 -117 -25
c-55 0 -107 30 -131 70l1 -1c-53 81 -66 187 -66 305c0 48 1 97 4 143zM246 259c-33 0 -52 -23 -52 -56c0 -63 26 -116 86 -116c38 0 66 24 66 57c0 56 -31 117 -81 117z" />
    <glyph glyph-name="uni10EF" unicode="&#x10ef;" horiz-adv-x="920" 
d="M559 222l97 -209c21 -46 38 -60 60 -60c15 0 31 14 31 30c0 24 -23 61 -68 113l95 70c58 -71 88 -133 88 -184c0 -74 -60 -141 -159 -141c-59 0 -104 34 -137 102l-100 206c-40 -31 -63 -48 -109 -85c55 -29 89 -79 89 -144c0 -108 -78 -176 -195 -176
c-55 0 -115 18 -181 50v123c81 -47 136 -70 166 -70c52 0 83 28 83 73c0 40 -37 65 -91 65v117l188 144l-83 176c-20 42 -34 53 -60 53c-29 0 -54 -20 -54 -48c0 -32 17 -68 56 -111l-95 -60c-50 56 -74 107 -74 156c0 88 60 172 171 172c69 0 116 -31 147 -96l83 -172
c185 143 197 153 198 156c-2 -2 -15 -3 -202 -3v115h180c70 0 133 -33 133 -93c0 -47 -12 -78 -60 -116z" />
    <glyph glyph-name="uni10F0" unicode="&#x10f0;" horiz-adv-x="439" 
d="M180 702c31 0 31 -20 31 -45c0 -71 34 -78 62 -80c52 -5 116 -44 116 -106c0 -41 -26 -73 -57 -90c24 -26 42 -56 42 -81c0 -21 -9 -61 -40 -73c33 -34 40 -67 40 -88c0 -93 -77 -152 -161 -152c-85 0 -141 52 -141 138c0 36 11 78 53 78c24 0 45 -16 45 -42
c0 -9 -3 -19 -9 -37c0 -33 18 -54 46 -54c33 0 78 22 78 50c0 35 -9 42 -64 63c-24 9 -29 18 -31 44c0 4 2 29 28 37c0 0 63 17 63 36c0 27 -36 34 -97 46c-29 5 -39 28 -39 47c0 22 19 43 43 43c17 0 119 8 119 29c0 11 -12 29 -36 29c-29 0 -85 0 -111 47
c-15 26 -29 67 -29 116c0 25 23 45 49 45z" />
    <glyph glyph-name="zero" unicode="0" horiz-adv-x="424" 
d="M68 478c35 67 82 101 141 101h11c3 0 7 0 11 -1c45 0 88 -29 120 -80c31 -52 51 -126 51 -214c0 -75 -17 -145 -48 -197s-74 -85 -123 -85c-48 0 -99 13 -136 53s-63 109 -63 221c0 89 12 156 36 202zM116 452c-20 -37 -30 -96 -30 -176c0 -148 42 -219 142 -219
c40 0 70 31 90 75c19 43 29 100 29 152c0 77 -16 138 -40 179c-24 40 -57 61 -92 61h-3c-43 0 -73 -28 -96 -72z" />
    <glyph glyph-name="one" unicode="1" horiz-adv-x="353" 
d="M187 272v10v21s0 24 1 42v74c-11 -17 -29 -38 -52 -54s-50 -27 -75 -27c-17 0 -26 9 -26 26s8 26 24 28c44 5 69 29 86 57c8 14 14 29 19 45c8 31 16 57 25 74c5 9 11 13 20 13c17 0 26 -9 26 -26c4 -72 7 -137 7 -202c0 -100 -5 -196 -21 -296h48c31 -2 51 -5 62 -8
c11 -4 16 -11 16 -22c0 -25 -11 -27 -30 -27h-264c-16 0 -27 11 -27 32c0 19 9 28 27 28h114c11 72 16 137 20 212z" />
    <glyph glyph-name="two" unicode="2" horiz-adv-x="404" 
d="M76 346v1c-24 29 -36 62 -36 100c0 48 21 88 53 117c31 29 73 46 117 46c67 0 109 -25 134 -60c25 -36 34 -82 34 -122c0 -71 -24 -133 -73 -188l-132 -145c80 4 137 5 176 5c48 0 77 -1 77 -45c0 -20 -9 -32 -22 -38s-30 -8 -43 -8h-50c-23 -1 -47 -1 -74 -1
c-54 -1 -115 -3 -167 -6c-31 0 -46 11 -46 42c0 9 4 23 11 30c34 40 66 76 97 107c61 62 110 114 138 166c13 26 20 54 20 83c0 35 -9 57 -23 71s-33 18 -52 21c-45 0 -87 -29 -87 -70c0 -15 8 -28 16 -41s16 -26 16 -42c0 -30 -15 -45 -44 -45c-11 0 -24 7 -40 22z" />
    <glyph glyph-name="three" unicode="3" horiz-adv-x="410" 
d="M209 584c40 0 85 -9 118 -31s57 -56 57 -101c0 -60 -42 -110 -93 -137c61 -23 95 -72 95 -129c0 -10 -2 -22 -5 -37c-13 -57 -43 -89 -79 -108s-79 -23 -118 -23c-41 0 -79 10 -106 30c-28 19 -45 48 -45 87c0 44 36 76 77 76c43 0 67 -38 67 -71c0 -32 -19 -52 -48 -63
c13 -7 32 -13 52 -13c25 0 45 15 58 36c12 21 18 50 18 78c0 23 -4 50 -15 73c-12 23 -30 40 -57 40h-81c-15 0 -27 5 -27 21c0 13 11 21 27 21h81c2 0 6 1 11 3c21 11 38 33 47 57c9 23 14 48 14 65c0 51 -37 81 -80 81c-5 -1 -9 -1 -10 -1h-5c17 -13 25 -35 25 -66
c0 -21 -10 -37 -25 -46s-33 -14 -50 -14c-51 0 -71 36 -71 75c0 57 49 97 141 97h27z" />
    <glyph glyph-name="four" unicode="4" horiz-adv-x="357" 
d="M330 49c17 -2 26 -11 26 -27c0 -19 -7 -24 -19 -27h-121c-47 0 -86 1 -114 6c-28 4 -44 12 -44 27c0 18 9 27 27 27h49c12 -1 22 -1 29 -1h15h8c1 29 3 61 5 96l6 123c-43 4 -70 7 -90 8c-21 1 -36 2 -53 2c-19 0 -29 14 -34 34s-5 44 -5 67v59c0 37 2 75 8 104
c6 28 15 48 34 48c18 0 27 -9 27 -27c0 -28 -3 -57 -8 -88s-8 -62 -8 -91c0 -18 2 -35 6 -52c25 -7 82 -10 123 -10c1 9 2 18 2 27c0 92 -2 153 -9 216c0 19 9 28 27 28c17 0 26 -19 31 -46c5 -28 6 -62 6 -93v-128c1 0 3 0 4 1h4c19 0 24 -15 24 -28c0 -15 -11 -25 -33 -29
l-9 -123c-3 -39 -5 -75 -5 -98z" />
    <glyph glyph-name="five" unicode="5" horiz-adv-x="440" 
d="M96 241l-13 -40l-3 -12c-1 -5 -1 -13 -1 -24c0 -32 16 -59 40 -79c23 -20 53 -31 84 -31c48 0 82 27 103 63s30 82 30 118c0 61 -21 102 -53 127s-74 34 -117 34c-18 0 -27 9 -27 27v49c-1 13 -1 24 -1 35c0 21 -1 39 -2 67c0 16 6 31 25 31s45 -2 79 -7s74 -7 120 -7
c5 0 10 1 15 2s9 2 13 2c24 0 32 -9 32 -28c0 -21 -17 -31 -50 -31c-52 0 -123 5 -179 13v-100c59 -4 109 -23 145 -58c35 -36 55 -88 55 -156c0 -64 -18 -122 -50 -165c-33 -43 -80 -69 -137 -69c-48 0 -93 19 -125 49c-33 30 -55 72 -55 119c0 8 1 32 7 53s16 41 35 41
c20 0 27 -10 30 -23z" />
    <glyph glyph-name="six" unicode="6" horiz-adv-x="338" 
d="M273 537c-63 0 -113 -29 -148 -77s-53 -114 -53 -187c23 25 52 37 88 37c44 0 88 -13 120 -40s53 -66 53 -118c0 -102 -53 -153 -160 -153c-105 0 -156 78 -156 262c0 40 3 67 8 94c7 32 24 91 61 143c37 51 96 94 185 94c27 0 37 -9 37 -28s-8 -27 -35 -27zM178 53h9
c59 0 91 37 91 100c0 35 -14 61 -36 78c-22 16 -53 24 -82 24c-24 0 -43 -12 -55 -31c-13 -19 -20 -42 -20 -66c0 -56 29 -98 93 -105z" />
    <glyph glyph-name="seven" unicode="7" horiz-adv-x="484" 
d="M383 382c41 0 61 -20 61 -61c0 -27 -9 -42 -23 -50s-33 -10 -53 -10l-16 -208c-3 -35 -23 -53 -60 -53c-41 0 -62 22 -62 65c0 7 1 18 2 34c1 15 3 33 5 53c3 40 8 84 12 119c-64 0 -99 7 -99 63c0 40 20 60 60 60h4h12c8 -1 20 -2 25 -2l-3 90c-23 9 -55 11 -108 11
c1 -15 1 -25 1 -30v-19c0 -44 -31 -58 -60 -58c-39 0 -52 18 -57 40c-3 11 -4 22 -3 35s0 24 -2 34c-1 9 -1 16 -1 20v8c0 37 9 57 24 69s35 16 56 19h75l30 -3c20 -1 42 -3 69 -7c27 -5 61 -10 76 -26c15 -17 22 -41 24 -71c1 -15 1 -31 1 -47v-75h10z" />
    <glyph glyph-name="eight" unicode="8" horiz-adv-x="383" 
d="M79 43h1c-37 31 -55 80 -55 149c0 67 21 111 72 140c-43 24 -64 69 -64 120c0 102 53 153 160 153c41 0 78 -18 103 -47s40 -70 40 -114c0 -41 -9 -75 -38 -102c47 -31 73 -91 73 -155c0 -52 -14 -99 -41 -133s-65 -56 -110 -56c-59 0 -106 15 -141 45zM106 520
c-15 -16 -18 -37 -18 -68c0 -36 12 -59 32 -71c20 -13 49 -18 84 -18c57 0 77 40 77 85c0 28 -9 53 -24 72c-16 19 -37 31 -64 31c-37 0 -66 -10 -87 -31zM205 53l16 -1c33 1 57 19 73 44c15 24 22 56 22 88c0 29 -6 60 -20 84s-35 40 -66 40c-93 0 -151 -39 -151 -115
c0 -55 15 -88 38 -108s55 -28 88 -32z" />
    <glyph glyph-name="nine" unicode="9" horiz-adv-x="402" 
d="M204 50l13 1c36 0 64 27 81 68s26 98 26 157v42c-1 6 -1 11 -1 14c-22 -26 -51 -39 -88 -39c-44 0 -88 14 -120 41c-33 27 -54 66 -54 117c0 102 53 153 160 153c56 0 95 -16 120 -68c25 -53 37 -143 37 -292c0 -75 -17 -136 -46 -179c-29 -44 -70 -69 -115 -69
c-67 0 -114 16 -145 45c-31 28 -45 69 -45 117c0 21 6 33 26 33c15 0 28 -11 28 -27v-23c0 -32 17 -54 41 -69c23 -16 54 -22 82 -22zM221 549c-71 0 -106 -33 -106 -98c0 -32 14 -57 35 -75s51 -28 83 -28c47 0 76 46 76 98c0 24 -8 50 -23 70s-37 33 -65 33z" />
    <glyph glyph-name="fraction" unicode="&#x2044;" horiz-adv-x="370" 
d="M223 598c4 16 13 24 28 24c23 0 28 -16 28 -32c-1 -5 -3 -19 -8 -41c-9 -44 -24 -108 -41 -180s-34 -141 -46 -194c-7 -27 -11 -46 -14 -58v1c0 -1 -1 -9 -4 -25c-6 -33 -18 -76 -34 -108c-9 -16 -18 -24 -29 -24c-15 0 -23 10 -23 31c0 25 10 67 26 128
c8 31 18 67 29 108s23 89 36 142c16 61 25 105 33 140c7 35 12 61 19 88z" />
    <glyph glyph-name="asterisk" unicode="*" horiz-adv-x="370" 
d="M21 454l35 77l65 -27v82h86v-82l73 27l23 -78l-75 -24c18 -22 36 -46 51 -63l-69 -48l-47 63c-17 -21 -40 -47 -53 -64l-63 49l53 62z" />
    <glyph glyph-name="backslash" unicode="\" horiz-adv-x="370" 
d="M181 384l43 -120c33 -94 62 -167 87 -225c7 -16 17 -36 17 -54c0 -6 -11 -31 -32 -31c-26 0 -56 60 -76 114l-179 471c-8 18 -18 36 -18 56c0 21 12 35 34 35c27 0 45 -41 124 -246z" />
    <glyph glyph-name="periodcentered" unicode="&#xb7;" 
d="M275 358c44 0 81 -37 81 -82c0 -44 -37 -81 -81 -81s-81 37 -81 81c0 45 37 82 81 82z" />
    <glyph glyph-name="bullet" unicode="&#x2022;" horiz-adv-x="379" 
d="M157 426c40 0 80 -13 111 -37c31 -25 52 -60 52 -104c0 -29 -11 -59 -34 -80s-57 -36 -105 -36c-40 0 -77 18 -104 46c-28 28 -45 65 -45 104c0 28 10 55 30 75s50 32 93 32h2z" />
    <glyph glyph-name="colon" unicode=":" horiz-adv-x="205" 
d="M100 136c-32 0 -49 16 -49 49c0 31 17 47 49 47s49 -16 49 -47c0 -33 -17 -49 -49 -49zM100 -4c-32 0 -49 16 -49 49c0 31 17 47 49 47s49 -16 49 -47c0 -33 -17 -49 -49 -49z" />
    <glyph glyph-name="comma" unicode="," horiz-adv-x="167" 
d="M153 -2c0 -6 -1 -12 -1 -16v-11c0 -15 -19 -78 -76 -78c-17 0 -26 9 -26 25s8 26 18 36c4 6 10 11 10 18c0 10 -10 12 -20 16c-26 7 -52 18 -52 63c0 28 23 72 63 72c33 0 84 -22 84 -115v-10z" />
    <glyph glyph-name="ellipsis" unicode="&#x2026;" horiz-adv-x="804" 
d="M144 10c-39 0 -58 17 -58 52s19 53 58 53c38 0 57 -18 57 -53c0 -29 -18 -46 -55 -52h-2zM643 4c-39 0 -58 18 -58 54c0 33 20 52 60 55c37 -3 55 -21 55 -55c0 -36 -19 -54 -57 -54zM391 3c-39 0 -58 17 -58 52s19 52 58 52c38 0 57 -17 57 -52s-19 -52 -57 -52z" />
    <glyph glyph-name="exclam" unicode="!" horiz-adv-x="205" 
d="M101 153c-33 0 -52 81 -52 241v12c0 91 19 139 55 139c40 0 54 -26 54 -73c0 -173 -22 -319 -57 -319zM57 44c0 27 15 42 43 42s41 -15 41 -42s-13 -41 -41 -41s-43 14 -43 41z" />
    <glyph glyph-name="exclamdown" unicode="&#xa1;" horiz-adv-x="205" 
d="M150 504c0 -27 -15 -42 -43 -42s-41 15 -41 42s13 41 41 41s43 -14 43 -41zM106 395c33 0 52 -81 52 -241v-12c0 -91 -19 -139 -55 -139c-40 0 -54 26 -54 73c0 173 22 319 57 319z" />
    <glyph glyph-name="numbersign" unicode="#" horiz-adv-x="600" 
d="M529 385l-76 11s-27 -60 -55 -169c47 -9 148 -31 148 -59c0 -26 -9 -44 -46 -44c-10 0 -75 10 -124 23l-2 -4l1 1c-9 -25 -23 -61 -33 -103c-8 -31 -26 -33 -45 -33c-26 0 -34 11 -34 38c0 9 11 66 30 115c-36 6 -60 9 -101 14c-6 -15 -12 -33 -19 -54
c-20 -58 -41 -117 -78 -117c-25 0 -34 16 -34 36c0 9 10 33 22 61c11 24 22 53 30 78c-34 2 -80 10 -80 45c0 32 31 44 51 44c22 0 38 -4 55 -7h3c16 44 32 84 53 128h-5l-51 -1c-12 0 -54 2 -54 43c0 36 36 40 52 40h92c7 17 7 20 9 25c0 1 1 1 1 2c2 12 32 124 82 124
c32 0 35 -19 35 -40c0 -6 -1 -15 -4 -25c-3 -11 -17 -56 -31 -89h20c22 0 73 -1 107 -3c0 58 -3 79 -8 79s-10 -16 -18 -37c0 -1 -1 -1 -1 -1c1 3 2 6 3 11c1 2 1 5 2 7c10 37 20 85 51 85c19 0 40 -15 40 -42c0 -29 -11 -55 -22 -81l-1 -4c-3 -6 -5 -11 -6 -16
c10 -1 26 -3 47 -4c18 0 32 -19 32 -35c0 -27 -16 -38 -38 -42zM421 506v-1v1zM421 505c0 -4 -1 -7 -2 -8c1 2 1 5 2 8zM370 389l1 2h-73h-15c-1 -1 -2 -6 -3 -6c-1 -3 -3 -5 -4 -8c-20 -40 -40 -82 -55 -126c34 -3 58 -6 98 -13c16 50 34 101 51 151z" />
    <glyph glyph-name="period" unicode="." horiz-adv-x="167" 
d="M71 -10c-39 0 -58 21 -58 63s19 64 58 64c40 0 60 -22 60 -64s-20 -63 -60 -63z" />
    <glyph glyph-name="question" unicode="?" horiz-adv-x="462" 
d="M272 272c-19 -21 -35 -42 -35 -74c1 -5 1 -9 1 -13c0 -29 -12 -48 -32 -48c-26 0 -43 22 -43 64v4c1 48 14 71 44 108c13 15 24 28 34 39c32 34 52 56 52 78c0 49 -36 83 -83 83c-44 0 -90 -25 -90 -66c0 -8 4 -15 4 -24c0 -25 -14 -34 -36 -34c-30 0 -43 20 -43 56
c0 93 82 142 163 142c106 0 160 -79 160 -159c0 -37 -7 -59 -96 -156zM156 60c0 32 16 46 47 46c33 0 49 -14 49 -46c0 -33 -16 -50 -49 -50c-31 0 -47 17 -47 50z" />
    <glyph glyph-name="questiondown" unicode="&#xbf;" horiz-adv-x="462" 
d="M267 517c0 -32 -16 -46 -47 -46c-33 0 -49 14 -49 46c0 33 16 50 49 50c31 0 47 -17 47 -50zM151 305c19 21 35 42 35 74c-1 5 -1 9 -1 13c0 29 12 48 32 48c26 0 43 -22 43 -64v-4c0 -48 -13 -72 -44 -108c-13 -15 -24 -28 -34 -39c-31 -35 -52 -56 -52 -78
c0 -49 36 -83 83 -83c44 0 90 25 90 66c0 8 -4 15 -4 24c0 25 14 34 36 34c30 0 43 -20 43 -56c0 -93 -82 -142 -163 -142c-106 0 -160 79 -160 159c0 37 8 58 96 156z" />
    <glyph glyph-name="quotedbl" unicode="&#x22;" horiz-adv-x="246" 
d="M206 425c0 -30 -20 -44 -45 -44c-19 0 -32 13 -38 31c-6 -16 -18 -30 -39 -30c-45 0 -46 30 -48 60c0 2 -1 5 -1 8l-3 101c-1 31 20 44 45 44c14 0 33 -7 41 -25c7 14 20 24 39 24c32 0 50 -29 50 -65z" />
    <glyph glyph-name="quotesingle" unicode="'" horiz-adv-x="159" 
d="M123 412c-5 -16 -18 -30 -39 -30c-45 0 -46 30 -48 60c0 2 -1 5 -1 8l-3 101c-1 31 20 44 45 44c14 0 33 -7 41 -25c8 -19 12 -134 5 -158z" />
    <glyph glyph-name="semicolon" unicode=";" horiz-adv-x="205" 
d="M100 136c-32 0 -49 16 -49 49c0 31 17 47 49 47s49 -16 49 -47c0 -33 -17 -49 -49 -49zM164 17c0 -16 -6 -65 -58 -65c-17 0 -26 5 -26 23c0 12 6 20 13 28c-19 4 -39 9 -39 44c0 22 19 48 46 48c20 0 64 -15 64 -78z" />
    <glyph glyph-name="slash" unicode="/" horiz-adv-x="370" 
d="M223 598c4 16 13 24 28 24c23 0 28 -16 28 -32c-1 -5 -3 -19 -8 -41c-9 -44 -24 -108 -41 -180s-34 -141 -46 -194c-7 -27 -11 -46 -14 -58v1c0 -1 -1 -9 -4 -25c-6 -33 -18 -76 -34 -108c-9 -16 -18 -24 -29 -24c-15 0 -23 10 -23 31c0 25 10 67 26 128
c8 31 18 67 29 108s23 89 36 142c16 61 25 105 33 140c7 35 12 61 19 88z" />
    <glyph glyph-name="underscore" unicode="_" horiz-adv-x="556" 
d="M433 -9c24 0 34 -16 34 -35c0 -18 -14 -34 -33 -34h-143c-12 0 -23 0 -34 1s-23 2 -34 2c-53 1 -71 1 -91 1c-4 0 -9 -1 -16 -2c-8 -1 -14 -3 -32 -3s-46 4 -46 35c0 35 22 38 50 38h81l7 1c10 1 24 3 63 3c11 0 11 -1 20 -2c19 -2 52 -5 92 -5h82z" />
    <glyph glyph-name="braceleft" unicode="{" horiz-adv-x="324" 
d="M118 516c1 31 27 74 67 74c29 0 38 -12 38 -31c0 -21 -12 -29 -27 -35c-13 0 -20 -34 -22 -95c-2 -38 -1 -103 -36 -141c21 -26 31 -62 31 -99l-1 -151c0 -6 2 -13 5 -16c8 3 20 8 27 10c19 0 35 -18 35 -33c0 -28 -42 -44 -63 -44c-44 0 -66 39 -66 79v133
c0 28 -6 75 -25 78c-21 7 -51 2 -51 36c0 17 9 29 27 33s34 13 40 28c7 58 13 116 21 174z" />
    <glyph glyph-name="braceright" unicode="}" horiz-adv-x="324" 
d="M164 502c3 -9 5 -19 6 -27c0 -102 2 -146 31 -168c18 -12 52 -13 52 -43c0 -19 -11 -33 -34 -33c-26 0 -40 -33 -40 -91v-114c0 -40 -20 -88 -68 -88c-12 0 -63 16 -63 47c0 18 12 30 30 30c8 0 11 -3 17 -5c6 -3 12 -5 14 -5c1 0 2 4 2 8v124c0 41 3 94 34 133
c-23 30 -32 73 -35 110l-3 33c0 20 -1 41 -2 56c-10 40 -17 41 -21 42c-15 2 -24 4 -24 32c0 22 12 29 38 29c41 0 58 -42 66 -70z" />
    <glyph glyph-name="bracketleft" unicode="[" horiz-adv-x="249" 
d="M159 578c14 0 22 0 40 2c34 0 52 -8 52 -37c0 -25 -11 -36 -30 -36h-129c1 0 7 -242 7 -397c0 -46 1 -118 7 -173c28 3 55 3 84 3c24 0 34 -10 34 -28c0 -53 -70 -43 -158 -49c-23 0 -33 41 -33 89v101c0 17 0 37 1 62c1 43 2 109 2 197c0 118 1 142 1 150v4
c0 16 2 110 34 112h88z" />
    <glyph glyph-name="bracketright" unicode="]" horiz-adv-x="240" 
d="M191 578c26 -8 30 -48 32 -75v-432l1 -128c0 -13 -6 -80 -31 -80c-43 0 -116 9 -135 12s-25 19 -25 36c0 19 15 29 36 29h32c16 0 33 0 49 -2l9 215c2 52 2 105 3 146c1 81 2 138 2 172c0 25 0 37 -2 37h-111c-22 0 -43 7 -43 35c0 27 17 34 43 34h72c17 1 28 2 47 2h17z
" />
    <glyph glyph-name="parenleft" unicode="(" horiz-adv-x="272" 
d="M27 250c2 139 10 160 30 207c29 69 95 139 138 139c12 0 46 -4 46 -51c0 -18 -11 -33 -22 -45c-78 -78 -87 -139 -87 -284c0 -42 1 -56 3 -71c12 -100 20 -119 48 -155l8 -10c17 -19 42 -52 42 -78c0 -35 -28 -47 -51 -47c-10 0 -19 3 -28 6c-101 59 -128 170 -128 294v7
z" />
    <glyph glyph-name="parenright" unicode=")" horiz-adv-x="278" 
d="M221 98c-19 -103 -33 -130 -72 -197c-12 -20 -38 -51 -69 -51c-21 0 -35 17 -35 36c0 10 4 17 8 23c68 83 79 133 87 178c8 48 9 80 9 121v47c0 89 -8 160 -52 221c-5 7 -12 14 -19 21c-18 19 -40 44 -40 63c0 12 11 35 31 35c45 0 157 -104 157 -347v-93z" />
    <glyph glyph-name="emdash" unicode="&#x2014;" horiz-adv-x="802" 
d="M714 294c27 0 30 -20 33 -36c-4 -15 -13 -33 -32 -33h-132c-47 7 -75 12 -126 12c-64 0 -97 -1 -120 -2c-12 -1 -22 -1 -29 -2s-16 -1 -26 -1c-56 -1 -83 -3 -102 -4c-20 -1 -32 -2 -60 -2c-21 0 -46 7 -46 34c0 28 29 37 53 37h41c39 0 73 1 102 4c29 2 56 3 81 3h86
c23 0 59 -2 93 -5c17 -1 32 -3 46 -4c28 -4 39 -4 54 -4c7 0 15 0 23 1c7 0 16 0 26 1c9 0 21 0 35 1z" />
    <glyph glyph-name="endash" unicode="&#x2013;" horiz-adv-x="574" 
d="M10 214v104h554v-104h-554z" />
    <glyph glyph-name="hyphen" unicode="-" 
d="M65 214v104h420v-104h-420z" />
    <glyph glyph-name="guillemotleft" unicode="&#xab;" horiz-adv-x="482" 
d="M204 418c16 0 48 -22 48 -46c0 -19 -14 -33 -25 -41c-50 -47 -65 -56 -91 -83c15 -17 93 -84 94 -114c0 -13 -18 -43 -45 -43c-19 0 -76 46 -112 82h1s-48 48 -48 83c0 30 15 51 63 81c1 0 7 5 115 81zM407 417c9 0 48 -18 48 -45c0 -31 -62 -83 -73 -92
c-17 -13 -25 -21 -42 -35c13 -16 85 -76 93 -113c0 -7 -11 -42 -45 -42c-29 0 -76 51 -76 51c-32 33 -83 59 -83 110c0 27 7 33 67 84c16 13 41 35 61 52c16 15 33 30 50 30z" />
    <glyph glyph-name="guillemotright" unicode="&#xbb;" horiz-adv-x="482" 
d="M74 91c-9 0 -48 18 -48 45c0 31 62 83 73 92c17 13 25 21 42 35c-13 16 -85 76 -93 113c0 7 11 42 45 42c29 0 76 -51 76 -51c32 -33 83 -59 83 -110c0 -27 -7 -33 -67 -84c-16 -13 -41 -35 -61 -52c-16 -15 -33 -30 -50 -30zM277 90c-16 0 -48 22 -48 46
c0 19 14 33 25 41c50 47 65 56 91 83c-15 17 -93 84 -94 114c0 13 18 43 45 43c19 0 76 -46 112 -82h-1s48 -48 48 -83c0 -30 -15 -51 -63 -81c-1 0 -7 -5 -115 -81z" />
    <glyph glyph-name="guilsinglleft" unicode="&#x2039;" horiz-adv-x="228" 
d="M132 375l31 28c1 1 3 3 6 4s8 2 16 3c23 0 36 -12 36 -28c0 -13 -8 -23 -18 -33c-5 -5 -10 -10 -15 -14c-5 -5 -10 -9 -13 -13c-19 -20 -33 -33 -45 -42c-6 -5 -12 -9 -17 -12c-5 -4 -11 -8 -17 -13c2 -4 6 -9 12 -16c5 -10 12 -19 23 -27c20 -17 41 -34 57 -51
c7 -9 11 -18 11 -28c0 -25 -17 -30 -32 -30c-8 0 -29 15 -51 32c-22 16 -45 37 -54 49c-3 4 -7 9 -12 14c-10 11 -21 24 -28 40c-8 15 -8 34 9 52c16 18 41 35 66 55c13 9 24 19 35 30z" />
    <glyph glyph-name="guilsinglright" unicode="&#x203a;" horiz-adv-x="228" 
d="M106 138l-31 -28c-1 -1 -3 -3 -6 -4s-8 -2 -16 -3c-23 0 -36 12 -36 28c0 13 8 23 18 33c5 5 10 10 15 14c5 5 10 9 13 13c19 20 33 33 45 42c6 5 12 9 17 12c5 4 11 8 17 13c-2 4 -6 9 -12 16c-5 10 -12 19 -23 27c-20 17 -41 34 -57 51c-7 9 -11 18 -11 28
c0 25 17 30 32 30c8 0 29 -15 51 -32c22 -16 45 -37 54 -49c3 -4 7 -9 12 -14c10 -11 21 -24 28 -40c8 -15 8 -34 -9 -52c-16 -18 -41 -35 -66 -55c-13 -9 -24 -19 -35 -30z" />
    <glyph glyph-name="quotedblbase" unicode="&#x201e;" horiz-adv-x="183" 
d="M69 123c33 0 84 -22 84 -115v-10c0 -6 -1 -12 -1 -16v-11c0 -15 -19 -78 -76 -78c-17 0 -26 9 -26 25s8 26 18 36c4 6 10 11 10 18c0 10 -10 12 -20 16c-26 7 -52 18 -52 63c0 28 23 72 63 72z" />
    <glyph glyph-name="quotedblleft" unicode="&#x201c;" horiz-adv-x="495" 
d="M184 569c24 69 42 92 104 92c15 0 24 -8 24 -21c0 -41 -54 -17 -54 -84c0 -7 68 -33 68 -83c0 -58 -40 -87 -74 -87c-15 0 -29 5 -41 15c-6 5 -37 43 -37 116c0 11 4 28 10 52zM362 502c7 100 47 126 101 144c26 0 41 -5 41 -20c-1 -5 -3 -10 -5 -14
c-27 -40 -55 -16 -55 -61c0 -15 76 -30 76 -82c0 -5 -1 -10 -2 -15c-12 -62 -36 -68 -79 -68c-44 0 -82 38 -78 101z" />
    <glyph glyph-name="quotedblright" unicode="&#x201d;" horiz-adv-x="530" 
d="M332 545c-7 -100 -47 -126 -101 -144c-26 0 -41 5 -41 20c1 5 3 10 5 14c27 40 55 16 55 61c0 15 -76 30 -76 82c0 5 1 10 2 15c12 62 36 68 79 68c44 0 82 -38 78 -101zM510 478c-24 -69 -42 -92 -104 -92c-15 0 -24 8 -24 21c0 41 54 17 54 84c0 7 -68 33 -68 83
c0 58 40 87 74 87c15 0 29 -5 41 -15c6 -5 37 -43 37 -116c0 -11 -4 -28 -10 -52z" />
    <glyph glyph-name="quoteleft" unicode="&#x2018;" horiz-adv-x="193" 
d="M9 489c0 65 34 115 92 115c19 0 31 -7 31 -31c0 -8 -3 -16 -8 -26c-8 -11 -14 -17 -18 -20c-3 -3 -5 -6 -5 -11c1 -4 3 -6 4 -6c57 0 79 -38 79 -78c0 -41 -30 -80 -75 -80c-33 0 -61 16 -77 60c-16 17 -23 39 -23 66v11z" />
    <glyph glyph-name="quoteright" unicode="&#x2019;" horiz-adv-x="193" 
d="M184 467c0 -65 -34 -115 -92 -115c-19 0 -31 7 -31 31c0 8 3 16 8 26c8 11 14 17 18 20c3 3 5 6 5 11c-1 4 -3 6 -4 6c-57 0 -79 38 -79 78c0 41 30 80 75 80c33 0 61 -16 77 -60c16 -17 23 -39 23 -66v-11z" />
    <glyph glyph-name="quotesinglbase" unicode="&#x201a;" horiz-adv-x="183" 
d="M153 -2c0 -6 -1 -12 -1 -16v-11c0 -15 -19 -78 -76 -78c-17 0 -26 9 -26 25s8 26 18 36c4 6 10 11 10 18c0 10 -10 12 -20 16c-26 7 -52 18 -52 63c0 28 23 72 63 72c33 0 84 -22 84 -115v-10z" />
    <glyph glyph-name="space" unicode=" " horiz-adv-x="600" 
 />
    <glyph glyph-name="cent" unicode="&#xa2;" horiz-adv-x="600" 
d="M47 344c0 109 62 195 164 227v87c0 13 7 19 19 19h41c10 0 16 -4 16 -18v-78c98 -2 117 -16 117 -39v-73c0 -16 -7 -23 -21 -23h-32c-42 1 -44 51 -103 51c-58 0 -104 -49 -104 -131c0 -65 43 -175 129 -175c108 0 116 44 140 44c8 0 31 -39 31 -45
c0 -31 -95 -83 -157 -83v-86c0 -15 -6 -21 -21 -21h-38c-13 0 -17 7 -17 21v86c-109 26 -164 127 -164 237z" />
    <glyph glyph-name="currency" unicode="&#xa4;" horiz-adv-x="811" 
d="M54 72l105 104c-26 44 -41 97 -41 150c0 56 14 106 41 150c-33 33 -76 77 -105 105l94 95l103 -106c45 30 96 44 154 44c59 0 109 -14 154 -44l104 106l94 -95l-105 -105c28 -44 41 -95 41 -150c0 -53 -13 -103 -41 -149c34 -33 73 -73 105 -105l-94 -94l-105 104
c-44 -29 -95 -44 -153 -44s-109 15 -153 44l-104 -104zM233 326c0 -87 67 -173 172 -173c88 0 174 66 174 173c0 87 -68 174 -174 174c-88 0 -172 -68 -172 -174z" />
    <glyph glyph-name="dollar" unicode="$" horiz-adv-x="522" 
d="M508 169c0 -92 -126 -146 -197 -169c0 -29 -1 -52 -1 -64c-1 -38 -12 -44 -45 -44c-41 0 -44 44 -44 93c-10 0 -5 -4 -27 1c-1 -41 -5 -63 -12 -71c-10 -11 -21 -15 -31 -15c-35 0 -49 38 -49 61v45c-36 8 -37 21 -37 46c0 27 19 36 38 36h1v5c0 47 3 102 24 206
c-59 25 -107 77 -107 146c0 88 82 137 152 156l18 5c0 17 9 43 38 43c22 0 36 -10 42 -34c2 0 4 -1 7 -1c5 28 19 30 37 30c36 0 44 -27 47 -50c8 -2 19 -6 22 -8c17 -7 77 -29 77 -64c0 -17 -14 -39 -38 -39c-11 0 -22 7 -36 15v-1c-16 10 -2 9 -22 13v-24
c0 -45 -1 -84 -10 -143c35 -15 59 -28 72 -37c35 -25 81 -71 81 -137zM271 440c2 27 5 57 7 90c-2 0 -5 0 -7 1c-1 -90 -14 -118 -29 -163c-1 -1 -2 -5 -2 -6c17 -2 10 2 26 -2c0 4 0 2 1 7c0 18 2 43 4 73zM144 386c12 -8 2 -6 10 -6c19 57 28 100 31 139
c-41 -13 -77 -42 -77 -82c0 -16 11 -34 36 -51zM206 242c-12 -58 -14 -115 -14 -171h10c8 0 15 0 27 2c3 31 9 63 14 91c7 44 14 84 15 113l-43 3c-3 -13 -7 -26 -9 -38zM398 133c13 14 21 28 21 41c0 33 -41 61 -78 79c0 -7 -1 -15 -2 -22v1c-1 -10 -2 -22 -4 -30l-11 -73
c-4 -25 -6 -27 -7 -41c29 11 59 29 84 47z" />
    <glyph glyph-name="Euro" unicode="&#x20ac;" 
d="M222 201c23 -69 67 -106 142 -106c41 0 96 16 137 35v-108c-52 -23 -100 -33 -155 -33c-140 0 -229 72 -258 212h-67v75h58c-1 13 -1 22 -1 33c0 15 1 31 2 47h-59v75h72c32 136 132 218 261 218c56 0 96 -4 147 -23v-117c-51 24 -99 34 -138 34
c-72 0 -118 -43 -141 -112h177v-75h-193c-1 -13 -1 -25 -1 -37c0 -13 0 -26 1 -43h193v-75h-177z" />
    <glyph glyph-name="florin" unicode="&#x192;" 
d="M287 76c-16 -133 -85 -191 -204 -191c-24 0 -55 4 -79 9v95c23 -5 51 -8 71 -8c56 0 84 30 92 95l27 225h-131v93h142l13 114c16 133 84 191 204 191c24 0 57 -3 85 -8v-97c-24 5 -53 9 -77 9c-56 0 -84 -30 -92 -95l-14 -114h158v-93h-168z" />
    <glyph glyph-name="sterling" unicode="&#xa3;" horiz-adv-x="500" 
d="M20 310v78h56c-20 40 -36 86 -36 136c0 41 11 85 36 120c41 58 98 82 179 82c113 0 189 -72 202 -181c1 -9 2 -22 2 -33c0 -8 0 -14 -4 -33h-110v34c0 9 0 22 -2 32c-8 50 -43 75 -94 75c-64 0 -93 -45 -93 -106c0 -44 18 -87 40 -126h158v-78c-91 8 -117 10 -125 10
c-3 0 -3 -1 -3 -1c8 -18 11 -40 11 -58c0 -53 -23 -101 -54 -142c9 1 21 2 31 2h15c9 0 19 -1 33 -6c23 -9 57 -19 88 -19c25 0 54 15 88 40l41 -96c-57 -42 -82 -49 -138 -49c-20 0 -51 8 -78 17c-13 5 -24 9 -33 10c-17 4 -34 6 -49 6c-36 0 -69 -18 -111 -45l-57 85
c64 53 114 105 114 180c0 22 -6 46 -14 66h-93z" />
    <glyph glyph-name="yen" unicode="&#xa5;" horiz-adv-x="500" 
d="M180 281c-68 140 -148 305 -215 445h133l143 -320c48 105 100 217 148 320h126l-223 -445v-4h127v-77h-127v-33h127v-77h-127v-90h-112v90h-127v77h127v33h-127v77h127v4z" />
    <glyph glyph-name="approxequal" unicode="&#x2248;" horiz-adv-x="481" 
d="M90 389c21 27 31 51 82 51c50 0 81 -52 128 -54c10 22 17 38 44 38c21 0 30 -14 30 -32c0 -49 -41 -74 -81 -74c-20 0 -61 19 -81 33c-16 11 -34 20 -46 21l-9 -12c-12 -14 -24 -28 -46 -28c-21 0 -32 12 -32 30c0 10 5 19 11 27zM90 219c21 27 31 51 82 51
c50 0 81 -52 128 -54c10 22 17 38 44 38c21 0 30 -14 30 -32c0 -49 -41 -74 -81 -74c-20 0 -61 19 -81 33c-16 11 -34 20 -46 21l-9 -12c-12 -14 -24 -28 -46 -28c-21 0 -32 12 -32 30c0 10 5 19 11 27z" />
    <glyph glyph-name="asciitilde" unicode="~" horiz-adv-x="481" 
d="M90 219c21 27 31 51 82 51c50 0 81 -52 128 -54c10 22 17 38 44 38c21 0 30 -14 30 -32c0 -49 -41 -74 -81 -74c-20 0 -61 19 -81 33c-16 11 -34 20 -46 21l-9 -12c-12 -14 -24 -28 -46 -28c-21 0 -32 12 -32 30c0 10 5 19 11 27z" />
    <glyph glyph-name="divide" unicode="&#xf7;" horiz-adv-x="600" 
d="M220 399c0 36 31 68 68 68s68 -32 68 -68c0 -37 -31 -68 -68 -68s-68 31 -68 68zM59 186v85h457v-85h-457zM220 59c0 37 31 68 68 68s68 -31 68 -68s-31 -68 -68 -68s-68 31 -68 68z" />
    <glyph glyph-name="equal" unicode="=" horiz-adv-x="481" 
d="M112 232c-14 2 -38 7 -38 42c0 38 31 42 56 42h4c32 0 68 -3 98 -6h5c29 0 123 -2 123 -55c0 -30 -29 -40 -82 -40c-70 0 -123 9 -151 14c-5 1 -12 2 -15 3zM354 195c8 2 11 2 16 2c27 0 35 -15 35 -34c0 -66 -133 -67 -195 -67c-46 0 -156 2 -156 51c0 29 18 39 41 39
h20c16 0 30 -2 44 -4c18 -2 37 -5 52 -5c49 0 96 4 143 18z" />
    <glyph glyph-name="greater" unicode="&#x3e;" horiz-adv-x="481" 
d="M48 397c21 0 60 -22 83 -36c41 -25 179 -91 207 -103c23 -7 62 -20 62 -49c0 -24 -47 -46 -88 -64l-5 -2c-25 -11 -49 -22 -77 -36c-51 -22 -112 -45 -159 -81c-8 -6 -24 -12 -33 -12c-18 0 -33 18 -33 33c0 38 155 109 259 156l12 6c-30 14 -79 39 -110 56
c-30 15 -60 32 -93 48c-15 7 -59 30 -59 50s16 34 34 34z" />
    <glyph glyph-name="less" unicode="&#x3c;" horiz-adv-x="481" 
d="M378 420c21 0 36 -18 36 -35c0 -26 -31 -41 -61 -52c-66 -29 -127 -69 -202 -102c78 -38 144 -65 220 -110c5 -3 52 -25 52 -52c0 -19 -17 -32 -33 -32c-12 0 -34 12 -59 26c-110 61 -185 102 -272 133c-14 4 -31 13 -31 35c0 18 9 24 19 30c60 25 113 51 198 95
c28 15 60 33 98 52c10 5 21 12 35 12z" />
    <glyph glyph-name="logicalnot" unicode="&#xac;" horiz-adv-x="600" 
d="M42 400h506v-231h-104v128h-402v103z" />
    <glyph glyph-name="uni00B5" unicode="&#xb5;" 
d="M185 496v-322c0 -53 17 -83 60 -83c33 0 69 33 112 96v309h119v-334c0 -46 5 -70 38 -70h15v-92c-27 -7 -44 -10 -65 -10c-62 0 -84 28 -95 82c-39 -55 -83 -83 -130 -83c-27 0 -50 9 -62 22l8 -97v-108h-119v690h119z" />
    <glyph glyph-name="minus" unicode="&#x2212;" horiz-adv-x="305" 
d="M26 252c0 36 67 43 110 43h37c41 0 81 -5 81 -48c0 -36 -44 -45 -86 -45h-64c-16 0 -78 2 -78 43v7z" />
    <glyph glyph-name="multiply" unicode="&#xd7;" horiz-adv-x="465" 
d="M394 263l-55 -50c-1 -1 -4 -4 -9 -8c-9 -8 -22 -18 -34 -28c-7 -5 -12 -10 -16 -13c7 -9 16 -19 27 -31c11 -13 22 -27 35 -44c3 -3 6 -8 11 -13c8 -11 18 -22 24 -36c3 -7 4 -15 4 -22c0 -13 -14 -28 -33 -28c-23 0 -42 24 -59 52l-26 42c-9 14 -18 25 -27 32
c-27 -25 -55 -54 -72 -95c-1 -2 -3 -5 -4 -9c-3 -8 -8 -17 -18 -24c-5 -3 -13 -5 -22 -5c-19 0 -29 10 -29 30c0 3 1 7 2 14c9 25 20 43 29 56c4 6 8 12 13 17c9 11 20 23 28 31c3 4 7 8 10 11l10 10c3 3 6 7 10 11c-13 8 -26 19 -39 32s-30 26 -51 40c-4 2 -9 5 -16 8
c-13 6 -27 14 -37 26c-5 5 -8 12 -8 20c0 17 9 25 28 25c27 0 50 -11 68 -23c9 -7 17 -13 24 -20s13 -12 18 -16l56 -48c5 4 19 16 33 29c7 6 14 12 21 19c15 13 20 18 32 30c12 11 29 26 47 36c9 5 17 7 25 7c16 0 30 -12 30 -27c0 -19 -18 -30 -30 -38z" />
    <glyph glyph-name="percent" unicode="%" horiz-adv-x="758" 
d="M491 591c5 11 20 15 29 15c13 0 35 -9 35 -30c0 -16 -7 -24 -12 -33l-2 -3l-65 -97l-23 -35c-34 -52 -97 -148 -128 -195c-13 -19 -22 -33 -34 -53c-9 -15 -98 -165 -135 -165c-18 0 -30 12 -30 36c12 31 35 64 56 91c104 155 206 312 309 469zM84 481
c22 43 66 66 112 66c66 0 121 -45 121 -113c0 -90 -64 -128 -118 -128c-62 0 -130 48 -130 117c0 19 5 39 15 58zM176 387c8 -2 17 -4 23 -4c27 0 44 17 44 44c0 30 -23 45 -48 45c-24 0 -54 -18 -54 -48c0 -18 17 -32 35 -37zM518 269c42 0 95 -37 95 -88
c0 -62 -45 -127 -114 -127c-62 0 -112 52 -112 109c0 79 67 106 131 106zM505 133c20 0 31 23 31 41c0 14 -13 20 -26 20c-22 0 -45 -13 -45 -34c0 -19 21 -27 40 -27z" />
    <glyph glyph-name="perthousand" unicode="&#x2030;" horiz-adv-x="1091" 
d="M549 633c5 9 13 13 24 13c19 0 29 -14 29 -27c0 -12 -8 -23 -15 -32c-48 -64 -95 -138 -142 -213c-24 -38 -48 -76 -71 -114c-24 -38 -48 -75 -72 -110c-7 -11 -26 -43 -48 -73s-48 -58 -65 -58c-13 0 -25 13 -25 26c0 11 5 23 15 36c9 13 18 24 25 34c12 12 22 25 42 54
c19 28 47 72 95 145c47 73 113 175 208 319zM121 519c25 47 68 65 111 65c32 0 63 -11 84 -30c21 -20 35 -49 35 -82c0 -39 -13 -69 -33 -92c-21 -23 -50 -35 -82 -35s-65 12 -89 32s-41 48 -41 83c0 20 6 39 15 59zM236 412c36 0 53 24 53 53c0 36 -27 55 -58 55
c-16 0 -32 -6 -44 -17s-20 -25 -20 -41c0 -19 10 -31 24 -39s30 -11 45 -11zM570 292c20 0 43 -9 62 -25s32 -37 32 -61c0 -31 -12 -62 -32 -85c-20 -24 -48 -40 -80 -40c-28 0 -56 10 -76 29c-21 19 -35 46 -35 78c0 37 17 64 42 81c24 16 56 23 87 23zM855 254
c20 0 45 -10 63 -26s31 -37 31 -60c0 -31 -12 -62 -32 -86s-48 -40 -80 -40c-35 0 -62 14 -81 35c-19 20 -30 46 -30 73c0 39 18 65 43 81c24 16 57 23 86 23zM557 149c24 0 41 12 41 49c0 19 -16 30 -35 30c-25 0 -56 -16 -56 -44c0 -25 30 -35 50 -35zM842 111
c28 0 41 26 41 49s-20 30 -36 30c-25 0 -55 -16 -55 -44c0 -24 26 -35 50 -35z" />
    <glyph glyph-name="plus" unicode="+" horiz-adv-x="600" 
d="M353 241c29 -5 41 -25 41 -50c0 -30 -22 -43 -71 -43h-41c0 -17 4 -34 4 -56c0 -58 -9 -74 -48 -74c-47 0 -54 68 -59 135c-46 3 -124 10 -124 59c0 45 34 50 68 50c16 0 31 -3 49 -4c-1 21 -1 41 -1 56c0 29 24 51 49 51c41 0 49 -51 53 -113c25 -2 63 -8 80 -11z" />
    <glyph glyph-name="plusminus" unicode="&#xb1;" horiz-adv-x="481" 
d="M353 388c29 -5 41 -25 41 -50c0 -30 -22 -43 -71 -43h-41c0 -7 1 -13 2 -19c1 -12 2 -25 2 -37c0 -58 -9 -74 -48 -74c-48 0 -53 68 -57 116c-2 13 -2 17 -2 19c-46 3 -124 10 -124 59c0 45 34 50 68 50c8 0 16 -1 28 -2c6 -1 14 -2 21 -2c-1 21 -1 40 -1 56
c0 29 24 51 49 51c41 0 49 -51 53 -113c25 -2 63 -8 80 -11zM131 86c0 37 67 44 110 44h37c40 0 81 -5 81 -48c0 -36 -45 -45 -87 -45h-63c-17 0 -78 2 -78 43v6z" />
    <glyph glyph-name="bar" unicode="|" horiz-adv-x="138" 
d="M15 583c0 20 19 34 36 34c39 0 39 -82 39 -181l-11 -91c0 -61 4 -121 12 -196v-35c0 -9 1 -18 2 -27c3 -22 5 -47 5 -76c0 -17 -4 -47 -34 -47c-39 0 -41 32 -41 56v75c-4 40 -11 147 -11 208c0 21 1 45 3 71c3 33 6 71 6 113c0 13 -2 26 -3 41c-2 17 -3 38 -3 55z" />
    <glyph glyph-name="brokenbar" unicode="&#xa6;" horiz-adv-x="470" 
d="M286 366h-103v441h103v-441zM183 236h103v-441h-103v441z" />
    <glyph glyph-name="at" unicode="@" horiz-adv-x="786" 
d="M686 200h1c17 -3 21 -15 21 -28s-10 -31 -22 -49s-26 -37 -35 -46c-65 -57 -152 -80 -237 -80c-76 0 -165 23 -223 69s-91 105 -103 173c-6 33 -9 68 -9 103c0 100 31 164 80 203s118 52 193 52c96 0 178 -20 236 -60c58 -41 91 -102 91 -183c0 -71 -23 -114 -59 -141
s-84 -36 -132 -36s-92 12 -115 43c-23 -19 -52 -28 -81 -28c-39 0 -74 16 -101 41c-27 24 -43 58 -43 95c0 57 29 97 66 124s83 39 119 39c12 0 23 -1 32 -2c9 -2 19 -3 28 -3c4 9 10 20 25 20c21 0 32 -11 32 -32c0 -19 -2 -25 -7 -48c-3 -11 -7 -28 -12 -51l-21 -101
c0 -13 7 -23 22 -28c14 -5 37 -8 69 -8c88 0 121 42 121 122c0 69 -38 114 -90 142c-52 27 -118 36 -171 36c-99 0 -155 -25 -187 -61c-32 -37 -39 -87 -39 -138c0 -37 6 -78 14 -114c12 -57 51 -100 100 -128c49 -29 110 -43 165 -43c65 0 137 15 188 58c7 6 14 14 21 24
c13 19 27 40 41 54c7 7 14 10 22 10zM291 250c27 0 49 11 64 35l29 145c-19 3 -32 3 -51 3c-21 0 -53 -7 -80 -24s-48 -44 -48 -84c0 -23 11 -42 27 -54c16 -13 38 -21 59 -21z" />
    <glyph glyph-name="ampersand" unicode="&#x26;" horiz-adv-x="619" 
d="M239 541c21 6 37 8 47 8c38 0 131 -32 131 -105c0 -66 -108 -107 -157 -123c26 -49 49 -88 79 -128c11 10 25 19 37 19s30 -4 30 -30c0 -21 -10 -35 -20 -46c13 -18 35 -46 35 -64c0 -14 -9 -32 -30 -32c-23 0 -37 19 -53 45c-41 -30 -98 -52 -153 -52
c-75 0 -136 37 -136 115c0 88 46 135 68 157c28 28 45 42 57 51c-7 33 -10 53 -10 64c0 48 21 104 75 121zM232 410c0 -8 1 -16 3 -23l5 1c14 3 37 11 54 19c15 6 47 20 52 41v4c0 21 -46 28 -60 28c-35 0 -53 -13 -54 -70zM116 154c0 -31 10 -39 27 -48c13 -4 26 -7 41 -7
c36 0 69 4 110 40c-36 46 -70 95 -95 149l-3 -4c-11 -8 -80 -68 -80 -130z" />
    <glyph glyph-name="paragraph" unicode="&#xb6;" horiz-adv-x="444" 
d="M84 567c21 17 64 33 95 33c75 0 86 -74 86 -152c0 -28 -5 -49 -8 -68c-3 -14 -4 -27 -4 -429c0 -34 -29 -42 -46 -42c-22 0 -44 14 -44 41v127c0 100 0 179 -5 280c-50 5 -121 33 -121 100c0 41 15 79 46 108zM303 551c-1 24 20 44 42 44c37 0 51 -30 51 -54v-188
c0 -15 -2 -33 -3 -47c-3 -28 -8 -55 -13 -83c-9 -44 -19 -94 -19 -142c0 -20 2 -42 4 -60c2 -16 3 -30 3 -44c0 -36 -11 -59 -44 -59c-23 0 -54 19 -54 145c0 19 3 39 5 54c4 40 9 76 16 115c10 55 18 105 18 156c0 36 -3 72 -4 108z" />
    <glyph glyph-name="copyright" unicode="&#xa9;" horiz-adv-x="841" 
d="M398 599c32 10 60 17 92 17c37 0 71 -11 108 -40v1c105 -84 163 -142 163 -213c0 -139 -234 -347 -438 -347c-52 0 -103 13 -142 52c-32 32 -124 148 -124 242c0 84 59 153 121 199c75 55 125 67 179 79c14 3 27 6 42 10h-1zM598 470c-14 18 -62 73 -109 73
c-13 0 -36 -7 -56 -14c-18 -7 -40 -14 -59 -16l1 1c-55 -11 -236 -74 -236 -206c0 -28 8 -52 23 -76c82 -132 106 -135 168 -135c77 0 150 41 211 82c37 25 141 98 141 187c0 31 -31 53 -57 78zM323 478c28 14 48 18 157 23c34 1 44 -16 44 -39c0 -22 -24 -40 -44 -40h-69
c-9 0 -19 -2 -29 -5h1c-19 -6 -93 -42 -93 -105c0 -40 55 -65 94 -65c25 0 60 24 96 54c21 17 41 49 62 53c25 -1 41 -18 41 -39c0 -40 -124 -148 -196 -148c-84 0 -178 53 -178 145c0 74 56 130 112 165z" />
    <glyph glyph-name="registered" unicode="&#xae;" horiz-adv-x="832" 
d="M140 446c46 87 81 147 241 165c9 2 17 2 25 2c147 0 175 -92 214 -165c24 -45 47 -90 47 -145c0 -126 -149 -282 -304 -282c-26 0 -48 3 -69 10c-36 12 -191 106 -191 264c0 51 13 105 37 151zM364 97c94 0 224 102 224 209c0 39 -17 76 -43 119c-42 71 -66 106 -168 106
c-92 0 -190 -111 -190 -223c0 -77 46 -173 137 -204zM301 480c12 12 34 19 51 19c37 0 118 -41 118 -105c0 -49 -28 -70 -67 -84l24 -14c24 -14 95 -41 95 -84c0 -20 -20 -39 -40 -39c-12 0 -22 6 -112 60l2 -29c4 -58 -11 -73 -40 -73c-45 0 -45 58 -45 143
c0 14 -11 70 -11 122c0 28 2 63 25 84zM359 377c12 3 31 10 31 17c0 10 -15 24 -32 24z" />
    <glyph glyph-name="section" unicode="&#xa7;" horiz-adv-x="491" 
d="M392 204c0 -36 -9 -85 -36 -120c23 -23 33 -49 33 -76c0 -83 -82 -146 -177 -146c-55 0 -126 39 -126 108c0 14 2 27 10 41c8 15 25 38 99 38c22 0 46 -6 46 -36c0 -20 -6 -32 -16 -39c-12 -9 -33 -11 -50 -12c6 -14 25 -17 44 -17c27 0 78 19 78 55c0 30 -32 63 -63 67
c-109 24 -187 86 -187 166c0 58 26 106 83 141c-24 27 -41 59 -41 96c0 76 53 125 119 125c80 0 118 -68 118 -126c0 -34 -12 -63 -49 -63c-24 4 -48 11 -48 41l7 25c0 11 -6 36 -36 36c-15 0 -22 -16 -22 -30c0 -26 25 -52 44 -68c13 -11 26 -20 45 -34
c65 -48 125 -93 125 -172zM135 231c0 -16 8 -39 31 -55c26 -18 84 -25 116 -44c5 -1 22 28 22 60c-1 36 -55 84 -106 118c-25 -22 -63 -48 -63 -79z" />
    <glyph glyph-name="trademark" unicode="&#x2122;" horiz-adv-x="767" 
d="M592 263l-13 201c-8 -19 -13 -35 -17 -51c-6 -15 -11 -33 -15 -52c-8 -39 -17 -76 -30 -100c-7 -12 -16 -18 -27 -18c-12 0 -24 5 -36 33c-13 27 -28 74 -48 161l-3 -29c-2 -21 -5 -44 -4 -75c0 -31 -3 -58 -14 -76c-5 -9 -14 -14 -26 -14c-13 0 -21 7 -27 16
c-6 8 -9 17 -9 24l20 266c0 31 13 47 40 47c19 0 28 -3 41 -30c6 -13 14 -34 23 -61c9 -28 22 -66 39 -115c9 35 19 66 31 97c8 23 19 53 32 77s30 43 53 43c19 0 34 -11 39 -30l17 -201c4 -50 6 -86 7 -107c-5 -28 -27 -32 -35 -32c-17 0 -31 11 -38 26zM289 513l-51 1
c0 -16 1 -38 3 -66c1 -29 2 -57 2 -86c0 -31 -2 -61 -6 -82c-5 -21 -13 -35 -26 -35h-12c-28 0 -35 18 -35 47c0 27 1 54 2 83s1 58 1 88v27c0 9 0 17 -1 26h-56c-17 0 -34 2 -46 7c-13 5 -21 15 -21 32c0 19 12 39 28 39c34 1 67 1 98 1h87c17 0 36 -2 51 -6
c15 -5 25 -15 25 -31c0 -35 -23 -45 -43 -45z" />
    <glyph glyph-name="degree" unicode="&#xb0;" horiz-adv-x="259" 
d="M115 429c-61 0 -100 49 -100 110c0 53 47 100 100 100c63 0 100 -55 100 -106c0 -45 -44 -104 -100 -104zM134 538c0 8 -12 13 -21 14c-11 -4 -17 -11 -17 -18c0 -11 9 -17 18 -17c10 0 20 9 20 21z" />
    <glyph glyph-name="asciicircum" unicode="^" horiz-adv-x="426" 
d="M283 410c12 -31 60 -117 60 -144c0 -17 -11 -34 -25 -34c-24 0 -35 23 -40 41c-5 15 -14 31 -26 48c-25 37 -47 81 -65 127c-5 -10 -11 -18 -16 -26l-21 -42c-27 -55 -64 -132 -97 -132c-21 0 -32 23 -32 33c0 13 23 51 33 69l32 55c21 35 39 67 51 95c0 0 2 9 4 13
c8 25 20 61 48 61c36 0 90 -157 94 -164z" />
    <glyph glyph-name="dagger" unicode="&#x2020;" 
d="M333 469v-345h-118v345h-137v91h137v130h118v-130h139v-91h-139z" />
    <glyph glyph-name="daggerdbl" unicode="&#x2021;" 
d="M333 227h139v-91h-139v-136h-118v136h-137v91h137v242h-137v91h137v130h118v-130h139v-91h-139v-242z" />
    <glyph glyph-name="acute" unicode="&#xb4;" 
d="M234 477h-119l128 128h161z" />
    <glyph glyph-name="breve" unicode="&#x2d8;" horiz-adv-x="333" 
d="M78 755c12 -52 43 -72 84 -72c43 0 72 18 84 72h80c-5 -115 -73 -165 -168 -165c-87 0 -157 50 -161 165h81z" />
    <glyph glyph-name="caron" unicode="&#x2c7;" horiz-adv-x="333" 
d="M162 680c18 25 36 52 52 75h120l-120 -170h-106l-119 170h120z" />
    <glyph glyph-name="cedilla" unicode="&#xb8;" horiz-adv-x="333" 
d="M77 -62l71 99h89l-40 -54c40 -5 86 -28 86 -86c0 -78 -68 -103 -132 -103h-10c-29 4 -60 11 -97 27l28 72c29 -11 53 -20 71 -20c20 0 34 4 34 17c0 6 -4 14 -14 18c-5 2 -9 3 -12 3c-9 0 -27 -6 -41 -10z" />
    <glyph glyph-name="circumflex" unicode="&#x2c6;" 
d="M321 690l120 -128h-106l-60 60l-60 -60h-104l120 128h90z" />
    <glyph glyph-name="dieresis" unicode="&#xa8;" horiz-adv-x="268" 
d="M107 528c0 -32 -16 -49 -48 -49s-48 17 -48 49s16 49 48 49s48 -17 48 -49zM245 528c0 -32 -16 -49 -49 -49c-31 0 -47 17 -47 49c0 31 16 48 47 48c33 0 49 -17 49 -48z" />
    <glyph glyph-name="dotaccent" unicode="&#x2d9;" horiz-adv-x="250" 
d="M66 610v131h111v-131h-111z" />
    <glyph glyph-name="grave" unicode="`" horiz-adv-x="243" 
d="M134 587l105 -166h-104l-153 166h152z" />
    <glyph glyph-name="hungarumlaut" unicode="&#x2dd;" horiz-adv-x="333" 
d="M138 755h156l-157 -170h-107zM308 755h156l-157 -170h-107z" />
    <glyph glyph-name="macron" unicode="&#xaf;" 
d="M139 588v85h272v-85h-272z" />
    <glyph glyph-name="ogonek" unicode="&#x2db;" horiz-adv-x="333" 
d="M247 -165c-40 -19 -72 -26 -98 -26c-54 0 -109 34 -109 95c0 53 32 101 91 156l116 -21c-64 -49 -99 -85 -99 -110v-8c0 -11 9 -17 22 -17c18 0 47 13 77 28v-97z" />
    <glyph glyph-name="ring" unicode="&#x2da;" horiz-adv-x="250" 
d="M121 556c-62 0 -114 52 -114 114s52 114 114 114s115 -51 115 -114c0 -62 -52 -114 -115 -114zM121 709c-21 0 -39 -18 -39 -39c0 -20 18 -39 39 -39s39 19 39 39c0 21 -18 39 -39 39z" />
    <glyph glyph-name="tilde" unicode="&#x2dc;" horiz-adv-x="481" 
d="M35 536c9 20 25 47 43 69s39 39 66 39c19 0 35 -3 46 -8s17 -9 18 -10l17 -9c15 -8 31 -16 44 -22c6 -3 10 -5 12 -5c11 0 20 6 27 17s16 28 27 52l61 -52c-13 -25 -29 -53 -47 -74s-39 -36 -62 -36c-24 0 -40 9 -64 22c-21 11 -38 19 -49 24c-12 5 -22 8 -29 9
c-9 -1 -16 -5 -24 -16c-9 -12 -19 -31 -35 -62z" />
  </font>
</defs>
</svg>
