<svg xmlns="http://www.w3.org/2000/svg" width="24.603" height="24.093" viewBox="0 0 24.603 24.093">
  <g id="SearchIcon" transform="translate(42.396 -14)">
    <g id="Group_1" data-name="Group 1" transform="translate(-42.396 14)">
      <path id="Path_1" data-name="Path 1" d="M296.912,301.771l5.644-5.528a10.755,10.755,0,0,0,3.262,3.194l-5.645,5.528a2.34,2.34,0,0,1-3.261,0A2.224,2.224,0,0,1,296.912,301.771Z" transform="translate(-296.236 -281.533)" fill="#5d5757"/>
      <path id="Path_2" data-name="Path 2" d="M0,9.035A9.132,9.132,0,0,1,9.227,0a9.133,9.133,0,0,1,9.226,9.035,9.132,9.132,0,0,1-9.226,9.035A9.132,9.132,0,0,1,0,9.035Zm9.226,6.776a6.856,6.856,0,0,0,6.919-6.776A6.856,6.856,0,0,0,9.227,2.259a6.857,6.857,0,0,0-6.92,6.776A6.856,6.856,0,0,0,9.227,15.811Z" transform="translate(6.15)" fill="#5d5757"/>
      <path id="Path_3" data-name="Path 3" d="M81.2,81.086H79.661a3.809,3.809,0,0,0-3.844-3.764V75.816A5.333,5.333,0,0,1,81.2,81.086Z" transform="translate(-60.44 -72.051)" fill="#5d5757"/>
    </g>
  </g>
</svg>
