<?xml version="1.0" standalone="no"?>
<!DOCTYPE svg PUBLIC "-//W3C//DTD SVG 1.1//EN" "http://www.w3.org/Graphics/SVG/1.1/DTD/svg11.dtd" >
<svg>
<metadata>
Created by FontForge 20120731 at Mon Mar 11 17:02:45 2019
 By www-data
copyright missing
</metadata>
<defs>
<font id="SandroUniversal-Italic" horiz-adv-x="600" >
  <font-face 
    font-family="Sandro Universal"
    font-weight="400"
    font-style="italic"
    font-stretch="normal"
    units-per-em="1000"
    panose-1="0 0 5 0 0 0 0 0 0 0"
    ascent="800"
    descent="-200"
    x-height="392"
    cap-height="558"
    bbox="-14.3854 -339 1236 800"
    underline-thickness="50"
    underline-position="-50"
    slope="-10"
    unicode-range="U+0020-2248"
  />
<missing-glyph horiz-adv-x="550" 
d="M451 800v-1100h-349v1100h349zM366 726h-181v-36h71v-41h-72v-36h182v36h-72v41h72v36zM294 584h-110v-114h182v37h-72v77zM256 547v-40h-36v40h36zM366 440h-182v-36h72v-41h-72v-36h110v77h72v36zM366 374h-36v-72h-146v-38h182v110zM366 240h-110v-61h38v25h36v-52
h-110v88h-36v-124h182v124zM366 50h-182v-124h182v124zM330 14v-52h-110v52h110zM366 -100h-182v-36h77l-77 -52v-36h182v36h-112l77 52h35v36z" />
    <glyph glyph-name=".notdef" horiz-adv-x="550" 
d="M451 800v-1100h-349v1100h349zM366 726h-181v-36h71v-41h-72v-36h182v36h-72v41h72v36zM294 584h-110v-114h182v37h-72v77zM256 547v-40h-36v40h36zM366 440h-182v-36h72v-41h-72v-36h110v77h72v36zM366 374h-36v-72h-146v-38h182v110zM366 240h-110v-61h38v25h36v-52
h-110v88h-36v-124h182v124zM366 50h-182v-124h182v124zM330 14v-52h-110v52h110zM366 -100h-182v-36h77l-77 -52v-36h182v36h-112l77 52h35v36z" />
    <glyph glyph-name="A" unicode="A" horiz-adv-x="609" 
d="M500 14v215h-291c-28 -52 -43 -102 -54 -153l-15 -73c-3 -11 -12 -19 -23 -19c-3 0 -6 1 -9 4c-3 2 -4 7 -4 16c0 64 29 151 67 238s86 175 128 240c21 33 39 59 56 79c16 20 27 30 34 30c14 0 25 -4 34 -13c8 -9 16 -17 24 -25c47 -47 64 -119 75 -187
c13 -80 29 -165 29 -253c0 -21 0 -55 -4 -83c-5 -29 -13 -53 -29 -53c-12 0 -15 14 -18 37zM359 522l-141 -267h280c0 95 -16 167 -37 216c-21 48 -50 73 -74 73z" />
    <glyph glyph-name="Aacute" unicode="&#xc1;" horiz-adv-x="609" 
d="M500 14v215h-291c-28 -52 -43 -102 -54 -153l-15 -73c-3 -11 -12 -19 -23 -19c-3 0 -6 1 -9 4c-3 2 -4 7 -4 16c0 64 29 151 67 238s86 175 128 240c21 33 39 59 56 79c16 20 27 30 34 30c14 0 25 -4 34 -13c8 -9 16 -17 24 -25c47 -47 64 -119 75 -187
c13 -80 29 -165 29 -253c0 -21 0 -55 -4 -83c-5 -29 -13 -53 -29 -53c-12 0 -15 14 -18 37zM359 522l-141 -267h280c0 95 -16 167 -37 216c-21 48 -50 73 -74 73z" />
    <glyph glyph-name="Acircumflex" unicode="&#xc2;" horiz-adv-x="609" 
d="M500 14v215h-291c-28 -52 -43 -102 -54 -153l-15 -73c-3 -11 -12 -19 -23 -19c-3 0 -6 1 -9 4c-3 2 -4 7 -4 16c0 64 29 151 67 238s86 175 128 240c21 33 39 59 56 79c16 20 27 30 34 30c14 0 25 -4 34 -13c8 -9 16 -17 24 -25c47 -47 64 -119 75 -187
c13 -80 29 -165 29 -253c0 -21 0 -55 -4 -83c-5 -29 -13 -53 -29 -53c-12 0 -15 14 -18 37zM359 522l-141 -267h280c0 95 -16 167 -37 216c-21 48 -50 73 -74 73z" />
    <glyph glyph-name="Adieresis" unicode="&#xc4;" horiz-adv-x="609" 
d="M500 14v215h-291c-28 -52 -43 -102 -54 -153l-15 -73c-3 -11 -12 -19 -23 -19c-3 0 -6 1 -9 4c-3 2 -4 7 -4 16c0 64 29 151 67 238s86 175 128 240c21 33 39 59 56 79c16 20 27 30 34 30c14 0 25 -4 34 -13c8 -9 16 -17 24 -25c47 -47 64 -119 75 -187
c13 -80 29 -165 29 -253c0 -21 0 -55 -4 -83c-5 -29 -13 -53 -29 -53c-12 0 -15 14 -18 37zM359 522l-141 -267h280c0 95 -16 167 -37 216c-21 48 -50 73 -74 73z" />
    <glyph glyph-name="Agrave" unicode="&#xc0;" horiz-adv-x="609" 
d="M500 14v215h-291c-28 -52 -43 -102 -54 -153l-15 -73c-3 -11 -12 -19 -23 -19c-3 0 -6 1 -9 4c-3 2 -4 7 -4 16c0 64 29 151 67 238s86 175 128 240c21 33 39 59 56 79c16 20 27 30 34 30c14 0 25 -4 34 -13c8 -9 16 -17 24 -25c47 -47 64 -119 75 -187
c13 -80 29 -165 29 -253c0 -21 0 -55 -4 -83c-5 -29 -13 -53 -29 -53c-12 0 -15 14 -18 37zM359 522l-141 -267h280c0 95 -16 167 -37 216c-21 48 -50 73 -74 73z" />
    <glyph glyph-name="Aring" unicode="&#xc5;" horiz-adv-x="609" 
d="M500 14v215h-291c-28 -52 -43 -102 -54 -153l-15 -73c-3 -11 -12 -19 -23 -19c-3 0 -6 1 -9 4c-3 2 -4 7 -4 16c0 64 29 151 67 238s86 175 128 240c21 33 39 59 56 79c16 20 27 30 34 30c14 0 25 -4 34 -13c8 -9 16 -17 24 -25c47 -47 64 -119 75 -187
c13 -80 29 -165 29 -253c0 -21 0 -55 -4 -83c-5 -29 -13 -53 -29 -53c-12 0 -15 14 -18 37zM359 522l-141 -267h280c0 95 -16 167 -37 216c-21 48 -50 73 -74 73z" />
    <glyph glyph-name="Atilde" unicode="&#xc3;" horiz-adv-x="609" 
d="M500 14v215h-291c-28 -52 -43 -102 -54 -153l-15 -73c-3 -11 -12 -19 -23 -19c-3 0 -6 1 -9 4c-3 2 -4 7 -4 16c0 64 29 151 67 238s86 175 128 240c21 33 39 59 56 79c16 20 27 30 34 30c14 0 25 -4 34 -13c8 -9 16 -17 24 -25c47 -47 64 -119 75 -187
c13 -80 29 -165 29 -253c0 -21 0 -55 -4 -83c-5 -29 -13 -53 -29 -53c-12 0 -15 14 -18 37zM359 522l-141 -267h280c0 95 -16 167 -37 216c-21 48 -50 73 -74 73z" />
    <glyph glyph-name="B" unicode="B" horiz-adv-x="651" 
d="M37 8l8 40h10c56 0 78 26 86 67c25 124 43 209 55 266c6 28 11 50 14 66c3 15 6 27 7 35s2 13 3 16v5c0 33 -22 44 -61 44h-10l10 45h268c154 0 231 -38 231 -115c0 -71 -43 -115 -126 -138c69 -31 104 -68 104 -124c0 -48 -22 -98 -61 -133c-29 -27 -60 -45 -104 -57
c-45 -12 -105 -17 -190 -17h-244zM321 350h47c109 0 158 36 158 125c0 60 -45 82 -126 82h-36zM314 313l-41 -217c0 -39 19 -44 63 -44c53 0 94 22 120 54s38 74 38 114c0 65 -43 93 -143 93h-37z" />
    <glyph glyph-name="C" unicode="C" horiz-adv-x="520" 
d="M372 522c-35 0 -74 -22 -110 -54c-36 -33 -71 -77 -95 -121c-25 -45 -41 -91 -41 -126c0 -52 16 -99 44 -133s67 -56 114 -56c36 0 71 12 97 32c26 19 44 46 51 77l3 19c1 13 4 25 11 33c3 3 8 5 15 5c9 0 13 -6 13 -17c0 -55 -25 -102 -61 -135
c-37 -33 -88 -52 -137 -52c-59 0 -106 28 -138 70c-33 42 -51 97 -51 154c0 40 11 78 26 115c5 12 20 42 44 75c23 33 54 72 93 101s84 51 135 51c13 0 37 -8 57 -20c20 -13 37 -33 37 -57c-1 -13 -15 -20 -23 -20c-16 0 -25 14 -36 30c-11 15 -24 29 -48 29z" />
    <glyph glyph-name="Ccedilla" unicode="&#xc7;" horiz-adv-x="520" 
d="M372 522c-35 0 -74 -22 -110 -54c-36 -33 -71 -77 -95 -121c-25 -45 -41 -91 -41 -126c0 -52 16 -99 44 -133s67 -56 114 -56c36 0 71 12 97 32c26 19 44 46 51 77l3 19c1 13 4 25 11 33c3 3 8 5 15 5c9 0 13 -6 13 -17c0 -55 -25 -102 -61 -135
c-37 -33 -88 -52 -137 -52c-59 0 -106 28 -138 70c-33 42 -51 97 -51 154c0 40 11 78 26 115c5 12 20 42 44 75c23 33 54 72 93 101s84 51 135 51c13 0 37 -8 57 -20c20 -13 37 -33 37 -57c-1 -13 -15 -20 -23 -20c-16 0 -25 14 -36 30c-11 15 -24 29 -48 29z" />
    <glyph glyph-name="D" unicode="D" horiz-adv-x="487" 
d="M213 608l107 12c76 0 140 -36 185 -91c44 -56 70 -129 70 -204c0 -51 -13 -104 -40 -148c-43 -72 -98 -115 -166 -141c-69 -26 -154 -34 -255 -34c-31 0 -40 15 -40 42c0 24 5 47 16 92c5 23 12 52 21 87c8 35 18 81 30 138c4 20 7 44 9 71c3 55 9 109 25 146
c8 18 21 28 38 30zM369 503c-30 9 -64 14 -103 14c-1 -3 -1 -6 -2 -10s-2 -11 -3 -20c-2 -10 -5 -24 -8 -41c-7 -36 -18 -94 -36 -182c-9 -45 -21 -99 -34 -162l15 -3c6 -1 15 -1 28 -1c63 0 124 19 171 56s78 93 78 168c0 27 -9 66 -26 102s-44 68 -80 79z" />
    <glyph glyph-name="E" unicode="E" horiz-adv-x="463" 
d="M234 431h-85l-31 -152h313c15 0 12 -20 2 -28c-5 -4 -11 -6 -16 -6h-306c-6 -39 -12 -74 -17 -103c-5 -30 -9 -60 -12 -91h309c11 0 15 -8 15 -17c-3 -18 -11 -27 -24 -27h-328c-9 0 -14 4 -16 12c3 21 5 42 8 63c4 41 9 86 17 135c7 49 24 128 34 173c5 23 9 40 13 51
c3 11 7 19 10 22s7 5 12 6c59 9 106 9 153 9c40 0 77 -1 111 -2s69 -2 105 -2c15 0 31 1 31 -14c-3 -12 -13 -20 -24 -20c-135 -7 -218 -9 -274 -9z" />
    <glyph glyph-name="Eacute" unicode="&#xc9;" horiz-adv-x="463" 
d="M234 431h-85l-31 -152h313c15 0 12 -20 2 -28c-5 -4 -11 -6 -16 -6h-306c-6 -39 -12 -74 -17 -103c-5 -30 -9 -60 -12 -91h309c11 0 15 -8 15 -17c-3 -18 -11 -27 -24 -27h-328c-9 0 -14 4 -16 12c3 21 5 42 8 63c4 41 9 86 17 135c7 49 24 128 34 173c5 23 9 40 13 51
c3 11 7 19 10 22s7 5 12 6c59 9 106 9 153 9c40 0 77 -1 111 -2s69 -2 105 -2c15 0 31 1 31 -14c-3 -12 -13 -20 -24 -20c-135 -7 -218 -9 -274 -9z" />
    <glyph glyph-name="Ecircumflex" unicode="&#xca;" horiz-adv-x="463" 
d="M234 431h-85l-31 -152h313c15 0 12 -20 2 -28c-5 -4 -11 -6 -16 -6h-306c-6 -39 -12 -74 -17 -103c-5 -30 -9 -60 -12 -91h309c11 0 15 -8 15 -17c-3 -18 -11 -27 -24 -27h-328c-9 0 -14 4 -16 12c3 21 5 42 8 63c4 41 9 86 17 135c7 49 24 128 34 173c5 23 9 40 13 51
c3 11 7 19 10 22s7 5 12 6c59 9 106 9 153 9c40 0 77 -1 111 -2s69 -2 105 -2c15 0 31 1 31 -14c-3 -12 -13 -20 -24 -20c-135 -7 -218 -9 -274 -9z" />
    <glyph glyph-name="Edieresis" unicode="&#xcb;" horiz-adv-x="463" 
d="M234 431h-85l-31 -152h313c15 0 12 -20 2 -28c-5 -4 -11 -6 -16 -6h-306c-6 -39 -12 -74 -17 -103c-5 -30 -9 -60 -12 -91h309c11 0 15 -8 15 -17c-3 -18 -11 -27 -24 -27h-328c-9 0 -14 4 -16 12c3 21 5 42 8 63c4 41 9 86 17 135c7 49 24 128 34 173c5 23 9 40 13 51
c3 11 7 19 10 22s7 5 12 6c59 9 106 9 153 9c40 0 77 -1 111 -2s69 -2 105 -2c15 0 31 1 31 -14c-3 -12 -13 -20 -24 -20c-135 -7 -218 -9 -274 -9z" />
    <glyph glyph-name="Egrave" unicode="&#xc8;" horiz-adv-x="463" 
d="M234 431h-85l-31 -152h313c15 0 12 -20 2 -28c-5 -4 -11 -6 -16 -6h-306c-6 -39 -12 -74 -17 -103c-5 -30 -9 -60 -12 -91h309c11 0 15 -8 15 -17c-3 -18 -11 -27 -24 -27h-328c-9 0 -14 4 -16 12c3 21 5 42 8 63c4 41 9 86 17 135c7 49 24 128 34 173c5 23 9 40 13 51
c3 11 7 19 10 22s7 5 12 6c59 9 106 9 153 9c40 0 77 -1 111 -2s69 -2 105 -2c15 0 31 1 31 -14c-3 -12 -13 -20 -24 -20c-135 -7 -218 -9 -274 -9z" />
    <glyph glyph-name="F" unicode="F" horiz-adv-x="422" 
d="M184 548l-44 -194l218 9h2c6 0 10 -3 11 -10c0 -19 -12 -24 -23 -25l-56 -3c-35 -3 -87 -4 -156 -4c-7 -53 -22 -129 -35 -193c-3 -16 -5 -32 -6 -47c-1 -31 -2 -55 -8 -70c-3 -7 -9 -11 -18 -11c-12 0 -13 8 -13 21c0 81 11 167 27 252c8 43 17 85 26 127l27 122
c7 31 14 57 33 58l286 12c4 0 14 0 14 -13c-4 -21 -12 -23 -29 -23h-85c-45 0 -78 -1 -111 -3c-17 -1 -37 -3 -60 -5z" />
    <glyph glyph-name="G" unicode="G" horiz-adv-x="740" 
d="M514 83l26 139c0 36 -25 45 -66 45h-25l8 39h299l-8 -39c-52 -4 -71 -22 -80 -67l-27 -128c-92 -35 -174 -54 -263 -54c-93 0 -162 25 -208 66s-70 98 -70 165c0 113 54 204 131 268c76 63 176 98 267 98c68 0 135 -9 196 -32l41 11h16l-35 -168h-37
c-15 102 -69 153 -160 153c-80 0 -150 -39 -198 -99c-49 -61 -78 -144 -78 -229c0 -117 64 -189 172 -189c33 0 66 6 99 21z" />
    <glyph glyph-name="H" unicode="H" horiz-adv-x="663" 
d="M363 602l-3 -14h-48l-54 -258h277l54 258h-49l3 14h192l-3 -14h-47l-118 -568h47l-3 -14h-192l3 14h49l61 297h-277l-61 -297h48l-3 -14h-192l3 14h49l118 568h-49l3 14h192z" />
    <glyph glyph-name="I" unicode="I" horiz-adv-x="366" 
d="M440 556c-15 -21 -39 -23 -67 -23h-65c-1 -35 -6 -80 -11 -119c-12 -104 -21 -168 -28 -212c-8 -44 -14 -67 -21 -88c-3 -11 -7 -22 -11 -33c-4 -12 -8 -27 -13 -46h31c12 0 27 0 39 -2c11 -2 19 -7 19 -15c-3 -12 -11 -18 -19 -18h-71l-64 5l-50 3c-32 0 -57 2 -70 7
s-10 20 -2 28c3 3 7 5 12 5c48 0 103 -4 139 -9c8 19 17 45 25 73c8 27 16 55 20 79c3 17 6 39 11 66c9 55 18 119 25 187c3 34 5 67 5 98c-9 5 -42 6 -71 7c-15 1 -28 2 -39 5c-12 2 -18 6 -18 13c3 11 11 19 20 19c28 0 53 -4 78 -8s53 -8 86 -8h97c8 0 13 -7 13 -14z" />
    <glyph glyph-name="Iacute" unicode="&#xcd;" horiz-adv-x="366" 
d="M440 556c-15 -21 -39 -23 -67 -23h-65c-1 -35 -6 -80 -11 -119c-12 -104 -21 -168 -28 -212c-8 -44 -14 -67 -21 -88c-3 -11 -7 -22 -11 -33c-4 -12 -8 -27 -13 -46h31c12 0 27 0 39 -2c11 -2 19 -7 19 -15c-3 -12 -11 -18 -19 -18h-71l-64 5l-50 3c-32 0 -57 2 -70 7
s-10 20 -2 28c3 3 7 5 12 5c48 0 103 -4 139 -9c8 19 17 45 25 73c8 27 16 55 20 79c3 17 6 39 11 66c9 55 18 119 25 187c3 34 5 67 5 98c-9 5 -42 6 -71 7c-15 1 -28 2 -39 5c-12 2 -18 6 -18 13c3 11 11 19 20 19c28 0 53 -4 78 -8s53 -8 86 -8h97c8 0 13 -7 13 -14z" />
    <glyph glyph-name="Icircumflex" unicode="&#xce;" horiz-adv-x="366" 
d="M440 556c-15 -21 -39 -23 -67 -23h-65c-1 -35 -6 -80 -11 -119c-12 -104 -21 -168 -28 -212c-8 -44 -14 -67 -21 -88c-3 -11 -7 -22 -11 -33c-4 -12 -8 -27 -13 -46h31c12 0 27 0 39 -2c11 -2 19 -7 19 -15c-3 -12 -11 -18 -19 -18h-71l-64 5l-50 3c-32 0 -57 2 -70 7
s-10 20 -2 28c3 3 7 5 12 5c48 0 103 -4 139 -9c8 19 17 45 25 73c8 27 16 55 20 79c3 17 6 39 11 66c9 55 18 119 25 187c3 34 5 67 5 98c-9 5 -42 6 -71 7c-15 1 -28 2 -39 5c-12 2 -18 6 -18 13c3 11 11 19 20 19c28 0 53 -4 78 -8s53 -8 86 -8h97c8 0 13 -7 13 -14z" />
    <glyph glyph-name="Idieresis" unicode="&#xcf;" horiz-adv-x="366" 
d="M440 556c-15 -21 -39 -23 -67 -23h-65c-1 -35 -6 -80 -11 -119c-12 -104 -21 -168 -28 -212c-8 -44 -14 -67 -21 -88c-3 -11 -7 -22 -11 -33c-4 -12 -8 -27 -13 -46h31c12 0 27 0 39 -2c11 -2 19 -7 19 -15c-3 -12 -11 -18 -19 -18h-71l-64 5l-50 3c-32 0 -57 2 -70 7
s-10 20 -2 28c3 3 7 5 12 5c48 0 103 -4 139 -9c8 19 17 45 25 73c8 27 16 55 20 79c3 17 6 39 11 66c9 55 18 119 25 187c3 34 5 67 5 98c-9 5 -42 6 -71 7c-15 1 -28 2 -39 5c-12 2 -18 6 -18 13c3 11 11 19 20 19c28 0 53 -4 78 -8s53 -8 86 -8h97c8 0 13 -7 13 -14z" />
    <glyph glyph-name="Igrave" unicode="&#xcc;" horiz-adv-x="366" 
d="M440 556c-15 -21 -39 -23 -67 -23h-65c-1 -35 -6 -80 -11 -119c-12 -104 -21 -168 -28 -212c-8 -44 -14 -67 -21 -88c-3 -11 -7 -22 -11 -33c-4 -12 -8 -27 -13 -46h31c12 0 27 0 39 -2c11 -2 19 -7 19 -15c-3 -12 -11 -18 -19 -18h-71l-64 5l-50 3c-32 0 -57 2 -70 7
s-10 20 -2 28c3 3 7 5 12 5c48 0 103 -4 139 -9c8 19 17 45 25 73c8 27 16 55 20 79c3 17 6 39 11 66c9 55 18 119 25 187c3 34 5 67 5 98c-9 5 -42 6 -71 7c-15 1 -28 2 -39 5c-12 2 -18 6 -18 13c3 11 11 19 20 19c28 0 53 -4 78 -8s53 -8 86 -8h97c8 0 13 -7 13 -14z" />
    <glyph glyph-name="J" unicode="J" horiz-adv-x="430" 
d="M385 595c23 0 42 -8 42 -36c0 -43 -30 -67 -63 -67c-24 0 -43 10 -43 37c0 48 33 66 64 66zM394 454l-67 -320c-8 -36 -26 -67 -51 -88s-58 -34 -93 -34c-27 0 -48 17 -48 40c5 27 24 45 44 45c16 0 27 -11 27 -26c0 -23 -22 -41 -34 -41l16 -7c21 0 35 12 40 35l80 388
h-18l2 8h102z" />
    <glyph glyph-name="K" unicode="K" horiz-adv-x="560" 
d="M268 263c-25 -11 -49 -23 -72 -36s-47 -25 -70 -38c-15 -54 -24 -95 -28 -124c-5 -29 -8 -51 -9 -64c-4 -28 -4 -28 -24 -28c-9 0 -14 6 -14 19c15 99 29 165 46 232c8 33 17 68 27 105c10 36 22 79 35 128c3 13 10 20 21 20c8 0 16 -6 16 -14l-60 -232l132 68
c23 22 44 42 63 61c37 36 71 66 107 89c17 11 37 21 59 28c14 5 29 11 45 18c16 6 31 9 45 9c7 0 11 -8 11 -15c-3 -12 -10 -19 -21 -22c-72 -16 -122 -44 -163 -77c-21 -17 -40 -34 -58 -53s-37 -37 -58 -56c51 -71 85 -131 106 -175c10 -22 17 -40 22 -53
c5 -14 7 -23 7 -27c-2 -7 -7 -11 -16 -11c-7 0 -14 7 -22 21s-17 33 -28 56c-22 46 -54 108 -99 171z" />
    <glyph glyph-name="L" unicode="L" horiz-adv-x="429" 
d="M223 603c16 0 30 -2 30 -25c-1 -71 -29 -158 -58 -246c-29 -89 -61 -179 -70 -254c2 -1 9 -2 22 -3c25 -1 62 -3 101 -3c19 -1 36 -1 50 -1h10c3 0 10 1 21 2c1 3 2 7 3 14c3 12 7 29 15 46c7 17 17 39 33 43c8 2 17 3 26 3c17 0 23 -14 23 -29c0 -12 -7 -49 -21 -83
s-33 -65 -57 -65c-5 0 -12 0 -20 1c-8 0 -20 0 -36 1c-32 0 -82 1 -165 1c-35 0 -58 2 -69 7s-17 12 -17 22c0 49 25 135 54 233s64 207 84 304c3 15 22 32 41 32z" />
    <glyph glyph-name="M" unicode="M" horiz-adv-x="675" 
d="M565 -1l10 514c-7 -1 -17 -11 -28 -28c-23 -36 -50 -87 -79 -145s-57 -111 -81 -143c-12 -17 -22 -25 -30 -25c-7 0 -14 10 -23 30c-17 39 -39 102 -63 175c-12 37 -24 72 -37 105l-124 -447c-3 -15 -12 -21 -23 -21c-9 0 -13 5 -13 14c0 0 0 1 1 3c0 2 1 8 4 18l13 47
c5 21 13 50 24 89s24 88 40 147l60 218c4 12 14 22 26 23c4 0 9 -5 16 -15c6 -11 14 -29 23 -55c19 -52 45 -136 81 -267c31 54 60 103 85 148c50 88 88 152 117 186c15 17 27 25 38 25c7 0 13 -13 16 -40s5 -61 5 -102c0 -79 -5 -176 -9 -260c-3 -43 -5 -80 -7 -112
c-2 -33 -3 -55 -3 -67c-2 -13 -5 -22 -10 -26c-5 -5 -10 -7 -13 -7c-11 0 -16 6 -16 18z" />
    <glyph glyph-name="N" unicode="N" horiz-adv-x="837" 
d="M279 459l-76 -371c0 -31 21 -46 63 -46h10l-8 -40h-232l8 40h10c32 0 53 8 66 21c12 12 18 28 22 47l88 421c-13 13 -32 19 -52 19h-14l8 40h190l299 -392l43 208c5 22 8 39 11 52l5 29c1 6 1 10 2 12v4c0 36 -25 47 -61 47h-10l8 40h231l-8 -40h-9
c-56 0 -79 -21 -88 -68l-100 -482h-55z" />
    <glyph glyph-name="Ntilde" unicode="&#xd1;" horiz-adv-x="837" 
d="M279 459l-76 -371c0 -31 21 -46 63 -46h10l-8 -40h-232l8 40h10c32 0 53 8 66 21c12 12 18 28 22 47l88 421c-13 13 -32 19 -52 19h-14l8 40h190l299 -392l43 208c5 22 8 39 11 52l5 29c1 6 1 10 2 12v4c0 36 -25 47 -61 47h-10l8 40h231l-8 -40h-9
c-56 0 -79 -21 -88 -68l-100 -482h-55z" />
    <glyph glyph-name="O" unicode="O" horiz-adv-x="598" 
d="M413 605c68 0 119 -25 153 -66s50 -98 50 -159c0 -115 -42 -209 -105 -276s-144 -105 -223 -105c-57 0 -105 22 -137 61c-33 39 -52 94 -52 159c0 93 32 188 88 261c56 72 134 121 226 125z" />
    <glyph glyph-name="Oacute" unicode="&#xd3;" horiz-adv-x="598" 
d="M413 605c68 0 119 -25 153 -66s50 -98 50 -159c0 -115 -42 -209 -105 -276s-144 -105 -223 -105c-57 0 -105 22 -137 61c-33 39 -52 94 -52 159c0 93 32 188 88 261c56 72 134 121 226 125z" />
    <glyph glyph-name="Ocircumflex" unicode="&#xd4;" horiz-adv-x="598" 
d="M413 605c68 0 119 -25 153 -66s50 -98 50 -159c0 -115 -42 -209 -105 -276s-144 -105 -223 -105c-57 0 -105 22 -137 61c-33 39 -52 94 -52 159c0 93 32 188 88 261c56 72 134 121 226 125z" />
    <glyph glyph-name="Odieresis" unicode="&#xd6;" horiz-adv-x="598" 
d="M413 605c68 0 119 -25 153 -66s50 -98 50 -159c0 -115 -42 -209 -105 -276s-144 -105 -223 -105c-57 0 -105 22 -137 61c-33 39 -52 94 -52 159c0 93 32 188 88 261c56 72 134 121 226 125z" />
    <glyph glyph-name="Ograve" unicode="&#xd2;" horiz-adv-x="598" 
d="M413 605c68 0 119 -25 153 -66s50 -98 50 -159c0 -115 -42 -209 -105 -276s-144 -105 -223 -105c-57 0 -105 22 -137 61c-33 39 -52 94 -52 159c0 93 32 188 88 261c56 72 134 121 226 125z" />
    <glyph glyph-name="Otilde" unicode="&#xd5;" horiz-adv-x="598" 
d="M413 605c68 0 119 -25 153 -66s50 -98 50 -159c0 -115 -42 -209 -105 -276s-144 -105 -223 -105c-57 0 -105 22 -137 61c-33 39 -52 94 -52 159c0 93 32 188 88 261c56 72 134 121 226 125z" />
    <glyph glyph-name="P" unicode="P" horiz-adv-x="499" 
d="M37 8l57 271c20 97 42 162 74 200c31 38 71 52 131 52c28 0 73 -9 111 -33s68 -61 68 -117c0 -60 -35 -101 -80 -125c-45 -25 -99 -36 -139 -36c-41 0 -85 6 -134 17c-11 -45 -30 -129 -49 -222c-3 -11 -12 -17 -23 -17s-16 3 -16 10zM151 348l-18 -71
c9 -7 31 -12 56 -15c25 -4 55 -6 79 -6c39 0 82 10 115 30c32 20 56 49 56 88c0 35 -17 64 -44 85s-66 33 -107 33c-44 0 -73 -15 -94 -41s-34 -63 -43 -103z" />
    <glyph glyph-name="Q" unicode="Q" horiz-adv-x="595" 
d="M622 388c-31 -87 -57 -146 -96 -195c-40 -49 -91 -90 -171 -141c-3 -7 -5 -14 -5 -22c0 -24 21 -39 52 -39c17 0 35 11 52 21c16 10 31 20 44 20c9 0 13 -4 13 -11c-4 -23 -24 -38 -48 -48s-52 -16 -71 -16c-31 0 -48 9 -58 22s-14 30 -15 46c-49 -23 -105 -45 -152 -45
c-39 0 -65 14 -81 36c-17 22 -24 53 -24 92c0 69 14 151 42 228s72 152 129 207s131 90 219 90c64 0 110 -19 140 -50s43 -73 43 -118c0 -26 -4 -52 -13 -77zM356 88l51 37c44 25 93 85 130 150c36 65 63 137 63 186c0 29 -11 64 -36 92c-25 27 -64 47 -120 47
c-43 0 -86 -13 -127 -38c-64 -33 -119 -108 -158 -194c-40 -86 -62 -183 -62 -256c0 -55 20 -100 77 -100c41 0 99 24 144 55c-5 0 -14 9 -21 20s-13 24 -13 35s6 16 17 16c31 0 42 -29 55 -50z" />
    <glyph glyph-name="R" unicode="R" horiz-adv-x="546" 
d="M154 422c11 53 35 81 71 96s82 17 134 17c29 0 57 -4 78 -14s35 -27 35 -52c0 -48 -19 -80 -47 -100c-28 -21 -63 -31 -97 -36c-17 -3 -33 -4 -48 -5s-26 -1 -35 -2c24 -27 27 -72 27 -152c0 -33 1 -69 9 -96s23 -46 50 -46c60 0 96 33 104 72c3 13 10 23 18 23
c9 0 14 -5 14 -16c0 -33 -23 -61 -51 -81c-29 -20 -65 -31 -93 -31c-51 0 -68 35 -75 83c-3 23 -4 49 -3 77c2 55 -2 104 -22 136c-10 15 -27 23 -51 23c-7 -50 -13 -99 -18 -147c-6 -49 -14 -98 -25 -149c-3 -9 -8 -17 -19 -17c-5 0 -14 3 -14 10c9 45 16 94 25 158l14 109
c5 40 11 87 19 140z" />
    <glyph glyph-name="S" unicode="S" horiz-adv-x="520" 
d="M290 543c20 7 55 11 91 11c28 0 55 -3 76 -12s35 -24 35 -45c0 -7 -2 -19 -6 -28c-5 -9 -12 -17 -23 -17c-17 0 -13 17 -9 24l3 8c0 13 -12 23 -28 30c-17 7 -39 10 -59 10c-12 0 -60 -5 -106 -24s-89 -52 -89 -108c0 -20 14 -35 38 -47c23 -13 55 -22 92 -33
c96 -28 139 -72 139 -123c0 -25 -12 -49 -23 -73c-20 -49 -50 -79 -89 -95c-39 -17 -85 -22 -137 -22c-24 0 -53 1 -76 9c-24 8 -42 23 -42 51c0 32 9 52 23 64s31 16 51 16c8 0 15 -6 15 -13c-1 -11 -9 -20 -18 -20c-32 -8 -36 -26 -36 -43c0 -20 17 -30 37 -30
c5 0 17 0 34 1h48c47 0 92 21 125 50c32 28 54 65 54 97c0 35 -30 73 -106 96c-11 3 -26 8 -45 13c-37 10 -74 25 -99 50c-13 12 -19 27 -19 46c0 33 17 67 45 95c27 28 64 50 104 62z" />
    <glyph glyph-name="Scaron" unicode="&#x160;" horiz-adv-x="520" 
d="M290 543c20 7 55 11 91 11c28 0 55 -3 76 -12s35 -24 35 -45c0 -7 -2 -19 -6 -28c-5 -9 -12 -17 -23 -17c-17 0 -13 17 -9 24l3 8c0 13 -12 23 -28 30c-17 7 -39 10 -59 10c-12 0 -60 -5 -106 -24s-89 -52 -89 -108c0 -20 14 -35 38 -47c23 -13 55 -22 92 -33
c96 -28 139 -72 139 -123c0 -25 -12 -49 -23 -73c-20 -49 -50 -79 -89 -95c-39 -17 -85 -22 -137 -22c-24 0 -53 1 -76 9c-24 8 -42 23 -42 51c0 32 9 52 23 64s31 16 51 16c8 0 15 -6 15 -13c-1 -11 -9 -20 -18 -20c-32 -8 -36 -26 -36 -43c0 -20 17 -30 37 -30
c5 0 17 0 34 1h48c47 0 92 21 125 50c32 28 54 65 54 97c0 35 -30 73 -106 96c-11 3 -26 8 -45 13c-37 10 -74 25 -99 50c-13 12 -19 27 -19 46c0 33 17 67 45 95c27 28 64 50 104 62z" />
    <glyph glyph-name="T" unicode="T" horiz-adv-x="624" 
d="M647 598c11 0 17 -5 17 -16l-20 -162c-1 -7 -5 -10 -11 -10c-1 0 -3 1 -5 2s-3 5 -3 10c0 105 -35 160 -82 160h-41l-117 -562h41l-3 -14h-222l3 14h40l117 562h-37c-63 0 -115 -51 -155 -152c-1 -7 -5 -11 -12 -11c-3 0 -5 3 -5 8l42 150c9 19 14 21 30 21h423z" />
    <glyph glyph-name="U" unicode="U" horiz-adv-x="515" 
d="M476 31c9 0 12 -5 12 -12c-3 -13 -16 -23 -31 -28c-16 -5 -34 -8 -46 -8c-11 0 -29 2 -48 8c-20 6 -39 14 -51 29c-9 -4 -33 -11 -59 -16s-56 -10 -77 -10c-35 0 -57 21 -70 53c-13 31 -17 72 -17 112c0 44 5 86 10 111c7 32 15 69 28 115c12 46 28 101 51 172
c5 15 13 22 22 22s14 -4 14 -12c0 -4 -3 -14 -8 -29c-12 -32 -29 -84 -49 -157c-11 -37 -21 -78 -30 -124c-1 -2 -2 -12 -4 -30s-3 -39 -3 -62c0 -32 4 -66 14 -93s27 -45 55 -45c12 0 34 4 58 10s50 15 73 24c43 84 68 166 96 258c3 9 7 23 12 42c11 37 25 88 38 145
c7 29 13 58 19 87c0 1 1 5 4 10s9 8 18 8s14 -5 14 -16v-5c-1 -2 -1 -5 -2 -10l-4 -20c-2 -9 -4 -20 -7 -35c-16 -76 -40 -160 -67 -242c-28 -82 -59 -165 -90 -237c0 -1 2 -4 6 -7c8 -7 21 -13 37 -17c8 -3 16 -4 23 -4c9 0 22 3 34 7c11 3 21 6 25 6z" />
    <glyph glyph-name="Uacute" unicode="&#xda;" horiz-adv-x="515" 
d="M476 31c9 0 12 -5 12 -12c-3 -13 -16 -23 -31 -28c-16 -5 -34 -8 -46 -8c-11 0 -29 2 -48 8c-20 6 -39 14 -51 29c-9 -4 -33 -11 -59 -16s-56 -10 -77 -10c-35 0 -57 21 -70 53c-13 31 -17 72 -17 112c0 44 5 86 10 111c7 32 15 69 28 115c12 46 28 101 51 172
c5 15 13 22 22 22s14 -4 14 -12c0 -4 -3 -14 -8 -29c-12 -32 -29 -84 -49 -157c-11 -37 -21 -78 -30 -124c-1 -2 -2 -12 -4 -30s-3 -39 -3 -62c0 -32 4 -66 14 -93s27 -45 55 -45c12 0 34 4 58 10s50 15 73 24c43 84 68 166 96 258c3 9 7 23 12 42c11 37 25 88 38 145
c7 29 13 58 19 87c0 1 1 5 4 10s9 8 18 8s14 -5 14 -16v-5c-1 -2 -1 -5 -2 -10l-4 -20c-2 -9 -4 -20 -7 -35c-16 -76 -40 -160 -67 -242c-28 -82 -59 -165 -90 -237c0 -1 2 -4 6 -7c8 -7 21 -13 37 -17c8 -3 16 -4 23 -4c9 0 22 3 34 7c11 3 21 6 25 6z" />
    <glyph glyph-name="Ucircumflex" unicode="&#xdb;" horiz-adv-x="515" 
d="M476 31c9 0 12 -5 12 -12c-3 -13 -16 -23 -31 -28c-16 -5 -34 -8 -46 -8c-11 0 -29 2 -48 8c-20 6 -39 14 -51 29c-9 -4 -33 -11 -59 -16s-56 -10 -77 -10c-35 0 -57 21 -70 53c-13 31 -17 72 -17 112c0 44 5 86 10 111c7 32 15 69 28 115c12 46 28 101 51 172
c5 15 13 22 22 22s14 -4 14 -12c0 -4 -3 -14 -8 -29c-12 -32 -29 -84 -49 -157c-11 -37 -21 -78 -30 -124c-1 -2 -2 -12 -4 -30s-3 -39 -3 -62c0 -32 4 -66 14 -93s27 -45 55 -45c12 0 34 4 58 10s50 15 73 24c43 84 68 166 96 258c3 9 7 23 12 42c11 37 25 88 38 145
c7 29 13 58 19 87c0 1 1 5 4 10s9 8 18 8s14 -5 14 -16v-5c-1 -2 -1 -5 -2 -10l-4 -20c-2 -9 -4 -20 -7 -35c-16 -76 -40 -160 -67 -242c-28 -82 -59 -165 -90 -237c0 -1 2 -4 6 -7c8 -7 21 -13 37 -17c8 -3 16 -4 23 -4c9 0 22 3 34 7c11 3 21 6 25 6z" />
    <glyph glyph-name="Udieresis" unicode="&#xdc;" horiz-adv-x="515" 
d="M476 31c9 0 12 -5 12 -12c-3 -13 -16 -23 -31 -28c-16 -5 -34 -8 -46 -8c-11 0 -29 2 -48 8c-20 6 -39 14 -51 29c-9 -4 -33 -11 -59 -16s-56 -10 -77 -10c-35 0 -57 21 -70 53c-13 31 -17 72 -17 112c0 44 5 86 10 111c7 32 15 69 28 115c12 46 28 101 51 172
c5 15 13 22 22 22s14 -4 14 -12c0 -4 -3 -14 -8 -29c-12 -32 -29 -84 -49 -157c-11 -37 -21 -78 -30 -124c-1 -2 -2 -12 -4 -30s-3 -39 -3 -62c0 -32 4 -66 14 -93s27 -45 55 -45c12 0 34 4 58 10s50 15 73 24c43 84 68 166 96 258c3 9 7 23 12 42c11 37 25 88 38 145
c7 29 13 58 19 87c0 1 1 5 4 10s9 8 18 8s14 -5 14 -16v-5c-1 -2 -1 -5 -2 -10l-4 -20c-2 -9 -4 -20 -7 -35c-16 -76 -40 -160 -67 -242c-28 -82 -59 -165 -90 -237c0 -1 2 -4 6 -7c8 -7 21 -13 37 -17c8 -3 16 -4 23 -4c9 0 22 3 34 7c11 3 21 6 25 6z" />
    <glyph glyph-name="Ugrave" unicode="&#xd9;" horiz-adv-x="515" 
d="M476 31c9 0 12 -5 12 -12c-3 -13 -16 -23 -31 -28c-16 -5 -34 -8 -46 -8c-11 0 -29 2 -48 8c-20 6 -39 14 -51 29c-9 -4 -33 -11 -59 -16s-56 -10 -77 -10c-35 0 -57 21 -70 53c-13 31 -17 72 -17 112c0 44 5 86 10 111c7 32 15 69 28 115c12 46 28 101 51 172
c5 15 13 22 22 22s14 -4 14 -12c0 -4 -3 -14 -8 -29c-12 -32 -29 -84 -49 -157c-11 -37 -21 -78 -30 -124c-1 -2 -2 -12 -4 -30s-3 -39 -3 -62c0 -32 4 -66 14 -93s27 -45 55 -45c12 0 34 4 58 10s50 15 73 24c43 84 68 166 96 258c3 9 7 23 12 42c11 37 25 88 38 145
c7 29 13 58 19 87c0 1 1 5 4 10s9 8 18 8s14 -5 14 -16v-5c-1 -2 -1 -5 -2 -10l-4 -20c-2 -9 -4 -20 -7 -35c-16 -76 -40 -160 -67 -242c-28 -82 -59 -165 -90 -237c0 -1 2 -4 6 -7c8 -7 21 -13 37 -17c8 -3 16 -4 23 -4c9 0 22 3 34 7c11 3 21 6 25 6z" />
    <glyph glyph-name="V" unicode="V" horiz-adv-x="568" 
d="M255 25l-69 515c0 27 8 55 39 55c19 0 26 -3 31 -26c2 -11 4 -28 5 -49c1 -22 4 -52 7 -89c1 -24 6 -44 12 -74s13 -70 22 -131l6 -41c1 -13 4 -27 7 -40c9 17 16 33 23 46c13 27 25 51 37 78c11 27 25 61 42 106c8 23 18 50 30 81l12 35c10 31 25 63 43 86
c9 11 18 17 29 17c20 0 28 -14 28 -29c0 -13 -8 -38 -19 -66l-39 -91c-19 -45 -34 -83 -46 -112c-24 -60 -41 -103 -60 -139c-9 -19 -20 -39 -33 -61c-4 -6 -8 -14 -13 -25c-10 -21 -24 -43 -40 -58c-8 -7 -17 -11 -26 -11c-15 0 -25 8 -28 23z" />
    <glyph glyph-name="W" unicode="W" horiz-adv-x="860" 
d="M810 471c15 0 16 -7 2 -35s-39 -74 -70 -130c-32 -57 -67 -120 -103 -183c-19 -32 -36 -62 -52 -90c-3 -5 -6 -14 -12 -22s-13 -14 -22 -14c-7 0 -15 9 -24 28c-17 36 -36 92 -53 153c-9 30 -17 57 -25 81c-5 -10 -10 -23 -16 -40c-13 -33 -30 -73 -46 -112
c-17 -39 -33 -71 -48 -91c-8 -10 -15 -15 -21 -15c-5 0 -11 6 -18 19c-15 25 -32 69 -51 125c-20 55 -39 115 -55 174c-17 59 -31 109 -38 145c-4 18 -6 30 -6 37c3 15 13 24 22 24c8 0 12 -5 13 -12c5 -40 21 -102 41 -166c19 -65 41 -132 61 -186c9 -27 17 -50 24 -68
c7 -19 11 -30 13 -34c37 76 80 171 115 259c-2 12 -5 25 -10 38c-10 26 -20 51 -27 75c-4 11 -6 22 -6 32c2 14 9 21 20 21c12 0 20 -21 27 -46c3 -13 7 -26 10 -39c3 -14 6 -26 9 -35c3 3 7 13 13 29c12 32 28 71 46 100c9 14 17 21 25 21c7 0 11 -8 11 -15
c-4 -19 -16 -43 -31 -74c-7 -15 -15 -32 -24 -49s-17 -35 -25 -54c9 -41 25 -94 41 -142c16 -49 32 -94 44 -119l222 398c3 7 11 12 24 12z" />
    <glyph glyph-name="X" unicode="X" horiz-adv-x="806" 
d="M27 0l8 41c45 0 94 28 158 80l195 163l-123 200c-33 55 -63 67 -106 68h-12l9 41h358l-9 -41c-41 0 -76 -3 -83 -36c0 -2 1 -5 2 -8c1 -4 5 -11 10 -20s12 -23 23 -40c10 -18 24 -42 42 -72c37 31 67 56 88 75c21 18 36 32 47 42c10 10 16 17 19 21s4 8 5 11
c0 18 -21 27 -62 27l11 41h250l-9 -41c-59 -4 -107 -39 -162 -84l-161 -136l124 -206c32 -55 61 -84 117 -85l-8 -41h-324l8 41h9c32 0 59 7 59 28c0 3 -1 7 -3 13c-3 5 -7 14 -14 26c-14 24 -38 64 -79 132c-45 -38 -80 -68 -105 -90l-56 -50c-13 -11 -20 -19 -23 -22
c-3 -4 -4 -7 -5 -10c0 -18 22 -27 65 -27l-8 -41h-255z" />
    <glyph glyph-name="Y" unicode="Y" horiz-adv-x="611" 
d="M346 360l176 208c3 3 9 4 12 4c7 0 14 -5 14 -13c-1 -3 -2 -7 -4 -10c-3 -3 -5 -6 -6 -9c-23 -32 -50 -65 -79 -100s-61 -74 -95 -117c-4 -3 -7 -13 -9 -30c-3 -17 -5 -37 -7 -60c-4 -47 -9 -103 -18 -147s-25 -77 -49 -77c-9 0 -14 5 -14 14c3 19 9 39 16 61
c15 43 25 97 33 153c4 27 8 53 11 77c0 3 -2 10 -7 20c-5 9 -12 20 -19 33c-15 24 -31 52 -42 72c-21 40 -47 88 -58 133c3 9 10 17 21 17c7 0 15 -9 24 -26c9 -18 18 -39 29 -63c20 -49 44 -107 71 -140z" />
    <glyph glyph-name="Yacute" unicode="&#xdd;" horiz-adv-x="611" 
d="M346 360l176 208c3 3 9 4 12 4c7 0 14 -5 14 -13c-1 -3 -2 -7 -4 -10c-3 -3 -5 -6 -6 -9c-23 -32 -50 -65 -79 -100s-61 -74 -95 -117c-4 -3 -7 -13 -9 -30c-3 -17 -5 -37 -7 -60c-4 -47 -9 -103 -18 -147s-25 -77 -49 -77c-9 0 -14 5 -14 14c3 19 9 39 16 61
c15 43 25 97 33 153c4 27 8 53 11 77c0 3 -2 10 -7 20c-5 9 -12 20 -19 33c-15 24 -31 52 -42 72c-21 40 -47 88 -58 133c3 9 10 17 21 17c7 0 15 -9 24 -26c9 -18 18 -39 29 -63c20 -49 44 -107 71 -140z" />
    <glyph glyph-name="Ydieresis" unicode="&#x178;" horiz-adv-x="611" 
d="M346 360l176 208c3 3 9 4 12 4c7 0 14 -5 14 -13c-1 -3 -2 -7 -4 -10c-3 -3 -5 -6 -6 -9c-23 -32 -50 -65 -79 -100s-61 -74 -95 -117c-4 -3 -7 -13 -9 -30c-3 -17 -5 -37 -7 -60c-4 -47 -9 -103 -18 -147s-25 -77 -49 -77c-9 0 -14 5 -14 14c3 19 9 39 16 61
c15 43 25 97 33 153c4 27 8 53 11 77c0 3 -2 10 -7 20c-5 9 -12 20 -19 33c-15 24 -31 52 -42 72c-21 40 -47 88 -58 133c3 9 10 17 21 17c7 0 15 -9 24 -26c9 -18 18 -39 29 -63c20 -49 44 -107 71 -140z" />
    <glyph glyph-name="Z" unicode="Z" horiz-adv-x="738" 
d="M266 498c1 9 1 15 9 19c4 1 11 2 21 3c9 1 24 1 44 1c10 0 22 0 35 -1s27 -1 42 -1c15 -1 29 -1 43 -2s27 -1 38 -1c5 0 13 1 24 2l80 6c14 1 26 1 37 1c16 0 47 0 75 -3c14 -2 26 -5 37 -8c10 -3 15 -8 15 -14c-31 -37 -92 -88 -167 -143c-75 -56 -163 -115 -246 -169
c-41 -27 -80 -53 -117 -76s-69 -43 -95 -60c60 -15 122 -15 183 -15c52 0 104 2 156 7c52 4 105 6 160 6c9 0 14 -5 14 -14c-3 -13 -12 -21 -20 -21c-52 -2 -104 -4 -157 -7s-107 -5 -160 -5c-64 0 -125 1 -169 5c-23 2 -41 5 -54 8s-20 7 -20 12c0 9 7 20 22 34
c28 27 73 59 125 92c52 32 100 61 136 82c18 10 30 17 35 21c14 10 34 23 60 39c51 32 113 73 174 118c30 23 57 46 81 70c-32 4 -60 6 -99 6c-10 0 -21 0 -32 -1c-23 -1 -54 -3 -99 -4c-23 -1 -50 -1 -83 -1h-115c-9 0 -13 7 -13 14z" />
    <glyph glyph-name="Zcaron" unicode="&#x17d;" horiz-adv-x="738" 
d="M266 498c1 9 1 15 9 19c4 1 11 2 21 3c9 1 24 1 44 1c10 0 22 0 35 -1s27 -1 42 -1c15 -1 29 -1 43 -2s27 -1 38 -1c5 0 13 1 24 2l80 6c14 1 26 1 37 1c16 0 47 0 75 -3c14 -2 26 -5 37 -8c10 -3 15 -8 15 -14c-31 -37 -92 -88 -167 -143c-75 -56 -163 -115 -246 -169
c-41 -27 -80 -53 -117 -76s-69 -43 -95 -60c60 -15 122 -15 183 -15c52 0 104 2 156 7c52 4 105 6 160 6c9 0 14 -5 14 -14c-3 -13 -12 -21 -20 -21c-52 -2 -104 -4 -157 -7s-107 -5 -160 -5c-64 0 -125 1 -169 5c-23 2 -41 5 -54 8s-20 7 -20 12c0 9 7 20 22 34
c28 27 73 59 125 92c52 32 100 61 136 82c18 10 30 17 35 21c14 10 34 23 60 39c51 32 113 73 174 118c30 23 57 46 81 70c-32 4 -60 6 -99 6c-10 0 -21 0 -32 -1c-23 -1 -54 -3 -99 -4c-23 -1 -50 -1 -83 -1h-115c-9 0 -13 7 -13 14z" />
    <glyph glyph-name="a" unicode="a" horiz-adv-x="456" 
d="M379 343l-11 -80c-3 -21 -4 -40 -4 -57c0 -35 0 -65 -3 -95c-2 -15 -6 -31 -13 -47c0 -8 17 -13 34 -20c16 -7 34 -15 34 -28c-3 -13 -12 -20 -23 -20c-35 0 -52 18 -71 33c-25 -9 -55 -17 -82 -24c-28 -7 -53 -11 -68 -11c-32 0 -62 9 -85 25c-24 15 -38 38 -38 66
c0 59 46 100 104 131s129 49 181 61c5 23 6 38 6 50c0 27 -8 44 -20 55c-13 11 -30 14 -49 14c-43 0 -74 -29 -98 -57c-12 -14 -22 -27 -30 -39s-15 -18 -20 -18c-13 0 -20 7 -20 15c1 40 38 74 78 98c39 24 82 38 98 38c64 0 100 -26 100 -90zM328 240
c-29 0 -68 -10 -104 -26c-4 -2 -13 -6 -28 -12c-30 -13 -64 -34 -90 -64c-13 -15 -20 -33 -20 -53c0 -2 2 -6 6 -12c8 -13 21 -29 41 -40c9 -6 20 -9 32 -9c60 0 97 10 121 26c23 16 33 37 37 60z" />
    <glyph glyph-name="aacute" unicode="&#xe1;" horiz-adv-x="456" 
d="M379 343l-11 -80c-3 -21 -4 -40 -4 -57c0 -35 0 -65 -3 -95c-2 -15 -6 -31 -13 -47c0 -8 17 -13 34 -20c16 -7 34 -15 34 -28c-3 -13 -12 -20 -23 -20c-35 0 -52 18 -71 33c-25 -9 -55 -17 -82 -24c-28 -7 -53 -11 -68 -11c-32 0 -62 9 -85 25c-24 15 -38 38 -38 66
c0 59 46 100 104 131s129 49 181 61c5 23 6 38 6 50c0 27 -8 44 -20 55c-13 11 -30 14 -49 14c-43 0 -74 -29 -98 -57c-12 -14 -22 -27 -30 -39s-15 -18 -20 -18c-13 0 -20 7 -20 15c1 40 38 74 78 98c39 24 82 38 98 38c64 0 100 -26 100 -90zM328 240
c-29 0 -68 -10 -104 -26c-4 -2 -13 -6 -28 -12c-30 -13 -64 -34 -90 -64c-13 -15 -20 -33 -20 -53c0 -2 2 -6 6 -12c8 -13 21 -29 41 -40c9 -6 20 -9 32 -9c60 0 97 10 121 26c23 16 33 37 37 60z" />
    <glyph glyph-name="acircumflex" unicode="&#xe2;" horiz-adv-x="456" 
d="M379 343l-11 -80c-3 -21 -4 -40 -4 -57c0 -35 0 -65 -3 -95c-2 -15 -6 -31 -13 -47c0 -8 17 -13 34 -20c16 -7 34 -15 34 -28c-3 -13 -12 -20 -23 -20c-35 0 -52 18 -71 33c-25 -9 -55 -17 -82 -24c-28 -7 -53 -11 -68 -11c-32 0 -62 9 -85 25c-24 15 -38 38 -38 66
c0 59 46 100 104 131s129 49 181 61c5 23 6 38 6 50c0 27 -8 44 -20 55c-13 11 -30 14 -49 14c-43 0 -74 -29 -98 -57c-12 -14 -22 -27 -30 -39s-15 -18 -20 -18c-13 0 -20 7 -20 15c1 40 38 74 78 98c39 24 82 38 98 38c64 0 100 -26 100 -90zM328 240
c-29 0 -68 -10 -104 -26c-4 -2 -13 -6 -28 -12c-30 -13 -64 -34 -90 -64c-13 -15 -20 -33 -20 -53c0 -2 2 -6 6 -12c8 -13 21 -29 41 -40c9 -6 20 -9 32 -9c60 0 97 10 121 26c23 16 33 37 37 60z" />
    <glyph glyph-name="adieresis" unicode="&#xe4;" horiz-adv-x="456" 
d="M379 343l-11 -80c-3 -21 -4 -40 -4 -57c0 -35 0 -65 -3 -95c-2 -15 -6 -31 -13 -47c0 -8 17 -13 34 -20c16 -7 34 -15 34 -28c-3 -13 -12 -20 -23 -20c-35 0 -52 18 -71 33c-25 -9 -55 -17 -82 -24c-28 -7 -53 -11 -68 -11c-32 0 -62 9 -85 25c-24 15 -38 38 -38 66
c0 59 46 100 104 131s129 49 181 61c5 23 6 38 6 50c0 27 -8 44 -20 55c-13 11 -30 14 -49 14c-43 0 -74 -29 -98 -57c-12 -14 -22 -27 -30 -39s-15 -18 -20 -18c-13 0 -20 7 -20 15c1 40 38 74 78 98c39 24 82 38 98 38c64 0 100 -26 100 -90zM328 240
c-29 0 -68 -10 -104 -26c-4 -2 -13 -6 -28 -12c-30 -13 -64 -34 -90 -64c-13 -15 -20 -33 -20 -53c0 -2 2 -6 6 -12c8 -13 21 -29 41 -40c9 -6 20 -9 32 -9c60 0 97 10 121 26c23 16 33 37 37 60z" />
    <glyph glyph-name="agrave" unicode="&#xe0;" horiz-adv-x="456" 
d="M379 343l-11 -80c-3 -21 -4 -40 -4 -57c0 -35 0 -65 -3 -95c-2 -15 -6 -31 -13 -47c0 -8 17 -13 34 -20c16 -7 34 -15 34 -28c-3 -13 -12 -20 -23 -20c-35 0 -52 18 -71 33c-25 -9 -55 -17 -82 -24c-28 -7 -53 -11 -68 -11c-32 0 -62 9 -85 25c-24 15 -38 38 -38 66
c0 59 46 100 104 131s129 49 181 61c5 23 6 38 6 50c0 27 -8 44 -20 55c-13 11 -30 14 -49 14c-43 0 -74 -29 -98 -57c-12 -14 -22 -27 -30 -39s-15 -18 -20 -18c-13 0 -20 7 -20 15c1 40 38 74 78 98c39 24 82 38 98 38c64 0 100 -26 100 -90zM328 240
c-29 0 -68 -10 -104 -26c-4 -2 -13 -6 -28 -12c-30 -13 -64 -34 -90 -64c-13 -15 -20 -33 -20 -53c0 -2 2 -6 6 -12c8 -13 21 -29 41 -40c9 -6 20 -9 32 -9c60 0 97 10 121 26c23 16 33 37 37 60z" />
    <glyph glyph-name="aring" unicode="&#xe5;" horiz-adv-x="456" 
d="M379 343l-11 -80c-3 -21 -4 -40 -4 -57c0 -35 0 -65 -3 -95c-2 -15 -6 -31 -13 -47c0 -8 17 -13 34 -20c16 -7 34 -15 34 -28c-3 -13 -12 -20 -23 -20c-35 0 -52 18 -71 33c-25 -9 -55 -17 -82 -24c-28 -7 -53 -11 -68 -11c-32 0 -62 9 -85 25c-24 15 -38 38 -38 66
c0 59 46 100 104 131s129 49 181 61c5 23 6 38 6 50c0 27 -8 44 -20 55c-13 11 -30 14 -49 14c-43 0 -74 -29 -98 -57c-12 -14 -22 -27 -30 -39s-15 -18 -20 -18c-13 0 -20 7 -20 15c1 40 38 74 78 98c39 24 82 38 98 38c64 0 100 -26 100 -90zM328 240
c-29 0 -68 -10 -104 -26c-4 -2 -13 -6 -28 -12c-30 -13 -64 -34 -90 -64c-13 -15 -20 -33 -20 -53c0 -2 2 -6 6 -12c8 -13 21 -29 41 -40c9 -6 20 -9 32 -9c60 0 97 10 121 26c23 16 33 37 37 60z" />
    <glyph glyph-name="atilde" unicode="&#xe3;" horiz-adv-x="456" 
d="M379 343l-11 -80c-3 -21 -4 -40 -4 -57c0 -35 0 -65 -3 -95c-2 -15 -6 -31 -13 -47c0 -8 17 -13 34 -20c16 -7 34 -15 34 -28c-3 -13 -12 -20 -23 -20c-35 0 -52 18 -71 33c-25 -9 -55 -17 -82 -24c-28 -7 -53 -11 -68 -11c-32 0 -62 9 -85 25c-24 15 -38 38 -38 66
c0 59 46 100 104 131s129 49 181 61c5 23 6 38 6 50c0 27 -8 44 -20 55c-13 11 -30 14 -49 14c-43 0 -74 -29 -98 -57c-12 -14 -22 -27 -30 -39s-15 -18 -20 -18c-13 0 -20 7 -20 15c1 40 38 74 78 98c39 24 82 38 98 38c64 0 100 -26 100 -90zM328 240
c-29 0 -68 -10 -104 -26c-4 -2 -13 -6 -28 -12c-30 -13 -64 -34 -90 -64c-13 -15 -20 -33 -20 -53c0 -2 2 -6 6 -12c8 -13 21 -29 41 -40c9 -6 20 -9 32 -9c60 0 97 10 121 26c23 16 33 37 37 60z" />
    <glyph glyph-name="b" unicode="b" horiz-adv-x="544" 
d="M462 226c4 -15 6 -30 6 -43c0 -53 -28 -96 -65 -126s-85 -47 -125 -47c-47 0 -89 7 -120 28c-2 -13 -5 -22 -10 -27s-9 -7 -14 -7c-9 0 -13 6 -13 17c3 13 5 27 6 40c3 27 5 52 10 80c3 13 7 27 12 42c23 63 46 141 70 257c4 20 7 36 8 54c0 18 1 39 1 72c0 16 1 35 5 50
s12 25 24 25c5 0 9 -4 11 -12c2 -9 3 -20 3 -33c0 -44 -6 -101 -16 -159s-26 -117 -42 -162c37 20 70 25 109 25c67 0 117 -18 140 -74zM421 127c5 17 10 35 10 52c0 23 -7 44 -24 60s-47 26 -91 26c-59 0 -95 -18 -117 -46s-30 -66 -30 -106c0 -51 40 -68 116 -68
c63 0 115 39 136 82z" />
    <glyph glyph-name="c" unicode="c" horiz-adv-x="507" 
d="M452 392l28 24c2 2 5 3 8 3s4 -1 4 -4l-23 -114c-1 -4 -3 -6 -4 -6s-2 2 -2 5c-7 64 -41 112 -105 112s-92 -41 -107 -110c-10 -48 -18 -86 -23 -113c-5 -28 -9 -49 -12 -63c-3 -15 -4 -25 -5 -30s-1 -9 -1 -12c0 -42 20 -63 59 -63c66 0 123 44 170 133c1 3 2 4 4 4
c3 0 4 -1 4 -3l-28 -135c-1 -3 -2 -4 -4 -4s-3 0 -3 1s0 2 -1 3l-10 33c-48 -30 -93 -45 -135 -45c-48 0 -86 19 -112 50s-41 72 -41 115c0 71 32 133 78 178c46 44 105 71 160 71c36 0 70 -10 101 -30z" />
    <glyph glyph-name="ccedilla" unicode="&#xe7;" horiz-adv-x="507" 
d="M452 392l28 24c2 2 5 3 8 3s4 -1 4 -4l-23 -114c-1 -4 -3 -6 -4 -6s-2 2 -2 5c-7 64 -41 112 -105 112s-92 -41 -107 -110c-10 -48 -18 -86 -23 -113c-5 -28 -9 -49 -12 -63c-3 -15 -4 -25 -5 -30s-1 -9 -1 -12c0 -42 20 -63 59 -63c66 0 123 44 170 133c1 3 2 4 4 4
c3 0 4 -1 4 -3l-28 -135c-1 -3 -2 -4 -4 -4s-3 0 -3 1s0 2 -1 3l-10 33c-48 -30 -93 -45 -135 -45c-48 0 -86 19 -112 50s-41 72 -41 115c0 71 32 133 78 178c46 44 105 71 160 71c36 0 70 -10 101 -30z" />
    <glyph glyph-name="d" unicode="d" horiz-adv-x="451" 
d="M480 630c8 0 11 -7 11 -18c0 -47 -30 -125 -62 -212s-65 -182 -70 -265c0 -3 0 -7 1 -14v-25c0 -20 -1 -45 -5 -64c-5 -19 -13 -33 -26 -33c-15 0 -18 6 -18 14c0 3 0 6 1 9s1 6 2 9c-29 -27 -78 -34 -126 -34c-52 0 -85 8 -105 22s-27 33 -27 58c0 16 3 34 7 53
c15 71 40 111 67 135c27 23 52 29 67 29c19 0 46 -7 74 -21c27 -14 52 -34 67 -58c11 51 25 94 41 139c15 44 31 89 47 144l5 22c7 27 17 62 30 90c6 13 12 20 18 20h1z" />
    <glyph glyph-name="e" unicode="e" horiz-adv-x="435" 
d="M196 163c-21 0 -59 10 -78 19c-1 -8 -2 -20 -2 -32c0 -27 5 -58 19 -82c14 -25 38 -44 81 -44c13 0 24 3 33 9s19 9 28 9c3 0 13 -2 13 -13c0 -17 -18 -27 -38 -33c-21 -6 -45 -9 -54 -9c-43 0 -72 21 -91 54c-19 32 -28 76 -28 120c0 81 23 146 56 188s79 64 124 64
c19 0 57 -7 90 -23c32 -17 61 -45 61 -85c0 -55 -36 -89 -81 -111s-98 -31 -133 -31zM125 223c29 -15 69 -25 104 -25c33 0 68 10 95 27s45 42 45 73c0 23 -17 42 -40 55c-24 12 -54 20 -78 20c-72 0 -115 -61 -126 -150z" />
    <glyph glyph-name="eacute" unicode="&#xe9;" horiz-adv-x="435" 
d="M196 163c-21 0 -59 10 -78 19c-1 -8 -2 -20 -2 -32c0 -27 5 -58 19 -82c14 -25 38 -44 81 -44c13 0 24 3 33 9s19 9 28 9c3 0 13 -2 13 -13c0 -17 -18 -27 -38 -33c-21 -6 -45 -9 -54 -9c-43 0 -72 21 -91 54c-19 32 -28 76 -28 120c0 81 23 146 56 188s79 64 124 64
c19 0 57 -7 90 -23c32 -17 61 -45 61 -85c0 -55 -36 -89 -81 -111s-98 -31 -133 -31zM125 223c29 -15 69 -25 104 -25c33 0 68 10 95 27s45 42 45 73c0 23 -17 42 -40 55c-24 12 -54 20 -78 20c-72 0 -115 -61 -126 -150z" />
    <glyph glyph-name="ecircumflex" unicode="&#xea;" horiz-adv-x="435" 
d="M196 163c-21 0 -59 10 -78 19c-1 -8 -2 -20 -2 -32c0 -27 5 -58 19 -82c14 -25 38 -44 81 -44c13 0 24 3 33 9s19 9 28 9c3 0 13 -2 13 -13c0 -17 -18 -27 -38 -33c-21 -6 -45 -9 -54 -9c-43 0 -72 21 -91 54c-19 32 -28 76 -28 120c0 81 23 146 56 188s79 64 124 64
c19 0 57 -7 90 -23c32 -17 61 -45 61 -85c0 -55 -36 -89 -81 -111s-98 -31 -133 -31zM125 223c29 -15 69 -25 104 -25c33 0 68 10 95 27s45 42 45 73c0 23 -17 42 -40 55c-24 12 -54 20 -78 20c-72 0 -115 -61 -126 -150z" />
    <glyph glyph-name="edieresis" unicode="&#xeb;" horiz-adv-x="435" 
d="M196 163c-21 0 -59 10 -78 19c-1 -8 -2 -20 -2 -32c0 -27 5 -58 19 -82c14 -25 38 -44 81 -44c13 0 24 3 33 9s19 9 28 9c3 0 13 -2 13 -13c0 -17 -18 -27 -38 -33c-21 -6 -45 -9 -54 -9c-43 0 -72 21 -91 54c-19 32 -28 76 -28 120c0 81 23 146 56 188s79 64 124 64
c19 0 57 -7 90 -23c32 -17 61 -45 61 -85c0 -55 -36 -89 -81 -111s-98 -31 -133 -31zM125 223c29 -15 69 -25 104 -25c33 0 68 10 95 27s45 42 45 73c0 23 -17 42 -40 55c-24 12 -54 20 -78 20c-72 0 -115 -61 -126 -150z" />
    <glyph glyph-name="egrave" unicode="&#xe8;" horiz-adv-x="435" 
d="M196 163c-21 0 -59 10 -78 19c-1 -8 -2 -20 -2 -32c0 -27 5 -58 19 -82c14 -25 38 -44 81 -44c13 0 24 3 33 9s19 9 28 9c3 0 13 -2 13 -13c0 -17 -18 -27 -38 -33c-21 -6 -45 -9 -54 -9c-43 0 -72 21 -91 54c-19 32 -28 76 -28 120c0 81 23 146 56 188s79 64 124 64
c19 0 57 -7 90 -23c32 -17 61 -45 61 -85c0 -55 -36 -89 -81 -111s-98 -31 -133 -31zM125 223c29 -15 69 -25 104 -25c33 0 68 10 95 27s45 42 45 73c0 23 -17 42 -40 55c-24 12 -54 20 -78 20c-72 0 -115 -61 -126 -150z" />
    <glyph glyph-name="f" unicode="f" horiz-adv-x="359" 
d="M399 581c21 -15 31 -39 31 -64c0 -35 -17 -66 -42 -90s-58 -39 -90 -39c-8 0 -15 4 -15 12c0 19 18 22 33 25c20 3 40 14 56 30c15 15 24 35 24 55c0 32 -28 56 -60 56c-36 0 -64 -32 -84 -73c-21 -41 -36 -92 -44 -128c11 -5 35 -18 44 -26c10 5 17 10 22 14
c5 3 11 5 18 5s15 -5 15 -14c-3 -15 -21 -24 -36 -31c1 0 3 -2 5 -6c4 -9 7 -22 10 -38c1 -8 2 -16 2 -23c0 -23 -5 -40 -24 -40c-13 0 -15 15 -16 33s-2 38 -11 51c-7 -4 -19 -9 -36 -13c0 -35 -6 -64 -14 -92l-12 -42c-5 -14 -9 -29 -12 -44v-13c-1 -17 -6 -39 -15 -55
c-5 -8 -11 -12 -20 -12s-12 10 -12 22c0 32 11 65 23 101s23 76 23 121v9c0 3 0 5 -1 7l-22 6c-16 4 -30 11 -38 23c-4 5 -6 12 -6 21c0 36 32 45 81 45c7 33 24 91 52 139s66 88 114 88c19 0 38 -7 57 -20zM170 342l-17 1c-6 0 -11 0 -15 -1s-6 -3 -6 -4
c7 -17 11 -23 32 -27c3 7 6 26 6 31zM202 313l12 3c3 0 7 1 12 3c-7 7 -14 13 -22 16z" />
    <glyph glyph-name="g" unicode="g" horiz-adv-x="555" 
d="M193 196c-55 21 -81 55 -81 98c0 45 27 83 68 110c40 27 94 42 146 42s90 -11 126 -31l127 30l-19 -92l-84 19c5 -14 8 -26 8 -37c0 -72 -59 -116 -136 -136c-13 -3 -29 -6 -47 -7c-36 -3 -72 -7 -97 -18c-13 -5 -20 -14 -23 -25v-2c0 -19 35 -28 105 -28
c66 0 115 -6 146 -19s47 -35 47 -66c0 -57 -34 -102 -88 -132s-128 -46 -204 -46c-40 0 -81 6 -112 19c-32 13 -54 33 -54 60c0 20 6 34 23 48c16 14 42 29 82 53c-39 19 -59 42 -59 69c0 28 12 45 34 58s53 22 92 33zM314 412c-51 0 -87 -46 -87 -127c0 -39 17 -59 52 -59
c56 0 91 49 91 122c0 40 -17 64 -56 64zM170 26c-24 -15 -38 -30 -45 -63c0 -40 44 -65 115 -65c35 0 72 7 100 20s48 34 48 62c0 25 -20 38 -61 38c-64 0 -118 1 -157 8z" />
    <glyph glyph-name="h" unicode="h" horiz-adv-x="402" 
d="M378 238l-25 -152h-1c-1 -4 -3 -10 -5 -19c-5 -17 -14 -35 -27 -48c-7 -7 -15 -10 -25 -10c-39 0 -30 41 -21 70c4 15 9 29 14 44c10 28 20 57 20 92c0 32 -10 61 -46 61c-27 0 -42 -6 -53 -21c-11 -16 -16 -40 -24 -76l-24 -116c-4 -19 -27 -39 -42 -39
c-28 0 -36 11 -36 27c0 9 3 23 8 43s11 43 18 68l21 78c15 53 22 93 25 126c1 17 3 34 4 51c3 35 5 71 16 122c7 37 24 50 47 50s28 -11 28 -24c0 -44 -6 -82 -12 -118s-13 -70 -13 -106c16 5 30 7 43 7c41 0 70 -13 87 -33c16 -20 23 -48 23 -77z" />
    <glyph glyph-name="i" unicode="i" horiz-adv-x="182" 
d="M215 592c27 0 30 -17 30 -32c0 -23 -17 -42 -38 -42c-16 0 -24 15 -24 32c0 21 13 42 32 42zM110 60l46 -8c7 -2 10 -7 10 -14c0 -15 -10 -39 -30 -39c-7 0 -14 1 -22 4c-9 3 -17 4 -24 4c-15 0 -31 -1 -47 -4c-15 0 -22 6 -22 17c7 31 19 37 43 40c13 33 22 60 30 88
c7 27 13 56 21 96s18 90 33 161c7 32 15 68 39 68c15 0 18 -4 18 -15c-1 -31 -8 -65 -16 -100c-4 -18 -8 -36 -13 -53c-5 -18 -9 -35 -12 -51c-7 -31 -12 -56 -20 -85s-19 -64 -34 -109z" />
    <glyph glyph-name="dotlessi" unicode="&#x131;" 
 />
    <glyph glyph-name="iacute" unicode="&#xed;" 
 />
    <glyph glyph-name="icircumflex" unicode="&#xee;" 
 />
    <glyph glyph-name="idieresis" unicode="&#xef;" 
 />
    <glyph glyph-name="igrave" unicode="&#xec;" 
 />
    <glyph glyph-name="j" unicode="j" horiz-adv-x="338" 
d="M337 609c12 0 25 -16 25 -35c0 -24 -20 -45 -37 -45c-16 0 -31 17 -31 40c0 24 16 40 43 40zM384 508c11 0 15 -9 15 -18c-3 -15 -12 -26 -24 -26h-11c-5 0 -12 0 -21 1c1 -5 1 -9 1 -14v-15c0 -36 -3 -112 -15 -198s-31 -181 -66 -255s-82 -127 -150 -127
c-60 0 -78 42 -78 98c0 24 2 63 10 96c7 33 18 61 34 61c11 0 14 -9 14 -17c-8 -41 -13 -69 -16 -89c-4 -20 -4 -31 -4 -42c0 -47 17 -62 49 -62c45 0 81 45 108 110c27 64 44 148 56 225c11 76 16 147 16 184c0 16 -1 31 -4 44c-11 0 -21 -1 -29 -4c-9 -3 -16 -5 -23 -5
c-10 0 -15 5 -15 16c0 19 13 29 32 34c19 4 43 5 63 5c5 0 12 0 20 -1s21 -1 38 -1z" />
    <glyph glyph-name="k" unicode="k" horiz-adv-x="588" 
d="M285 554l-73 -348l217 154h-83l6 28h215l-6 -28h-75l-158 -112l154 -198h72l-6 -28h-246l6 28h75l-117 153l-63 -43l-23 -110h73l-6 -28h-222l6 28h73l99 476h-73l6 28h149z" />
    <glyph glyph-name="l" unicode="l" horiz-adv-x="143" 
d="M156 586c5 12 13 18 22 18s13 -9 13 -24c-1 -44 -13 -88 -25 -135c-13 -47 -27 -94 -35 -145l-6 -42c-5 -40 -13 -92 -21 -143c-8 -52 -10 -97 -42 -97c-11 0 -16 5 -16 14c13 57 26 121 40 196s30 161 51 264z" />
    <glyph glyph-name="m" unicode="m" horiz-adv-x="644" 
d="M638 328v-22c0 -7 -1 -18 -2 -32c-3 -29 -15 -84 -28 -132c-7 -25 -12 -45 -15 -62c-3 -11 -7 -29 -15 -44c-9 -15 -22 -27 -41 -27c-24 0 -34 13 -34 36c0 17 4 34 11 57s16 54 27 102c5 24 12 60 12 95c0 45 -13 85 -61 85c-5 0 -20 0 -33 -4s-26 -11 -29 -24l-3 -20
c-4 -31 -11 -75 -20 -118c-5 -21 -9 -37 -14 -48c-10 -23 -18 -44 -24 -63c-12 -37 -22 -64 -35 -77c-7 -7 -16 -10 -29 -10c-19 0 -33 13 -33 33c0 33 13 67 27 100l21 49c14 32 20 67 25 96c2 14 3 27 3 38c0 32 -11 50 -42 50h-51c-27 -71 -48 -141 -64 -224
c-3 -15 -6 -30 -8 -47c-4 -33 -11 -63 -26 -82c-7 -9 -17 -14 -30 -14c-25 0 -33 14 -33 41c0 40 11 95 26 152c15 56 32 114 47 161c5 15 9 30 14 46c8 32 21 60 39 78c9 9 20 13 34 13c28 0 28 -17 28 -41h33c36 0 69 -5 94 -29c28 21 68 28 91 28c39 0 73 -16 98 -41
s40 -60 40 -99z" />
    <glyph glyph-name="n" unicode="n" horiz-adv-x="430" 
d="M389 374c17 -28 26 -60 26 -96c0 -19 -3 -40 -7 -60s-20 -74 -37 -123c-9 -25 -17 -46 -26 -65s-17 -29 -24 -29c-13 0 -18 10 -18 21c0 40 17 81 34 122c17 40 34 80 34 116c0 31 -6 65 -24 91s-49 43 -94 43c-23 0 -49 -8 -79 -24c-11 -53 -17 -109 -24 -165
s-13 -111 -24 -163c-3 -12 -11 -33 -26 -33c-13 0 -20 6 -20 17l3 27c3 39 11 100 21 171s23 133 39 174c8 20 17 30 26 30s16 -9 17 -17c25 16 55 22 83 22c47 0 96 -23 120 -59z" />
    <glyph glyph-name="ntilde" unicode="&#xf1;" horiz-adv-x="430" 
d="M389 374c17 -28 26 -60 26 -96c0 -19 -3 -40 -7 -60s-20 -74 -37 -123c-9 -25 -17 -46 -26 -65s-17 -29 -24 -29c-13 0 -18 10 -18 21c0 40 17 81 34 122c17 40 34 80 34 116c0 31 -6 65 -24 91s-49 43 -94 43c-23 0 -49 -8 -79 -24c-11 -53 -17 -109 -24 -165
s-13 -111 -24 -163c-3 -12 -11 -33 -26 -33c-13 0 -20 6 -20 17l3 27c3 39 11 100 21 171s23 133 39 174c8 20 17 30 26 30s16 -9 17 -17c25 16 55 22 83 22c47 0 96 -23 120 -59z" />
    <glyph glyph-name="o" unicode="o" horiz-adv-x="469" 
d="M243 -11c-63 0 -104 16 -130 42s-38 62 -38 103c0 57 19 123 52 173s80 85 136 85c45 0 83 -23 108 -59c24 -36 38 -84 38 -135c0 -19 -1 -38 -8 -69c-4 -19 -13 -53 -36 -84c-24 -31 -62 -56 -122 -56zM246 19c35 0 65 17 87 47s35 72 35 127c0 9 -1 18 -2 27
c-1 17 -9 52 -26 81c-17 28 -43 53 -83 53c-37 0 -66 -19 -87 -46s-35 -61 -43 -92c-9 -32 -12 -59 -12 -71c0 -79 55 -126 131 -126z" />
    <glyph glyph-name="oacute" unicode="&#xf3;" horiz-adv-x="469" 
d="M243 -11c-63 0 -104 16 -130 42s-38 62 -38 103c0 57 19 123 52 173s80 85 136 85c45 0 83 -23 108 -59c24 -36 38 -84 38 -135c0 -19 -1 -38 -8 -69c-4 -19 -13 -53 -36 -84c-24 -31 -62 -56 -122 -56zM246 19c35 0 65 17 87 47s35 72 35 127c0 9 -1 18 -2 27
c-1 17 -9 52 -26 81c-17 28 -43 53 -83 53c-37 0 -66 -19 -87 -46s-35 -61 -43 -92c-9 -32 -12 -59 -12 -71c0 -79 55 -126 131 -126z" />
    <glyph glyph-name="ocircumflex" unicode="&#xf4;" horiz-adv-x="469" 
d="M243 -11c-63 0 -104 16 -130 42s-38 62 -38 103c0 57 19 123 52 173s80 85 136 85c45 0 83 -23 108 -59c24 -36 38 -84 38 -135c0 -19 -1 -38 -8 -69c-4 -19 -13 -53 -36 -84c-24 -31 -62 -56 -122 -56zM246 19c35 0 65 17 87 47s35 72 35 127c0 9 -1 18 -2 27
c-1 17 -9 52 -26 81c-17 28 -43 53 -83 53c-37 0 -66 -19 -87 -46s-35 -61 -43 -92c-9 -32 -12 -59 -12 -71c0 -79 55 -126 131 -126z" />
    <glyph glyph-name="odieresis" unicode="&#xf6;" horiz-adv-x="469" 
d="M243 -11c-63 0 -104 16 -130 42s-38 62 -38 103c0 57 19 123 52 173s80 85 136 85c45 0 83 -23 108 -59c24 -36 38 -84 38 -135c0 -19 -1 -38 -8 -69c-4 -19 -13 -53 -36 -84c-24 -31 -62 -56 -122 -56zM246 19c35 0 65 17 87 47s35 72 35 127c0 9 -1 18 -2 27
c-1 17 -9 52 -26 81c-17 28 -43 53 -83 53c-37 0 -66 -19 -87 -46s-35 -61 -43 -92c-9 -32 -12 -59 -12 -71c0 -79 55 -126 131 -126z" />
    <glyph glyph-name="ograve" unicode="&#xf2;" horiz-adv-x="469" 
d="M243 -11c-63 0 -104 16 -130 42s-38 62 -38 103c0 57 19 123 52 173s80 85 136 85c45 0 83 -23 108 -59c24 -36 38 -84 38 -135c0 -19 -1 -38 -8 -69c-4 -19 -13 -53 -36 -84c-24 -31 -62 -56 -122 -56zM246 19c35 0 65 17 87 47s35 72 35 127c0 9 -1 18 -2 27
c-1 17 -9 52 -26 81c-17 28 -43 53 -83 53c-37 0 -66 -19 -87 -46s-35 -61 -43 -92c-9 -32 -12 -59 -12 -71c0 -79 55 -126 131 -126z" />
    <glyph glyph-name="otilde" unicode="&#xf5;" horiz-adv-x="469" 
d="M243 -11c-63 0 -104 16 -130 42s-38 62 -38 103c0 57 19 123 52 173s80 85 136 85c45 0 83 -23 108 -59c24 -36 38 -84 38 -135c0 -19 -1 -38 -8 -69c-4 -19 -13 -53 -36 -84c-24 -31 -62 -56 -122 -56zM246 19c35 0 65 17 87 47s35 72 35 127c0 9 -1 18 -2 27
c-1 17 -9 52 -26 81c-17 28 -43 53 -83 53c-37 0 -66 -19 -87 -46s-35 -61 -43 -92c-9 -32 -12 -59 -12 -71c0 -79 55 -126 131 -126z" />
    <glyph glyph-name="p" unicode="p" horiz-adv-x="451" 
d="M57 -157c-8 0 -15 4 -16 12c0 27 10 83 23 152c6 35 13 72 22 112l24 119l29 140c4 21 11 31 19 36c3 3 7 4 10 5l10 3c32 5 56 6 97 9c80 0 120 -38 120 -109c0 -83 -29 -132 -73 -163s-101 -40 -157 -40h-39c-5 -37 -10 -68 -16 -103c-6 -36 -14 -74 -25 -126
c-4 -19 -8 -32 -11 -38s-9 -9 -17 -9z" />
    <glyph glyph-name="q" unicode="q" horiz-adv-x="455" 
d="M299 -104l-9 -45c-3 -12 -16 -13 -24 -13s-12 8 -12 15c0 3 0 5 1 6c15 64 24 105 32 141c7 36 13 68 24 113c-75 4 -125 10 -156 26c-32 16 -45 41 -45 82c0 77 25 129 62 161s85 44 132 44c12 0 23 -1 34 -2c8 -1 16 -2 25 -2c16 0 32 -3 41 -11c5 -5 7 -12 7 -21
c0 -2 0 -6 -1 -12c-1 -7 -4 -22 -9 -46c-7 -21 -14 -48 -21 -83s-16 -73 -25 -115c-1 -2 -2 -10 -5 -25c-6 -30 -17 -76 -30 -131zM314 146l57 228h1l-8 3c-12 3 -31 6 -54 9c-11 1 -23 2 -34 2c-40 0 -74 -17 -97 -44c-23 -28 -36 -66 -36 -110c0 -35 13 -57 33 -70
s48 -18 77 -18h61z" />
    <glyph glyph-name="r" unicode="r" horiz-adv-x="390" 
d="M313 338c16 0 31 2 44 7s28 7 43 7c6 0 9 -3 9 -10c0 -19 -19 -29 -43 -34c-25 -5 -56 -7 -79 -7c-17 0 -36 2 -55 6c-19 3 -37 5 -53 5c-1 0 -3 -1 -6 -4s-7 -8 -12 -17c-9 -18 -21 -50 -33 -107c-2 -9 -4 -23 -6 -42c-5 -38 -11 -81 -22 -110c-6 -15 -13 -22 -21 -22
c-11 0 -13 12 -13 29c0 19 4 43 8 66c3 13 11 53 23 99c11 46 25 98 41 139c7 20 15 37 23 50s16 20 23 20c11 0 16 -5 16 -14l-19 -50c7 0 16 -1 27 -2c22 -3 47 -5 72 -7c12 -1 23 -2 33 -2z" />
    <glyph glyph-name="s" unicode="s" horiz-adv-x="428" 
d="M373 416h35l-21 -99h-35c2 7 3 13 3 19c0 39 -37 61 -77 61c-24 0 -47 -9 -64 -22s-28 -33 -28 -54c0 -24 22 -37 50 -48c14 -5 30 -10 47 -15c34 -9 62 -23 82 -46c9 -11 14 -26 14 -44c0 -43 -20 -76 -48 -99c-29 -23 -67 -35 -103 -35c-27 0 -47 3 -63 10
s-30 16 -43 31l-7 10l-7 -42h-36l24 114h36c-1 -7 -2 -12 -2 -19c0 -25 12 -45 29 -57c16 -13 38 -19 61 -19c36 0 61 12 77 28c15 16 21 36 21 49c0 19 -11 30 -26 38c-7 4 -16 8 -25 11l-28 9c-73 20 -108 42 -108 89c0 43 19 78 47 102s64 37 99 37s56 -7 84 -32l8 -11z
" />
    <glyph glyph-name="scaron" unicode="&#x161;" horiz-adv-x="428" 
d="M373 416h35l-21 -99h-35c2 7 3 13 3 19c0 39 -37 61 -77 61c-24 0 -47 -9 -64 -22s-28 -33 -28 -54c0 -24 22 -37 50 -48c14 -5 30 -10 47 -15c34 -9 62 -23 82 -46c9 -11 14 -26 14 -44c0 -43 -20 -76 -48 -99c-29 -23 -67 -35 -103 -35c-27 0 -47 3 -63 10
s-30 16 -43 31l-7 10l-7 -42h-36l24 114h36c-1 -7 -2 -12 -2 -19c0 -25 12 -45 29 -57c16 -13 38 -19 61 -19c36 0 61 12 77 28c15 16 21 36 21 49c0 19 -11 30 -26 38c-7 4 -16 8 -25 11l-28 9c-73 20 -108 42 -108 89c0 43 19 78 47 102s64 37 99 37s56 -7 84 -32l8 -11z
" />
    <glyph glyph-name="t" unicode="t" horiz-adv-x="496" 
d="M465 287c16 -3 32 -15 32 -51c0 -23 -7 -44 -18 -67c-51 -108 -136 -159 -228 -159c-59 0 -74 32 -74 71c0 17 3 36 6 53l26 122c4 19 10 48 18 79c7 31 15 62 22 86c-27 0 -49 1 -65 2c-17 1 -29 2 -37 4c-17 4 -21 10 -21 19c0 41 22 46 73 46h69l13 63
c11 48 18 73 53 73c23 0 29 -9 29 -26c0 -19 -4 -43 -10 -66s-13 -43 -17 -51c5 0 13 0 22 -1l52 -6c5 -1 12 -1 21 -1c17 -1 34 -4 46 -12c5 -5 8 -11 8 -20c0 -27 -21 -44 -42 -44l-127 16c-5 -21 -9 -42 -13 -63c-5 -21 -10 -44 -15 -68l-17 -81c-7 -30 -14 -64 -23 -103
c0 -12 6 -21 17 -21c76 0 141 48 158 132v43c3 16 23 31 42 31z" />
    <glyph glyph-name="u" unicode="u" horiz-adv-x="399" 
d="M392 37l-1 -5c-3 -13 -11 -19 -24 -19c-29 0 -61 23 -73 63c-36 -39 -70 -59 -102 -59c-40 0 -67 15 -83 39c-17 24 -24 58 -24 97c0 21 4 60 11 101s17 86 27 121c5 17 10 32 15 43s10 16 15 16c11 0 12 -6 12 -13c0 -20 -13 -69 -26 -120c-13 -52 -26 -106 -26 -138
c0 -52 13 -80 30 -96s38 -18 54 -18c36 0 70 24 96 71s44 117 49 212c1 11 1 22 1 33c-1 22 1 38 6 49c3 5 7 8 13 8c7 0 10 -14 10 -43c0 -25 -2 -67 -9 -115s-21 -100 -42 -148c0 -31 18 -44 36 -52c9 -5 17 -9 24 -12s11 -8 11 -15z" />
    <glyph glyph-name="uacute" unicode="&#xfa;" horiz-adv-x="399" 
d="M392 37l-1 -5c-3 -13 -11 -19 -24 -19c-29 0 -61 23 -73 63c-36 -39 -70 -59 -102 -59c-40 0 -67 15 -83 39c-17 24 -24 58 -24 97c0 21 4 60 11 101s17 86 27 121c5 17 10 32 15 43s10 16 15 16c11 0 12 -6 12 -13c0 -20 -13 -69 -26 -120c-13 -52 -26 -106 -26 -138
c0 -52 13 -80 30 -96s38 -18 54 -18c36 0 70 24 96 71s44 117 49 212c1 11 1 22 1 33c-1 22 1 38 6 49c3 5 7 8 13 8c7 0 10 -14 10 -43c0 -25 -2 -67 -9 -115s-21 -100 -42 -148c0 -31 18 -44 36 -52c9 -5 17 -9 24 -12s11 -8 11 -15z" />
    <glyph glyph-name="ucircumflex" unicode="&#xfb;" horiz-adv-x="399" 
d="M392 37l-1 -5c-3 -13 -11 -19 -24 -19c-29 0 -61 23 -73 63c-36 -39 -70 -59 -102 -59c-40 0 -67 15 -83 39c-17 24 -24 58 -24 97c0 21 4 60 11 101s17 86 27 121c5 17 10 32 15 43s10 16 15 16c11 0 12 -6 12 -13c0 -20 -13 -69 -26 -120c-13 -52 -26 -106 -26 -138
c0 -52 13 -80 30 -96s38 -18 54 -18c36 0 70 24 96 71s44 117 49 212c1 11 1 22 1 33c-1 22 1 38 6 49c3 5 7 8 13 8c7 0 10 -14 10 -43c0 -25 -2 -67 -9 -115s-21 -100 -42 -148c0 -31 18 -44 36 -52c9 -5 17 -9 24 -12s11 -8 11 -15z" />
    <glyph glyph-name="udieresis" unicode="&#xfc;" horiz-adv-x="399" 
d="M392 37l-1 -5c-3 -13 -11 -19 -24 -19c-29 0 -61 23 -73 63c-36 -39 -70 -59 -102 -59c-40 0 -67 15 -83 39c-17 24 -24 58 -24 97c0 21 4 60 11 101s17 86 27 121c5 17 10 32 15 43s10 16 15 16c11 0 12 -6 12 -13c0 -20 -13 -69 -26 -120c-13 -52 -26 -106 -26 -138
c0 -52 13 -80 30 -96s38 -18 54 -18c36 0 70 24 96 71s44 117 49 212c1 11 1 22 1 33c-1 22 1 38 6 49c3 5 7 8 13 8c7 0 10 -14 10 -43c0 -25 -2 -67 -9 -115s-21 -100 -42 -148c0 -31 18 -44 36 -52c9 -5 17 -9 24 -12s11 -8 11 -15z" />
    <glyph glyph-name="ugrave" unicode="&#xf9;" horiz-adv-x="399" 
d="M392 37l-1 -5c-3 -13 -11 -19 -24 -19c-29 0 -61 23 -73 63c-36 -39 -70 -59 -102 -59c-40 0 -67 15 -83 39c-17 24 -24 58 -24 97c0 21 4 60 11 101s17 86 27 121c5 17 10 32 15 43s10 16 15 16c11 0 12 -6 12 -13c0 -20 -13 -69 -26 -120c-13 -52 -26 -106 -26 -138
c0 -52 13 -80 30 -96s38 -18 54 -18c36 0 70 24 96 71s44 117 49 212c1 11 1 22 1 33c-1 22 1 38 6 49c3 5 7 8 13 8c7 0 10 -14 10 -43c0 -25 -2 -67 -9 -115s-21 -100 -42 -148c0 -31 18 -44 36 -52c9 -5 17 -9 24 -12s11 -8 11 -15z" />
    <glyph glyph-name="v" unicode="v" horiz-adv-x="482" 
d="M151 325l-9 50c-3 15 -5 26 -5 33c3 11 12 12 17 12c16 0 20 -8 23 -23c18 -52 34 -106 47 -163s26 -112 41 -166l20 33c9 15 19 33 30 52c23 38 49 82 70 119s38 67 45 78c7 12 16 28 26 43s21 26 33 26c9 0 13 -3 13 -10c0 -13 -15 -39 -31 -66
c-17 -28 -37 -60 -62 -100c-13 -21 -27 -45 -43 -72c-5 -8 -11 -21 -20 -38c-17 -36 -39 -74 -59 -101c-11 -14 -20 -21 -27 -21s-11 1 -16 9c-3 4 -6 11 -9 20c-8 18 -19 56 -22 67l-3 14c-1 3 -1 8 -2 13s-4 14 -7 27c-4 13 -10 33 -17 59z" />
    <glyph glyph-name="w" unicode="w" horiz-adv-x="991" 
d="M302 1l-71 339c-5 25 -13 42 -24 52c-12 10 -27 14 -46 21l8 35h248l-8 -35c-23 -7 -38 -11 -43 -40c0 -3 1 -9 2 -16c1 -8 3 -20 6 -36c6 -32 16 -82 33 -162l121 186c-3 47 -16 64 -49 68l8 35h238l-8 -35c-39 -4 -51 -13 -55 -36c0 -4 1 -9 2 -16l6 -35
c3 -16 8 -37 13 -64s13 -61 22 -104l71 112c17 27 29 48 38 63s14 25 16 30s3 10 3 14c0 19 -22 32 -53 36l8 35h197l-8 -35c-29 -5 -49 -12 -65 -26c-17 -14 -32 -36 -52 -69l-196 -317h-64l-62 277l-172 -277h-64z" />
    <glyph glyph-name="x" unicode="x" horiz-adv-x="483" 
d="M493 438l-149 -156c-1 -2 -4 -5 -8 -9c-9 -8 -18 -18 -26 -27c-4 -5 -6 -8 -7 -11c4 -31 14 -66 26 -102l18 -53c6 -18 11 -35 16 -51c-5 -9 -9 -14 -12 -16s-5 -3 -7 -3c-8 0 -15 8 -21 23c-12 30 -22 73 -33 117c-5 22 -11 40 -17 54c-9 -11 -19 -23 -30 -35
c-23 -24 -47 -50 -67 -78c-10 -15 -18 -29 -24 -44c-3 -4 -5 -9 -6 -14c-3 -11 -7 -21 -14 -28c-4 -4 -10 -6 -17 -6s-10 4 -10 11c0 33 35 87 86 146c4 5 10 11 17 20c7 8 15 16 22 25c7 8 13 15 18 22c5 6 8 10 8 12c0 1 -4 11 -12 32s-23 45 -44 73c-7 9 -14 18 -21 25
c-14 14 -25 25 -32 35c-8 10 -9 31 8 31s36 -15 59 -45s47 -70 72 -120c35 33 57 59 81 85s51 53 96 93c4 2 7 4 10 5c2 1 5 2 8 2c9 0 13 -4 12 -13z" />
    <glyph glyph-name="y" unicode="y" horiz-adv-x="502" 
d="M446 458c-5 -96 -45 -173 -92 -258l-38 -71c-19 -37 -39 -76 -62 -111c-11 -17 -21 -34 -30 -53c-20 -37 -44 -71 -75 -91c-16 -11 -35 -16 -58 -16c-21 0 -44 5 -44 28c0 12 6 30 21 30c12 0 15 -10 18 -25c56 12 92 56 122 106c15 25 28 51 41 78s27 52 42 74v1
c0 5 -9 16 -18 27s-19 21 -23 28c-19 31 -28 82 -28 138c0 20 1 51 5 76s13 46 29 46c9 0 13 -5 13 -16l-11 -113c0 -56 11 -103 52 -150c10 21 20 40 29 58c19 35 37 68 50 101c6 16 11 33 15 51l5 53c3 12 8 22 21 22c9 0 15 -4 16 -13z" />
    <glyph glyph-name="yacute" unicode="&#xfd;" horiz-adv-x="502" 
d="M446 458c-5 -96 -45 -173 -92 -258l-38 -71c-19 -37 -39 -76 -62 -111c-11 -17 -21 -34 -30 -53c-20 -37 -44 -71 -75 -91c-16 -11 -35 -16 -58 -16c-21 0 -44 5 -44 28c0 12 6 30 21 30c12 0 15 -10 18 -25c56 12 92 56 122 106c15 25 28 51 41 78s27 52 42 74v1
c0 5 -9 16 -18 27s-19 21 -23 28c-19 31 -28 82 -28 138c0 20 1 51 5 76s13 46 29 46c9 0 13 -5 13 -16l-11 -113c0 -56 11 -103 52 -150c10 21 20 40 29 58c19 35 37 68 50 101c6 16 11 33 15 51l5 53c3 12 8 22 21 22c9 0 15 -4 16 -13z" />
    <glyph glyph-name="ydieresis" unicode="&#xff;" horiz-adv-x="502" 
d="M446 458c-5 -96 -45 -173 -92 -258l-38 -71c-19 -37 -39 -76 -62 -111c-11 -17 -21 -34 -30 -53c-20 -37 -44 -71 -75 -91c-16 -11 -35 -16 -58 -16c-21 0 -44 5 -44 28c0 12 6 30 21 30c12 0 15 -10 18 -25c56 12 92 56 122 106c15 25 28 51 41 78s27 52 42 74v1
c0 5 -9 16 -18 27s-19 21 -23 28c-19 31 -28 82 -28 138c0 20 1 51 5 76s13 46 29 46c9 0 13 -5 13 -16l-11 -113c0 -56 11 -103 52 -150c10 21 20 40 29 58c19 35 37 68 50 101c6 16 11 33 15 51l5 53c3 12 8 22 21 22c9 0 15 -4 16 -13z" />
    <glyph glyph-name="z" unicode="z" horiz-adv-x="497" 
d="M136 370l1 8c7 28 29 34 76 34h50c13 -1 25 -1 36 -1h31c10 -1 21 -1 34 -1h110c21 0 49 -2 72 -7s41 -15 41 -32c-3 -15 -7 -23 -26 -36c-4 -3 -14 -9 -29 -20c-32 -21 -95 -56 -194 -106c-50 -25 -110 -53 -181 -84c19 -3 38 -4 57 -4h13c5 0 17 0 34 1c17 0 42 0 75 1
h137c15 0 26 -1 31 -4s7 -9 7 -16c0 -23 -23 -36 -62 -44s-92 -10 -149 -10c-63 0 -128 5 -178 15c-25 5 -46 11 -61 18c-16 7 -24 16 -24 26c4 21 19 35 38 46c9 5 19 10 29 15c20 8 32 13 57 26c24 13 69 36 139 72c35 17 78 39 131 64l-95 5c-30 2 -57 3 -82 4
c-49 0 -85 3 -104 11c-9 4 -14 10 -14 19z" />
    <glyph glyph-name="zcaron" unicode="&#x17e;" horiz-adv-x="497" 
d="M136 370l1 8c7 28 29 34 76 34h50c13 -1 25 -1 36 -1h31c10 -1 21 -1 34 -1h110c21 0 49 -2 72 -7s41 -15 41 -32c-3 -15 -7 -23 -26 -36c-4 -3 -14 -9 -29 -20c-32 -21 -95 -56 -194 -106c-50 -25 -110 -53 -181 -84c19 -3 38 -4 57 -4h13c5 0 17 0 34 1c17 0 42 0 75 1
h137c15 0 26 -1 31 -4s7 -9 7 -16c0 -23 -23 -36 -62 -44s-92 -10 -149 -10c-63 0 -128 5 -178 15c-25 5 -46 11 -61 18c-16 7 -24 16 -24 26c4 21 19 35 38 46c9 5 19 10 29 15c20 8 32 13 57 26c24 13 69 36 139 72c35 17 78 39 131 64l-95 5c-30 2 -57 3 -82 4
c-49 0 -85 3 -104 11c-9 4 -14 10 -14 19z" />
    <glyph glyph-name="ordfeminine" unicode="&#xaa;" horiz-adv-x="456" 
d="M379 343l-11 -80c-3 -21 -4 -40 -4 -57c0 -35 0 -65 -3 -95c-2 -15 -6 -31 -13 -47c0 -8 17 -13 34 -20c16 -7 34 -15 34 -28c-3 -13 -12 -20 -23 -20c-35 0 -52 18 -71 33c-25 -9 -55 -17 -82 -24c-28 -7 -53 -11 -68 -11c-32 0 -62 9 -85 25c-24 15 -38 38 -38 66
c0 59 46 100 104 131s129 49 181 61c5 23 6 38 6 50c0 27 -8 44 -20 55c-13 11 -30 14 -49 14c-43 0 -74 -29 -98 -57c-12 -14 -22 -27 -30 -39s-15 -18 -20 -18c-13 0 -20 7 -20 15c1 40 38 74 78 98c39 24 82 38 98 38c64 0 100 -26 100 -90zM328 240
c-29 0 -68 -10 -104 -26c-4 -2 -13 -6 -28 -12c-30 -13 -64 -34 -90 -64c-13 -15 -20 -33 -20 -53c0 -2 2 -6 6 -12c8 -13 21 -29 41 -40c9 -6 20 -9 32 -9c60 0 97 10 121 26c23 16 33 37 37 60z" />
    <glyph glyph-name="ordmasculine" unicode="&#xba;" horiz-adv-x="469" 
d="M243 -11c-63 0 -104 16 -130 42s-38 62 -38 103c0 57 19 123 52 173s80 85 136 85c45 0 83 -23 108 -59c24 -36 38 -84 38 -135c0 -19 -1 -38 -8 -69c-4 -19 -13 -53 -36 -84c-24 -31 -62 -56 -122 -56zM246 19c35 0 65 17 87 47s35 72 35 127c0 9 -1 18 -2 27
c-1 17 -9 52 -26 81c-17 28 -43 53 -83 53c-37 0 -66 -19 -87 -46s-35 -61 -43 -92c-9 -32 -12 -59 -12 -71c0 -79 55 -126 131 -126z" />
    <glyph glyph-name="uni0410" unicode="&#x410;" horiz-adv-x="639" 
d="M475 594l75 -575h38l-2 -13h-224l3 14h38l-21 165h-170l-88 -166h38l-2 -13h-97l2 13h40l306 575h64zM380 200l-32 239l-129 -239h161z" />
    <glyph glyph-name="uni0411" unicode="&#x411;" horiz-adv-x="526" 
d="M529 538c-35 -4 -99 -8 -166 -11c-34 -1 -67 -3 -100 -4c-33 -2 -62 -3 -85 -4l-15 -108c-7 -36 -9 -72 -8 -111c67 23 133 47 197 47c60 0 96 -19 116 -46s24 -63 17 -96c-3 -13 -7 -26 -12 -39c-24 -56 -56 -98 -93 -125c-37 -28 -78 -41 -118 -41
c-65 0 -103 31 -125 83c-22 51 -27 122 -23 203c4 80 16 169 28 256c3 7 7 14 18 14l392 18c24 0 29 -24 22 -51c-3 -11 -12 -19 -23 -19s-22 11 -22 34zM331 308c-53 0 -117 -18 -176 -46c-1 -73 3 -130 19 -167s43 -57 90 -57c45 0 87 21 120 53c32 32 56 74 65 117
c8 39 -7 63 -31 79c-24 15 -58 21 -87 21z" />
    <glyph glyph-name="uni0412" unicode="&#x412;" horiz-adv-x="504" 
d="M536 475c0 -8 -1 -14 -2 -19c-16 -79 -82 -118 -166 -133c96 -8 140 -67 121 -155c-11 -52 -37 -93 -70 -120c-33 -28 -74 -42 -111 -42h-266l3 14h38l116 559h-38l3 14h212c47 0 90 -7 120 -26s45 -48 40 -92zM437 406l20 95c11 51 -15 78 -80 78h-99l-52 -249h108
c53 0 94 33 103 76zM407 218v2c7 31 -1 55 -17 71s-40 24 -67 24h-100l-61 -295h103c64 0 107 31 120 91z" />
    <glyph glyph-name="uni0413" unicode="&#x413;" horiz-adv-x="557" 
d="M588 608c11 0 22 -4 19 -15l-35 -166c-1 -5 -4 -7 -8 -7c-3 0 -4 1 -3 4c15 113 -12 169 -81 169h-174l-119 -573h40l-3 -15h-161l3 15h41l119 573h-41l3 15h400z" />
    <glyph glyph-name="uni0414" unicode="&#x414;" horiz-adv-x="572" 
d="M18 -108c4 39 10 86 16 130c6 43 11 82 18 106c3 17 21 25 44 29c11 2 23 4 36 5s24 3 34 6l64 409c1 4 4 12 11 12l228 11c11 0 10 -11 10 -22l-57 -398c7 -1 18 -2 32 -2c27 0 56 -2 76 -8c10 -3 15 -9 15 -16l-55 -266c-3 -9 -13 -18 -22 -18s-15 7 -15 15
c0 3 0 5 1 6l50 240c-44 10 -90 15 -138 15c-44 0 -97 -3 -148 -9s-98 -14 -133 -22c-6 -37 -11 -71 -14 -101c-8 -60 -13 -102 -21 -125c-5 -12 -10 -18 -17 -18c-9 0 -15 1 -15 21zM198 166l193 17l57 386h-186z" />
    <glyph glyph-name="uni0415" unicode="&#x415;" horiz-adv-x="563" 
d="M580 594c12 0 18 -4 18 -13v-3c-1 -1 -1 -2 -1 -3l-27 -132c-1 -5 -2 -11 -9 -11c-3 0 -4 1 -4 4v22c0 77 -27 122 -91 122h-95l-54 -258h66c25 0 47 26 63 51c7 13 14 24 19 35s9 16 12 16c2 0 3 -1 3 -4v-3l-42 -202c-1 -4 -3 -9 -8 -9c-3 0 -4 1 -4 4c0 5 1 9 2 14
c1 4 1 9 1 14c0 36 -15 71 -54 71h-60l-61 -292h109c28 0 52 11 72 27s36 36 45 55c-1 -1 1 4 6 15c8 20 21 47 34 68c7 11 12 16 16 16s6 -3 6 -8v-3c-1 -1 -1 -3 -1 -4l-33 -156c-3 -13 -12 -24 -27 -24h-409l3 14h37l117 563h-37l3 14h385z" />
    <glyph glyph-name="uni0401" unicode="&#x401;" horiz-adv-x="529" 
d="M390 658c-22 0 -33 9 -33 27c0 29 18 48 49 48c23 0 35 -9 35 -27c0 -31 -20 -48 -51 -48zM274 660h-2c-18 0 -27 8 -27 23c0 27 17 41 40 41c18 0 27 -7 27 -21c0 -27 -13 -43 -38 -43zM311 529h-105l-37 -180c35 3 66 4 93 5c26 0 49 1 68 2c72 0 110 -4 149 -8
c5 -1 8 -4 8 -7c0 -8 -2 -22 -10 -30c-5 -4 -10 -6 -16 -6h-306l-10 -48c-8 -40 -12 -72 -15 -102s-5 -58 -6 -89l3 -3h297c15 0 17 -17 14 -28s-12 -23 -23 -23h-325c-7 1 -10 6 -9 15c11 109 21 195 31 266s19 124 28 171l9 33c4 23 11 44 21 60s29 20 50 24
c20 4 45 5 77 6h54h34c23 -1 49 -2 84 -2c17 -1 38 -1 62 -1c15 0 29 -1 40 -2c22 -3 13 -24 4 -31c-5 -4 -10 -7 -16 -8c-55 -1 -103 -4 -144 -8s-75 -6 -104 -6z" />
    <glyph glyph-name="uni0416" unicode="&#x416;" horiz-adv-x="1241" 
d="M652 80c5 7 9 15 14 22l14 23c17 25 45 68 81 107c35 39 78 73 126 84c53 155 124 217 211 217c27 0 51 -5 73 -16c8 -4 23 -11 38 -21s27 -22 27 -34c0 -9 -10 -23 -21 -23c-11 5 -22 11 -31 18c-19 12 -37 24 -58 32c-11 4 -23 6 -37 6c-59 0 -94 -32 -117 -72
c-24 -40 -34 -88 -41 -117c-12 -51 -17 -97 -17 -138c0 -25 4 -58 19 -85c15 -28 38 -48 77 -48c57 0 98 20 125 51s41 69 49 108l5 25c3 11 15 18 24 18s13 -5 13 -14c0 -4 0 -6 -1 -7c-29 -141 -91 -215 -222 -215c-44 0 -73 13 -91 33c-18 19 -27 42 -28 65
c-7 23 -10 52 -10 87c0 25 2 56 6 91c-43 -16 -78 -48 -113 -92c-36 -44 -72 -102 -116 -170c-8 -12 -20 -16 -27 -16s-12 6 -14 19c-3 13 -4 30 -4 51c0 30 1 66 4 108c2 41 3 84 3 128c0 64 -3 128 -18 180l-266 -392c-16 -23 -37 -50 -61 -72s-51 -38 -82 -38
c-44 0 -72 19 -90 45s-26 60 -26 93c0 16 1 32 5 47c5 23 20 55 39 83c19 27 42 48 62 48c10 0 15 -5 15 -14c0 -7 -5 -15 -10 -20c-47 -36 -71 -84 -71 -137c0 -27 7 -54 20 -74c13 -21 34 -35 61 -35c45 0 82 39 109 87c27 47 44 103 51 138c5 27 9 53 11 80
c2 26 4 52 7 77v45c0 23 -3 52 -14 76s-29 42 -60 42c-24 0 -42 -13 -56 -32s-23 -44 -27 -65c0 -2 0 -4 1 -6v-9c0 -16 -9 -30 -24 -30c-11 0 -16 8 -16 25c0 33 11 74 33 104s54 52 98 52c12 0 21 -3 32 -7c4 -2 10 -6 18 -13c15 -13 32 -42 44 -89c6 -23 9 -52 9 -87
c0 -43 -5 -92 -18 -156l209 298c4 7 11 10 22 10c1 -1 3 -5 7 -12c7 -15 15 -44 22 -89c3 -23 5 -50 5 -81c0 -19 -1 -37 -2 -58v-239z" />
    <glyph glyph-name="uni0417" unicode="&#x417;" horiz-adv-x="502" 
d="M256 307l8 36h49c52 0 86 18 107 41s31 51 35 74c7 33 0 61 -15 78c-16 17 -40 27 -67 27c-69 0 -130 -35 -153 -103h-35l27 130h35l-10 -47c52 49 103 57 143 57c104 0 157 -54 141 -133c-8 -36 -23 -69 -46 -94s-52 -43 -84 -44l-1 -5c41 0 69 -22 85 -53
c16 -32 19 -71 12 -107c-11 -52 -41 -94 -81 -122s-91 -44 -143 -44c-63 0 -103 9 -136 52l-8 15l-11 -55h-31l31 153h34c-7 -29 -3 -62 16 -87s52 -43 107 -43c47 0 82 18 107 46c25 27 41 62 48 95c8 37 -1 71 -21 95c-21 24 -54 38 -94 38h-49z" />
    <glyph glyph-name="uni0418" unicode="&#x418;" horiz-adv-x="487" 
d="M381 211l5 98c-93 -120 -155 -196 -198 -243c-22 -24 -40 -41 -53 -50c-13 -10 -25 -15 -35 -15c-16 0 -32 23 -29 36l101 484c5 23 31 32 52 32c24 0 31 -18 27 -37l-76 -365c32 36 56 64 76 89s35 48 50 72c5 7 12 20 23 38c20 35 49 75 79 103c15 14 29 21 42 21
c12 0 33 -10 28 -33l-36 -416c-4 -19 -24 -37 -44 -37c-24 0 -31 18 -32 34z" />
    <glyph glyph-name="uni0419" unicode="&#x419;" horiz-adv-x="613" 
d="M317 587c32 0 71 25 106 61c4 5 9 10 14 17c11 13 22 27 31 36c5 5 9 7 13 7c13 0 19 -12 16 -24c-5 -24 -26 -43 -42 -59c-39 -47 -91 -80 -151 -80c-13 0 -36 11 -52 31c-17 19 -30 46 -23 77c1 5 9 23 20 23c6 0 10 -3 13 -8c4 -12 11 -30 24 -51c7 -11 17 -21 31 -30
zM526 35c-9 59 -15 110 -19 152c-9 83 -17 140 -31 178c-7 19 -18 35 -33 49c-20 -3 -45 -19 -69 -41s-47 -51 -66 -78l-174 -256l-6 -10c-5 -9 -12 -19 -20 -26c-4 -3 -8 -5 -12 -5c-15 0 -18 11 -15 22l71 435c3 11 14 23 26 23c11 0 18 -12 15 -24l-55 -329
c15 20 28 38 40 55c23 33 43 62 64 91c20 28 44 57 76 93c31 35 64 68 95 89c15 11 29 16 40 16c19 0 37 -22 50 -49c13 -28 24 -61 28 -85c16 -89 26 -161 31 -212c2 -25 3 -45 4 -59c1 -28 2 -27 -9 -37c-5 -5 -11 -8 -16 -8c-9 0 -14 5 -15 16z" />
    <glyph glyph-name="uni041A" unicode="&#x41a;" horiz-adv-x="597" 
d="M227 246l-43 -203c-3 -16 -14 -28 -29 -36s-32 -12 -45 -12c-43 0 -54 16 -46 55l108 519c8 40 22 57 75 57c28 0 60 -18 53 -50l-38 -184c13 13 44 41 82 71s83 63 129 88s90 43 129 43c31 0 52 -25 45 -58s-26 -48 -57 -56c-104 -29 -180 -92 -256 -161l67 -125
c18 -33 32 -59 42 -80s17 -37 20 -48c7 -23 3 -33 -5 -45c-9 -13 -23 -23 -38 -30c-8 -3 -16 -5 -23 -5c-20 0 -32 8 -39 17z" />
    <glyph glyph-name="uni041B" unicode="&#x41b;" horiz-adv-x="578" 
d="M504 74l14 69c15 68 25 152 29 219c0 3 0 9 1 20c1 21 0 52 -7 85c-8 33 -24 61 -52 80c-14 9 -32 14 -53 14c-32 0 -58 -28 -79 -71s-39 -99 -55 -156c-9 -29 -17 -57 -24 -84c-7 -28 -15 -53 -23 -75c-3 -9 -8 -22 -15 -40c-14 -37 -39 -77 -72 -105
c-17 -15 -36 -22 -58 -22c-20 0 -36 12 -45 31s-13 44 -8 69c3 8 11 21 26 21c17 0 17 -19 17 -39s0 -39 23 -39c27 0 49 27 68 68c19 40 34 93 49 146l21 78c7 25 13 48 20 67c3 13 17 62 43 107c26 44 63 86 115 86c41 0 82 -19 110 -60s44 -106 36 -198
c-1 -13 -2 -21 -2 -26c0 -9 -1 -17 -4 -35s-7 -51 -10 -74c-3 -24 -8 -57 -16 -102c-4 -23 -9 -49 -16 -80c-3 -17 -11 -32 -28 -32c-15 0 -20 10 -17 21z" />
    <glyph glyph-name="uni041C" unicode="&#x41c;" horiz-adv-x="692" 
d="M320 599l47 -432l227 432h110l-3 -14h-35l-114 -547h35l-3 -14h-141l3 14h38l112 537l-286 -551h-10l-55 545l-111 -531h35l-3 -14h-83l3 14h35l114 547h-35l3 14h117z" />
    <glyph glyph-name="uni041D" unicode="&#x41d;" horiz-adv-x="532" 
d="M179 595c11 0 16 -5 16 -15v-4c-1 -1 -1 -3 -1 -4l-46 -270l323 -30l79 300c5 11 13 16 24 16c9 0 14 -8 14 -17v-3c-1 -1 -1 -2 -1 -3l-79 -296c-12 -51 -20 -96 -23 -137l-12 -120c-3 -12 -14 -23 -26 -23c-10 0 -15 5 -15 14c0 84 16 174 27 235l-312 25l-43 -206
c-7 -27 -14 -54 -33 -54c-8 0 -12 4 -13 9c-1 3 -1 5 -1 8c-1 2 -2 4 -4 6l23 99c14 61 26 121 35 180s19 119 30 180l16 92c5 15 15 18 22 18z" />
    <glyph glyph-name="uni041E" unicode="&#x41e;" horiz-adv-x="606" 
d="M82 175c-3 29 -2 56 5 87c16 79 61 160 120 221c59 60 131 101 206 101c81 0 140 -30 175 -78c35 -49 45 -117 29 -190c-23 -108 -81 -190 -149 -243s-144 -80 -204 -80c-105 0 -165 61 -182 182z" />
    <glyph glyph-name="uni041F" unicode="&#x41f;" horiz-adv-x="521" 
d="M106 -12c-9 0 -15 8 -15 17c8 77 12 131 15 176c1 22 3 43 4 62c2 38 5 75 13 119c7 44 16 99 36 160c1 5 6 9 15 13c18 7 44 12 75 16s61 6 83 7h23c53 0 94 -2 123 -7s50 -11 63 -20c26 -17 24 -42 16 -70l-85 -318c-3 -29 -6 -58 -3 -86c1 -4 4 -9 8 -15
c7 -12 3 -22 -6 -32c-5 -5 -10 -8 -16 -8c-9 0 -16 6 -19 17c-8 23 -7 61 1 109c7 47 17 97 29 142c5 22 11 42 16 61s9 34 12 47l6 24c4 17 7 31 9 42l5 25c1 6 2 11 3 14c0 3 0 5 1 8c-13 5 -28 10 -52 14c-25 4 -60 7 -112 7c-51 0 -103 -1 -163 -20l-46 -218
c-7 -39 -8 -85 -7 -124c1 -35 0 -64 -3 -89s-4 -42 -4 -53c-3 -12 -14 -20 -25 -20z" />
    <glyph glyph-name="uni0420" unicode="&#x420;" horiz-adv-x="501" 
d="M507 543c27 -29 34 -71 25 -116c-15 -71 -62 -109 -116 -131s-115 -26 -155 -26c-37 0 -77 6 -121 17c-1 -3 -3 -9 -4 -17s-5 -24 -10 -48l-21 -102c-5 -25 -9 -43 -11 -55c-3 -13 -4 -21 -5 -25s-1 -7 -2 -9c-3 -15 -8 -38 -28 -38c-13 0 -10 16 -7 27l25 122
c11 49 17 78 22 105s10 53 21 98c3 11 5 26 8 45c5 37 12 82 20 130c3 23 7 46 12 67c3 19 11 28 22 28s16 -5 12 -24l-5 -27c1 0 7 1 16 4c22 5 57 13 101 18c21 3 43 4 64 4c65 0 110 -18 137 -47z" />
    <glyph glyph-name="uni0421" unicode="&#x421;" horiz-adv-x="509" 
d="M509 564l39 38c2 2 4 3 6 3c4 0 6 -3 6 -8v-3c-1 -1 -1 -2 -1 -3l-29 -143c-1 -5 -3 -7 -7 -7c-2 0 -3 2 -3 6c-3 84 -49 144 -117 144c-44 0 -81 -18 -110 -49c-29 -32 -50 -76 -61 -127c-32 -151 -48 -229 -49 -236s-2 -14 -2 -21c0 -92 32 -136 104 -136
c53 0 89 19 130 75c1 1 4 7 11 18c13 21 31 48 44 68c7 10 11 15 12 15c2 0 3 -1 3 -4l-35 -171c-1 -5 -2 -7 -5 -7c-2 0 -4 2 -6 6l-31 45c-43 -41 -85 -61 -128 -61c-64 0 -105 27 -129 67c-24 39 -32 91 -32 140c0 51 11 113 34 171s54 113 97 154c43 40 94 67 154 67
c43 0 78 -14 105 -41z" />
    <glyph glyph-name="uni0422" unicode="&#x422;" horiz-adv-x="672" 
d="M465 396c-3 -21 -7 -43 -12 -71c-3 -15 -6 -31 -9 -49l-13 -64c-1 -3 -3 -12 -6 -27c-4 -16 -8 -33 -13 -51c-5 -19 -9 -36 -13 -53c-8 -33 -9 -55 -33 -68c-12 -7 -24 -10 -35 -10c-28 0 -43 21 -43 44c0 5 0 8 1 10l72 346h-60c-37 0 -81 1 -115 8s-60 19 -60 43
c0 35 19 54 45 64s59 11 88 11c69 0 128 -1 181 -4s101 -7 150 -12l40 -3c27 -1 51 -7 67 -19c7 -7 11 -16 11 -28c0 -27 -10 -43 -23 -53s-33 -14 -50 -14h-170z" />
    <glyph glyph-name="uni0423" unicode="&#x423;" horiz-adv-x="597" 
d="M382 598l-3 -13h-38l68 -326l191 326h-40l3 13h95l-3 -13h-38l-258 -444c-23 -40 -55 -75 -91 -100s-77 -40 -118 -40c-39 0 -62 12 -62 39c0 28 28 57 56 57c20 0 40 -9 40 -30c0 -19 -9 -36 -27 -50c56 0 111 31 151 78l-117 490h-39l3 13h227z" />
    <glyph glyph-name="uni0424" unicode="&#x424;" horiz-adv-x="834" 
d="M410 166c-129 11 -200 62 -200 150c0 92 47 153 104 194s126 64 169 77c1 5 11 17 27 17c10 0 15 -6 15 -19c141 -7 217 -66 217 -169c0 -24 -4 -55 -13 -79c-27 -72 -68 -111 -116 -134s-103 -29 -158 -34c-1 -2 -1 -5 -2 -8l-4 -22c-3 -11 -6 -28 -10 -50
c-5 -22 -11 -52 -19 -90c-1 -7 -16 -19 -27 -19c-12 0 -18 5 -18 16zM264 275c13 -25 38 -42 66 -53s60 -15 89 -15l57 333c-36 -8 -92 -27 -140 -62s-87 -83 -87 -151c0 -20 5 -37 15 -52zM656 511c-34 18 -73 27 -116 27h-11c-4 0 -8 0 -12 -1l-56 -326l14 2
c12 2 26 4 42 7c32 5 66 16 98 33s57 46 73 87c7 21 11 46 11 75c0 36 -7 79 -43 96z" />
    <glyph glyph-name="uni0425" unicode="&#x425;" horiz-adv-x="561" 
d="M512 28c-3 -12 -12 -21 -23 -21c-3 0 -8 5 -15 14c-14 18 -34 49 -57 89c-24 40 -50 86 -75 131c-13 23 -25 44 -36 65c-35 -47 -67 -95 -98 -143l-27 -43c-21 -35 -44 -71 -64 -95c-10 -12 -18 -18 -24 -18c-11 0 -17 5 -17 14c0 2 1 4 2 6s1 4 2 6
c72 104 134 202 201 309c-24 47 -44 80 -51 127c-1 2 -1 6 -2 13s-3 14 -4 23c-3 16 -5 36 -5 51c0 25 12 33 25 33c12 0 17 -10 19 -28c1 -9 1 -20 2 -31c0 -24 4 -56 14 -84s20 -49 28 -61l7 -10c41 32 92 82 136 123c21 21 41 38 58 53c17 14 30 21 37 21
c9 0 17 -5 17 -16c0 -5 0 -9 -7 -16c-38 -34 -75 -66 -110 -97s-71 -64 -107 -98c9 -20 34 -61 59 -104l15 -24c7 -11 14 -24 23 -38c8 -15 17 -30 26 -46c19 -32 34 -62 44 -83c5 -11 7 -18 7 -22z" />
    <glyph glyph-name="uni0427" unicode="&#x427;" horiz-adv-x="526" 
d="M331 598l-3 -15h-40l-58 -276c-1 -3 -1 -6 -1 -11c0 -31 27 -46 60 -46c29 0 64 12 97 27l64 306h-41l3 15h165l-3 -15h-42l-119 -572h42l-3 -14h-165l3 14h41l51 247c-37 -19 -77 -28 -121 -28c-67 0 -111 27 -111 84c0 8 1 17 3 26l51 243h-40l3 15h164z" />
    <glyph glyph-name="uni0426" unicode="&#x426;" horiz-adv-x="733" 
d="M624 0c3 13 4 24 4 35c0 21 -10 30 -41 34c-20 -3 -66 -9 -118 -14s-110 -10 -151 -10h-123l-47 3c-13 1 -22 5 -26 12c-19 32 -24 64 -24 103c0 27 2 55 6 84c1 6 2 19 4 39c4 40 9 93 17 146c3 26 7 48 11 67c7 31 23 41 44 41c22 0 33 -11 33 -34
c-13 -115 -22 -191 -27 -245s-8 -84 -8 -104c0 -15 1 -23 4 -31c24 -4 47 -4 86 -4c79 0 154 3 238 19c11 116 17 213 21 285l5 87c3 43 3 52 22 67c9 7 19 11 30 11c9 0 16 -4 20 -12c3 -9 5 -22 5 -41c0 -16 -2 -60 -6 -112l-6 -83c-3 -29 -5 -57 -7 -83
c-4 -53 -9 -96 -12 -112h34c39 0 63 -10 77 -25c14 -16 18 -37 18 -58c0 -17 -3 -34 -6 -50c-8 -36 -14 -68 -24 -91c-10 -24 -24 -38 -44 -38s-31 12 -31 31c0 3 0 6 1 8z" />
    <glyph glyph-name="uni0428" unicode="&#x428;" horiz-adv-x="804" 
d="M197 68h116l60 3c16 1 32 2 49 4l24 144c4 28 10 67 17 107c3 20 7 40 10 60s5 38 8 55l7 41c3 23 1 29 17 44c8 7 17 11 26 11c19 0 27 -14 28 -30l-68 -432c44 0 73 0 100 -3h67l127 440c7 17 20 26 37 26s30 -13 27 -32l-128 -464c-7 -16 -20 -31 -39 -31h-30h-35h-55
c-22 -1 -51 -1 -86 -1c-72 0 -173 -1 -324 -2c-11 0 -28 5 -25 18l34 483c4 17 22 36 41 36c15 0 30 -13 27 -30z" />
    <glyph glyph-name="uni0429" unicode="&#x429;" horiz-adv-x="995" 
d="M349 605l-3 -15h-51l-125 -601h253l125 601h-54l3 15h201l-3 -15h-52l-125 -601h253l125 601h-52l3 15h200l-3 -15h-52l-125 -601h82l-35 -170c-9 44 -17 82 -35 110s-45 45 -92 45h-768l3 15h52l125 601h-52l3 15h199z" />
    <glyph glyph-name="uni042C" unicode="&#x42c;" horiz-adv-x="435" 
d="M212 340c-4 -19 -9 -45 -5 -54h26c40 0 84 -7 116 -30c31 -24 48 -61 36 -121c-7 -32 -28 -61 -59 -84s-72 -37 -119 -37c-29 0 -46 22 -54 56c-4 17 -6 36 -6 59c0 44 5 94 13 143c4 24 8 47 13 69c2 9 4 18 7 27l8 35c3 14 8 31 13 51c5 19 11 44 18 73
c3 13 11 37 30 37c11 0 17 -5 13 -24c-13 -47 -27 -103 -50 -200z" />
    <glyph glyph-name="uni042A" unicode="&#x42a;" horiz-adv-x="610" 
d="M177 538c-11 0 -18 8 -15 20c1 8 8 14 21 19c25 9 65 14 113 15h72h16c20 -3 45 -7 42 -24l-41 -193h42l38 -3c28 -2 59 -8 87 -23c27 -15 46 -40 52 -82s-8 -109 -35 -153s-64 -75 -107 -91c-22 -9 -44 -13 -66 -13c-59 0 -89 25 -101 59c-13 34 -10 76 -2 113
c9 47 20 74 28 98l12 33c3 11 6 23 9 37l42 200c-20 6 -41 9 -62 9c-23 0 -47 -3 -72 -10s-49 -11 -73 -11zM391 333c-3 0 -6 -4 -11 -11c-10 -15 -23 -41 -34 -77c-12 -37 -25 -92 -21 -127c3 -35 18 -54 41 -62c11 -4 24 -6 38 -6c44 0 80 18 107 44s43 60 51 95
c7 32 4 69 -13 98s-49 51 -98 51z" />
    <glyph glyph-name="uni042B" unicode="&#x42b;" horiz-adv-x="608" 
d="M501 26c0 2 0 5 1 8s2 9 3 18c3 12 7 29 14 51c12 43 31 127 35 199c2 36 -3 72 -14 108c-44 -19 -70 -30 -91 -42c-21 -13 -40 -28 -69 -52c-9 -8 -30 -26 -49 -44s-36 -36 -37 -43c-1 -3 1 -5 6 -6c24 -5 53 -14 75 -29s35 -35 30 -64c-5 -27 -29 -54 -61 -77
s-73 -38 -114 -38c-47 0 -70 14 -81 33c-5 9 -8 20 -8 31s1 22 3 32c16 79 31 143 46 193c14 49 24 87 29 113c5 16 9 27 12 34s8 10 16 10c15 0 19 -11 16 -19l-52 -215l37 5c36 43 78 88 127 128s106 74 169 94c4 1 7 2 9 2c9 0 15 -3 18 -10c19 -41 24 -85 23 -132
s-11 -95 -20 -144l-12 -58c-5 -24 -11 -49 -18 -68c-8 -20 -17 -33 -26 -33s-17 4 -17 15z" />
    <glyph glyph-name="uni042D" unicode="&#x42d;" 
d="M353 602h24c80 0 138 -35 171 -91s42 -132 25 -213c-17 -84 -56 -158 -112 -212c-57 -54 -130 -87 -217 -87c-56 0 -88 22 -121 63l-62 -53l-6 -1c-1 0 -2 2 -2 6l35 167c1 4 2 6 4 6c3 0 6 -5 9 -14l6 -30c29 -83 68 -129 159 -129c49 0 90 20 122 52
c31 32 53 75 62 120l23 109c-7 4 -17 11 -32 11c-25 0 -49 -10 -70 -18c-21 -9 -41 -19 -61 -19c-5 0 -30 3 -53 10c-11 3 -21 7 -30 11s-13 9 -12 14c1 4 3 6 8 6c0 0 2 0 5 -1c6 -2 14 -4 23 -6c5 -1 8 -2 11 -2c9 0 30 9 52 18s46 18 65 18c29 0 61 -9 97 -27l22 104
c23 108 -20 174 -120 174c-77 0 -132 -30 -183 -94c0 -1 -2 -4 -5 -10c-7 -12 -15 -27 -24 -39c-5 -6 -9 -9 -12 -9c-1 0 -2 1 -2 4l32 152c1 7 4 10 10 10c3 0 7 -2 10 -5l32 -40c13 12 35 23 56 31c20 8 42 14 61 14z" />
    <glyph glyph-name="uni042E" unicode="&#x42e;" horiz-adv-x="880" 
d="M651 618c85 -3 148 -41 189 -89c40 -49 60 -108 60 -152c0 -12 -1 -25 -4 -37c-19 -89 -62 -156 -115 -206s-115 -83 -173 -103s-111 -27 -144 -27c-31 0 -68 12 -99 40s-54 73 -54 140c0 31 4 63 9 100l-24 3c-19 3 -39 5 -58 6c-9 1 -17 1 -23 1c-2 -5 -5 -12 -8 -21
c-4 -9 -9 -24 -15 -43c-12 -39 -29 -101 -50 -205c-7 -27 -17 -35 -38 -35c-19 0 -27 2 -27 18v8c0 3 1 6 2 9c7 35 14 58 25 92s23 78 39 157l33 266c4 21 24 32 40 32c17 0 25 -8 25 -25v-3c-1 -1 -1 -3 -1 -4c-5 -26 -9 -52 -10 -78c-1 -27 -4 -58 -7 -95
c21 -2 41 -5 60 -9s38 -6 59 -6c45 119 99 186 153 223c54 36 108 43 156 43zM493 70c55 0 109 16 157 43c47 27 88 62 120 99c31 37 52 77 59 110c3 13 4 26 4 40c0 56 -24 102 -60 135c-37 33 -89 52 -142 52c-31 0 -58 -7 -93 -22c-15 -8 -42 -23 -71 -63
s-61 -103 -82 -207c-5 -21 -7 -42 -7 -61c0 -48 15 -79 37 -98c22 -20 50 -28 78 -28z" />
    <glyph glyph-name="uni042F" unicode="&#x42f;" 
d="M613 610l-3 -15h-36l-121 -583h36l-3 -15h-146l3 15h36l62 298h-63c-43 0 -71 -25 -91 -57s-32 -72 -37 -103l-11 -51c-15 -68 -56 -105 -113 -105c-7 0 -12 1 -19 2c1 -1 -1 0 -7 2c-12 3 -30 9 -43 17c-7 4 -9 8 -8 13c1 2 3 3 6 3l7 -2c15 -5 19 -6 26 -6
c19 0 31 9 50 36c12 59 32 121 61 169c29 47 69 80 120 80c-24 0 -55 14 -78 39c-23 24 -36 59 -28 99c23 104 104 164 208 164h192z" />
    <glyph glyph-name="uni0430" unicode="&#x430;" horiz-adv-x="456" 
d="M285 466c72 0 118 -12 118 -69c0 -13 -1 -24 -4 -33l-60 -288c-1 -1 -1 -6 -1 -15c0 -16 5 -28 24 -28c12 0 25 13 36 25c5 6 10 12 15 17s8 8 11 8c1 0 1 -1 1 -3c0 -23 -22 -42 -46 -56c-25 -14 -55 -22 -68 -22c-36 0 -43 26 -43 53c0 3 1 7 2 11
c-32 -37 -79 -64 -126 -64s-74 32 -74 81c0 59 26 105 67 137c41 31 96 47 156 47h17l22 108c2 9 3 17 3 26c0 29 -15 47 -43 47c-7 0 -27 -3 -47 -7c-20 -5 -38 -13 -38 -24c0 -1 0 -2 1 -2c13 -7 19 -17 19 -31c0 -21 -10 -51 -37 -51c-29 0 -44 11 -44 33
c0 33 21 59 49 76c28 16 62 24 90 24zM308 257c-108 0 -169 -50 -169 -170c0 -32 10 -57 39 -57l19 3h-1c15 5 32 13 47 23s27 20 30 35z" />
    <glyph glyph-name="uni0431" unicode="&#x431;" horiz-adv-x="486" 
d="M533 575c-1 -7 -4 -15 -8 -22c-5 -8 -9 -16 -13 -23c-28 -36 -47 -50 -71 -55c-13 -3 -27 -4 -43 -4c-17 0 -38 -1 -64 -4c-76 0 -119 -19 -147 -54c-28 -36 -43 -87 -60 -151c52 73 103 108 186 108c44 0 78 -17 102 -44s36 -62 36 -101c0 -69 -31 -125 -75 -162
c-45 -37 -103 -58 -155 -58c-85 0 -136 49 -136 156c0 77 21 166 60 238s94 126 163 137c27 4 49 7 67 8c35 3 60 4 81 8c10 2 22 6 35 11l21 14c9 6 15 9 18 9s4 -2 4 -5s0 -5 -1 -6zM291 358c-24 0 -41 -13 -53 -31c-13 -18 -20 -42 -24 -59l-31 -151
c-4 -17 -5 -32 -5 -44c0 -37 15 -56 46 -56c28 0 48 11 61 28c13 16 21 40 26 67l32 154c2 11 3 21 3 31c0 35 -16 61 -55 61z" />
    <glyph glyph-name="uni0432" unicode="&#x432;" horiz-adv-x="427" 
d="M367 304c-1 -8 -8 -23 -24 -40s-40 -37 -79 -54c48 -4 80 -18 100 -36s27 -41 27 -64c0 -49 -32 -75 -75 -87c-44 -13 -96 -13 -136 -13c-16 0 -34 2 -49 7c-15 4 -27 14 -28 30c-1 3 -1 9 -1 17v27c0 37 1 93 4 145c3 51 7 99 14 126c1 3 5 7 13 11c15 8 41 14 73 18
c16 2 33 3 50 3c68 0 115 -27 115 -63v-4c-1 -2 -1 -4 -1 -5zM254 360c-32 0 -65 -8 -99 -24l-6 -115h83c15 8 40 21 61 37c20 16 37 35 37 58c0 15 -10 26 -25 34c-16 7 -35 10 -51 10z" />
    <glyph glyph-name="uni0433" unicode="&#x433;" horiz-adv-x="422" 
d="M415 292h-46l19 89h-140l-68 -324h63l-6 -29h-191l6 29h63l68 324h-63l6 29h314z" />
    <glyph glyph-name="uni0434" unicode="&#x434;" horiz-adv-x="463" 
d="M373 108l-2 16l-277 -35c-20 -4 -25 -27 -25 -54c0 -9 1 -19 2 -30s1 -21 1 -30c0 -31 -4 -53 -31 -53c-5 0 -8 3 -9 10c-2 6 -3 14 -3 25c0 31 6 72 17 121c1 8 4 18 11 26s18 15 39 19c4 37 8 85 12 127c3 42 7 79 11 102c3 16 38 34 80 47s89 23 120 23
c64 0 80 -31 80 -67c0 -16 -3 -33 -6 -48c-1 -8 -3 -15 -4 -21l-4 -15l-23 -111c8 1 16 3 24 3c12 0 23 -6 23 -17v-3c1 -17 1 -33 1 -48v-42c0 -36 0 -64 -1 -83c-1 -39 1 -49 -24 -49c-8 -1 -12 7 -12 11v5v171zM324 387c-36 0 -71 -6 -101 -14c-30 -9 -56 -23 -69 -39
l-21 -205l190 25l30 186c0 3 0 5 1 8v6c0 25 -10 33 -30 33z" />
    <glyph glyph-name="uni0435" unicode="&#x435;" horiz-adv-x="411" 
d="M196 163c-27 0 -51 4 -78 9c-1 -16 -1 -55 12 -90c12 -36 35 -67 82 -67c45 4 71 12 87 20c8 3 15 6 20 9s10 4 15 4c4 0 15 -3 12 -18c-3 -12 -17 -19 -34 -26c-9 -5 -20 -11 -38 -15c-18 -5 -44 -9 -81 -9c-47 0 -78 34 -97 83c-19 48 -22 112 -10 169
c25 121 93 181 173 181c23 0 40 -4 68 -15s57 -30 74 -58c17 -29 7 -79 -25 -111c-32 -33 -75 -52 -119 -60c-23 -4 -43 -6 -61 -6z" />
    <glyph glyph-name="uni0451" unicode="&#x451;" horiz-adv-x="426" 
d="M367 495c-52 0 -39 74 16 74s41 -74 -16 -74zM250 496h-1c-43 0 -30 65 13 65c44 0 25 -50 12 -57c-7 -4 -15 -7 -24 -8zM226 187c-27 0 -48 8 -76 20c-12 -96 21 -158 96 -158c12 0 22 3 31 9c9 5 17 8 26 8c13 0 19 -3 15 -19c-1 -9 -10 -17 -21 -22
c-12 -5 -26 -9 -35 -10l-35 -4c-52 0 -86 33 -104 81c-18 47 -20 109 -8 166c13 61 37 107 69 136c31 29 67 43 104 43c21 0 64 -9 98 -29s60 -51 51 -95c-9 -45 -43 -77 -83 -97s-88 -29 -128 -29zM156 263c-1 -7 -2 -11 -2 -14c3 -8 23 -15 45 -19c22 -5 47 -8 59 -8
c76 0 128 39 139 90c5 25 -12 48 -36 64c-25 16 -58 25 -79 25c-40 0 -68 -19 -88 -46s-31 -61 -38 -92z" />
    <glyph glyph-name="uni0436" unicode="&#x436;" horiz-adv-x="990" 
d="M702 246c11 37 27 81 52 114s59 58 107 58c15 0 43 -5 67 -15s44 -26 44 -46c0 -15 -11 -18 -18 -18c-17 0 -31 10 -46 20c-16 10 -31 20 -51 20c-40 0 -67 -19 -86 -47c-20 -28 -31 -64 -36 -96c-5 -33 -7 -62 -7 -77c0 -80 30 -123 74 -123h31c24 9 41 17 53 29
c12 11 19 25 26 46c1 11 6 31 14 50c7 19 16 34 27 34c7 0 14 -7 14 -18v-2c-1 -1 -1 -2 -1 -3c-16 -77 -45 -120 -77 -143c-33 -24 -72 -28 -108 -28c-51 0 -90 61 -90 156c0 14 1 30 3 47c-56 -29 -95 -81 -123 -125l-38 -57c-11 -16 -21 -24 -30 -24c-16 0 -20 11 -20 24
l-6 341l-113 -162c-30 -42 -54 -76 -72 -102s-32 -45 -41 -58c-20 -25 -30 -41 -49 -44c-10 -2 -20 -3 -29 -3c-20 0 -46 6 -66 22s-35 43 -35 84c0 23 4 33 14 57c10 23 25 48 44 65c9 8 19 12 29 12c9 0 14 -3 14 -10c0 -8 -4 -15 -12 -22c-36 -29 -49 -64 -49 -101
c0 -47 24 -79 67 -79c28 0 51 31 67 69s27 83 34 114l9 41c8 35 15 78 15 113c0 47 -12 81 -53 81c-33 0 -51 -26 -58 -58l-3 -43c-3 -11 -10 -16 -22 -16c-11 0 -16 8 -16 23c0 72 38 125 102 125c60 0 81 -40 81 -105c0 -27 -7 -73 -15 -116l-11 -57c-4 -17 -6 -27 -7 -30
l184 271c4 4 8 6 12 6c6 0 10 -4 12 -13l9 -358l13 20c23 35 43 68 70 96c27 27 57 49 100 61z" />
    <glyph glyph-name="uni0437" unicode="&#x437;" horiz-adv-x="413" 
d="M156 43c21 -7 39 -12 55 -12c31 0 55 12 72 29s29 40 33 63c5 29 2 58 -10 79c-13 20 -36 33 -65 33c-11 0 -23 -1 -34 -3c-12 -2 -23 -3 -33 -3c-11 0 -16 9 -13 20s10 17 21 19l83 7c27 21 48 49 55 80c8 35 -6 68 -70 76c-47 0 -83 -14 -99 -75c-3 -7 -13 -15 -24 -15
s-16 6 -14 17c9 47 34 74 62 90c27 16 56 21 79 21c43 0 71 -16 88 -38c16 -22 21 -52 16 -76c-8 -41 -31 -62 -64 -93c51 -31 70 -75 55 -147c-7 -31 -20 -59 -44 -81c-25 -22 -59 -37 -107 -37c-25 0 -45 4 -60 11c-13 5 -27 20 -38 37s-18 37 -14 54c3 11 11 21 22 21
c12 0 14 -5 17 -16c3 -31 15 -46 31 -61z" />
    <glyph glyph-name="uni0438" unicode="&#x438;" horiz-adv-x="446" 
d="M270 461l-2 -13h-32l-77 -370l216 338l7 32h-30l2 13h119l-2 -13h-32l-89 -425h32l-3 -16h-119l3 16h30l74 356l-216 -340l-4 -16h32l-3 -16h-119l3 16h30l89 425h-30l2 13h119z" />
    <glyph glyph-name="uni0439" unicode="&#x439;" horiz-adv-x="521" 
d="M294 520c15 -13 27 -22 36 -26c8 -5 14 -7 18 -7c17 0 32 9 59 28c4 3 8 7 13 12c8 9 19 19 29 25c5 3 10 4 15 4c11 0 18 -3 15 -14c-4 -17 -24 -40 -51 -57c-28 -17 -60 -30 -85 -30c-23 0 -30 3 -47 12c-17 8 -37 20 -50 36s-9 45 16 45c9 0 15 -3 18 -10
s8 -13 14 -18zM148 349c4 11 11 18 24 18c11 0 17 -7 14 -16l-55 -267l51 42c13 11 24 21 35 30c21 18 50 40 94 71c21 15 49 35 83 58c3 1 7 4 12 8c11 7 24 16 36 22c6 3 11 4 15 4c15 0 29 -4 34 -37c3 -14 3 -35 2 -62c-4 -56 -24 -147 -31 -182c-4 -18 -8 -32 -11 -43
c-7 -22 -14 -30 -26 -30c-13 0 -17 9 -14 20l23 107c13 64 25 126 10 182c-42 -30 -83 -60 -123 -91l-118 -89c-5 -4 -11 -10 -20 -18c-17 -17 -38 -35 -57 -47c-10 -7 -18 -10 -24 -10c-17 0 -18 15 -14 36l17 80c11 49 24 119 43 214z" />
    <glyph glyph-name="uni043A" unicode="&#x43a;" horiz-adv-x="471" 
d="M441 396c-3 -15 -17 -36 -36 -36c-35 0 -21 47 0 56v1c-1 1 -3 1 -5 1c-8 0 -20 -5 -29 -11c-5 -3 -9 -6 -13 -9s-6 -5 -7 -6l-99 -117l97 -261h32l-3 -15h-136l3 15h32l-76 220l140 162c17 20 43 34 67 34c26 0 38 -8 35 -24zM265 428l-2 -12h-32l-84 -402h32l-3 -15
h-124l3 15h34l84 402h-34l2 12h124z" />
    <glyph glyph-name="uni043B" unicode="&#x43b;" horiz-adv-x="526" 
d="M433 -11c-19 0 -34 14 -30 35c3 21 6 41 10 61c8 39 14 78 18 115c2 19 2 38 1 57c0 9 0 43 -6 75c-6 31 -19 59 -44 59c-27 0 -45 -14 -59 -33c-14 -20 -25 -46 -33 -67l-82 -228c-16 -36 -37 -45 -69 -45c-40 0 -74 32 -65 75c4 19 23 39 44 39c15 0 23 -8 30 -19
l73 196c13 36 37 76 67 106s65 50 108 50c37 0 64 -22 79 -53c28 -75 31 -139 25 -200c-3 -31 -7 -61 -12 -91c-5 -31 -9 -62 -11 -95c-5 -23 -25 -37 -44 -37z" />
    <glyph glyph-name="uni043C" unicode="&#x43c;" horiz-adv-x="704" 
d="M32 3l7 31c21 0 36 3 47 12s19 26 27 54l80 282c1 5 2 9 2 13c0 19 -16 22 -48 25l6 30h154l71 -305l201 305h148l-6 -30c-43 -5 -52 -14 -59 -41c-15 -103 -27 -181 -35 -233s-12 -79 -12 -82c0 -25 16 -30 51 -30l-7 -31h-222l7 31h11c25 0 40 5 49 13c8 8 11 19 14 34
l58 279l-246 -357h-19l-85 347l-75 -267c-1 -2 -2 -5 -2 -8c0 -39 11 -41 44 -41h5l-7 -31h-159z" />
    <glyph glyph-name="uni043D" unicode="&#x43d;" horiz-adv-x="640" 
d="M473 248l23 112c8 36 -4 51 -45 51h-7l6 30h224l-6 -30h-7c-40 0 -58 -15 -66 -51l-57 -278c-9 -39 6 -51 45 -51h7l-6 -31h-225l6 31h7c41 0 59 12 67 51l25 123h-225l-25 -123c-9 -39 6 -51 45 -51h7l-6 -31h-224l6 31h7c39 0 58 12 67 51l57 278c8 39 -6 51 -45 51h-7
l6 30h224l-6 -30h-7c-39 0 -59 -12 -67 -51l-23 -112h225z" />
    <glyph glyph-name="uni043E" unicode="&#x43e;" horiz-adv-x="480" 
d="M314 437c65 0 109 -27 133 -67c24 -41 30 -96 18 -149c-12 -60 -41 -116 -80 -156c-40 -40 -89 -65 -142 -65c-65 0 -112 23 -140 62s-35 91 -23 151c12 57 40 114 80 155s93 69 154 69zM313 422h-4c-32 0 -61 -16 -83 -38s-37 -50 -42 -74l-40 -191c-1 -3 -1 -9 -1 -17
v-14c0 -19 11 -42 39 -61c13 -9 34 -14 61 -14c37 0 66 18 86 41s31 50 35 70l37 177c5 29 4 59 -10 82s-39 39 -78 39z" />
    <glyph glyph-name="uni043F" unicode="&#x43f;" horiz-adv-x="507" 
d="M531 441l-3 -14h-40l-85 -409h40l-3 -15h-155l3 15h40l85 409h-159l-85 -409h40l-3 -15h-155l3 15h40l85 409h-40l3 14h389z" />
    <glyph glyph-name="uni0440" unicode="&#x440;" horiz-adv-x="430" 
d="M49 -272c-3 -15 -15 -18 -22 -18c-9 0 -14 4 -14 12c1 36 6 78 14 122c3 22 7 44 12 67c5 22 9 43 13 64l31 147c4 21 8 40 13 57l15 73c4 23 27 35 53 41s55 5 72 5h4c104 0 141 -59 120 -159c-12 -63 -41 -100 -73 -123c-33 -23 -72 -30 -107 -30h-82
c-8 -47 -15 -84 -23 -123c-8 -40 -17 -82 -26 -135z" />
    <glyph glyph-name="uni0441" unicode="&#x441;" horiz-adv-x="449" 
d="M325 302c-48 0 -94 -16 -129 -43c-36 -27 -61 -64 -70 -107c-4 -23 0 -54 14 -78c14 -25 38 -44 74 -44c39 0 70 15 107 39l27 20c11 8 19 12 26 12c9 0 18 -4 15 -19c-1 -8 -30 -32 -56 -48s-54 -28 -81 -35c-13 -3 -26 -5 -37 -5c-49 0 -85 22 -105 53
c-21 31 -27 72 -19 109c11 49 40 95 77 126c36 31 76 47 116 52c19 3 38 4 57 4c9 0 14 -10 11 -18c-2 -12 -11 -18 -27 -18z" />
    <glyph glyph-name="uni0442" unicode="&#x442;" horiz-adv-x="480" 
d="M185 434h307c9 0 13 -5 12 -15l-15 -116c-1 -5 -1 -9 -8 -9c-3 0 -3 7 -2 20c2 27 1 60 -13 87c-7 13 -20 20 -39 20h-54l-84 -406h39l-3 -15h-154l3 15h40l84 406h-53c-35 0 -57 -32 -73 -63c-8 -16 -15 -31 -20 -44c-6 -13 -11 -20 -16 -20c-2 0 -3 1 -3 3l36 124
c1 5 11 13 16 13z" />
    <glyph glyph-name="uni0443" unicode="&#x443;" horiz-adv-x="631" 
d="M360 445l-3 -13h-30l100 -259l182 259h-30l3 13h83l-3 -13h-31l-297 -430c-3 -5 -7 -11 -12 -17s-11 -12 -16 -19c-15 -15 -43 -45 -78 -72c-36 -27 -79 -50 -120 -50c-19 0 -36 6 -47 18c-12 12 -17 28 -13 48c7 31 41 53 69 53c31 0 48 -25 41 -53
c-4 -19 -15 -33 -33 -43c3 0 9 1 16 3c81 32 138 91 194 167l-142 395h-29l3 13h193z" />
    <glyph glyph-name="uni0444" unicode="&#x444;" 
d="M270 1c-11 3 -37 8 -66 20s-61 29 -84 56s-35 62 -26 109c7 33 28 59 54 79s57 34 84 45l71 27c3 16 5 32 7 47c3 31 6 55 8 71c1 7 1 11 1 12c4 25 15 37 32 37c11 0 18 -7 19 -22l-23 -111c67 -16 123 -35 160 -63c36 -28 53 -67 42 -120c-11 -48 -44 -94 -88 -128
c-45 -34 -100 -57 -155 -60l-65 -312c-4 -18 -13 -27 -27 -27c-11 0 -14 10 -11 21zM315 47h5c2 -1 5 -1 8 -1c11 0 22 1 30 2c1 0 9 3 24 10c29 12 68 37 101 70c32 33 40 78 29 106c-12 28 -34 49 -62 64s-54 24 -73 28c-10 2 -16 3 -19 4zM314 298l-43 -10
c-17 -5 -50 -15 -79 -31s-56 -39 -63 -70c-11 -53 7 -86 38 -106c31 -21 73 -29 112 -33z" />
    <glyph glyph-name="uni0445" unicode="&#x445;" horiz-adv-x="505" 
d="M298 435l-3 -13h-44l61 -147l131 147h-41l3 13h101l-3 -13h-45l-141 -160l102 -251h44l-3 -14h-173l3 14h44l-76 184l-166 -184h44l-3 -14h-99l3 14h43l172 195l-87 216h-43l3 13h173z" />
    <glyph glyph-name="uni0447" unicode="&#x447;" horiz-adv-x="438" 
d="M363 393c7 27 27 35 43 35c21 0 33 -15 29 -35c-21 -140 -38 -272 -55 -413c-4 -21 -21 -38 -40 -38c-23 0 -36 11 -33 32l23 204l-71 -10c-3 -1 -6 -1 -10 -1c-5 -1 -13 -1 -24 -1c-51 0 -80 16 -95 41c-16 25 -16 61 -8 101c10 50 22 86 36 108c13 21 27 32 42 32
c25 0 34 -16 30 -35c-1 -5 -3 -10 -5 -17s-7 -19 -14 -37c-8 -19 -15 -36 -18 -51c-7 -29 -2 -46 10 -56s31 -14 52 -14c19 0 33 1 44 2s19 2 25 3c5 1 9 3 11 4s4 1 6 1h1c4 36 7 61 11 82c3 21 6 40 10 63z" />
    <glyph glyph-name="uni0446" unicode="&#x446;" horiz-adv-x="511" 
d="M315 439l-3 -12h-39l-83 -399h157l83 399h-41l3 12h150l-3 -12h-38l-83 -399h54l-23 -112c1 19 0 43 -8 63c-8 19 -22 34 -45 34h-321l3 15h41l83 399h-41l3 12h151z" />
    <glyph glyph-name="uni0448" unicode="&#x448;" horiz-adv-x="717" 
d="M304 437l-2 -13h-40l-85 -407h145l85 407h-41l2 13h154l-2 -13h-40l-85 -407h143l85 407h-37l2 13h152l-2 -13h-40l-85 -407h40l-3 -15h-588l3 15h39l85 407h-39l2 13h152z" />
    <glyph glyph-name="uni0449" unicode="&#x449;" horiz-adv-x="845" 
d="M727 -106l21 75c7 31 5 54 0 66h-279l-70 -16c-3 -13 -10 -24 -25 -24s-21 13 -22 28c-29 -1 -61 -3 -96 -5s-74 -3 -118 -3c-24 0 -41 1 -50 4c-9 2 -13 9 -10 20l76 367c3 13 13 18 25 18c9 0 12 -9 8 -27c-1 -3 -1 -6 -1 -9c-1 -3 -2 -8 -3 -15l-5 -31
c-5 -27 -14 -73 -29 -145l-26 -135l233 -13c1 3 3 17 7 41c8 47 21 118 35 196c7 39 14 75 21 109c3 11 11 16 20 16c11 0 17 -7 17 -18l-56 -331c28 11 64 16 100 19c35 3 70 3 94 3h21l45 317c3 9 10 19 21 19c9 0 20 -5 17 -16l-47 -323c11 0 20 0 28 1c7 1 14 1 19 1
c51 0 76 -11 87 -32s6 -54 -3 -95c-5 -23 -10 -42 -15 -58c-6 -17 -14 -25 -23 -25c-15 0 -17 9 -17 21z" />
    <glyph glyph-name="uni044C" unicode="&#x44c;" horiz-adv-x="378" 
d="M170 395c8 0 20 -5 17 -14l-25 -121c-3 -11 -4 -21 -5 -33c29 -1 75 -7 109 -23c34 -17 57 -44 48 -91c-5 -27 -24 -54 -48 -75c-25 -21 -56 -35 -85 -35c-43 0 -60 26 -66 64s0 85 7 132l25 174c3 13 12 22 23 22zM255 169c-35 23 -67 23 -102 27c-4 -20 -10 -62 -9 -98
c0 -36 9 -67 37 -67c3 0 6 0 8 1c40 9 62 25 74 40s16 28 17 35c7 31 -6 49 -25 62z" />
    <glyph glyph-name="uni044A" unicode="&#x44a;" horiz-adv-x="576" 
d="M220 56l69 330h-119l-18 -87h-51l24 117h307l-6 -30h-70l-31 -146h93c43 0 82 -5 108 -21s38 -43 30 -84l-3 -10c-5 -27 -20 -51 -45 -69s-62 -29 -113 -29h-245l6 29h64zM287 56h93c51 0 94 30 105 82c7 31 -2 49 -18 61c-16 11 -39 14 -59 14h-88z" />
    <glyph glyph-name="uni044B" unicode="&#x44b;" horiz-adv-x="525" 
d="M406 107c3 17 6 33 7 48l3 39c3 29 6 53 7 70s0 29 -1 38s-3 14 -6 17c-3 2 -6 3 -9 3c-25 0 -47 -14 -73 -40c-13 -13 -28 -30 -43 -49c-15 -20 -33 -42 -53 -67c16 -9 34 -23 47 -39c12 -17 19 -38 14 -62c-1 -8 -10 -30 -25 -49c-15 -20 -36 -38 -61 -38
c-43 0 -64 30 -75 70c-12 40 -11 91 -8 132c1 21 3 38 6 52c2 14 3 22 4 23l10 64c3 21 6 41 9 62c3 11 8 20 29 20c11 0 15 -9 15 -20c-11 -64 -20 -126 -25 -186l33 -15c20 24 38 46 53 66c31 39 60 71 96 93c17 11 38 19 62 25h6c24 0 31 -27 36 -56v-28
c-1 -33 -4 -84 -11 -147c-4 -32 -9 -64 -16 -97c-3 -13 -11 -24 -26 -24c-11 0 -21 5 -18 16zM260 62l1 15c-1 29 -15 46 -32 56c-9 5 -18 9 -28 12c-11 3 -21 7 -30 11c-1 -33 0 -58 3 -77s7 -33 12 -42c11 -20 24 -22 36 -22l5 2c7 2 16 8 24 21c4 6 7 14 9 24z" />
    <glyph glyph-name="uni044D" unicode="&#x44d;" horiz-adv-x="480" 
d="M477 243l-6 -42c-16 -76 -55 -127 -103 -159s-106 -44 -158 -44c-23 0 -63 10 -96 27s-60 42 -53 73c1 5 6 18 14 27c7 9 16 18 28 18c19 0 39 -4 48 -15c19 -24 49 -35 120 -35c41 5 65 21 79 42c7 11 12 23 16 36s9 27 14 41c-7 0 -20 -1 -39 -4c-2 -1 -9 -2 -22 -5
c-26 -5 -62 -12 -98 -16c-18 -3 -33 -4 -45 -4c-36 0 -36 18 -33 51c5 21 20 34 43 41c9 3 16 4 40 8c12 1 29 4 51 7s52 8 91 13c-1 7 -1 14 -1 22c-1 16 -9 32 -29 42c-11 5 -26 7 -47 7c-28 0 -54 -8 -79 -24c-13 -8 -25 -12 -37 -12c-25 0 -42 17 -38 40
c7 31 36 53 69 69c32 15 69 22 89 22c69 0 117 -32 145 -76s38 -101 37 -150z" />
    <glyph glyph-name="uni044E" unicode="&#x44e;" horiz-adv-x="657" 
d="M482 439c64 0 107 -28 131 -70s29 -99 18 -152s-36 -108 -71 -149c-36 -41 -79 -69 -126 -69h-27c-56 0 -93 22 -114 59s-26 89 -18 148h-54l-38 -184h36l-3 -14h-138l3 14h36l81 390h-36l3 13h138l-3 -13h-36l-39 -186h54c17 71 48 124 84 160c36 35 78 53 119 53z
M496 428c-36 0 -64 -18 -85 -44s-36 -59 -41 -86l-34 -164c-16 -77 18 -124 79 -124c65 0 109 53 124 126l36 172c7 32 3 62 -10 84s-36 36 -69 36z" />
    <glyph glyph-name="uni044F" unicode="&#x44f;" horiz-adv-x="503" 
d="M527 442l-2 -13h-43l-86 -413h43l-3 -15h-163l3 15h42l44 212h-48c-27 0 -46 -13 -61 -35c-16 -22 -26 -55 -37 -91l-5 -23c-11 -55 -44 -82 -99 -82c-8 0 -25 2 -40 7c-15 4 -27 11 -26 19c1 2 2 3 4 3c5 0 9 -1 12 -3s6 -3 10 -3c27 0 43 17 50 44l8 38
c16 77 75 119 143 127c-80 9 -115 38 -102 101l1 2c8 43 34 70 67 87c32 17 71 23 107 23h181zM344 429c-48 0 -76 -33 -88 -89c-14 -66 -3 -99 33 -99h76l39 188h-60z" />
    <glyph glyph-name="uni10D0" unicode="&#x10d0;" horiz-adv-x="486" 
d="M297 442c23 0 55 -9 55 -34c0 -16 -1 -15 -23 -40h15c31 -15 81 -40 97 -63c16 -22 24 -61 24 -98c0 -14 -1 -27 -4 -40c-23 -109 -135 -166 -240 -166c-80 0 -155 54 -155 142c0 9 1 18 3 26c6 28 32 48 58 48h2c20 0 35 -21 35 -38c0 -4 -1 -7 -2 -10
c-6 -12 -9 -21 -9 -32c0 -41 65 -56 98 -56c45 0 101 34 131 86c2 10 3 20 3 30c0 44 -24 83 -89 94c-40 7 -54 23 -54 51c0 10 2 22 5 36c7 34 25 53 50 64z" />
    <glyph glyph-name="uni10D1" unicode="&#x10d1;" horiz-adv-x="547" 
d="M386 312c100 -23 136 -73 136 -132c0 -11 -2 -23 -4 -35c-25 -119 -128 -202 -254 -202c-50 0 -97 14 -128 44c-36 35 -54 72 -54 114c0 10 1 21 3 32c18 92 91 161 233 190l37 174c-17 16 -87 16 -125 16c0 0 -3 -28 -3 -59c0 -15 1 -31 3 -44c-5 -22 -24 -29 -35 -31
c-12 0 -22 7 -23 18c-2 13 -2 25 -2 38c0 38 6 75 14 113l18 85c3 16 7 31 34 31c10 0 20 -1 20 -22l-1 -9l-18 -85c64 0 110 4 140 4c31 0 38 -10 40 -20c1 -4 1 -10 1 -17c0 -47 -19 -142 -32 -203zM439 130c2 9 3 18 3 26c0 57 -48 105 -120 105c-71 0 -131 -31 -163 -81
c-11 -24 -19 -47 -19 -71c0 -63 57 -110 128 -110c86 0 156 61 171 131z" />
    <glyph glyph-name="uni10D2" unicode="&#x10d2;" 
d="M505 96c6 -16 9 -42 9 -69c0 -35 -4 -72 -10 -98c-23 -108 -112 -226 -220 -226c-103 0 -165 0 -223 71c-22 28 -40 76 -40 130c0 16 2 32 5 48c7 30 27 94 50 123c55 71 129 123 242 133c9 40 80 85 86 114c1 4 2 9 2 13c0 21 -16 43 -47 43c-33 0 -58 -18 -72 -53
c-7 -11 -16 -16 -24 -16c-14 0 -25 13 -25 29c0 3 0 5 1 8c18 46 73 94 143 94c42 0 84 -49 84 -90c0 -4 0 -8 -1 -12c-17 -78 -78 -84 -88 -133c78 -21 105 -47 128 -109zM308 -236c84 49 118 110 131 172c5 23 7 45 7 67c0 82 -37 148 -130 157c-13 0 -54 -5 -72 -14
c-105 -50 -140 -125 -156 -200c-3 -13 -4 -26 -4 -38c0 -88 70 -152 180 -152c8 0 16 1 25 2z" />
    <glyph glyph-name="uni10D3" unicode="&#x10d3;" horiz-adv-x="745" 
d="M61 -63h85c-45 42 -67 98 -67 166c0 26 3 53 9 82c26 124 123 208 234 208c48 0 84 -19 107 -57c44 38 97 57 157 57c87 0 146 -51 146 -142c0 -16 -2 -33 -6 -52c-27 -127 -112 -219 -234 -219c-98 0 -165 57 -165 149c0 15 1 30 5 47c7 32 15 60 22 82
c-2 31 -19 47 -50 47c-47 0 -91 -41 -109 -124c-7 -35 -11 -66 -11 -92c0 -98 50 -142 145 -160c195 -36 249 -88 249 -198v-6h-128c-3 84 -87 124 -286 124c-38 0 -78 -4 -124 -10zM441 183c-4 -17 -5 -32 -5 -45c0 -46 22 -69 66 -69c58 0 96 38 112 114c4 18 6 35 6 49
c0 48 -23 73 -68 73c-57 0 -93 -41 -111 -122z" />
    <glyph glyph-name="uni10D4" unicode="&#x10d4;" horiz-adv-x="511" 
d="M437 274c34 -22 46 -57 46 -99c0 -27 -5 -58 -12 -89c-55 -259 -108 -297 -175 -327c-28 -8 -60 -13 -90 -13c-79 0 -165 41 -165 121c0 8 1 18 3 27c8 37 35 55 60 55c26 0 34 -4 34 -27c-4 -20 -10 -28 -12 -38c-1 -4 -1 -8 -1 -11c0 -42 61 -55 112 -55
c62 13 99 43 131 131c10 26 20 63 28 100c9 40 14 80 14 108c0 10 0 19 -2 25c-14 57 -81 60 -127 60c-63 -6 -104 -72 -117 -131c-5 -22 -25 -33 -41 -33c-10 0 -19 10 -19 22c12 57 28 95 49 125c25 36 104 83 158 83c56 0 105 -21 126 -34z" />
    <glyph glyph-name="uni10D5" unicode="&#x10d5;" horiz-adv-x="490" 
d="M188 182h-68c-1 6 -1 12 -1 19c0 10 1 21 4 30c20 97 99 162 217 162c83 0 143 -42 143 -113c0 -9 -1 -20 -3 -30c-14 -64 -62 -117 -127 -133c49 -15 72 -44 72 -103c0 -22 -3 -49 -10 -81c-32 -152 -112 -228 -239 -228c-89 0 -157 51 -157 138c0 12 1 25 4 39
c9 42 28 82 55 118h68c-28 -40 -46 -80 -54 -120c-3 -12 -4 -23 -4 -34c0 -56 36 -92 102 -92c93 0 133 71 156 179c16 72 17 84 17 94c0 43 -24 64 -73 64h-28l10 50h31c44 0 93 39 107 106c2 8 3 16 3 24c0 43 -29 73 -83 73c-68 0 -123 -40 -138 -110
c-3 -14 -5 -26 -5 -38c0 -5 0 -9 1 -14z" />
    <glyph glyph-name="uni10D6" unicode="&#x10d6;" horiz-adv-x="790" 
d="M770 293c7 -24 10 -49 10 -75c0 -32 -5 -64 -17 -94c-19 -51 -51 -101 -103 -131c-62 -35 -116 -45 -172 -45c-97 0 -211 33 -211 149c0 21 1 37 12 59c17 44 39 95 65 151c-27 -19 -58 -27 -90 -27c-19 0 -38 3 -55 7c-46 11 -90 64 -90 146c0 32 6 66 18 98
c34 95 89 148 144 168c30 11 50 16 71 16c69 0 154 -30 178 -102c6 -18 7 -34 7 -50c0 -22 -5 -44 -13 -68c-13 -36 -30 -76 -56 -133c40 20 85 30 129 30c16 0 31 -1 47 -4c58 -10 107 -56 126 -95zM343 380c39 14 74 73 90 116c8 14 12 32 12 50c0 16 -3 32 -7 44
c-10 22 -56 33 -90 33c-85 0 -136 -94 -136 -164c0 -51 44 -87 93 -87c13 0 26 3 38 8z" />
    <glyph glyph-name="uni10D7" unicode="&#x10d7;" horiz-adv-x="741" 
d="M675 66c0 -10 7 -27 7 -43c0 -42 -53 -59 -89 -59c-27 5 -39 24 -39 51c0 26 3 25 13 59c19 59 53 109 66 148c6 18 9 37 9 55c0 42 -21 77 -76 77c-23 0 -106 -18 -114 -76c-3 -10 -4 -22 -4 -45c0 -18 1 -38 -7 -68c-27 -108 -120 -164 -212 -164c-18 0 -36 2 -53 6
c-61 6 -87 85 -87 153c0 62 26 122 76 173c45 47 90 65 134 65c72 0 81 -16 115 -30c44 49 107 72 167 72c71 0 145 -33 167 -92c2 -9 3 -19 3 -28c0 -36 -13 -72 -24 -107c-17 -51 -39 -103 -51 -142zM322 94c33 40 53 95 53 145c0 36 -15 65 -64 77
c-88 -2 -125 -70 -136 -123c-2 -10 -3 -20 -3 -29c0 -50 36 -88 96 -88c19 0 39 7 54 18z" />
    <glyph glyph-name="uni10D8" unicode="&#x10d8;" horiz-adv-x="485" 
d="M471 174c-9 -43 -43 -84 -93 -121c-8 -8 -19 -9 -28 -9c-17 0 -30 11 -30 26v5c3 12 13 27 39 45c25 30 42 50 46 72c1 5 2 9 2 14c0 47 -48 93 -105 93c-75 0 -114 -50 -138 -118c-1 -7 -1 -14 -1 -20c0 -49 26 -52 26 -77c0 -3 0 -6 -1 -10c-3 -17 -20 -29 -42 -29
c-29 0 -56 32 -56 86c0 12 1 24 4 38c9 42 36 100 84 142c39 34 82 47 122 47c44 0 87 -11 112 -27c32 -22 52 -41 59 -71c4 -17 5 -32 5 -45c0 -16 -2 -29 -5 -41z" />
    <glyph glyph-name="uni10D9" unicode="&#x10d9;" horiz-adv-x="491" 
d="M329 344l10 49h41c71 0 107 -31 107 -93c0 -14 -2 -30 -6 -47c-14 -67 -49 -112 -102 -135c32 -18 47 -42 47 -84c0 -18 -3 -39 -8 -64c-40 -190 -102 -265 -235 -265c-100 0 -164 53 -164 139c0 13 2 26 5 41c9 42 28 80 57 115h69c-29 -35 -48 -73 -57 -115
c-3 -13 -4 -26 -4 -37c0 -58 35 -94 102 -94c115 0 167 166 167 278c0 39 -15 58 -44 58h-39l10 49h39c42 0 72 36 87 108c4 17 6 32 6 44c0 34 -16 49 -54 53h-34z" />
    <glyph glyph-name="uni10DA" unicode="&#x10da;" horiz-adv-x="983" 
d="M58 -109l14 65h94c-53 44 -79 106 -79 184c0 29 4 60 11 93c33 155 124 255 240 255c57 0 91 -28 105 -83c39 55 90 83 155 83c55 0 93 -28 112 -83c40 55 91 83 153 83c74 0 135 -50 135 -137c0 -14 -2 -29 -5 -45c-13 -58 -43 -119 -90 -181h-79c46 56 76 116 91 182
c2 11 4 22 4 33c0 47 -23 92 -73 92c-62 0 -100 -40 -118 -121l-23 -106h-79c27 124 29 139 29 153c0 49 -24 74 -72 74c-59 0 -105 -44 -118 -105l-26 -122h-79c28 131 30 147 30 160c0 44 -21 67 -63 67c-72 0 -121 -65 -149 -197c-8 -38 -12 -72 -12 -101
c0 -132 85 -168 247 -178c227 -14 340 -81 340 -211c0 -7 0 -13 -1 -20h-93v12c0 103 -105 154 -314 154h-287z" />
    <glyph glyph-name="uni10DB" unicode="&#x10db;" horiz-adv-x="519" 
d="M490 150c-21 -102 -75 -185 -139 -236c-37 -24 -80 -38 -122 -38c-49 0 -98 17 -135 57c-23 25 -31 64 -31 105c0 62 22 133 53 181c49 76 148 120 210 120c46 0 86 -22 120 -53c11 52 24 132 24 203c0 70 -12 130 -52 146c-17 9 -38 14 -59 14c-22 0 -45 -5 -63 -15
c-59 -31 -69 -77 -81 -135c-7 -32 -24 -41 -46 -41c-20 0 -25 12 -25 27c0 10 2 22 3 32c15 71 46 132 123 168c28 13 52 21 78 21c131 0 185 -67 185 -200c0 -75 -22 -254 -35 -318zM417 153c2 8 2 15 2 22c0 50 -37 85 -95 85c-57 0 -120 -35 -144 -69
c-22 -31 -42 -88 -42 -133c0 -66 37 -121 114 -121c17 0 35 5 52 15c65 51 91 99 113 201z" />
    <glyph glyph-name="uni10DC" unicode="&#x10dc;" horiz-adv-x="541" 
d="M246 608c10 47 41 70 116 71c43 0 158 -9 172 -9c20 1 44 4 73 12l-15 -74c-34 -9 -59 -15 -76 -14l-149 10c-21 1 -33 -9 -37 -26l-53 -249h143c69 0 102 -27 102 -60c0 -4 0 -7 -1 -11l-38 -182c-8 -40 -57 -76 -110 -76h-168c-44 0 -74 29 -74 63c0 4 0 8 1 12z
M286 248c-23 0 -27 -6 -30 -19l-29 -137c0 -14 8 -19 23 -19h128c15 0 25 6 28 19l29 137c0 14 -8 19 -22 19h-127z" />
    <glyph glyph-name="uni10DD" unicode="&#x10dd;" horiz-adv-x="769" 
d="M575 411c12 2 24 3 35 3c94 0 155 -75 155 -171c0 -69 -58 -285 -158 -285c-24 0 -41 16 -41 43c2 12 11 25 31 34c55 24 83 112 83 173c0 68 -32 120 -105 120c-57 -19 -98 -54 -167 -122c0 0 -18 -20 -38 -20c-13 0 -26 17 -26 35c-7 34 -34 69 -69 69
c-51 0 -105 -109 -105 -178c0 -25 10 -53 51 -77c7 -3 14 -7 14 -25c-7 -29 -28 -46 -48 -46c-78 0 -103 101 -103 141c0 33 7 67 14 100c19 90 102 175 166 191c9 2 18 3 26 3c55 0 87 -44 106 -90c65 53 126 87 179 102z" />
    <glyph glyph-name="uni10DE" unicode="&#x10de;" horiz-adv-x="498" 
d="M307 668h59c-3 -10 -7 -30 -7 -41c0 -30 26 -35 97 -62l4 -2c44 -17 66 -46 66 -87c0 -9 -1 -19 -3 -29c-12 -54 -47 -92 -106 -113c40 -19 59 -52 59 -99c0 -120 -90 -205 -214 -205c-83 0 -140 43 -140 116c0 40 16 81 37 113h63c-23 -39 -37 -67 -37 -106
c0 -48 32 -78 86 -78c77 0 146 72 146 165c0 44 -20 75 -64 75h-37l10 44h37c52 0 98 52 98 103c0 91 -165 66 -165 159c0 16 4 32 11 47z" />
    <glyph glyph-name="uni10DF" unicode="&#x10df;" horiz-adv-x="549" 
d="M574 393l-101 -474c-31 -147 -103 -214 -231 -214c-97 0 -161 50 -161 134c0 62 26 112 73 161h69c-43 -43 -73 -95 -73 -153c0 -57 37 -93 101 -93c85 0 138 49 159 146l90 421c-49 -27 -103 -43 -163 -50c24 -14 37 -33 37 -59c0 -83 -86 -138 -172 -138
c-70 0 -115 34 -115 93c0 34 10 54 37 85h68c-25 -27 -35 -48 -35 -78c0 -34 21 -51 62 -51c49 0 87 34 87 90c0 20 -8 39 -32 50l15 71c13 -2 28 -4 44 -4c65 0 125 21 182 63h59z" />
    <glyph glyph-name="uni10E0" unicode="&#x10e0;" horiz-adv-x="807" 
d="M848 684c16 0 26 -25 26 -48c0 -5 -1 -10 -3 -15c-18 -88 -92 -100 -308 -104c-78 -1 -352 -24 -367 -179c32 25 77 53 114 53c48 0 82 -28 114 -72c60 39 102 59 148 59c77 0 151 -55 151 -136c0 -9 -1 -18 -3 -27c-12 -58 -68 -114 -135 -158c-8 -5 -17 -8 -26 -8
c-17 0 -32 10 -32 31c0 19 7 29 23 44c47 26 72 59 79 90c1 6 2 11 2 16c0 36 -27 64 -79 64c-44 0 -97 -75 -149 -75c-42 0 -70 83 -116 83c-46 -18 -78 -62 -78 -110c0 -23 20 -31 43 -51c13 -11 16 -22 16 -33c0 -6 -1 -12 -2 -18c-4 -15 -38 -43 -63 -43
c-8 0 -15 3 -20 9c-47 46 -87 109 -87 195c0 63 18 128 53 187c81 140 316 162 419 162h15c32 0 79 -2 118 -2c45 0 81 3 84 16c0 14 4 29 11 44c10 15 25 25 52 26z" />
    <glyph glyph-name="uni10E1" unicode="&#x10e1;" horiz-adv-x="520" 
d="M206 665c-1 2 -1 5 -1 7s0 4 1 6c3 14 14 26 22 28c4 1 8 2 12 2c17 0 23 -13 23 -24c0 -3 0 -5 -1 -7c-2 -67 1 -120 -10 -171c-38 -176 -82 -276 -99 -356c-2 -11 -3 -21 -3 -31c0 -71 45 -109 133 -109c67 0 147 46 147 127c0 34 -16 67 -38 90c-16 14 -22 29 -22 42
c0 3 0 7 1 10c7 32 37 56 58 56c20 -3 27 -18 27 -33v-3c-3 -11 -13 -18 -15 -28v-3c0 -8 7 -8 12 -12c21 -13 47 -29 49 -90c0 -16 -2 -32 -5 -46c-15 -71 -60 -111 -77 -131c-46 -42 -90 -54 -143 -54c-103 0 -200 59 -200 161c0 35 8 77 17 105c15 91 78 200 100 306
c9 43 12 93 12 158z" />
    <glyph glyph-name="uni10E2" unicode="&#x10e2;" horiz-adv-x="744" 
d="M158 283h108c-44 -69 -83 -156 -99 -234c-5 -23 -8 -46 -8 -68c0 -92 48 -168 172 -168c139 0 227 87 264 260c6 28 9 52 9 74c0 55 -19 92 -57 108c6 -15 9 -29 9 -42c0 -6 -1 -12 -2 -18c-17 -81 -84 -152 -174 -152c-71 0 -119 44 -119 110c0 10 1 20 3 30
c11 52 43 95 94 127c-30 22 -45 50 -45 84c0 9 1 19 3 29c17 78 86 148 175 148c69 0 115 -41 115 -110c0 -12 -1 -25 -4 -39c-8 -40 -31 -73 -70 -100c109 -6 177 -73 177 -186c0 -22 -3 -46 -8 -71c-44 -207 -192 -340 -387 -340c-154 0 -268 92 -268 235c0 20 2 41 7 63
c20 94 56 181 105 260zM476 502c-44 0 -80 -31 -90 -75c-2 -9 -3 -18 -3 -26c0 -37 20 -61 59 -61c47 0 82 39 92 87c2 7 2 13 2 19c0 34 -23 56 -60 56zM427 271c-44 0 -82 -34 -91 -77c-1 -6 -1 -12 -1 -17c0 -36 17 -65 58 -65c42 0 82 35 92 82c2 7 2 14 2 21
c0 34 -21 56 -60 56z" />
    <glyph glyph-name="uni10E3" unicode="&#x10e3;" horiz-adv-x="681" 
d="M110 363c2 12 29 28 41 28c22 0 31 -20 31 -35c-22 -36 -23 -43 -23 -50c0 -14 3 -30 6 -32c35 0 54 17 91 39c35 21 68 24 102 24c50 0 66 -36 66 -36c32 28 80 41 117 41c85 0 108 -74 108 -158c0 -9 0 -18 -1 -28c-3 -59 -11 -101 -24 -167
c-30 -144 -105 -277 -294 -288l-17 -1c-117 -7 -168 74 -168 162c0 17 2 35 6 53c7 32 24 70 54 101c13 14 24 22 39 22c13 -2 20 -12 20 -30c-2 -13 -7 -23 -17 -32c-29 -23 -40 -57 -40 -92c0 -29 7 -59 27 -82c21 -25 57 -39 92 -39c123 0 206 86 234 213
c10 48 22 122 22 184c0 69 -7 118 -76 118c-8 0 -17 -2 -26 -4c-57 -15 -45 -98 -68 -141c-8 -16 -20 -26 -42 -26c-14 2 -19 13 -19 30c0 31 16 78 16 111c0 18 -5 33 -20 36c-59 0 -122 -74 -209 -74c-34 6 -44 33 -44 64c0 17 3 34 6 50c4 16 8 29 10 39z" />
    <glyph glyph-name="uni10E4" unicode="&#x10e4;" horiz-adv-x="747" 
d="M511 124h37c40 0 60 22 76 99c3 12 4 24 4 33c0 33 -16 49 -48 49c-125 0 -75 -285 -330 -285c-93 0 -162 54 -162 145c0 13 1 27 4 42c22 99 118 186 242 186c54 0 98 -23 131 -69c42 46 92 69 150 69c71 0 123 -44 123 -121c0 -13 -2 -28 -5 -43
c-16 -78 -59 -129 -128 -155c45 -21 68 -57 68 -107c0 -14 -2 -28 -5 -44c-23 -111 -115 -198 -290 -198c-141 0 -223 46 -223 138c0 12 1 25 4 39c5 25 16 48 32 68h100c-10 -15 -18 -36 -23 -62c-2 -9 -3 -17 -3 -24c0 -52 46 -71 129 -71c95 0 151 40 168 118
c3 16 5 30 5 42c0 36 -15 54 -45 54h-32z" />
    <glyph glyph-name="uni10E5" unicode="&#x10e5;" horiz-adv-x="472" 
d="M460 717h94l-169 -794c-34 -159 -114 -239 -241 -239c-60 0 -103 17 -128 52c-16 23 -22 48 -22 74c0 102 72 197 173 214l15 -48c-50 -22 -91 -73 -91 -134c0 -43 32 -68 81 -68c57 0 97 50 118 149l59 275h-87c-30 0 -37 -7 -37 -17c0 -8 5 -19 5 -30
c0 -15 -7 -29 -25 -29c-27 0 -42 29 -42 62c0 7 1 15 2 22c12 53 42 80 93 80h109l68 318l-143 -129l-40 35z" />
    <glyph glyph-name="uni10E6" unicode="&#x10e6;" horiz-adv-x="671" 
d="M248 184c-1 -5 -2 -12 -2 -18c0 -29 13 -65 29 -81c13 -14 48 -41 106 -80c56 -38 91 -77 108 -118c9 -22 15 -48 15 -79c0 -27 -4 -59 -11 -93h-95c4 20 6 38 6 56c0 40 -10 77 -31 110c-31 49 -78 73 -141 73h-116l17 79h67c-31 24 -56 80 -56 126c0 7 1 15 2 22
l61 285c9 40 52 82 92 82h147c17 0 32 -13 32 -29c0 4 27 29 48 29h127c34 0 57 -30 57 -66c0 -5 0 -11 -1 -16l-56 -263h-94l50 237v3c0 19 -35 28 -69 28c-13 0 -30 -17 -33 -31l-37 -176h-95l37 176v2c0 19 -44 29 -74 29c-15 0 -33 -17 -36 -31z" />
    <glyph glyph-name="uni10E7" unicode="&#x10e7;" horiz-adv-x="513" 
d="M208 361c13 24 21 34 38 34c14 0 26 -4 26 -19c0 -9 -3 -23 -9 -31c-9 -23 -16 -44 -20 -63c-4 -17 -7 -36 -7 -54c0 -38 14 -70 60 -70c99 0 142 130 159 203c4 17 21 33 32 33c24 0 37 -11 37 -26c-80 -379 -86 -402 -93 -426c-35 -111 -104 -237 -229 -237
c-81 0 -156 51 -156 140c0 54 15 106 45 149c7 10 26 22 42 22c6 0 12 -2 16 -6c6 -9 12 -21 12 -33c0 -3 0 -6 -1 -9c-2 -7 -5 -15 -12 -25c-14 -22 -20 -51 -20 -74c0 -41 43 -83 87 -83c73 0 116 76 147 169c15 44 26 91 44 175c-39 -31 -78 -56 -133 -56
c-64 0 -107 32 -107 101c0 31 4 64 11 95c6 30 16 61 31 91z" />
    <glyph glyph-name="uni10E8" unicode="&#x10e8;" horiz-adv-x="572" 
d="M503 283l58 274c2 9 3 17 3 25c0 37 -22 62 -62 62c-51 0 -90 -35 -101 -86l-19 -88h-55l18 85c2 8 3 16 3 23c0 40 -28 66 -72 66c-46 0 -88 -22 -129 -67l16 76c39 31 83 46 132 46c44 0 73 -23 85 -69c38 46 87 69 146 69c63 0 103 -35 103 -107c0 -17 -3 -35 -7 -56
l-88 -415c-28 -133 -125 -237 -257 -237c-104 0 -179 60 -179 171c0 19 2 40 7 62c28 132 130 230 266 230c59 0 103 -22 132 -64zM456 116c5 22 7 43 7 61c0 74 -37 115 -103 115c-77 0 -152 -57 -177 -176c-4 -20 -6 -39 -6 -56c0 -72 37 -120 110 -120
c86 0 146 67 169 176z" />
    <glyph glyph-name="uni10E9" unicode="&#x10e9;" horiz-adv-x="459" 
d="M188 575c19 90 81 151 160 151c63 0 101 -33 101 -87c0 -9 -1 -18 -3 -28c-20 -96 -102 -172 -247 -231l-23 -110c44 37 89 55 137 55c78 0 134 -37 134 -124c0 -16 -2 -34 -6 -54c-17 -78 -56 -153 -118 -230h-58c63 74 101 150 118 229c4 17 5 32 5 45
c0 56 -30 83 -91 83c-51 0 -97 -25 -137 -78l-59 -279h-53zM209 426c104 43 163 105 180 185c2 8 3 16 3 22c0 28 -18 42 -53 42c-48 0 -86 -38 -98 -97z" />
    <glyph glyph-name="uni10EA" unicode="&#x10ea;" horiz-adv-x="775" 
d="M529 521h80c-6 -13 -11 -27 -11 -41c0 -78 174 -58 174 -176c0 -9 -1 -20 -3 -31c-16 -71 -65 -114 -146 -130c57 -22 85 -64 85 -123c0 -15 -1 -31 -5 -48c-30 -141 -157 -251 -348 -251c-194 0 -286 103 -286 275c0 41 5 85 15 133c25 120 102 268 227 392h80
c-135 -146 -206 -269 -238 -419c-9 -40 -13 -76 -13 -109c0 -143 81 -215 226 -215c128 0 228 66 255 186c3 15 5 29 5 43c0 61 -34 107 -111 107h-72l14 69h72c93 0 162 34 162 106c0 81 -176 69 -176 170c0 17 9 46 13 59z" />
    <glyph glyph-name="uni10EB" unicode="&#x10eb;" horiz-adv-x="492" 
d="M471 547c6 39 13 84 21 123c5 23 17 36 41 36c13 0 17 -11 17 -23c0 -4 0 -9 -1 -13c0 0 -3 -58 -11 -118c-11 -77 -17 -151 -37 -242c-10 -49 -30 -121 -48 -160c-28 -61 -59 -94 -88 -119c-37 -32 -80 -48 -121 -48c-61 0 -114 30 -142 72c-16 25 -23 55 -23 85
c0 15 2 30 5 46c19 93 139 200 234 200c81 0 90 -23 131 -33c14 70 5 83 22 194z" />
    <glyph glyph-name="uni10EC" unicode="&#x10ec;" 
d="M247 358h281c-22 -103 -61 -216 -116 -339c-56 -123 -118 -234 -188 -335h-62v873c0 20 1 37 3 48c11 65 69 130 157 130c49 0 82 -22 100 -66c37 44 79 66 124 66c69 0 114 -32 114 -93c0 -27 -10 -57 -21 -78c-17 -34 -46 -61 -88 -87l-30 37c30 18 51 43 51 75
c0 28 -17 52 -49 52c-42 0 -68 -25 -79 -75l-17 -80h-86c21 96 22 104 22 111c0 30 -17 44 -50 44c-39 0 -65 -24 -70 -88zM421 269h-172v-388h11c63 117 117 247 161 388z" />
    <glyph glyph-name="uni10ED" unicode="&#x10ed;" horiz-adv-x="606" 
d="M484 256l93 -109l-22 -104l-81 166l-60 -280c-33 -152 -106 -224 -242 -224c-92 0 -154 50 -154 133c0 13 2 27 5 41c8 40 32 81 69 121h69c-37 -34 -59 -74 -69 -120c-2 -11 -4 -23 -4 -33c0 -56 37 -93 100 -93c86 0 141 52 163 156l60 280c-45 -49 -96 -74 -155 -74
c-66 0 -116 40 -116 106c0 10 1 21 4 33c16 75 81 138 175 138c48 0 88 -26 118 -78l80 373h59l-81 -379l146 138l-18 -82zM425 257c-35 58 -73 87 -115 87c-47 0 -89 -43 -98 -87c-2 -8 -3 -16 -3 -23c0 -40 25 -69 67 -69c47 0 111 42 149 92z" />
    <glyph glyph-name="uni10EE" unicode="&#x10ee;" horiz-adv-x="502" 
d="M193 545c13 48 30 97 44 145c4 13 10 19 29 19c8 0 15 -8 15 -24c0 -4 -1 -8 -40 -193c-10 -45 -17 -91 -25 -136c17 24 24 35 39 58c6 8 21 20 39 20c14 -2 17 -11 17 -22c0 -6 -1 -12 -2 -18c-3 -9 -20 -38 -38 -63c25 12 52 21 80 21c13 0 26 -2 38 -6
c40 -13 70 -49 83 -90c6 -17 7 -34 7 -53c0 -52 -16 -108 -34 -135c-22 -35 -52 -54 -79 -71c-35 -22 -78 -22 -115 -22c-110 0 -128 107 -128 194c0 56 9 117 23 182c11 51 23 103 36 152zM241 257c-32 -28 -41 -75 -41 -115c0 -57 26 -99 91 -99c54 0 102 36 113 86
c4 16 7 35 7 71c-19 72 -51 75 -103 77c-23 1 -47 -7 -67 -20z" />
    <glyph glyph-name="uni10EF" unicode="&#x10ef;" horiz-adv-x="917" 
d="M581 221l61 -242c17 -67 33 -79 70 -79c36 0 72 36 72 74c0 28 -13 61 -39 100l72 45c27 -46 42 -89 42 -129c0 -85 -72 -160 -176 -160c-52 0 -86 31 -103 95l-68 250l-205 -138c56 -19 92 -61 92 -118c0 -115 -105 -193 -222 -193c-56 0 -109 15 -160 43l16 73
c56 -37 102 -56 141 -56c75 0 140 50 140 125c0 41 -30 73 -78 73h-4l19 88l241 159l-53 207c-15 60 -30 71 -72 71c-60 0 -103 -50 -103 -108c0 -28 8 -55 26 -82l-67 -38c-23 33 -34 67 -34 101c0 97 83 194 196 194c64 0 101 -29 117 -89l57 -211
c269 178 288 195 290 206c0 16 -21 21 -61 21h-151l16 73h167c57 0 103 -23 103 -63c0 -46 -35 -88 -77 -116z" />
    <glyph glyph-name="uni10F0" unicode="&#x10f0;" horiz-adv-x="438" 
d="M325 702c5 0 7 -3 7 -8c0 -4 -2 -9 -3 -15c-4 -17 -5 -31 -5 -43c0 -58 38 -66 70 -68c39 -3 83 -29 83 -88c0 -57 -68 -86 -107 -86c24 -16 52 -59 52 -89c0 -16 -4 -33 -19 -48c-16 -13 -31 -23 -59 -35c32 -26 43 -53 43 -79c0 -6 -1 -13 -2 -19
c-18 -85 -99 -138 -176 -138c-36 0 -66 7 -84 26c-14 14 -20 38 -20 63c0 28 8 67 29 85c5 5 12 7 19 7s13 -2 17 -7c1 -2 2 -5 2 -13c-1 -4 -3 -9 -8 -14c-8 -8 -14 -37 -14 -50c0 -37 22 -58 60 -58c47 0 116 35 126 79c2 11 3 20 3 28c0 29 -16 40 -69 62
c-9 4 -13 8 -13 17c0 2 1 5 1 8c0 2 3 11 16 15c0 0 90 23 98 62c1 5 1 10 1 14c0 39 -41 48 -109 61c-11 2 -16 10 -16 22v3c2 11 13 21 25 21c21 0 157 16 165 56c1 3 1 6 1 9c0 21 -16 47 -53 47c-26 0 -76 0 -90 39c-5 14 -9 33 -9 57v4c0 25 1 73 38 73z" />
    <glyph glyph-name="zero" unicode="0" horiz-adv-x="424" 
d="M167 477c48 65 99 98 154 98c37 0 73 -14 98 -45c25 -32 41 -78 41 -142c0 -91 -26 -187 -70 -261c-45 -74 -108 -125 -181 -125c-23 0 -56 3 -84 24c-28 20 -50 60 -50 135c0 55 12 119 30 177s39 108 62 139zM319 542c-31 -4 -53 -14 -73 -28s-36 -32 -55 -53
c-17 -19 -38 -63 -54 -115c-17 -52 -29 -113 -29 -166c0 -40 7 -76 27 -103c19 -27 48 -43 95 -43c49 0 98 43 135 107c36 64 60 148 60 231c0 115 -33 170 -106 170z" />
    <glyph glyph-name="one" unicode="1" horiz-adv-x="353" 
d="M187 38l79 252l32 179c-19 -31 -45 -61 -75 -83s-63 -37 -92 -37c-9 0 -13 4 -13 11c3 11 15 19 31 25c7 3 15 6 24 9c8 3 16 6 23 10c57 33 81 77 96 112l18 44c4 11 11 17 21 17c11 0 13 -5 13 -16c-15 -93 -28 -182 -47 -268c-20 -86 -44 -172 -79 -257
c39 -7 60 -7 80 -7h39c9 0 10 -2 10 -11c-3 -19 -14 -18 -27 -18c-56 0 -96 2 -128 3c-17 1 -32 1 -46 2s-28 1 -43 1s-26 0 -34 1c-9 0 -15 1 -19 2c-5 1 -7 2 -8 3s-2 2 -2 4c2 15 8 22 18 22h129z" />
    <glyph glyph-name="two" unicode="2" horiz-adv-x="404" 
d="M184 335l-25 17c-14 20 -21 41 -21 64c0 55 26 103 65 137s88 54 135 54c51 0 84 -14 104 -37s27 -52 27 -84c0 -96 -46 -177 -117 -241c-27 -25 -51 -46 -72 -64c-41 -37 -72 -64 -93 -83c-11 -10 -19 -18 -26 -25c97 4 166 6 217 6c29 0 56 -1 56 -26
c0 -31 -28 -42 -51 -42c-26 0 -49 0 -70 -1c-42 -2 -87 -4 -143 -6c-29 -1 -63 -2 -103 -2c-20 0 -30 8 -30 23c0 12 7 23 15 32c52 52 99 96 142 131c85 70 148 124 181 180c17 28 25 61 25 100c0 47 -25 72 -69 72c-27 0 -57 -9 -81 -26s-42 -42 -42 -74
c0 -15 3 -27 9 -36c6 -10 9 -20 9 -29c-5 -27 -19 -40 -42 -40z" />
    <glyph glyph-name="three" unicode="3" horiz-adv-x="417" 
d="M300 581h28c37 0 74 -8 101 -24s45 -41 45 -76c0 -48 -21 -90 -53 -120s-76 -49 -121 -49c72 0 119 -46 119 -107c0 -72 -37 -118 -85 -146c-48 -29 -106 -40 -149 -40c-77 0 -123 33 -123 86c0 24 9 46 24 62s36 27 59 27c25 0 46 -20 46 -49c0 -39 -37 -69 -84 -69
c22 -23 49 -34 82 -34c41 0 71 26 91 62c20 35 29 78 29 110c0 21 -3 44 -13 60s-27 27 -51 27h-83c-19 0 -13 14 -7 17c3 1 6 2 11 2h83c28 0 57 22 80 53s39 71 39 110c0 43 -26 75 -77 75c-23 0 -48 -7 -69 -15c7 1 11 2 14 2c25 0 39 -19 39 -44c0 -45 -36 -74 -79 -74
c-33 0 -49 15 -49 46c0 65 53 108 153 108z" />
    <glyph glyph-name="four" unicode="4" horiz-adv-x="342" 
d="M224 31h30c15 0 37 0 55 -3c9 -1 16 -3 23 -5c12 -5 9 -20 1 -24c-4 -3 -8 -4 -13 -4h-111c-28 0 -66 1 -97 3c-15 1 -28 2 -39 5c-11 2 -16 5 -16 8c0 11 7 21 18 21h117c8 25 16 55 26 95c5 20 10 43 17 68s14 54 22 87l-121 11h-39c-10 0 -15 10 -15 29
c0 27 8 66 19 118c11 53 21 92 30 116c9 23 19 35 32 35c9 0 14 -4 14 -12c0 1 -3 -6 -8 -21c-12 -32 -29 -84 -42 -144c-7 -31 -10 -60 -11 -89c11 0 33 -2 61 -5c27 -4 58 -6 86 -6c11 33 21 78 30 126c8 48 15 98 19 141c2 9 8 14 19 14c8 0 12 -4 12 -11
c-3 -32 -6 -61 -13 -101s-16 -91 -32 -168h22c7 0 10 -3 10 -10c0 -19 -12 -19 -40 -22l-9 -33c-11 -37 -25 -89 -39 -144z" />
    <glyph glyph-name="five" unicode="5" horiz-adv-x="455" 
d="M124 240c-15 -33 -30 -67 -33 -100c0 -61 47 -107 115 -107c56 0 105 35 141 83s57 110 57 165c0 48 -19 81 -47 101c-29 20 -69 29 -110 29c-10 0 -15 5 -15 15l33 157c3 11 8 20 17 20c12 0 35 -2 68 -7s74 -8 121 -8c13 0 23 1 28 2s11 2 18 2c11 0 16 -4 16 -11
c0 -17 -15 -25 -45 -25c-68 0 -131 7 -195 14l-27 -128c37 -3 81 -10 114 -33c33 -24 57 -60 57 -120c0 -77 -29 -149 -73 -201c-44 -53 -103 -86 -163 -86c-40 0 -75 13 -101 37c-26 23 -42 54 -42 93c0 9 4 38 13 65c8 27 20 52 39 52c7 0 14 -2 14 -9z" />
    <glyph glyph-name="six" unicode="6" horiz-adv-x="334" 
d="M387 556c-80 0 -140 -33 -187 -89c-47 -57 -79 -139 -100 -236c29 43 68 65 116 65c35 0 70 -8 96 -27s43 -48 43 -89c0 -56 -20 -102 -53 -133s-80 -48 -135 -48c-73 0 -110 40 -110 133c0 35 4 75 19 143c1 5 4 17 9 35c8 35 28 82 60 134c31 51 76 95 139 123
c31 14 67 21 108 21c15 0 22 -4 22 -11c0 -14 -9 -21 -27 -21zM179 31h8c43 0 76 19 100 47c23 27 36 63 36 96c0 31 -14 53 -35 68s-50 22 -79 22c-36 0 -65 -19 -85 -46c-20 -28 -31 -64 -31 -97c0 -44 22 -85 86 -90z" />
    <glyph glyph-name="seven" unicode="7" horiz-adv-x="478" 
d="M404 270l-65 -226c-9 -29 -29 -44 -59 -44c-28 0 -42 11 -42 34c0 39 17 92 34 140c17 47 34 89 34 105c-7 0 -28 1 -50 6s-42 15 -42 35c0 39 23 63 60 63c17 0 35 -1 55 -3l7 35c6 27 10 54 13 81c-21 9 -65 15 -100 15c-13 0 -19 -1 -34 -2l-9 -54
c-11 -43 -31 -55 -62 -55s-40 17 -40 40c0 5 1 11 3 24c1 6 2 14 5 25l8 42c8 36 26 56 49 66s51 11 78 11c33 0 58 -2 85 -6c13 -2 27 -4 42 -7s32 -6 52 -9c23 -4 30 -25 30 -53c0 -9 -1 -18 -5 -41c-4 -24 -11 -60 -23 -121c25 0 43 -3 52 -9s13 -15 13 -26
c0 -45 -22 -66 -89 -66z" />
    <glyph glyph-name="eight" unicode="8" horiz-adv-x="382" 
d="M216 -2c-100 0 -156 44 -156 132c0 44 14 92 38 130c23 38 55 66 90 71c-36 13 -61 43 -61 91c0 60 21 105 55 135s81 45 133 45c72 0 107 -52 107 -116c0 -67 -30 -119 -75 -146c37 -19 57 -62 57 -113c0 -69 -26 -126 -62 -166s-83 -63 -126 -63zM202 534
c-23 -20 -42 -63 -42 -108c0 -32 15 -51 36 -61s50 -13 78 -13c40 0 69 17 88 41s27 57 27 89c0 52 -30 88 -81 88c-43 0 -78 -12 -106 -36zM223 30c44 0 81 26 107 62s41 83 41 126c0 25 -6 50 -19 70c-13 19 -33 31 -61 31c-72 0 -121 -22 -153 -55s-46 -80 -46 -128
c0 -69 55 -106 131 -106z" />
    <glyph glyph-name="nine" unicode="9" horiz-adv-x="404" 
d="M93 160l-1 -23c5 -72 60 -109 121 -109c55 0 103 51 137 119c34 67 53 151 56 219c-31 -43 -65 -62 -113 -62c-36 0 -70 8 -96 28c-26 19 -43 47 -43 87c0 56 19 102 52 133s80 48 135 48c75 0 108 -31 108 -128c0 -56 -11 -129 -32 -232c-17 -83 -48 -144 -85 -184
s-82 -60 -127 -60c-47 0 -83 14 -109 36s-40 51 -40 84c0 9 0 23 3 35c3 11 9 20 20 20c7 0 14 -2 14 -11zM335 568c-43 0 -79 -13 -106 -37s-42 -59 -42 -103c0 -60 48 -92 112 -92c36 0 65 20 85 48c20 27 32 63 32 95c0 51 -28 89 -81 89z" />
    <glyph glyph-name="fraction" unicode="&#x2044;" horiz-adv-x="393" 
d="M85 -25l282 629c4 11 13 15 20 15c11 0 14 -7 14 -15c-20 -49 -48 -112 -77 -179c-15 -33 -29 -67 -44 -100l-81 -183c-11 -27 -21 -49 -28 -67c-4 -11 -17 -39 -31 -65s-32 -50 -44 -50c-8 0 -12 3 -12 10z" />
    <glyph glyph-name="asterisk" unicode="*" horiz-adv-x="306" 
d="M132 456l-88 30l30 46l74 -32l18 98h54l-18 -98l92 32l6 -46l-96 -30l47 -74l-47 -29l-41 75l-76 -75l-30 29z" />
    <glyph glyph-name="backslash" unicode="\" horiz-adv-x="430" 
d="M186 391c19 -103 32 -172 42 -228s19 -96 32 -140c1 -6 4 -15 8 -26c3 -12 4 -23 2 -33c0 -3 -6 -14 -17 -14c-4 0 -9 3 -13 10c-8 13 -16 34 -23 61c-4 13 -6 27 -9 40l-98 497c-2 9 -5 21 -10 34s-7 25 -5 36c2 12 9 18 20 18c4 0 9 -3 13 -10c3 -7 7 -19 13 -38
c5 -19 11 -45 18 -78z" />
    <glyph glyph-name="periodcentered" unicode="&#xb7;" horiz-adv-x="503" 
d="M289 358c44 0 75 -37 67 -82c-8 -44 -51 -81 -95 -81s-75 37 -67 81c8 45 51 82 95 82z" />
    <glyph glyph-name="bullet" unicode="&#x2022;" horiz-adv-x="388" 
d="M175 416h2c47 0 83 -16 107 -40c23 -24 32 -57 26 -93c-12 -69 -71 -108 -150 -108c-35 0 -67 15 -89 40c-23 25 -34 62 -27 103c11 60 58 98 131 98z" />
    <glyph glyph-name="colon" unicode=":" horiz-adv-x="236" 
d="M104 136c-32 0 -46 16 -40 49c5 31 25 47 57 47s46 -16 41 -47c-6 -33 -26 -49 -58 -49zM79 -4c-32 0 -46 16 -40 49c5 31 25 47 57 47s46 -16 41 -47c-6 -33 -26 -49 -58 -49z" />
    <glyph glyph-name="comma" unicode="," horiz-adv-x="246" 
d="M143 -11l-2 -11l-3 -16c-2 -5 -2 -10 -3 -14c-1 -7 -7 -22 -20 -37c-12 -15 -31 -28 -55 -28c-5 0 -7 3 -6 8c2 11 10 19 20 28c9 8 18 16 20 31c5 27 -13 32 -32 38s-37 14 -31 47c2 12 10 26 20 38s24 21 39 21c13 0 32 -5 43 -20c11 -16 18 -42 10 -85z" />
    <glyph glyph-name="ellipsis" unicode="&#x2026;" horiz-adv-x="856" 
d="M128 10c-31 0 -44 14 -39 42s23 42 54 42c32 0 46 -14 41 -42c-5 -27 -30 -42 -54 -42h-2zM644 4c-31 0 -46 12 -40 43c5 30 24 45 57 45c31 0 43 -17 38 -45c-5 -29 -26 -43 -55 -43zM383 3c-32 0 -46 14 -41 42s24 42 56 42c31 0 44 -14 39 -42s-23 -42 -54 -42z" />
    <glyph glyph-name="exclam" unicode="!" horiz-adv-x="219" 
d="M85 166c-24 0 -21 81 7 242l2 13c8 43 17 76 28 99c11 22 22 33 35 33c28 0 35 -21 28 -60c-16 -88 -34 -170 -52 -230c-9 -30 -17 -54 -25 -71s-16 -26 -23 -26zM34 27c3 17 13 26 30 26s24 -9 21 -26c-3 -16 -12 -24 -29 -24s-25 8 -22 24z" />
    <glyph glyph-name="exclamdown" unicode="&#xa1;" horiz-adv-x="254" 
d="M122 409c3 16 13 24 30 24s24 -8 21 -24c-3 -17 -12 -26 -29 -26s-25 9 -22 26zM125 270c7 0 11 -9 13 -26s2 -41 1 -71c-3 -60 -14 -142 -30 -230c-7 -39 -20 -60 -48 -60c-13 0 -22 11 -25 33c-3 23 0 56 8 99l2 13c28 161 55 242 79 242z" />
    <glyph glyph-name="numbersign" unicode="#" 
d="M576 445c5 0 8 -6 7 -13c-2 -11 -9 -17 -23 -19l-87 4c-27 -41 -51 -83 -79 -135c-14 -27 -28 -55 -40 -84l27 -3c33 -5 77 -12 109 -23c16 -5 23 -11 22 -17c-3 -13 -9 -22 -29 -22c-3 0 -10 1 -21 3c-22 3 -52 8 -83 16c-15 3 -29 7 -41 11c-1 -3 -3 -8 -8 -16
c-9 -17 -21 -42 -37 -73c-7 -16 -15 -32 -23 -49c-7 -15 -15 -16 -26 -16c-8 0 -11 5 -9 15c0 3 2 9 6 20c8 21 21 50 37 81c8 15 17 30 25 43c-54 8 -102 14 -155 21c-10 -15 -20 -32 -31 -53c-21 -42 -42 -84 -62 -111c-11 -14 -20 -21 -29 -21c-7 0 -10 5 -8 14
c0 4 5 12 12 25s17 28 27 45c21 34 43 73 56 104c-9 0 -34 0 -54 3c-21 3 -39 8 -37 20c3 16 22 22 34 22c13 0 26 -1 38 -4c13 -3 26 -5 38 -7c35 64 72 130 114 191h-47c-8 -1 -16 -1 -25 -1h-28c-4 0 -11 0 -18 3s-13 7 -11 18c3 16 25 18 34 18h116c10 17 17 28 19 33
c3 5 6 10 8 15c0 1 3 8 9 20c11 24 27 53 46 76c9 11 19 17 28 17c11 0 11 -8 9 -17c-2 -12 -7 -21 -18 -44s-26 -50 -41 -74c-7 -12 -14 -21 -19 -27c13 -3 32 -4 55 -3s55 0 96 -2c0 1 3 6 7 13c10 19 22 41 31 64c8 23 18 47 29 64c5 8 10 12 15 12c8 0 16 -7 14 -19
c-4 -23 -15 -45 -27 -66s-26 -44 -35 -65h6c2 -1 6 -1 12 -1c5 -1 13 -1 24 -2c9 -1 23 -3 41 -4zM412 385l21 34h-89h-28c-10 0 -20 0 -30 -1c-43 -64 -89 -128 -120 -197c51 -5 101 -11 152 -20z" />
    <glyph glyph-name="period" unicode="." horiz-adv-x="198" 
d="M65 -11c-29 0 -40 16 -34 49s23 49 52 49c30 0 42 -16 36 -49s-24 -49 -54 -49z" />
    <glyph glyph-name="question" unicode="?" horiz-adv-x="368" 
d="M269 290c-29 -27 -53 -56 -63 -115c-1 -5 -1 -11 -1 -17c0 -7 -1 -15 -2 -24c-2 -11 -11 -25 -23 -25c-9 0 -14 5 -17 15s-2 30 3 59c9 49 30 90 65 125l48 45c29 26 50 46 63 65c6 9 10 19 12 30c12 65 -27 110 -90 110c-29 0 -60 -8 -85 -24s-45 -39 -50 -67
c-1 -6 0 -10 1 -13s1 -8 0 -13c-2 -11 -10 -17 -23 -17c-17 0 -24 14 -19 41c8 44 34 77 67 100s75 34 114 34c51 0 86 -19 107 -47c21 -29 27 -67 20 -106c-3 -17 -8 -30 -23 -52c-17 -22 -48 -53 -104 -104zM134 46c4 21 17 31 38 31c22 0 31 -10 27 -31
c-4 -23 -17 -34 -39 -34c-21 0 -30 11 -26 34z" />
    <glyph glyph-name="questiondown" unicode="&#xbf;" horiz-adv-x="421" 
d="M297 565c-4 -21 -17 -31 -38 -31c-22 0 -31 10 -27 31c4 23 17 34 39 34c21 0 30 -11 26 -34zM162 321c29 27 53 56 63 115c1 5 1 11 1 17c0 7 1 15 2 24c2 11 11 25 23 25c9 0 14 -5 17 -15s2 -30 -3 -59c-9 -49 -30 -90 -65 -125l-48 -45c-29 -26 -50 -46 -63 -65
c-6 -9 -10 -19 -12 -30c-12 -65 27 -110 90 -110c29 0 60 8 85 24s45 39 50 67c1 6 0 10 -1 13s-1 8 0 13c2 11 10 17 23 17c17 0 24 -14 19 -41c-8 -44 -34 -77 -67 -100s-75 -34 -114 -34c-51 0 -86 19 -107 47c-21 29 -27 67 -20 106c3 17 8 30 23 52
c17 22 48 53 104 104z" />
    <glyph glyph-name="quotedbl" unicode="&#x22;" horiz-adv-x="186" 
d="M47 458l16 108c3 15 14 21 27 21c9 0 22 -5 19 -20l-13 -73c-1 -7 -1 -14 -1 -23c1 -9 0 -17 -1 -26c-2 -12 -10 -36 -29 -36c-27 0 -21 25 -18 49zM196 542l-21 -112c-3 -15 -14 -22 -27 -22c-12 0 -17 15 -14 32l12 112c3 19 13 34 30 34c19 0 24 -20 20 -44z" />
    <glyph glyph-name="quotesingle" unicode="'" horiz-adv-x="100" 
d="M47 458l16 108c3 15 14 21 27 21c9 0 22 -5 19 -20l-13 -73c-1 -7 -1 -14 -1 -23c1 -9 0 -17 -1 -26c-2 -12 -10 -36 -29 -36c-27 0 -21 25 -18 49z" />
    <glyph glyph-name="semicolon" unicode=";" horiz-adv-x="249" 
d="M116 148c-22 0 -31 11 -27 33c3 21 16 32 38 32s31 -11 28 -32c-4 -22 -17 -33 -39 -33zM140 -1c-2 -7 -5 -19 -13 -30c-8 -12 -20 -21 -40 -21c-5 0 -8 2 -7 5c1 6 6 12 14 18c8 5 11 10 12 14c2 13 -9 15 -21 18s-23 7 -20 28c3 15 17 32 36 32c8 0 20 -2 29 -12
s14 -27 10 -52z" />
    <glyph glyph-name="slash" unicode="/" horiz-adv-x="393" 
d="M30 -25l392 629c6 11 16 15 23 15c11 0 13 -7 11 -15c-28 -49 -67 -112 -108 -179c-21 -33 -41 -67 -62 -100l-113 -183c-16 -27 -30 -49 -40 -67c-6 -11 -24 -39 -42 -65c-19 -26 -41 -50 -53 -50c-8 0 -12 3 -10 10z" />
    <glyph glyph-name="underscore" unicode="_" 
d="M462 -50c12 0 16 -7 14 -18c-1 -9 -10 -17 -19 -17h-156c-13 0 -25 1 -35 2c-11 1 -24 1 -38 1c-15 0 -27 0 -37 1h-26h-19h-17c-7 0 -15 -1 -22 -2c-8 -2 -18 -3 -31 -3c-12 0 -30 2 -27 18c4 20 19 22 38 22h88c7 0 12 1 24 2c11 1 27 2 54 2c6 0 20 -1 40 -4
c21 -3 47 -4 80 -4h89z" />
    <glyph glyph-name="braceleft" unicode="{" horiz-adv-x="328" 
d="M188 540c3 12 11 28 23 41c10 12 25 21 41 21c17 0 22 -5 20 -13c-2 -11 -9 -15 -17 -18c-13 0 -24 -10 -34 -31c-9 -21 -18 -47 -24 -79c-3 -9 -5 -21 -8 -36c-6 -31 -18 -64 -37 -95c-9 -16 -21 -28 -34 -37c30 -28 33 -79 23 -131l-29 -141c-3 -15 0 -37 19 -37l34 11
c8 0 14 -9 13 -16c-2 -9 -11 -16 -22 -20c-11 -5 -24 -8 -32 -8c-35 0 -47 33 -41 66l26 145c3 17 5 43 2 64c-3 20 -11 38 -28 41c-2 1 -5 1 -9 2c-9 0 -17 1 -22 6c-3 2 -4 6 -3 11c1 9 6 14 15 16c28 5 51 24 66 43z" />
    <glyph glyph-name="braceright" unicode="}" horiz-adv-x="295" 
d="M199 521c2 -9 1 -17 1 -26c-11 -59 -17 -100 -16 -131c0 -31 7 -51 24 -66c2 -2 5 -4 10 -5c11 -4 21 -8 28 -15c3 -3 4 -7 4 -11c-2 -11 -8 -16 -19 -16c-43 0 -72 -42 -85 -119l-22 -124c-3 -17 -10 -36 -21 -51c-12 -15 -27 -25 -46 -25c-4 0 -17 3 -27 8
s-19 13 -17 24c2 8 6 12 15 12c3 0 9 -2 15 -5c7 -4 12 -6 17 -6c13 0 25 14 28 29l23 135c4 23 11 51 22 77s26 49 49 68c-30 31 -29 75 -25 122l4 36c3 21 7 44 7 63c-1 23 -4 38 -8 46c-5 7 -9 12 -14 14l-10 3c-3 0 -4 4 -3 13c2 8 9 12 24 12c16 0 27 -9 33 -21
c5 -13 8 -29 9 -41z" />
    <glyph glyph-name="bracketleft" unicode="[" horiz-adv-x="322" 
d="M137 589h95h21c6 0 14 1 24 2c23 0 35 -4 32 -20c-3 -13 -12 -16 -21 -19h-136s-1 -7 -4 -21c-7 -29 -18 -78 -31 -139c-6 -31 -13 -63 -20 -96c-7 -34 -13 -68 -20 -101c-7 -34 -12 -66 -17 -95c-5 -28 -11 -66 -17 -105s-9 -79 -10 -108c38 8 74 8 110 8
c11 0 16 -4 15 -11c-5 -28 -33 -28 -68 -28c-3 0 -5 0 -8 -1s-7 -1 -12 -1c-5 -1 -13 -1 -24 -2s-26 -1 -46 -1c-5 0 -8 8 -8 23c-1 15 2 33 5 54l20 110c4 25 11 56 19 100c9 44 20 102 34 182l17 91c3 21 6 37 9 48c2 11 3 18 4 21c0 3 1 5 1 7c1 8 7 33 13 57
c3 11 6 22 10 31c5 9 9 14 13 14z" />
    <glyph glyph-name="bracketright" unicode="]" horiz-adv-x="322" 
d="M263 590c8 -3 9 -12 10 -24s-2 -26 -4 -38l-3 -18c-2 -9 -3 -16 -3 -21s-1 -14 -3 -25l-72 -407c-2 -14 -4 -26 -5 -37s-3 -21 -5 -30l-12 -72c-1 -5 -4 -22 -9 -37c-2 -8 -6 -15 -9 -21s-5 -9 -8 -9c-23 0 -55 2 -82 6l-60 7c-8 1 -8 10 -7 19c2 8 9 12 22 12
c35 0 72 0 106 -8l56 259c12 60 23 113 31 160c14 79 23 139 26 182c4 43 4 64 3 65h-126c-15 0 -27 3 -24 18c2 15 14 17 30 17h79c8 0 16 0 24 1c7 1 16 1 27 1h18z" />
    <glyph glyph-name="parenleft" unicode="(" horiz-adv-x="345" 
d="M30 156l18 96c14 73 24 115 34 145s20 48 35 73c21 35 50 70 79 96s58 43 78 43c4 0 10 -1 17 -5c6 -5 9 -15 6 -31c-2 -13 -13 -24 -24 -35c-53 -45 -84 -85 -107 -134c-22 -49 -36 -108 -50 -189c-4 -24 -7 -41 -8 -51c-2 -11 -2 -20 -3 -28c-3 -57 -4 -91 0 -116
c3 -25 12 -41 24 -62c2 -4 5 -9 10 -16c10 -13 19 -29 25 -45c2 -9 3 -17 2 -24c-4 -23 -26 -31 -42 -31c-6 0 -12 2 -20 5c-46 29 -70 73 -80 125c-11 52 -7 113 5 177z" />
    <glyph glyph-name="parenright" unicode=")" horiz-adv-x="296" 
d="M207 151l-16 -62c-12 -47 -24 -79 -40 -107c-8 -15 -18 -29 -27 -42c-10 -14 -22 -29 -34 -46c-3 -3 -8 -8 -13 -14c-12 -13 -25 -27 -41 -36c-8 -5 -16 -7 -23 -7c-11 0 -17 8 -15 19c1 4 4 8 8 13c48 48 77 86 95 118c19 32 30 58 38 85c19 53 26 87 34 134l9 52
c18 100 22 180 -16 252c-2 5 -6 11 -12 18c-10 15 -22 30 -29 44c-4 7 -6 13 -5 18c1 7 8 18 17 18c11 0 24 -7 38 -20c30 -28 53 -85 61 -176c3 -45 0 -99 -11 -162z" />
    <glyph glyph-name="emdash" unicode="&#x2014;" horiz-adv-x="795" 
d="M728 280c13 0 19 -12 17 -24c-3 -16 -18 -23 -25 -23l-68 3c-35 3 -71 6 -125 8c-28 1 -65 1 -112 1c-11 0 -19 0 -26 -1s-14 -1 -23 -1c-10 -1 -21 -1 -34 -2c-14 -1 -33 -1 -58 -1c-39 0 -69 0 -88 -1s-33 -1 -42 -2c-10 -1 -17 -1 -21 -2s-10 -1 -18 -1
c-15 0 -34 5 -31 22c2 9 7 15 15 20c9 5 24 8 44 11c40 4 105 4 208 4c48 0 96 -2 142 -5l141 -9c11 0 26 1 43 2s38 1 61 1z" />
    <glyph glyph-name="endash" unicode="&#x2013;" 
d="M514 226h-452l14 80h452z" />
    <glyph glyph-name="hyphen" unicode="-" horiz-adv-x="525" 
d="M414 226h-292l14 80h292z" />
    <glyph glyph-name="guillemotleft" unicode="&#xab;" horiz-adv-x="403" 
d="M233 396h2c9 0 20 -10 18 -21c-2 -8 -12 -18 -24 -29c-6 -5 -13 -11 -20 -16c-8 -6 -15 -12 -21 -17c-25 -21 -41 -34 -55 -43c-7 -5 -13 -9 -19 -12s-12 -7 -19 -11c9 -13 17 -27 26 -40c9 -14 18 -27 29 -38l7 -5c7 -6 18 -16 25 -28c2 -6 3 -12 2 -18
c-1 -8 -16 -19 -24 -19c-9 1 -20 7 -32 19c-13 11 -30 31 -54 60c-14 17 -23 33 -29 49c-4 8 -5 15 -4 22c5 24 32 44 68 63c9 5 34 24 58 42c23 18 46 36 58 40zM352 395h5c3 0 20 -5 17 -22c-1 -8 -12 -19 -25 -31c-7 -6 -14 -12 -22 -18s-15 -12 -21 -17
c-16 -17 -33 -30 -47 -37c-14 -8 -29 -16 -41 -25c12 -28 33 -57 54 -78c2 -3 7 -7 11 -10c9 -7 16 -14 21 -24c2 -5 3 -11 2 -17c-1 -4 -9 -19 -24 -19c-8 0 -19 6 -34 17s-32 32 -51 62c-14 17 -25 33 -31 50c-3 8 -4 15 -3 21c1 5 3 11 14 21c10 10 29 23 62 47
c3 2 10 7 21 16c22 16 47 36 70 51c10 7 18 12 22 13z" />
    <glyph glyph-name="guillemotright" unicode="&#xbb;" horiz-adv-x="395" 
d="M37 98c-3 -1 -5 -2 -7 -2c-11 0 -21 9 -20 21c0 1 2 5 6 11c3 5 10 13 21 23c19 19 53 47 111 84c4 1 6 3 9 5c4 2 7 4 10 5c-14 28 -34 57 -57 81c-4 3 -13 10 -19 19c-8 8 -15 19 -13 30c1 7 13 19 25 19c15 0 27 -18 37 -30c8 -9 17 -18 27 -25c9 -8 17 -16 20 -25
l6 -7c7 -10 18 -26 25 -42c3 -8 4 -15 3 -21c-3 -16 -14 -25 -28 -32c-6 -4 -13 -8 -21 -11c-7 -3 -14 -7 -20 -12c-28 -21 -52 -40 -70 -57s-33 -29 -45 -34zM151 94c-12 -3 -23 5 -20 21c1 3 5 9 12 17c15 15 38 33 64 53c25 20 48 37 66 49l16 10c-8 13 -15 26 -24 41
c-8 15 -19 27 -31 37l-8 6c-8 7 -17 16 -23 27c-3 5 -4 11 -4 16c2 11 14 21 25 21c2 0 7 -2 13 -6c13 -8 28 -23 47 -42c9 -10 17 -21 25 -32l7 -10c8 -12 17 -27 23 -42c3 -8 4 -14 4 -18c-4 -19 -15 -27 -28 -34c-8 -4 -15 -7 -22 -10c-8 -3 -13 -6 -19 -11l-57 -44
c-13 -10 -22 -18 -29 -23c-14 -12 -20 -17 -37 -26z" />
    <glyph glyph-name="guilsinglleft" unicode="&#x2039;" horiz-adv-x="242" 
d="M192 391c8 7 16 14 25 14s20 -11 18 -22s-25 -35 -54 -59s-64 -49 -90 -60l-13 -9c7 -11 15 -25 25 -40c8 -16 19 -29 30 -38c1 -1 3 -3 7 -6c8 -6 18 -16 24 -27c3 -5 4 -11 3 -17c-2 -11 -10 -18 -24 -20c-9 0 -17 4 -21 11c-6 7 -12 13 -18 18c-20 24 -32 36 -39 44
c-8 8 -13 13 -19 25l-5 9c-6 8 -12 19 -15 29c-2 5 -3 9 -2 14c4 24 26 31 38 38c29 13 51 29 71 46c11 9 20 17 30 26c8 8 18 16 29 24z" />
    <glyph glyph-name="guilsinglright" unicode="&#x203a;" horiz-adv-x="243" 
d="M45 121c-8 -7 -16 -14 -25 -14s-20 11 -18 22s25 35 54 59s64 49 90 60l13 9c-7 11 -15 25 -25 40c-8 16 -19 29 -30 38c-1 1 -3 3 -7 6c-8 6 -18 16 -24 27c-3 5 -4 11 -3 17c2 11 10 18 24 20c9 0 17 -4 21 -11c6 -7 12 -13 18 -18c20 -24 32 -36 39 -44
c8 -8 13 -13 19 -25l5 -9c6 -8 12 -19 15 -29c2 -5 3 -9 2 -14c-4 -24 -26 -31 -38 -38c-29 -13 -51 -29 -71 -46c-11 -9 -20 -17 -30 -26c-8 -8 -18 -16 -29 -24z" />
    <glyph glyph-name="quotedblbase" unicode="&#x201e;" horiz-adv-x="236" 
d="M148 74c8 -16 11 -42 -5 -85l-4 -11l-6 -16c-3 -5 -3 -10 -5 -14c-2 -7 -11 -22 -27 -37c-14 -15 -36 -28 -60 -28c-5 0 -6 3 -4 8c4 11 13 19 25 28c10 8 21 16 25 31c10 27 -7 32 -25 38s-35 14 -23 47c4 12 15 26 27 38s28 21 43 21c13 0 31 -5 39 -20z" />
    <glyph glyph-name="quotedblleft" unicode="&#x201c;" horiz-adv-x="495" 
d="M196 572c18 33 33 56 49 69c15 13 34 19 62 19c7 0 14 -3 13 -10s-5 -13 -12 -16c-13 -7 -29 -15 -43 -33c-8 -9 -13 -23 -17 -42c7 -8 14 -14 21 -19c14 -9 28 -19 34 -33c3 -7 3 -17 1 -30c-3 -15 -12 -34 -26 -50s-32 -28 -52 -28c-39 0 -53 34 -44 83
c-5 15 -5 28 -3 41c2 11 8 28 17 49zM383 563c35 59 60 81 104 81c21 0 31 -3 30 -8c-3 -16 -20 -23 -37 -32s-36 -21 -40 -46c-3 -16 15 -23 33 -33s35 -24 30 -52c-4 -24 -17 -42 -32 -54c-16 -13 -35 -20 -51 -20c-43 0 -61 31 -52 79c-5 11 -7 20 -2 43c1 9 4 19 17 42z
" />
    <glyph glyph-name="quotedblright" unicode="&#x201d;" horiz-adv-x="425" 
d="M244 508c-34 -63 -60 -82 -108 -82c-18 0 -27 3 -26 9c2 12 19 19 36 29c18 10 35 23 40 51c-2 11 -8 21 -17 21c-29 8 -52 25 -46 62c4 25 18 44 34 56s35 17 51 17c35 0 60 -21 50 -78c5 -11 6 -24 3 -38c-2 -12 -5 -23 -17 -47zM430 499c-18 -35 -31 -57 -48 -70
c-16 -13 -36 -18 -61 -18c-11 0 -16 3 -15 10c1 6 5 11 11 15c14 7 31 18 46 35c7 9 12 21 15 37c-2 7 -7 13 -14 18c-14 10 -29 20 -38 36c-5 8 -6 19 -4 32c8 43 42 77 78 77c13 0 23 -4 33 -13c0 -1 3 -4 6 -9c5 -10 11 -29 12 -55c1 -13 -1 -29 -4 -46
c-2 -12 -5 -24 -17 -49z" />
    <glyph glyph-name="quoteleft" unicode="&#x2018;" horiz-adv-x="121" 
d="M29 516c2 11 10 32 25 51s37 35 66 35c5 0 7 -3 6 -8c-1 -8 -12 -19 -21 -26c-11 -7 -20 -13 -25 -21c-3 -5 -5 -11 -6 -18c-2 -11 2 -17 10 -20l9 -3c15 -5 26 -9 34 -16c7 -7 10 -18 7 -35c-5 -28 -28 -63 -63 -63c-23 0 -36 15 -42 38s-5 54 0 86z" />
    <glyph glyph-name="quoteright" unicode="&#x2019;" horiz-adv-x="178" 
d="M163 475c-10 -56 -43 -98 -90 -98c-5 0 -8 3 -7 8c2 9 12 20 21 27c8 7 14 12 18 19c2 3 4 8 5 15c1 29 -10 32 -25 32c-43 0 -53 29 -48 58c5 31 32 61 65 61c27 0 43 -12 51 -52c13 -13 17 -32 12 -58z" />
    <glyph glyph-name="quotesinglbase" unicode="&#x201a;" horiz-adv-x="246" 
d="M143 -11l-4 -11l-6 -16c-3 -5 -3 -10 -5 -14c-2 -7 -11 -22 -27 -37c-14 -15 -36 -28 -60 -28c-5 0 -6 3 -4 8c4 11 13 19 25 28c10 8 21 16 25 31c10 27 -7 32 -25 38s-35 14 -23 47c4 12 15 26 27 38s28 21 43 21c13 0 31 -5 39 -20c8 -16 11 -42 -5 -85z" />
    <glyph glyph-name="space" unicode=" " 
 />
    <glyph glyph-name="cent" unicode="&#xa2;" 
 />
    <glyph glyph-name="currency" unicode="&#xa4;" 
 />
    <glyph glyph-name="dollar" unicode="$" horiz-adv-x="548" 
d="M481 156c-8 -44 -50 -79 -99 -106c-50 -28 -106 -48 -141 -57c-3 -20 -6 -37 -9 -51c-5 -29 -7 -47 -15 -53c-4 -3 -10 -5 -19 -5c-11 0 -14 11 -14 27c-1 16 3 38 7 61l3 12h-24c-12 0 -30 1 -54 6c-10 -55 -17 -84 -22 -88c-5 -6 -11 -9 -17 -9c-20 0 -23 25 -20 40
l12 70c-19 3 -28 6 -32 10c-5 4 -4 9 -2 17v1c2 11 9 13 16 13l26 -4c4 16 7 32 11 48c6 32 15 73 32 127c9 27 21 59 35 96c-30 9 -55 28 -73 52c-17 24 -26 54 -20 89c7 40 32 71 64 95c32 23 71 39 105 48l41 11c0 3 0 7 1 10s1 5 1 6c2 9 7 23 19 23c15 0 20 -9 18 -36
h12c15 0 25 -1 39 -4c3 17 7 27 10 30c4 3 8 5 13 5c12 0 17 -8 19 -19s0 -22 -1 -30c16 -4 33 -8 37 -11c0 -1 4 -2 11 -5c13 -5 28 -14 39 -25c6 -5 8 -11 8 -16c-2 -7 -8 -16 -19 -16c-3 0 -8 2 -12 5c-11 7 -26 16 -42 25c-8 4 -18 7 -27 8l-10 -60
c-9 -51 -18 -95 -43 -168c43 -21 72 -37 83 -46c14 -12 30 -27 42 -47c11 -21 17 -47 11 -79zM357 558l1 6c-5 1 -11 3 -19 4c-9 1 -21 2 -38 3c-12 -69 -23 -107 -35 -138c-7 -15 -15 -30 -22 -43l-26 -48c13 -2 27 -3 42 -4c14 -1 27 -4 41 -7c0 1 0 4 2 7c0 3 3 12 7 28
c3 19 10 45 19 78c8 33 18 71 28 114zM139 368c12 -9 29 -17 37 -17c26 48 45 86 57 119c12 32 19 61 25 93c-33 -4 -69 -18 -97 -38c-29 -21 -52 -49 -58 -82c-4 -27 5 -52 36 -75zM173 239c-28 -69 -40 -137 -52 -208c10 -3 19 -5 35 -5c15 0 28 1 52 5
c16 54 33 104 49 151c17 47 27 84 32 111c-14 3 -49 7 -82 7h-10zM397 100c22 19 36 40 40 61c5 29 -11 55 -32 75s-52 36 -74 45c-5 -11 -9 -24 -13 -38c-4 -15 -9 -31 -15 -48l-26 -78c-10 -31 -22 -66 -25 -82c49 9 100 36 145 65z" />
    <glyph glyph-name="Euro" unicode="&#x20ac;" 
 />
    <glyph glyph-name="florin" unicode="&#x192;" 
 />
    <glyph glyph-name="sterling" unicode="&#xa3;" 
 />
    <glyph glyph-name="yen" unicode="&#xa5;" 
 />
    <glyph glyph-name="approxequal" unicode="&#x2248;" horiz-adv-x="433" 
d="M110 316l18 18c10 11 20 21 36 26c8 3 18 4 29 4c5 0 15 -1 29 -8s34 -18 62 -41c12 -7 22 -10 37 -10c13 0 20 11 27 21c6 10 13 20 29 20c9 0 12 -5 10 -14c-7 -41 -46 -61 -79 -61c-23 0 -45 15 -66 30c-22 15 -42 29 -62 29c-4 0 -8 -2 -13 -7
c-11 -9 -23 -21 -36 -30c-7 -5 -13 -7 -19 -7c-9 0 -13 4 -12 13c1 5 4 11 10 17zM93 206l17 18c10 11 21 21 37 26c7 3 18 4 29 4c5 0 14 -1 29 -8c14 -7 34 -18 62 -41c12 -7 22 -10 37 -10c13 0 20 11 27 21c6 10 12 20 28 20c9 0 12 -5 11 -14c-7 -41 -46 -61 -79 -61
c-23 0 -45 14 -67 30c-21 15 -41 29 -61 29c-4 0 -9 -2 -14 -7c-10 -9 -22 -21 -35 -30c-7 -5 -13 -7 -19 -7c-9 0 -14 4 -12 13c1 5 4 11 10 17z" />
    <glyph glyph-name="asciitilde" unicode="~" horiz-adv-x="433" 
d="M103 206l17 18c10 11 21 21 36 26c8 3 18 4 29 4c5 0 15 -1 30 -8c14 -7 34 -18 62 -41c11 -7 22 -10 37 -10c13 0 20 11 26 21s13 20 29 20c9 0 12 -5 11 -14c-8 -41 -46 -61 -79 -61c-23 0 -46 14 -67 30c-21 15 -42 29 -62 29c-4 0 -8 -2 -13 -7
c-11 -9 -23 -21 -35 -30c-7 -5 -14 -7 -20 -7c-9 0 -13 4 -11 13c1 5 4 11 10 17z" />
    <glyph glyph-name="divide" unicode="&#xf7;" 
d="M279 414c5 29 34 54 63 54s50 -25 45 -54s-35 -54 -64 -54s-49 25 -44 54zM66 203l10 52h458l-10 -52h-458zM213 44c5 29 35 54 64 54s49 -25 44 -54s-34 -54 -63 -54s-50 25 -45 54z" />
    <glyph glyph-name="equal" unicode="=" horiz-adv-x="467" 
d="M124 252c-10 3 -25 5 -21 26c4 24 27 26 46 26h4c35 0 69 -3 103 -6h23c26 -1 57 -5 79 -16c10 -5 14 -13 12 -24c-1 -9 -8 -16 -20 -19s-30 -5 -53 -5c-44 0 -81 3 -111 8c-31 5 -51 9 -62 10zM375 173c4 1 7 1 12 1c15 0 16 -7 15 -16c-5 -27 -40 -39 -81 -46
c-42 -7 -90 -7 -121 -7c-23 0 -60 0 -91 5c-31 4 -55 13 -52 30s14 23 29 23l22 -1c15 -1 32 -2 50 -5c17 -3 35 -4 52 -4c56 0 110 4 165 20z" />
    <glyph glyph-name="greater" unicode="&#x3e;" horiz-adv-x="444" 
d="M76 392h2c8 0 21 -5 35 -12c6 -4 14 -8 20 -12c6 -5 11 -9 17 -12c37 -24 68 -42 101 -58c15 -9 32 -17 47 -25c16 -8 33 -17 50 -27c3 -1 8 -3 15 -5c13 -4 28 -10 38 -18c5 -5 7 -10 6 -15c-1 -4 -5 -9 -13 -14c-16 -11 -39 -21 -65 -33c-15 -6 -26 -11 -37 -16
c-17 -8 -36 -16 -57 -23c-43 -16 -90 -34 -138 -57c-24 -11 -48 -24 -69 -39c-9 -5 -22 -11 -29 -11c-9 0 -15 9 -13 16c1 6 8 14 22 23c26 18 68 39 120 63c51 23 104 45 151 65l62 26c-41 17 -77 38 -115 60c-19 11 -39 22 -59 34l-65 37c-7 3 -18 9 -27 16
c-11 7 -20 15 -19 20c2 11 11 17 20 17z" />
    <glyph glyph-name="less" unicode="&#x3c;" horiz-adv-x="495" 
d="M434 417c11 0 18 -9 16 -18c-2 -11 -19 -21 -39 -29c-11 -5 -22 -9 -32 -13l-28 -13c-83 -45 -159 -79 -245 -111l254 -139c3 -2 7 -4 11 -6c10 -5 19 -12 26 -20c2 -4 3 -8 2 -13c-1 -9 -10 -15 -18 -15c-11 0 -35 16 -49 27c-55 33 -100 61 -143 85
c-44 23 -86 43 -132 60c-8 3 -18 9 -16 20s11 15 21 19c43 16 86 34 139 59c26 12 56 26 89 42l113 54c6 2 10 4 16 7c5 3 10 4 15 4z" />
    <glyph glyph-name="logicalnot" unicode="&#xac;" 
 />
    <glyph glyph-name="uni00B5" unicode="&#xb5;" 
 />
    <glyph glyph-name="minus" unicode="&#x2212;" horiz-adv-x="300" 
d="M41 247l2 7c2 12 18 18 38 22c21 4 46 5 66 5h40c17 0 34 -1 46 -5s19 -12 17 -27c-4 -23 -43 -29 -79 -29h-69c-7 0 -23 0 -38 4c-14 3 -25 10 -23 23z" />
    <glyph glyph-name="multiply" unicode="&#xd7;" horiz-adv-x="467" 
d="M375 241l-28 -24l-14 -10c-18 -12 -40 -29 -55 -41c-8 -6 -12 -9 -11 -10c18 -21 28 -37 35 -49c6 -13 13 -25 24 -38c10 -15 27 -40 23 -63c-1 -7 -10 -16 -25 -16c-16 0 -32 24 -47 53c-8 14 -15 29 -23 44l-21 39l-43 -38l-62 -71c-3 -4 -6 -8 -7 -12
c-6 -9 -10 -16 -18 -20c-4 -2 -9 -3 -16 -3c-12 0 -17 6 -15 19c3 16 22 43 36 60c6 9 31 30 54 50c12 10 23 19 32 28c9 8 14 14 14 17c0 1 -3 6 -8 13c-14 14 -32 34 -52 52c-11 9 -19 16 -27 21c-3 1 -17 7 -29 15c-11 8 -23 18 -21 30c2 11 11 14 20 14
c20 0 37 -9 61 -28c11 -9 25 -21 40 -36c14 -15 31 -32 50 -52c4 3 9 7 14 12c9 8 25 22 53 43c13 10 31 23 53 38c1 1 3 3 9 7c10 8 25 18 39 25c7 3 13 5 18 5c9 0 19 -4 17 -15s-16 -22 -30 -31l-22 -14c-8 -5 -14 -9 -18 -14z" />
    <glyph glyph-name="percent" unicode="%" horiz-adv-x="657" 
d="M590 612c4 7 11 8 15 8c7 0 17 -4 16 -13c-2 -12 -9 -19 -17 -28l-90 -106c-1 -2 -6 -8 -14 -18l-71 -85l-45 -54c-30 -36 -58 -70 -78 -93c-19 -21 -30 -36 -47 -59c-2 -3 -7 -9 -13 -18c-16 -19 -36 -44 -60 -72c-25 -28 -47 -52 -66 -67c-9 -8 -16 -12 -21 -12
c-9 0 -12 5 -10 15c11 20 29 44 49 66l55 61zM127 495c27 40 72 61 115 61c61 0 104 -41 92 -104c-7 -41 -27 -71 -50 -90c-25 -20 -54 -29 -79 -29c-29 0 -57 11 -76 30c-21 19 -32 45 -27 77c3 17 12 36 25 55zM183 382c13 -3 23 -5 30 -5c41 0 73 27 80 68
c8 45 -23 69 -60 69c-19 0 -39 -7 -56 -19c-17 -13 -32 -32 -35 -53c-5 -29 15 -51 41 -60zM538 253c19 0 39 -7 53 -21c13 -14 22 -34 18 -55c-5 -28 -20 -58 -42 -80s-51 -38 -83 -38c-28 0 -52 11 -67 30c-14 19 -22 42 -17 69c6 36 26 59 52 74c25 15 57 21 86 21z
M498 105h1c16 0 32 9 43 22c11 12 19 29 22 42c5 31 -17 42 -41 42c-35 0 -74 -21 -80 -57c-6 -33 24 -49 55 -49z" />
    <glyph glyph-name="perthousand" unicode="&#x2030;" 
 />
    <glyph glyph-name="plus" unicode="+" horiz-adv-x="450" 
d="M376 222c19 -3 26 -17 23 -34c-3 -18 -24 -27 -63 -27h-64c-2 -17 -3 -31 -5 -44c-1 -13 -3 -25 -5 -37c-8 -47 -16 -60 -43 -60c-23 0 -28 29 -26 62c0 16 2 32 4 49c2 16 3 28 3 36h-5c-21 1 -52 3 -78 9c-27 6 -46 16 -43 35c5 31 32 34 59 34c10 0 21 -1 34 -2
c12 -1 26 -2 41 -2c3 31 7 58 12 81c3 20 22 35 39 35c15 0 21 -14 22 -37s-2 -53 -5 -85c11 0 30 -2 49 -5s39 -5 51 -8z" />
    <glyph glyph-name="plusminus" unicode="&#xb1;" horiz-adv-x="432" 
d="M388 382c20 -3 26 -17 23 -34c-3 -19 -23 -27 -63 -27h-64c-4 -33 -6 -57 -10 -81c-8 -47 -16 -60 -42 -60c-45 0 -20 114 -19 147h-5c-42 2 -128 6 -122 44c6 31 32 34 59 34c20 0 46 -4 76 -4c3 30 7 59 11 81c3 20 22 35 39 35c30 0 25 -59 18 -122
c20 -1 75 -8 99 -13zM116 74c4 23 66 27 105 27h40c34 0 67 -3 62 -32c-4 -23 -43 -29 -79 -29h-69c-14 0 -65 1 -60 27z" />
    <glyph glyph-name="bar" unicode="|" 
 />
    <glyph glyph-name="brokenbar" unicode="&#xa6;" 
 />
    <glyph glyph-name="at" unicode="@" horiz-adv-x="762" 
d="M671 184c13 0 15 -10 13 -18c-1 -8 -10 -22 -19 -33c-32 -49 -81 -84 -136 -105s-114 -31 -167 -31c-76 0 -161 23 -211 69s-72 105 -72 173c0 34 3 68 9 103c19 105 64 169 121 205c58 36 128 46 195 46c88 0 167 -17 220 -56c52 -39 78 -99 63 -183
c-7 -43 -24 -86 -57 -118c-34 -32 -85 -53 -158 -53c-56 0 -93 15 -108 51c-27 -23 -61 -35 -92 -35c-36 0 -68 13 -89 36s-32 54 -25 93c2 14 8 29 16 45c27 44 58 71 92 88c34 16 67 22 98 22c12 0 24 -1 36 -2c11 -1 22 -3 34 -4c2 9 12 22 21 22c14 0 20 -7 17 -21
c0 -4 -6 -16 -15 -36c-10 -21 -22 -52 -36 -93c-10 -28 -14 -45 -19 -70c-4 -21 -1 -37 12 -47s37 -15 76 -15c97 0 148 56 163 143c15 81 -19 130 -70 159s-121 38 -177 38c-100 0 -166 -22 -209 -61s-64 -93 -75 -157c-14 -80 -14 -157 17 -204s80 -77 140 -92
c29 -7 59 -11 90 -11c111 0 206 33 266 114c4 5 10 15 17 23c6 8 14 15 19 15zM362 278c5 10 9 21 12 34c5 24 15 53 28 86c6 16 13 31 18 46c-26 4 -39 4 -62 4c-35 0 -72 -11 -103 -32s-56 -52 -63 -92c-5 -28 3 -50 21 -65c16 -16 39 -25 64 -25c32 0 64 16 85 45v-1z
" />
    <glyph glyph-name="ampersand" unicode="&#x26;" horiz-adv-x="512" 
d="M300 550c21 5 37 8 46 8c17 0 47 -7 71 -22c24 -16 41 -40 35 -73c-4 -25 -26 -46 -55 -64s-64 -32 -92 -41c-14 -5 -27 -8 -36 -11c-11 -3 -17 -4 -18 -4c13 -37 23 -69 36 -98s28 -58 46 -87c7 11 30 33 47 33c5 0 12 -2 10 -13c-3 -19 -14 -29 -27 -40l-9 -8
c-1 -1 1 -4 5 -10c7 -12 17 -28 23 -43c4 -8 5 -14 4 -19c-1 -7 -7 -14 -16 -14c-12 0 -19 9 -25 21l-9 19c-3 7 -6 12 -11 17c-47 -37 -117 -65 -180 -65c-36 0 -65 9 -85 26c-21 17 -31 43 -25 79c8 44 26 78 45 104c9 13 18 23 27 32c10 9 18 16 24 22c43 36 60 47 81 59
c-3 37 -2 64 1 79c8 47 36 97 87 113zM245 426c-4 -19 -2 -42 1 -50l41 12c14 3 26 8 39 13c4 1 10 4 19 7c17 6 37 16 54 32c8 7 14 17 17 28l1 4c3 19 -11 32 -28 40c-18 8 -38 11 -49 11c-51 0 -81 -20 -95 -97zM96 78c18 -7 33 -10 53 -10c47 0 95 8 157 61
c-37 60 -69 123 -87 195c-6 -3 -9 -6 -13 -9c-3 -3 -9 -6 -15 -10c-3 -3 -11 -9 -23 -18c-24 -19 -53 -48 -77 -84c-12 -18 -19 -36 -22 -55c-9 -47 7 -58 27 -70z" />
    <glyph glyph-name="paragraph" unicode="&#xb6;" 
 />
    <glyph glyph-name="copyright" unicode="&#xa9;" 
 />
    <glyph glyph-name="registered" unicode="&#xae;" 
 />
    <glyph glyph-name="section" unicode="&#xa7;" 
 />
    <glyph glyph-name="trademark" unicode="&#x2122;" horiz-adv-x="675" 
d="M584 262l29 258c-11 -16 -24 -40 -40 -68c-38 -71 -56 -120 -69 -152c-14 -33 -22 -48 -39 -48l-17 9c-2 9 -7 34 -10 58l-11 91c-3 32 -7 65 -15 88l-56 -222c-2 -12 -13 -25 -28 -25c-12 0 -23 11 -20 28c4 5 11 30 22 75c9 44 25 111 47 201c9 28 14 37 37 37
c3 0 10 -1 18 -4c7 -3 15 -7 13 -15l34 -229c16 44 44 110 75 164c29 54 60 96 83 96h5c6 -1 13 -4 20 -9c3 -3 5 -6 5 -11c-12 -113 -19 -189 -24 -238c-2 -25 -3 -43 -5 -55c-1 -12 -1 -20 -2 -24c-2 -15 -17 -22 -29 -22c-7 0 -25 4 -23 17zM307 531l-29 3
c-13 0 -24 -1 -33 -4l-34 -191c-3 -19 -7 -40 -13 -57c-7 -17 -14 -29 -22 -29h-13c-17 0 -21 10 -17 37l10 57c8 33 14 62 19 87l14 80c2 15 -11 19 -30 20c-9 1 -20 1 -31 1c-23 0 -41 1 -52 9c-6 3 -8 9 -7 18c2 9 11 28 24 28h172c1 0 5 0 11 1c7 1 14 1 22 1
c5 0 18 -1 29 -4c10 -4 19 -11 17 -23c-5 -25 -18 -34 -37 -34z" />
    <glyph glyph-name="degree" unicode="&#xb0;" 
 />
    <glyph glyph-name="asciicircum" unicode="^" horiz-adv-x="401" 
d="M329 272c-2 -9 -11 -19 -20 -19c-15 0 -18 17 -20 30c-3 21 -10 39 -20 58c-27 56 -44 114 -53 178l-27 -38c-8 -12 -16 -23 -23 -32c-6 -8 -16 -22 -28 -41c-26 -39 -57 -83 -83 -114c-14 -16 -24 -24 -32 -24c-11 0 -13 11 -12 16c0 4 8 16 18 29c4 7 9 13 14 20l13 16
l46 60c27 36 52 69 74 105c3 4 6 10 9 18c7 16 16 31 26 43c5 5 10 8 15 8c7 0 14 -7 20 -21c10 -29 19 -70 26 -106c5 -37 10 -46 22 -70c11 -24 24 -53 32 -80c4 -14 5 -26 3 -36z" />
    <glyph glyph-name="dagger" unicode="&#x2020;" 
 />
    <glyph glyph-name="daggerdbl" unicode="&#x2021;" 
 />
    <glyph glyph-name="acute" unicode="&#xb4;" 
 />
    <glyph glyph-name="breve" unicode="&#x2d8;" 
 />
    <glyph glyph-name="caron" unicode="&#x2c7;" 
 />
    <glyph glyph-name="cedilla" unicode="&#xb8;" 
 />
    <glyph glyph-name="circumflex" unicode="&#x2c6;" 
 />
    <glyph glyph-name="dieresis" unicode="&#xa8;" 
 />
    <glyph glyph-name="dotaccent" unicode="&#x2d9;" 
 />
    <glyph glyph-name="grave" unicode="`" 
 />
    <glyph glyph-name="hungarumlaut" unicode="&#x2dd;" 
 />
    <glyph glyph-name="macron" unicode="&#xaf;" 
 />
    <glyph glyph-name="ogonek" unicode="&#x2db;" 
 />
    <glyph glyph-name="ring" unicode="&#x2da;" 
 />
    <glyph glyph-name="tilde" unicode="&#x2dc;" 
 />
  </font>
</defs>
</svg>
